<?xml version="1.0" encoding="UTF-8" standalone="no"?>
<!-- Created with Inkscape (http://www.inkscape.org/) -->

<svg
   xmlns:dc="http://purl.org/dc/elements/1.1/"
   xmlns:cc="http://creativecommons.org/ns#"
   xmlns:rdf="http://www.w3.org/1999/02/22-rdf-syntax-ns#"
   xmlns:svg="http://www.w3.org/2000/svg"
   xmlns="http://www.w3.org/2000/svg"
   xmlns:sodipodi="http://sodipodi.sourceforge.net/DTD/sodipodi-0.dtd"
   xmlns:inkscape="http://www.inkscape.org/namespaces/inkscape"
   width="297mm"
   height="420mm"
   viewBox="0 0 297 420"
   version="1.1"
   id="svg460"
   inkscape:version="0.92.2 (5c3e80d, 2017-08-06)"
   sodipodi:docname="AWS_ECS_EC2_Compute_Container.svg">
  <defs
     id="defs454" />
  <sodipodi:namedview
     id="base"
     pagecolor="#ffffff"
     bordercolor="#666666"
     borderopacity="1.0"
     inkscape:pageopacity="0.0"
     inkscape:pageshadow="2"
     inkscape:zoom="0.35"
     inkscape:cx="400"
     inkscape:cy="560"
     inkscape:document-units="mm"
     inkscape:current-layer="layer1"
     showgrid="false"
     inkscape:window-width="1920"
     inkscape:window-height="1001"
     inkscape:window-x="-9"
     inkscape:window-y="-9"
     inkscape:window-maximized="1" />
  <metadata
     id="metadata457">
    <rdf:RDF>
      <cc:Work
         rdf:about="">
        <dc:format>image/svg+xml</dc:format>
        <dc:type
           rdf:resource="http://purl.org/dc/dcmitype/StillImage" />
        <dc:title></dc:title>
      </cc:Work>
    </rdf:RDF>
  </metadata>
  <g
     inkscape:label="Layer 1"
     inkscape:groupmode="layer"
     id="layer1"
     transform="translate(0,123)">
    <g
       id="g593">
      <g
         id="g572">
        <g
           id="g553">
          <g
             id="g536">
            <g
               id="g521">
              <g
                 id="g508">
                <g
                   id="g497">
                  <g
                     transform="translate(-0.75595905,-46.869048)"
                     id="g473">
                    <path
                       inkscape:connector-curvature="0"
                       id="path479"
                       d="m 4.4915448,199.34494 c 0.3835926,-6.34324 0.699956,-45.99956 0.7030297,-88.12516 l 0.00559,-76.591995 H 147.78869 290.37722 l 0.005,76.591995 c 0.003,42.1256 0.31944,81.78192 0.70304,88.12516 l 0.69762,11.53316 H 147.78869 3.7941037 Z M 28.703653,186.2393 c 1.071843,-0.74514 1.300129,-15.5529 1.080216,-70.068 L 29.505026,47.048109 h -4.860973 -4.860972 l -0.278656,69.406121 c -0.262463,65.3733 -0.168315,69.43766 1.620324,69.9489 3.149726,0.90027 6.141275,0.8356 7.578904,-0.16383 z m 24.84497,0 c 1.071844,-0.74514 1.30013,-15.5529 1.080217,-70.068 L 54.349997,47.048109 h -4.860973 -4.860972 l -0.278656,69.406121 c -0.262463,65.3733 -0.168315,69.43766 1.620324,69.9489 3.149726,0.90027 6.141275,0.8356 7.578903,-0.16383 z m 24.844971,0 c 1.071844,-0.74514 1.30013,-15.5529 1.080217,-70.068 L 79.194968,47.048109 h -4.860973 -4.860972 l -0.278656,69.406121 c -0.262463,65.3733 -0.168315,69.43766 1.620324,69.9489 3.149726,0.90027 6.141275,0.8356 7.578903,-0.16383 z m 149.069826,0 c 1.07184,-0.74514 1.30013,-15.5529 1.08022,-70.068 l -0.27885,-69.123191 h -4.86097 -4.86097 l -0.27865,69.406121 c -0.26248,65.3733 -0.16832,69.43766 1.62032,69.9489 3.14973,0.90027 6.14128,0.8356 7.5789,-0.16383 z m 24.84498,0 c 1.07183,-0.74514 1.30012,-15.5529 1.08021,-70.068 l -0.27885,-69.123191 h -4.86097 -4.86097 l -0.27865,69.406121 c -0.26247,65.3733 -0.16832,69.43766 1.62032,69.9489 3.14973,0.90027 6.14128,0.8356 7.57891,-0.16383 z m 24.84497,0 c 1.07183,-0.74514 1.30012,-15.5529 1.08021,-70.068 l -0.27884,-69.123191 h -4.86098 -4.86097 l -0.27865,69.406121 c -0.26247,65.3733 -0.16832,69.43766 1.62032,69.9489 3.14973,0.90027 6.14128,0.8356 7.57891,-0.16383 z M 130.58798,168.64724 c 0.54861,-1.5801 0.99747,-4.96744 0.99747,-7.52745 0,-3.74925 0.3908,-4.65454 2.00931,-4.65454 1.65073,0 2.12326,1.20907 2.64788,6.77531 0.70993,7.5323 2.88591,10.51222 6.24056,8.54621 1.47162,-0.86244 2.03794,-2.83317 2.28126,-7.93866 0.28047,-5.88468 0.61214,-6.79142 2.48412,-6.79142 1.81935,0 2.25219,1.00071 2.74157,6.33836 0.65597,7.15473 3.16021,10.37003 6.53586,8.39172 1.47162,-0.86244 2.03794,-2.83317 2.28126,-7.93866 0.28047,-5.88468 0.61214,-6.79142 2.48412,-6.79142 1.75237,0 2.21481,0.89369 2.44836,4.73155 0.53428,8.78001 1.10193,10.05455 4.47805,10.05455 3.61166,0 4.41586,-1.63328 4.41586,-8.96841 0,-4.81045 0.51564,-5.7909 6.4813,-12.32357 5.51487,-6.03904 7.08532,-7.11491 10.53211,-7.21524 6.32655,-0.18415 9.41879,-1.50475 9.77407,-4.1742 0.45991,-3.45564 -1.75599,-4.96566 -7.91112,-5.39105 -4.62702,-0.31979 -5.42162,-0.74119 -5.71884,-3.03289 -0.30866,-2.37991 0.11247,-2.66149 3.98049,-2.66149 5.93083,0 9.8674,-1.81818 9.8674,-4.55744 0,-3.35485 -2.15353,-4.71275 -8.12905,-5.12573 -4.62702,-0.31978 -5.42162,-0.74118 -5.71884,-3.03288 -0.31538,-2.43165 0.0872,-2.6615 4.66193,-2.6615 5.88847,0 9.18596,-1.6285 9.18596,-4.53659 0,-3.5345 -2.35021,-4.92651 -8.31767,-4.92651 -5.38668,0 -5.72514,-0.17483 -5.72514,-2.95722 0,-2.782392 0.33846,-2.957222 5.72514,-2.957222 5.96746,0 8.31767,-1.392016 8.31767,-4.926511 0,-2.960446 -3.32241,-4.536593 -9.56283,-4.536593 -4.96402,0 -5.56211,-0.315594 -7.66741,-4.045799 -1.25587,-2.22519 -3.96905,-5.134886 -6.02929,-6.465991 -3.54744,-2.29198 -3.74588,-2.762482 -3.74588,-8.881476 0,-4.296712 -0.56867,-7.084004 -1.69748,-8.320109 -3.60747,-3.950351 -6.24109,-1.192548 -6.92733,7.25396 -0.47644,5.864287 -0.86958,6.856204 -2.71746,6.856204 -1.8563,0 -2.20755,-0.910776 -2.49517,-6.470026 -0.34348,-6.639289 -1.56011,-9.498962 -4.04124,-9.498962 -2.93576,0 -4.80586,3.688067 -4.80586,9.477786 0,10.171429 -5.06081,8.849169 -5.61772,-1.467769 -0.62553,-11.587807 -6.92327,-10.361935 -8.25728,1.607301 -0.50296,4.512804 -1.17701,6.35167 -2.32824,6.35167 -1.15123,0 -1.82527,-1.838866 -2.32823,-6.35167 -1.43684,-12.891895 -7.69227,-13.083266 -8.25718,-0.252609 -0.30629,6.95658 -0.51835,7.470369 -4.01593,9.730142 -2.03092,1.312162 -4.72012,4.206359 -5.97599,6.431549 -2.10529,3.730205 -2.70339,4.045799 -7.6674,4.045799 -6.649299,0 -9.562832,1.595894 -9.562832,5.238059 0,3.372744 1.761084,4.225045 8.730072,4.225045 4.91792,0 5.31274,0.215381 5.31274,2.898192 0,2.69159 -0.4348,2.92348 -6.09943,3.25294 -6.833267,0.39743 -9.462901,2.76684 -7.285937,6.56491 0.856537,1.49437 2.901614,2.16933 7.353737,2.42703 5.65537,0.32734 6.13919,0.57278 5.82937,2.95722 -0.2752,2.11803 -1.13915,2.65872 -4.65872,2.91554 -7.760199,0.56625 -9.181832,1.25805 -9.181832,4.46807 0,3.50407 3.307957,5.27119 9.867402,5.27119 3.86801,0 4.28915,0.28158 3.98048,2.66149 -0.30379,2.34236 -1.12235,2.73242 -6.82648,3.25295 -6.337463,0.57831 -6.481294,0.66901 -6.481294,4.08677 0,3.87801 2.096407,5.04432 9.451894,5.25842 3.44679,0.10033 5.01724,1.1762 10.5321,7.21524 6.33604,6.93826 6.4813,7.24182 6.4813,13.54443 0,4.8224 0.45995,6.72897 1.82513,7.56559 2.49202,1.52714 4.62636,0.42182 5.81913,-3.01359 z m -9.16856,-25.28452 -2.79656,-3.63942 v -23.62574 c 0,-26.383237 0.6247,-29.37556 6.60967,-31.660234 4.54812,-1.736181 40.56421,-1.736181 45.11233,0 5.98497,2.284674 6.60967,5.276997 6.60967,31.660234 v 23.62574 l -2.79656,3.63942 -2.79657,3.63942 h -23.57271 -23.5727 z m 41.91683,-12.42631 c 0.36063,-1.02909 0.65568,-8.46256 0.65568,-16.51881 0,-13.27116 -0.19636,-14.762817 -2.08941,-15.872245 -1.14918,-0.673478 -7.5004,-1.224507 -14.11383,-1.224507 -6.61343,0 -12.96464,0.551029 -14.11382,1.224507 -1.89306,1.109428 -2.08942,2.601085 -2.08942,15.872245 0,8.05625 0.29505,15.48972 0.65568,16.51881 0.98042,2.79776 30.11471,2.79776 31.09512,0 z m -23.96467,-15.57652 0.31549,-9.16738 h 8.10162 8.10162 l 0.31549,9.16738 0.3155,9.16738 h -8.73261 -8.73261 z"
                       style="fill:#f39a5b;stroke-width:1.13038695" />
                    <path
                       inkscape:connector-curvature="0"
                       id="path477"
                       d="M 5.2001631,122.75294 V 34.627785 H 147.78869 290.37722 V 122.75294 210.8781 H 147.78869 5.2001631 Z M 31.01833,186.7701 c 0.906873,-1.19657 1.158792,-20.33811 0.942428,-71.60827 -0.328911,-77.939597 0.309565,-72.202133 -8.038519,-72.235716 -8.66837,-0.03487 -7.919915,-6.910672 -7.919915,72.757476 0,55.96489 0.291003,71.46819 1.350271,71.93623 3.004232,1.32745 12.461339,0.73942 13.665735,-0.84972 z m 24.844971,0 c 0.906873,-1.19657 1.158792,-20.33811 0.942428,-71.60827 -0.328911,-77.939597 0.309565,-72.202133 -8.038519,-72.235716 -8.66837,-0.03487 -7.919915,-6.910672 -7.919915,72.757476 0,55.96489 0.291003,71.46819 1.350271,71.93623 3.004232,1.32745 12.461339,0.73942 13.665735,-0.84972 z m 24.844971,0 c 0.906873,-1.19657 1.158792,-20.33811 0.942428,-71.60827 -0.328911,-77.939597 0.309565,-72.202133 -8.038519,-72.235716 -8.668371,-0.03487 -7.919915,-6.910672 -7.919915,72.757476 0,55.96489 0.291003,71.46819 1.35027,71.93623 3.004233,1.32745 12.46134,0.73942 13.665736,-0.84972 z m 149.069828,0 c 0.90687,-1.19657 1.15879,-20.33811 0.94242,-71.60827 -0.3289,-77.939597 0.30957,-72.202133 -8.03851,-72.235716 -8.66838,-0.03487 -7.91992,-6.910672 -7.91992,72.757476 0,55.96489 0.291,71.46819 1.35027,71.93623 3.00423,1.32745 12.46134,0.73942 13.66574,-0.84972 z m 24.84497,0 c 0.90688,-1.19657 1.15879,-20.33811 0.94243,-71.60827 -0.32891,-77.939597 0.30956,-72.202133 -8.03852,-72.235716 -8.66838,-0.03487 -7.91992,-6.910672 -7.91992,72.757476 0,55.96489 0.291,71.46819 1.35027,71.93623 3.00424,1.32745 12.46134,0.73942 13.66574,-0.84972 z m 24.84497,0 c 0.90688,-1.19657 1.15879,-20.33811 0.94243,-71.60827 -0.32891,-77.939597 0.30956,-72.202133 -8.03852,-72.235716 -8.66838,-0.03487 -7.91992,-6.910672 -7.91992,72.757476 0,55.96489 0.291,71.46819 1.35027,71.93623 3.00424,1.32745 12.46134,0.73942 13.66574,-0.84972 z M 130.69023,172.2509 c 1.39597,-1.3834 1.97544,-3.63882 1.97544,-7.68877 0,-3.1521 0.48609,-5.73111 1.08021,-5.73111 0.59412,0 1.08022,2.48652 1.08022,5.52558 0,6.2618 2.20373,9.85197 6.04735,9.85197 3.41057,0 5.83503,-4.28704 5.83503,-10.31775 0,-2.78289 0.48609,-5.0598 1.08021,-5.0598 0.59412,0 1.08022,2.62348 1.08022,5.82995 0,6.49165 1.88398,9.5476 5.88607,9.5476 3.51579,0 5.16003,-2.71459 5.75564,-9.50235 0.68535,-7.81039 2.4011,-7.52877 2.4011,0.39411 0,7.02661 1.25352,9.10824 5.48486,9.10824 4.05713,0 5.42507,-2.37609 6.10666,-10.60716 0.53048,-6.4063 0.94,-7.38302 3.95203,-9.42559 1.84812,-1.2533 4.23838,-3.91238 5.31168,-5.90909 1.79836,-3.34557 2.41273,-3.63036 7.83157,-3.63036 4.43983,0 6.40929,-0.57948 8.04055,-2.36578 4.73039,-5.18001 0.81535,-10.64599 -7.62527,-10.64599 -3.36815,0 -5.20868,-0.45384 -4.79722,-1.18289 0.36719,-0.65059 3.04185,-1.18289 5.94368,-1.18289 4.2276,0 5.61026,-0.52244 6.95767,-2.62897 2.2224,-3.47451 2.12113,-5.1699 -0.47886,-8.01702 -1.59104,-1.74226 -3.60072,-2.36577 -7.62527,-2.36577 -3.36815,0 -5.20868,-0.45384 -4.79722,-1.18289 0.36719,-0.65059 2.99407,-1.18289 5.83752,-1.18289 6.22458,0 9.39978,-2.89831 8.32283,-7.59706 -0.69018,-3.0113 -4.45458,-4.83728 -11.99992,-5.82074 -2.44054,-0.3181 -2.12453,-0.466145 1.27995,-0.599621 9.2567,-0.362919 13.07466,-4.460769 9.5869,-10.2897 -1.48917,-2.488764 -2.56652,-2.899303 -7.60852,-2.899303 -3.38867,0 -6.34184,-0.625566 -6.98021,-1.47861 -0.60858,-0.813235 -2.35044,-3.180132 -3.87079,-5.259773 -1.52034,-2.07964 -3.64866,-4.088536 -4.72958,-4.464215 -1.51615,-0.526946 -2.09992,-2.308708 -2.55432,-7.796185 -0.67883,-8.19785 -2.05021,-10.573416 -6.10386,-10.573416 -4.14395,0 -5.48486,2.065083 -5.48486,8.446983 0,7.574586 -1.76254,8.332602 -2.40302,1.033465 -0.61128,-6.966452 -2.24343,-9.480448 -6.15493,-9.480448 -4.14395,0 -5.48486,2.065083 -5.48486,8.446983 0,3.084429 -0.4861,5.93703 -1.08022,6.339117 -0.66499,0.450052 -1.08021,-1.536736 -1.08021,-5.168693 0,-6.848424 -1.87733,-9.617407 -6.52045,-9.617407 -3.8857,0 -5.36193,2.746777 -5.36193,9.976783 0,2.970418 -0.4861,5.400761 -1.08022,5.400761 -0.59412,0 -1.08021,-2.430343 -1.08021,-5.400761 0,-7.240498 -1.47495,-9.976783 -5.37784,-9.976783 -4.34763,0 -6.50454,3.787186 -6.50454,11.420924 0,5.077964 -0.372,6.29226 -2.11299,6.89735 -1.16214,0.403909 -3.35691,2.435902 -4.87725,4.515542 -1.52035,2.079641 -3.26221,4.446538 -3.8708,5.259773 -0.63224,0.844842 -3.56304,1.47861 -6.8377,1.47861 -6.86069,0 -10.001429,2.722134 -8.864415,7.682947 0.808477,3.5274 4.207362,5.265888 10.700285,5.473065 4.09246,0.130583 3.90676,0.241682 -1.9607,1.173082 -6.575701,1.04382 -9.181834,3.06033 -9.181834,7.10448 0,3.70877 3.094636,5.77285 8.655134,5.77285 2.8931,0 5.5606,0.5323 5.92778,1.18289 0.41147,0.72905 -1.42907,1.18289 -4.79722,1.18289 -4.024542,0 -6.034225,0.62351 -7.625262,2.36577 -4.713383,5.16138 -1.320933,10.64599 6.584962,10.64599 2.84345,0 5.47034,0.5323 5.83752,1.18289 0.40993,0.72631 -1.34895,1.18289 -4.55686,1.18289 -8.616345,0 -12.728622,5.41523 -8.23831,10.84857 1.339706,1.62107 3.354798,2.1632 8.04055,2.1632 5.83479,0 6.38326,0.24269 8.20425,3.63036 1.0733,1.99671 3.53127,4.70162 5.46216,6.01092 3.23142,2.19117 3.5107,2.86949 3.5107,8.52675 0,9.8629 4.83481,14.473 9.90694,9.4465 z m -7.68625,-28.73144 c -3.06958,-3.36133 -3.52033,-7.97369 -3.12068,-31.93304 0.47209,-28.303075 -1.88981,-26.094452 27.90539,-26.094452 29.7952,0 27.4333,-2.208623 27.9054,26.094452 0.39965,23.95935 -0.0511,28.57171 -3.12068,31.93304 -1.94675,2.13178 -3.75739,2.2998 -24.78472,2.2998 -21.02732,0 -22.83797,-0.16802 -24.78471,-2.2998 z m 40.37069,-10.20502 c 1.38025,-1.51145 1.69748,-4.93004 1.69748,-18.29315 0,-15.037494 -0.17759,-16.538393 -2.08942,-17.658823 -2.71756,-1.592631 -27.67051,-1.592631 -30.38808,0 -1.91183,1.12043 -2.08942,2.621329 -2.08942,17.658823 0,13.36311 0.31723,16.7817 1.69749,18.29315 2.4867,2.72306 28.68525,2.72306 31.17195,0 z"
                       style="fill:#f38435;stroke-width:1.13038695" />
                    <path
                       inkscape:connector-curvature="0"
                       id="path475"
                       d="m 5.2001631,203.18932 v -7.68877 H 147.78869 290.37722 v 7.68877 7.68878 H 147.78869 5.2001631 Z M 122.9623,141.43634 c -2.20118,-3.06431 -2.28467,-4.22227 -1.96878,-27.30379 0.30469,-22.263414 0.48998,-24.231804 2.42672,-25.78073 3.05391,-2.44239 45.683,-2.44239 48.73691,0 1.93674,1.548926 2.12203,3.517316 2.42671,25.78073 0.31589,23.08152 0.2324,24.23948 -1.96878,27.30379 l -2.29865,3.20003 h -22.52774 -22.52773 z m 41.40762,-7.29508 c 1.50446,-1.37026 1.78245,-4.26538 1.78245,-18.56341 0,-21.447692 0.73937,-20.622778 -18.48436,-20.622778 -19.07189,0 -18.40729,-0.78444 -18.0108,21.258768 0.30415,16.90904 0.34098,17.13756 3.00846,18.66197 3.75617,2.14658 29.18787,1.55736 31.70425,-0.73455 z"
                       style="fill:#b15a27;stroke-width:1.13038695" />
                  </g>
                  <path
                     transform="matrix(0.26458333,0,0,0.26458333,0,-123)"
                     inkscape:connector-curvature="0"
                     id="path490"
                     d="m 84.330893,992.05732 c -7.311752,-1.33209 -8.814466,-3.17837 -10.54963,-12.96169 -2.552758,-14.39311 -2.970372,-437.38057 -0.474588,-480.69406 l 1.852117,-32.14285 h 16.706318 16.70632 v 249.60122 c 0,137.28066 -0.80122,255.44678 -1.7805,262.59135 -1.94344,14.179 -5.9599,16.61211 -22.460037,13.60603 z"
                     style="opacity:1;fill:#ffffff;fill-opacity:1;stroke-width:2.85714293" />
                </g>
                <path
                   style="opacity:1;fill:#ffffff;fill-opacity:1;stroke-width:2.85714293"
                   d="m 178.59534,992.05363 c -6.64756,-1.21094 -8.954,-3.45697 -10.37624,-10.10454 -1.0058,-4.70114 -1.98085,-122.65466 -2.16677,-262.11894 l -0.33804,-253.57143 h 18.57142 18.57143 l -0.0203,243.57143 c -0.0112,133.96428 -0.82908,252.13357 -1.81757,262.59842 -1.96772,20.8316 -4.35089,22.91732 -22.42392,19.62506 z"
                   id="path499"
                   inkscape:connector-curvature="0"
                   transform="matrix(0.26458333,0,0,0.26458333,0,-123)" />
              </g>
              <path
                 transform="matrix(0.26458333,0,0,0.26458333,0,-123)"
                 inkscape:connector-curvature="0"
                 id="path510"
                 d="m 272.46865,992.591 c -7.41884,-0.77125 -9.26166,-2.44017 -10.71428,-9.70328 C 260.78947,978.0632 260,859.848 260,720.18729 V 466.25872 h 16.68586 16.68587 l 1.88556,69.03408 c 2.30917,84.54289 1.8542,407.78169 -0.61218,434.93886 -1.96404,21.62597 -4.51267,24.1956 -22.17646,22.35934 z"
                 style="opacity:1;fill:#ffffff;fill-opacity:1;stroke-width:2.85714293" />
            </g>
            <path
               style="opacity:1;fill:#ffffff;fill-opacity:1;stroke-width:2.85714293"
               d="m 468.8432,935.05857 c -2.64832,-1.67665 -4.67342,-10.84445 -5.95235,-26.94682 -1.10414,-13.90175 -3.67752,-26.62309 -5.97923,-29.55789 -15.02456,-19.1572 -33.92036,-39.12006 -41.19733,-43.5238 -4.71429,-2.85291 -16.23161,-6.03623 -25.59404,-7.074 -19.40738,-2.15123 -27.26311,-7.65894 -27.26311,-19.1144 0,-10.00491 0.86301,-10.4906 24.61997,-13.855 13.04028,-1.84671 20.80014,-4.46019 23.26926,-7.83691 7.27437,-9.94829 3.16632,-13.57894 -19.15272,-16.92695 -16.29068,-2.44372 -22.42136,-4.69841 -26.51225,-9.75044 -10.60423,-13.09568 -1.39386,-21.33207 27.22573,-24.34667 14.13574,-1.48896 17.08065,-2.81837 19.88694,-8.97751 2.79356,-6.13119 2.46855,-7.83338 -2.13893,-11.20245 -2.98816,-2.185 -9.52657,-3.97273 -14.5298,-3.97273 -22.86531,0 -38.32389,-9.38259 -34.00441,-20.63898 2.13969,-5.57593 13.7226,-10.78959 23.97065,-10.78959 13.56382,0 26.34748,-3.45951 27.91926,-7.5555 0.82013,-2.13722 0.68513,-7.09726 -0.3,-11.02232 -1.65761,-6.60446 -3.05117,-7.13646 -18.69356,-7.13646 -20.3649,0 -30.44643,-3.41857 -32.90251,-11.15698 -4.41423,-13.90802 10.47114,-23.12874 37.33761,-23.12874 14.21664,0 15.616,-0.65512 22.88606,-10.71428 4.25894,-5.89286 15.06047,-17.78572 24.0034,-26.42858 l 16.25987,-15.71428 1.58655,-21.42857 c 3.5665,-48.17048 19.97171,-50.02952 28.81423,-3.26524 6.57492,34.77191 14.07484,34.88242 20.66337,0.30446 8.3847,-44.00457 23.3363,-46.05523 28.46657,-3.90427 5.08063,41.74314 19.43132,43.36575 23.99038,2.71256 4.80819,-42.87456 25.68366,-44.94771 30.11145,-2.99037 2.82049,26.72675 3.91528,30 10.03393,30 7.24908,0 10.28475,-6.36753 12.5166,-26.25437 3.36667,-29.99871 11.13082,-39.98558 22.3579,-28.75851 4.51551,4.51553 6.2016,11.1892 7.70202,30.4855 l 1.92095,24.70442 15.96145,14.91148 c 8.7788,8.20131 19.41412,19.73291 23.634,25.62577 7.2098,10.06809 8.58583,10.71428 22.81509,10.71428 27.61029,0 42.96714,9.83001 35.92203,22.99391 -4.08657,7.63583 -14.18552,11.29181 -31.19152,11.29181 -15.24202,0 -21.15282,4.43156 -19.66888,14.74654 0.83443,5.80037 3.3208,6.8182 23.40911,9.58296 16.28397,2.24116 23.56452,4.58258 26.42857,8.49941 9.45626,12.93218 -0.69965,22.1831 -26.13094,23.80244 -21.04323,1.33993 -26.75783,5.48598 -21.98863,15.9532 2.49057,5.46623 6.08757,7.08017 19.51986,8.75843 21.86534,2.73189 28.81063,5.65331 31.17883,13.11486 3.32343,10.47114 -6.78926,17.41948 -30.53774,20.98224 -21.99312,3.29942 -26.08363,6.96598 -18.83329,16.88142 2.41103,3.29728 9.99454,5.95701 21.70406,7.61212 20.91845,2.9568 26.18377,6.39558 26.18377,17.10046 0,9.31963 -7.25169,13.31314 -29.17069,16.06434 -19.38951,2.43372 -28.72843,8.26163 -47.42874,29.5978 -19.73691,22.51886 -23.36171,29.93372 -23.38297,47.83206 -0.0257,22.72146 -3.58332,29.47172 -15.52687,29.47172 -9.04835,0 -10.20236,-0.9576 -12.91193,-10.71429 -1.63653,-5.89286 -2.98268,-15.62023 -2.99144,-21.6164 -0.0201,-13.73091 -4.32432,-21.95503 -11.4906,-21.95503 -6.10665,0 -7.21326,3.32949 -9.83355,29.58617 -1.99869,20.02803 -5.55369,27.55669 -13.01216,27.55669 -7.80447,0 -13.98616,-10.81749 -17.09409,-29.91334 -3.821,-23.47715 -5.43414,-27.22952 -11.70593,-27.22952 -7.026,0 -11.15168,10.32323 -11.20744,28.04314 -0.0521,16.55689 -5.22364,27.38126 -13.66033,28.59195 -7.87447,1.13003 -13.23699,-10.23926 -16.11819,-34.17272 -3.97708,-33.03674 -16.79697,-34.65568 -19.78565,-2.49863 -2.87879,30.9746 -11.2773,42.86318 -24.40765,34.5504 z m 187.76169,-104.73934 9.46202,-12.85948 -0.8906,-93.45767 c -1.00288,-105.24021 -1.53714,-108.11324 -21.79465,-117.2003 -15.67055,-7.02945 -159.66419,-7.02945 -175.33475,0 -20.2575,9.08706 -20.79177,11.96009 -21.79466,117.2003 l -0.8906,93.45767 9.46203,12.85948 9.46203,12.85949 h 91.42858 91.42857 z"
               id="path523"
               inkscape:connector-curvature="0"
               transform="matrix(0.26458333,0,0,0.26458333,0,-123)" />
          </g>
          <path
             transform="matrix(0.26458333,0,0,0.26458333,0,-123)"
             inkscape:connector-curvature="0"
             id="path538"
             d="m 835.7382,992.05363 c -6.64757,-1.21094 -8.954,-3.45697 -10.37624,-10.10454 -1.0058,-4.70114 -1.98085,-122.65466 -2.16677,-262.11894 L 822.85714,466.25872 H 841.42857 860 v 245.29517 c 0,134.91234 -0.81376,253.08083 -1.80837,262.59666 -1.97778,18.92248 -4.74501,21.12891 -22.45343,17.90308 z"
             style="opacity:1;fill:#ffffff;fill-opacity:1;stroke-width:2.85714293" />
        </g>
        <path
           style="opacity:1;fill:#ffffff;fill-opacity:1;stroke-width:2.85714293"
           d="m 929.63439,992.53226 c -7.86222,-0.76474 -9.14699,-2.1392 -10.68284,-11.42857 -0.96019,-5.8076 -1.75995,-124.02354 -1.77725,-262.70212 l -0.0314,-252.14285 h 16.70193 16.70194 l 1.8579,36.42857 c 2.39227,46.90597 2.41864,434.79823 0.0316,465.4584 -1.98922,25.55091 -2.7264,26.33931 -22.80188,24.38657 z"
           id="path555"
           inkscape:connector-curvature="0"
           transform="matrix(0.26458333,0,0,0.26458333,0,-123)" />
      </g>
      <path
         transform="matrix(0.26458333,0,0,0.26458333,0,-123)"
         inkscape:connector-curvature="0"
         id="path574"
         d="m 1023.8972,992.591 c -7.4188,-0.77125 -9.2616,-2.44017 -10.7143,-9.70328 -0.9649,-4.82452 -1.7543,-123.03972 -1.7543,-262.70043 V 466.25872 h 16.6791 16.6791 l 1.8923,107.61045 c 2.2957,130.54924 1.9769,355.72849 -0.5531,390.64606 -2.0248,27.94589 -3.6563,30.00652 -22.2288,28.07577 z"
         style="opacity:1;fill:#ffffff;fill-opacity:1;stroke-width:2.85714293" />
    </g>
  </g>
</svg>
