<?xml version="1.0" encoding="UTF-8" standalone="no"?>
<!-- Created with Inkscape (http://www.inkscape.org/) -->

<svg
   xmlns:dc="http://purl.org/dc/elements/1.1/"
   xmlns:cc="http://creativecommons.org/ns#"
   xmlns:rdf="http://www.w3.org/1999/02/22-rdf-syntax-ns#"
   xmlns:svg="http://www.w3.org/2000/svg"
   xmlns="http://www.w3.org/2000/svg"
   xmlns:sodipodi="http://sodipodi.sourceforge.net/DTD/sodipodi-0.dtd"
   xmlns:inkscape="http://www.inkscape.org/namespaces/inkscape"
   width="297mm"
   height="420mm"
   viewBox="0 0 297 420"
   version="1.1"
   id="svg61"
   inkscape:version="0.92.2 (5c3e80d, 2017-08-06)"
   sodipodi:docname="AWS_Lambda.svg">
  <defs
     id="defs55" />
  <sodipodi:namedview
     id="base"
     pagecolor="#ffffff"
     bordercolor="#666666"
     borderopacity="1.0"
     inkscape:pageopacity="0.0"
     inkscape:pageshadow="2"
     inkscape:zoom="0.35"
     inkscape:cx="400"
     inkscape:cy="560"
     inkscape:document-units="mm"
     inkscape:current-layer="layer1"
     showgrid="false"
     inkscape:window-width="1920"
     inkscape:window-height="1001"
     inkscape:window-x="-9"
     inkscape:window-y="-9"
     inkscape:window-maximized="1" />
  <metadata
     id="metadata58">
    <rdf:RDF>
      <cc:Work
         rdf:about="">
        <dc:format>image/svg+xml</dc:format>
        <dc:type
           rdf:resource="http://purl.org/dc/dcmitype/StillImage" />
        <dc:title></dc:title>
      </cc:Work>
    </rdf:RDF>
  </metadata>
  <g
     inkscape:label="Layer 1"
     inkscape:groupmode="layer"
     id="layer1"
     transform="translate(0,123)">
    <g
       id="g89">
      <path
         inkscape:connector-curvature="0"
         id="path74"
         d="M 136.32995,235.21985 C 114.88114,233.30946 91.135198,225.29347 73.667728,214.06681 47.838288,197.46575 26.281348,170.5496 16.005008,142.06874 10.260608,126.14813 8.8377381,117.23876 8.3318081,94.022659 7.6807681,64.148617 10.065378,48.99833 18.824028,27.361518 c 14.79569,-36.5502993 47.48908,-67.118492 85.279732,-79.736212 16.92808,-5.652029 22.98896,-6.527345 45.19684,-6.527345 15.76245,0 21.64221,0.35653 27.87389,1.690183 59.34841,12.701277 103.29491,59.4915267 112.03049,119.279926 1.21382,8.307685 1.43502,14.948207 1.06441,31.954589 -0.40755,18.701251 -0.76948,22.729391 -2.80869,31.259651 -6.14659,25.71192 -17.88222,47.59442 -35.37816,65.96682 -16.66975,17.50481 -34.55383,29.10732 -56.89962,36.91424 -11.43412,3.99473 -20.91709,5.94677 -34.73277,7.14961 -11.75425,1.02338 -11.57708,1.02406 -24.1202,-0.0932 z m 77.82196,-72.75819 c 13.64534,-5.19728 25.30332,-9.91846 25.90662,-10.49151 0.83592,-0.794 -0.0781,-4.14321 -3.84148,-14.07551 -2.71613,-7.16847 -5.50934,-13.38817 -6.20714,-13.82155 -0.80961,-0.50282 -5.13034,0.71349 -11.94002,3.3612 -5.86922,2.28204 -11.11602,3.97787 -11.65958,3.76851 -0.54355,-0.20935 -13.23417,-32.577071 -28.20138,-71.92827 -14.96721,-39.35119 -27.81807,-72.499283 -28.55748,-73.662428 -1.34418,-2.114502 -1.34763,-2.114773 -23.84357,-1.865158 l -22.4992,0.249652 -0.25519,15.13087071 C 102.75387,16.893017 101.17406,15.118759 117.60942,15.474918 l 10.58422,0.229363 4.11649,10.712858 c 3.88058,10.098892 4.03999,10.873874 2.7814,13.522399 -0.73431,1.545246 -16.71391,30.277678 -35.510232,63.849862 -18.79631,33.57217 -34.37403,61.80379 -34.61715,62.73693 -0.41755,1.60264 0.52871,1.68254 17.08378,1.44247 l 17.5258,-0.25414 25.095722,-44.97328 c 13.80264,-24.735301 25.57362,-44.983918 26.15772,-44.996936 0.5841,-0.01306 1.25824,0.500916 1.4981,1.142064 11.29525,30.193652 34.69145,91.010982 35.33782,91.859032 0.48867,0.64115 1.06638,1.16572 1.2838,1.16572 0.21741,0 11.55967,-4.25231 25.20502,-9.4496 z"
         style="fill:#f38436;stroke-width:0.93085277" />
      <path
         transform="matrix(0.26458333,0,0,0.26458333,0,-123)"
         inkscape:connector-curvature="0"
         id="path85"
         d="m 708.75171,1105.5444 c -1.39448,-3.5357 -8.92702,-22.5 -16.739,-42.1428 -14.53748,-36.5539 -62.33417,-160.96368 -97.14454,-252.85717 -12.76751,-33.70408 -20.89397,-51.42857 -23.57937,-51.42857 -4.94849,0 -38.89566,57.66723 -128.43166,218.1712 l -67.14285,120.36164 -65.04113,0.02 -65.04113,0.019 8.51057,-16.8594 c 4.68082,-9.2726 49.23213,-89.95118 99.00292,-179.28567 151.6078,-272.12362 161.14019,-289.57025 161.14019,-294.9262 0,-5.75897 -6.22193,-24.47457 -19.68033,-59.19851 l -8.96359,-23.12691 -43.24063,-1.87159 c -24.96808,-1.0807 -44.87431,-3.22743 -47.10661,-5.08008 -2.99856,-2.48858 -3.86598,-15.23885 -3.86598,-56.82629 v -53.61782 l 64.61661,-2.10686 c 73.74165,-2.40438 103.40545,-1.10746 107.13176,4.68389 3.68735,5.73077 29.68689,72.19091 98.61903,252.0904 98.54797,257.19111 115.49863,298.98217 121.26852,298.98217 2.7606,0 21.8202,-5.93211 42.35468,-13.18248 20.53449,-7.25038 39.24646,-12.44918 41.58214,-11.55292 2.33569,0.89629 6.37323,6.507 8.97232,12.46823 13.03694,29.90129 27.2298,69.25424 28.71214,79.61114 l 1.66454,11.6296 -31.03231,12.3173 c -61.02137,24.2203 -156.81149,60.1364 -160.38871,60.1371 -2.00318,3e-4 -4.78309,-2.8923 -6.17758,-6.428 z"
         style="opacity:1;fill:#ffffff;fill-opacity:1;stroke-width:2.85714293" />
    </g>
  </g>
</svg>
