<?xml version="1.0" encoding="UTF-8" standalone="no"?>
<!-- Created with Inkscape (http://www.inkscape.org/) -->

<svg
   xmlns:dc="http://purl.org/dc/elements/1.1/"
   xmlns:cc="http://creativecommons.org/ns#"
   xmlns:rdf="http://www.w3.org/1999/02/22-rdf-syntax-ns#"
   xmlns:svg="http://www.w3.org/2000/svg"
   xmlns="http://www.w3.org/2000/svg"
   xmlns:sodipodi="http://sodipodi.sourceforge.net/DTD/sodipodi-0.dtd"
   xmlns:inkscape="http://www.inkscape.org/namespaces/inkscape"
   version="1.1"
   id="svg2"
   width="148mm"
   height="210mm"
   viewBox="0 0 559.37008 793.70079"
   sodipodi:docname="AWS_ElasticCache_Memcached.svg"
   inkscape:version="0.92.2 (5c3e80d, 2017-08-06)">
  <metadata
     id="metadata8">
    <rdf:RDF>
      <cc:Work
         rdf:about="">
        <dc:format>image/svg+xml</dc:format>
        <dc:type
           rdf:resource="http://purl.org/dc/dcmitype/StillImage" />
        <dc:title></dc:title>
      </cc:Work>
    </rdf:RDF>
  </metadata>
  <defs
     id="defs6" />
  <sodipodi:namedview
     pagecolor="#ffffff"
     bordercolor="#666666"
     borderopacity="1"
     objecttolerance="10"
     gridtolerance="10"
     guidetolerance="10"
     inkscape:pageopacity="0"
     inkscape:pageshadow="2"
     inkscape:window-width="1920"
     inkscape:window-height="1001"
     id="namedview4"
     showgrid="false"
     units="mm"
     inkscape:zoom="0.84892086"
     inkscape:cx="375.66102"
     inkscape:cy="388.72881"
     inkscape:window-x="-9"
     inkscape:window-y="-9"
     inkscape:window-maximized="1"
     inkscape:current-layer="svg2" />
  <g
     id="g12"
     transform="translate(-1.1779666,-20.025423)">
    <path
       style="fill:#5b90c5;stroke-width:1.9905107"
       d="M 85.017473,671.90988 C 69.749301,668.04437 56.865852,660.47282 44.856005,648.30714 31.679643,634.95978 22.907665,617.80701 19.876722,599.46253 c -1.538636,-9.31245 -2.196964,-72.33022 -2.173335,-208.04027 0.03631,-208.52471 0.126498,-210.63485 9.849969,-230.45155 5.857728,-11.93821 25.165653,-32.45303 36.672102,-38.9644 20.436695,-11.5649 18.596244,-11.46586 213.075382,-11.46586 194.47915,0 192.63869,-0.099 213.07539,11.46586 11.50645,6.51137 30.81438,27.02619 36.67209,38.9644 9.72349,19.8167 9.81367,21.92684 9.84998,230.45155 0.0236,135.71005 -0.63471,198.72782 -2.17335,208.04027 -5.89492,35.67846 -33.57142,65.53132 -67.67697,72.99873 -15.27066,3.34352 -368.660859,2.83347 -382.030507,-0.55138 z m 94.249657,-124.54487 0.54811,-24.86335 h 9.64041 9.64041 l 0.54811,24.86335 0.54811,24.86334 h 18.5451 18.5451 l 0.54811,-24.86334 0.54811,-24.86335 h 9.64041 9.6404 l 0.54812,24.86335 0.54811,24.86334 h 18.5451 18.5451 l 0.54811,-24.86334 0.54812,-24.86335 h 9.6404 9.64041 l 0.54811,24.86335 0.54812,24.86334 h 18.54509 18.5451 l 0.54811,-24.86334 0.54812,-24.86335 h 9.6404 9.64041 l 0.54811,24.86335 0.54812,24.86334 h 18.5451 18.54509 l 0.54763,-24.80138 0.54765,-24.80136 23.85379,-0.5694 23.85382,-0.56938 v -19.28178 -19.28179 l -23.42539,-1.01483 -23.42538,-1.01483 -0.59251,-9.57754 -0.59248,-9.57755 24.01787,-0.57076 24.01789,-0.57076 v -19.28178 -19.28178 l -23.42539,-1.01483 -23.42538,-1.01483 -0.59251,-9.57754 -0.59248,-9.57755 24.01787,-0.57076 24.01789,-0.57076 V 380.42538 361.1436 l -23.42539,-1.01483 -23.42538,-1.01483 -0.59251,-9.57755 -0.59248,-9.57754 24.01787,-0.57076 24.01789,-0.57076 v -19.28179 -19.28178 l -23.42539,-1.01483 -23.42538,-1.01483 -0.59251,-9.57755 -0.59248,-9.57754 24.01787,-0.57076 24.01789,-0.57076 v -19.28178 -19.28178 l -23.42539,-1.01483 -23.42538,-1.01483 -0.97606,-24.35593 -0.97606,-24.35594 h -18.54509 -18.5451 l -0.97606,24.35594 -0.97606,24.35593 h -8.78452 -8.78451 l -0.97606,-24.35593 -0.97606,-24.35594 h -18.5451 -18.54509 l -0.97606,24.35594 -0.97606,24.35593 h -8.78452 -8.78452 L 296.822,212.97834 295.84594,188.6224 h -18.5451 -18.5451 l -0.97605,24.35594 -0.97606,24.35593 h -8.78452 -8.78452 l -0.97606,-24.35593 -0.97605,-24.35594 h -18.5451 -18.5451 l -0.97606,24.35594 -0.97605,24.35593 h -8.78452 -8.78452 l -0.97606,-24.35593 -0.97606,-24.35594 h -18.54509 -18.5451 l -0.97606,24.35594 -0.97606,24.35593 -23.42538,1.01483 -23.425386,1.01483 v 19.28178 19.28178 l 24.017886,0.57076 24.01788,0.57076 -0.5925,9.57754 -0.5925,9.57755 -23.42538,1.01483 -23.425386,1.01483 v 19.28178 19.28179 l 24.017886,0.57076 24.01788,0.57076 -0.5925,9.57754 -0.5925,9.57755 -23.42538,1.01483 -23.425386,1.01483 v 19.28178 19.28178 l 24.017886,0.57076 24.01788,0.57076 -0.5925,9.57755 -0.5925,9.57754 -23.42538,1.01483 -23.425386,1.01483 v 19.28178 19.28178 l 24.017886,0.57076 24.01788,0.57076 -0.5925,9.57755 -0.5925,9.57754 -23.42538,1.01483 -23.425386,1.01483 v 19.28179 19.28178 l 23.913416,0.56988 23.91341,0.56989 v 23.95518 c 0,13.17536 0.61626,24.59592 1.36946,25.37904 0.7532,0.78313 9.31811,1.16369 19.03313,0.8457 l 17.66366,-0.57817 z m 10.18852,-166.72248 c 0,-71.96106 0.34353,-81.10636 3.08783,-82.20128 1.69831,-0.67759 12.14241,-1.23198 23.20911,-1.23198 16.39529,0 20.83413,0.65774 23.97073,3.55191 2.31913,2.1399 10.35129,23.11835 20.20485,52.77119 8.9955,27.0706 17.25632,49.21928 18.3574,49.21928 1.10107,0 9.30464,-22.83974 18.23016,-50.75496 11.38257,-35.59993 17.31011,-51.35701 19.85159,-52.7712 3.91377,-2.1778 40.61901,-2.80781 45.69088,-0.78424 2.7443,1.09492 3.08783,10.24022 3.08783,82.20128 v 80.96929 h -19.52115 -19.52115 v -42.50309 c 0,-23.50873 -0.79811,-43.01595 -1.7859,-43.6507 -0.98224,-0.63117 -3.17603,2.73998 -4.87507,7.49146 -1.69905,4.75145 -8.59786,24.16593 -15.33071,43.14326 l -12.24156,34.50424 h -14.48487 -14.48489 l -4.2049,-11.16313 c -2.31271,-6.13973 -9.26561,-25.54396 -15.45093,-43.1205 -6.18532,-17.57656 -12.03374,-31.4512 -12.99648,-30.83256 -0.96277,0.61866 -1.75046,20.25123 -1.75046,43.62793 v 42.50309 H 208.9768 189.45565 Z"
       id="path16"
       inkscape:connector-curvature="0" />
    <g
       id="g21">
      <path
         inkscape:connector-curvature="0"
         id="path14"
         d="M 93.801992,672.78635 C 60.430565,665.29688 35.274237,642.23406 23.818737,608.62712 19.630004,596.33866 19.621606,595.90449 19.621606,391.62251 c 0,-112.58032 0.608889,-204.05841 1.353085,-203.28466 0.744197,0.77376 2.533902,-3.41241 3.977122,-9.30261 7.006401,-28.59513 34.366591,-56.46081 60.536608,-61.65506 3.48001,-0.69072 5.843911,-2.06905 5.253109,-3.06296 -0.625085,-1.05158 77.3725,-1.80711 186.55931,-1.80711 109.18681,0 187.1844,0.75553 186.55932,1.80711 -0.59081,0.99391 1.77308,2.37224 5.2531,3.06296 26.17002,5.19425 53.53021,33.05993 60.5366,61.65506 1.44322,5.8902 3.23294,10.07637 3.97713,9.30261 0.7442,-0.77375 1.35309,90.70434 1.35309,203.28466 0,204.28198 -0.008,204.71615 -4.19713,217.00461 -9.8321,28.84439 -25.74581,46.17708 -54.46548,59.32204 l -12.58961,5.76225 -181.54673,0.30416 c -99.8507,0.16729 -184.621316,-0.38585 -188.379138,-1.22922 z m 88.273138,-122.37685 0.54811,-24.86335 h 6.83241 6.8324 l 0.54811,24.86335 0.54812,24.86335 h 21.3531 21.3531 l 0.54811,-24.86335 0.54812,-24.86335 h 6.8324 6.8324 l 0.54812,24.86335 0.54811,24.86335 h 21.3531 21.3531 l 0.54811,-24.86335 0.54812,-24.86335 h 6.8324 6.83241 l 0.54811,24.86335 0.54812,24.86335 h 21.35309 21.3531 l 0.54812,-24.86335 0.54811,-24.86335 h 6.8324 6.83241 l 0.54811,24.86335 0.54812,24.86335 h 21.3531 21.35309 l 0.54812,-24.86335 0.54811,-24.86335 23.91342,-0.56989 23.91341,-0.56989 v -22.22513 c 0,-26.05848 2.28327,-24.05447 -28.30567,-24.84344 l -19.52116,-0.50352 v -6.08898 -6.08899 l 23.91342,-0.56988 23.91341,-0.56989 V 441.2914 c 0,-26.05847 2.28327,-24.05446 -28.30567,-24.84343 l -19.52116,-0.50352 v -6.08899 -6.08898 l 23.91342,-0.56989 23.91341,-0.56989 v -22.22513 c 0,-26.05847 2.28327,-24.05447 -28.30567,-24.84344 l -19.52116,-0.50352 v -6.08898 -6.08898 l 23.91342,-0.56989 23.91341,-0.56989 v -22.22513 c 0,-26.05847 2.28327,-24.05447 -28.30567,-24.84345 l -19.52116,-0.50351 v -6.08898 -6.08899 l 23.91342,-0.56988 23.91341,-0.56989 v -22.22513 c 0,-26.05847 2.28327,-24.05447 -28.30567,-24.84345 l -19.52116,-0.50351 -0.55584,-23.2649 c -0.36989,-15.48199 -1.34946,-23.78923 -2.92818,-24.83227 -3.08717,-2.03966 -34.84344,-2.03966 -37.93061,0 -1.57872,1.04304 -2.55829,9.35028 -2.92818,24.83227 l -0.55584,23.2649 h -6.83241 -6.8324 l -0.55584,-23.2649 c -0.36989,-15.48199 -1.34946,-23.78923 -2.92818,-24.83227 -3.08717,-2.03966 -34.84344,-2.03966 -37.93062,0 -1.57871,1.04304 -2.55828,9.35028 -2.92817,24.83227 l -0.55584,23.2649 h -6.83241 -6.8324 l -0.55585,-23.2649 c -0.36988,-15.48199 -1.34946,-23.78923 -2.92817,-24.83227 -3.08717,-2.03966 -34.84344,-2.03966 -37.93062,0 -1.57871,1.04304 -2.55828,9.35028 -2.92817,24.83227 l -0.55585,23.2649 h -6.8324 -6.8324 l -0.55585,-23.2649 c -0.36989,-15.48199 -1.34946,-23.78923 -2.92817,-24.83227 -3.08718,-2.03966 -34.84344,-2.03966 -37.93062,0 -1.57871,1.04304 -2.55828,9.35028 -2.92818,24.83227 l -0.55584,23.2649 h -6.8324 -6.83241 l -0.55584,-23.2649 c -0.36989,-15.48199 -1.34947,-23.78923 -2.92817,-24.83227 -3.08718,-2.03966 -34.84345,-2.03966 -37.93063,0 -1.5787,1.04304 -2.55827,9.35028 -2.92817,24.83227 l -0.55584,23.2649 -19.52116,0.50351 c -30.588949,0.78898 -28.305669,-1.21502 -28.305669,24.84345 v 22.22513 l 23.913419,0.56989 23.91341,0.56988 v 6.08899 6.08898 l -19.52116,0.50351 c -30.588949,0.78898 -28.305669,-1.21502 -28.305669,24.84345 v 22.22513 l 23.913419,0.56989 23.91341,0.56989 v 6.08898 6.08898 l -19.52116,0.50352 C 87.614481,356.3471 89.897761,354.3431 89.897761,380.40157 v 22.22513 l 23.913419,0.56989 23.91341,0.56989 v 6.08898 6.08899 l -19.52116,0.50352 c -30.588949,0.78897 -28.305669,-1.21504 -28.305669,24.84343 v 22.22514 l 23.913419,0.56989 23.91341,0.56988 v 6.08899 6.08898 l -19.52116,0.50352 c -30.588949,0.78897 -28.305669,-1.21504 -28.305669,24.84344 v 22.22513 l 23.913419,0.56989 23.91341,0.56989 0.54811,24.86335 0.54811,24.86335 h 21.35311 21.3531 z m 10.25367,-93.28901 c -0.53324,-1.4448 -0.739,-36.8742 -0.45725,-78.73198 l 0.51227,-76.10508 h 23.19888 23.19888 l 17.39472,51.65763 c 9.56708,28.4117 18.37237,52.88246 19.56732,54.37945 1.56183,1.95666 2.77208,2.10326 4.30506,0.52146 1.17285,-1.2102 9.67259,-25.68097 18.88833,-54.37947 l 16.75591,-52.17907 h 23.26246 23.26248 v 78.14195 78.14195 H 345.62488 329.0319 l -0.52401,-47.18962 c -0.43298,-38.99243 -1.00204,-47.18962 -3.27594,-47.18962 -2.87953,0 -3.58414,1.7464 -22.92933,56.83051 -6.46871,18.41918 -12.65184,34.63109 -13.74028,36.02649 -1.08844,1.39539 -6.15611,2.53707 -11.2615,2.53707 -5.10539,0 -10.19135,-1.14168 -11.30216,-2.53707 -1.11079,-1.3954 -8.61072,-21.2607 -16.66648,-44.14513 -8.05577,-22.88443 -15.25455,-43.20641 -15.99729,-45.15996 -0.74274,-1.95355 -2.55794,-3.55191 -4.03378,-3.55191 -2.18439,0 -2.78076,8.77426 -3.20734,47.18962 l -0.52401,47.18962 -16.13573,0.59002 c -11.82506,0.43238 -16.39474,-0.11183 -17.10525,-2.03686 z"
         style="fill:#2d71b6;stroke-width:1.9905107" />
    </g>
  </g>
  <path
     style="opacity:1;fill:#ffffff;fill-opacity:0;stroke-width:1.17796612"
     d="m 145.78381,552.05105 c -3.22979,-0.32497 -4.46892,-1.07458 -4.99027,-3.01884 -0.38147,-1.42258 -0.70081,-12.44414 -0.70966,-24.49234 l -0.0161,-21.90585 -14.32054,-0.77 c -7.87629,-0.42351 -18.74303,-0.77001 -24.1483,-0.77001 h -9.827774 v -18.84746 -18.84746 l 3.239407,-0.0564 c 9.305167,-0.16191 42.912157,-2.1178 43.315257,-2.5209 0.25746,-0.25746 0.83094,-4.8187 1.27439,-10.1361 l 0.80628,-9.66793 h -13.53501 c -7.44425,0 -18.3872,-0.34442 -24.31766,-0.76538 l -10.782644,-0.7654 V 420.99854 402.5101 l 16.088794,-0.77161 c 8.84883,-0.42438 19.37502,-0.7716 23.39151,-0.7716 h 7.30272 l 0.7568,-7.24059 c 0.41623,-3.98233 0.75679,-8.75309 0.75679,-10.6017 v -3.3611 H 115.91949 91.771186 v -18.82502 c 0,-18.5763 0.03502,-18.83218 2.650424,-19.3671 1.457733,-0.29816 11.91984,-0.87544 23.24912,-1.28287 11.32929,-0.40742 20.71672,-0.85879 20.86097,-1.00304 0.14424,-0.14424 0.61804,-4.52837 1.05288,-9.74249 l 0.79063,-9.48023 -11.63888,-0.77065 c -6.40138,-0.42385 -17.33728,-0.77339 -24.30201,-0.77675 l -12.663134,-0.006 V 299.6618 c 0,-14.27477 0.357241,-18.85559 1.472458,-18.88097 7.898926,-0.17983 44.866766,-2.3283 45.163236,-2.62477 0.21289,-0.2129 0.74991,-4.73769 1.19336,-10.05508 l 0.80628,-9.66799 -11.06555,-0.005 c -6.08605,-0.003 -17.029,-0.34898 -24.31766,-0.76896 l -13.252124,-0.7636 v -18.66748 -18.66748 l 7.362289,-0.13916 c 4.049255,-0.0765 14.518435,-0.4741 23.264835,-0.88347 l 15.90254,-0.74432 0.75562,-7.0678 c 0.4156,-3.88728 0.81316,-12.42718 0.88348,-18.97754 0.0703,-6.55035 0.46494,-14.3691 0.87694,-17.375 l 0.7491,-5.46525 h 17.38335 c 14.76468,0 17.49106,0.28069 18.09836,1.86329 0.39326,1.02481 0.71501,6.2432 0.71501,11.59641 0,5.35322 0.3456,15.38148 0.768,22.28502 l 0.76799,12.55189 h 9.0621 9.06209 l 0.77161,-16.0888 c 0.42438,-8.84883 0.7716,-19.71557 0.7716,-24.1483 v -8.05951 h 18.08814 18.08813 l 0.75095,7.95127 c 0.41302,4.3732 0.75932,12.45699 0.76956,17.96398 0.0106,5.50699 0.35288,12.79566 0.76144,16.19704 l 0.74282,6.18432 h 9.25965 9.25965 v -9.82777 c 0,-5.40528 0.3465,-16.27201 0.77001,-24.14831 l 0.77,-14.32053 h 17.89567 17.89567 l 0.76598,15.01906 c 0.4213,8.26049 0.76814,19.12723 0.77077,24.14831 l 0.005,9.12924 h 9.25965 9.25965 l 0.74283,-6.18432 c 0.40855,-3.40138 0.7512,-10.69005 0.76143,-16.19704 0.0106,-5.50699 0.35654,-13.59078 0.76956,-17.96398 l 0.75095,-7.95127 h 18.08813 18.08814 l 0.005,9.12923 c 0.002,5.02108 0.34947,15.88782 0.77077,24.14831 l 0.76598,15.01907 h 9.06295 9.06292 l 0.76799,-12.55189 c 0.42248,-6.90354 0.76807,-16.9318 0.76807,-22.28502 0,-5.35321 0.32175,-10.5716 0.71501,-11.59641 0.6073,-1.5826 3.33368,-1.86329 18.09836,-1.86329 h 17.38335 l 0.7491,5.46525 c 0.412,3.0059 0.80663,10.82465 0.87694,17.375 0.0703,6.55036 0.46789,15.09026 0.88348,18.97754 l 0.75563,7.0678 15.90254,0.74432 c 8.7464,0.40937 19.21557,0.80693 23.26483,0.88347 l 7.36229,0.13916 v 18.66748 18.66748 l -13.25212,0.7636 c -7.28867,0.41998 -18.23162,0.76602 -24.31768,0.76896 l -11.06554,0.005 0.80628,9.66799 c 0.44345,5.31739 0.98047,9.84218 1.19337,10.05508 0.29647,0.29647 37.26429,2.44494 45.16323,2.62477 1.11521,0.0254 1.47246,4.6062 1.47246,18.88097 v 18.84746 l -12.66314,0.006 c -6.96472,0.004 -17.90063,0.3529 -24.30201,0.77675 l -11.63888,0.77065 0.79063,9.48023 c 0.43483,5.21412 0.90864,9.59825 1.05289,9.74249 0.14424,0.14425 9.53168,0.59562 20.86097,1.00304 11.32927,0.40743 21.79138,0.98471 23.24911,1.28287 2.61541,0.53492 2.65043,0.7908 2.65043,19.3671 v 18.82522 h -24.14831 -24.1483 v 3.3611 c 0,1.84861 0.34056,6.61937 0.75679,10.6017 l 0.75679,7.24059 h 7.30271 c 4.0165,0 14.54269,0.34722 23.39153,0.7716 l 16.08879,0.77161 v 18.48844 18.48844 l -10.78266,0.76538 c -5.93047,0.42096 -16.87342,0.76538 -24.31767,0.76538 h -13.53501 l 0.80628,9.66799 c 0.44345,5.3174 1.01693,9.87863 1.2744,10.1361 0.40309,0.4031 34.01008,2.35899 43.31525,2.5209 l 3.23941,0.0564 v 18.84746 18.84746 h -9.82777 c -5.40528,0 -16.27202,0.3465 -24.14831,0.77001 l -14.32053,0.77 v 15.54379 c 0,8.54908 -0.34283,19.59941 -0.76184,24.55626 l -0.76183,9.01248 h -17.3494 -17.34939 l -0.73623,-3.68114 c -0.40493,-2.02463 -0.73623,-13.15641 -0.73623,-24.73729 v -21.05615 h -10.60169 -10.6017 v 24.73729 24.73729 h -18.07669 -18.07669 l -0.76598,-15.01907 c -0.4213,-8.26048 -0.76814,-19.39226 -0.77077,-24.73729 l -0.005,-9.71822 h -9.83633 -9.83631 l -0.76538,10.78266 c -0.42096,5.93047 -0.76537,17.06225 -0.76537,24.73729 V 551.7467 H 276.12317 257.8647 v -13.95463 c 0,-7.67504 -0.34442,-18.80682 -0.76537,-24.73729 l -0.76539,-10.78266 h -9.83631 -9.83632 l -0.005,9.71822 c -0.002,5.34503 -0.34947,16.47681 -0.77077,24.73729 l -0.76606,15.01907 H 217.04279 198.9661 v -24.73729 -24.73729 h -10.51487 -10.51486 l -0.38132,24.05255 c -0.20973,13.2289 -0.64636,24.28694 -0.9703,24.57342 -0.83846,0.7415 -25.65741,1.67067 -30.80094,1.15311 z M 227.74916,400.6724 c 0.46731,-22.83782 1.25421,-41.94266 1.74867,-42.4552 1.09773,-1.13789 6.14335,11.53739 20.53406,51.58443 l 11.00569,30.62712 h 15.09317 15.09317 L 305.507,400.37791 c 7.85569,-22.02797 14.864,-41.06484 15.57402,-42.30417 1.27136,-2.21912 1.30103,-2.21912 1.95422,0 0.36479,1.23933 1.03282,20.67376 1.48448,43.18764 l 0.82124,40.93432 h 19.30886 19.30887 l -0.33315,-81.32305 c -0.28989,-70.76004 -0.56267,-81.46809 -2.10012,-82.4396 -1.9694,-1.24446 -37.63659,-1.57655 -43.49449,-0.40497 -2.82743,0.56548 -4.32133,1.89079 -6.13197,5.43992 -1.31661,2.58077 -8.92853,24.11033 -16.91538,47.84348 -7.98686,23.73314 -15.29699,44.9513 -16.24473,47.15146 l -1.72316,4.00029 -3.8351,-9.89012 c -2.1093,-5.43956 -7.76728,-21.28694 -12.57329,-35.21639 -17.36821,-50.33905 -19.99701,-56.6162 -24.58572,-58.70696 -3.67378,-1.67389 -42.69976,-1.86058 -45.30124,-0.21671 -1.53744,0.97151 -1.81022,11.67956 -2.10011,82.4396 l -0.33316,81.32305 h 19.30622 19.30622 z"
     id="path18"
     inkscape:connector-curvature="0" />
</svg>
