<?xml version="1.0" encoding="UTF-8" standalone="no"?>
<!-- Created with Inkscape (http://www.inkscape.org/) -->

<svg
   xmlns:dc="http://purl.org/dc/elements/1.1/"
   xmlns:cc="http://creativecommons.org/ns#"
   xmlns:rdf="http://www.w3.org/1999/02/22-rdf-syntax-ns#"
   xmlns:svg="http://www.w3.org/2000/svg"
   xmlns="http://www.w3.org/2000/svg"
   xmlns:sodipodi="http://sodipodi.sourceforge.net/DTD/sodipodi-0.dtd"
   xmlns:inkscape="http://www.inkscape.org/namespaces/inkscape"
   version="1.1"
   id="svg2"
   width="297mm"
   height="420mm"
   viewBox="0 0 1122.5197 1587.4016"
   sodipodi:docname="AWS_General_User.svg"
   inkscape:version="0.92.2 (5c3e80d, 2017-08-06)">
  <metadata
     id="metadata8">
    <rdf:RDF>
      <cc:Work
         rdf:about="">
        <dc:format>image/svg+xml</dc:format>
        <dc:type
           rdf:resource="http://purl.org/dc/dcmitype/StillImage" />
        <dc:title></dc:title>
      </cc:Work>
    </rdf:RDF>
  </metadata>
  <defs
     id="defs6" />
  <sodipodi:namedview
     pagecolor="#ffffff"
     bordercolor="#666666"
     borderopacity="1"
     objecttolerance="10"
     gridtolerance="10"
     guidetolerance="10"
     inkscape:pageopacity="0"
     inkscape:pageshadow="2"
     inkscape:window-width="1920"
     inkscape:window-height="1001"
     id="namedview4"
     showgrid="false"
     units="mm"
     inkscape:zoom="0.84285714"
     inkscape:cx="652.69492"
     inkscape:cy="392.71186"
     inkscape:window-x="-9"
     inkscape:window-y="-9"
     inkscape:window-maximized="1"
     inkscape:current-layer="svg2" />
  <g
     id="g20"
     transform="translate(52.203392,18.98305)">
    <path
       style="fill:#d1d2d2;stroke-width:2.18243289"
       d="m 258.68234,1321.4587 c 0.0429,-113.2734 0.68113,-119.6547 14.55645,-145.5438 15.0551,-28.0904 42.98219,-49.9606 79.07788,-61.9272 l 17.63249,-5.8456 101.38681,-0.7668 c 110.36278,-0.8348 120.19437,-0.1323 148.77412,10.6292 42.50446,16.0048 71.65026,48.4196 80.43853,89.4606 2.57688,12.0338 3.24707,35.5648 3.27753,115.0741 l 0.0383,99.9471 h -42.79553 c -32.25476,0 -43.03209,-0.6654 -43.75601,-2.7013 -0.52827,-1.4857 -0.46525,-26.3556 0.13996,-55.2665 l 1.10057,-52.5653 -7.48693,0.7009 -7.48684,0.7008 0.17721,38.8983 c 0.0974,21.3941 0.96368,43.4596 1.92491,49.0346 0.96122,5.5749 1.11054,12.6252 0.3318,15.6673 l -1.41586,5.5312 H 482.49491 360.39212 l 0.37039,-54.5657 0.3704,-54.5657 h -6.61218 -6.61219 l 0.3704,54.5657 0.3704,54.5657 H 303.6467 258.64407 Z M 457.77369,1098.129 c -38.43478,-6.2959 -77.87331,-35.173 -95.21976,-69.7205 -12.11255,-24.1236 -14.57286,-40.33072 -11.83465,-77.95993 3.47626,-47.77193 12.66337,-69.89934 39.98696,-96.30973 26.11956,-25.24661 52.83819,-35.56302 91.65003,-35.38727 19.1972,0.0869 27.22727,1.12008 38.57107,4.96255 45.22859,15.3202 77.9179,50.71955 86.96506,94.17471 5.42645,26.06418 6.60309,64.74634 2.49048,81.87384 -8.54651,35.59313 -37.27935,70.98443 -70.25455,86.53503 -26.10484,12.3107 -54.51289,16.3919 -82.35464,11.8313 z"
       id="path24"
       inkscape:connector-curvature="0" />
    <path
       style="fill:#7c7b7b;stroke-width:2.18243289"
       d="m 258.64407,1409.7514 c 0,-9.6191 0.85301,-13.0559 3.48636,-14.0466 6.87174,-2.5855 79.24032,-1.4549 82.03121,1.2815 1.45468,1.4262 2.64487,7.7472 2.64487,14.0466 v 11.4534 h -44.08122 -44.08122 z m 103.59087,1.2815 c 0,-6.2994 1.19019,-12.6204 2.64487,-14.0466 3.81398,-3.7395 231.13894,-3.7395 234.95292,0 1.45468,1.4262 2.64487,7.7472 2.64487,14.0466 v 11.4534 H 482.35627 362.23494 Z m 257.2626,0.108 c 0.51945,-6.2399 1.33455,-12.5609 1.81136,-14.0466 0.6487,-2.0213 10.27022,-2.7012 38.22485,-2.7012 20.54688,0 38.92681,0.5902 40.8443,1.3117 2.63334,0.9907 3.48636,4.4275 3.48636,14.0466 v 12.7349 h -42.65566 -42.65563 z m -271.12047,-104.53 c -0.8638,-0.8469 -1.57056,-5.7196 -1.57056,-10.8282 0,-6.847 1.07864,-9.8544 4.10366,-11.4417 7.13756,-3.7453 11.73745,1.6804 10.9235,12.8847 -0.61762,8.5018 -1.36425,9.722 -6.2934,10.2856 -3.07595,0.3517 -6.29939,-0.053 -7.1632,-0.9004 z m 255.48413,-1.9599 c -3.5317,-9.0237 0.73995,-22.7371 7.03907,-22.5977 5.22618,0.1156 7.22314,4.426 6.5893,14.2226 -0.62258,9.6223 -1.21666,10.6563 -6.46517,11.2531 -3.76606,0.4282 -6.26165,-0.5744 -7.1632,-2.878 z M 455.90754,1093.9641 c -35.41582,-6.9698 -69.21458,-30.7898 -86.77948,-61.1588 -7.88501,-13.6328 -15.72543,-38.00484 -15.66436,-48.69283 0.0414,-7.25248 0.82512,-6.27563 9.89632,12.33568 27.01823,55.43315 88.12891,84.42825 148.52381,70.46995 36.12748,-8.3497 69.47395,-34.9056 86.05526,-68.53139 5.12832,-10.39989 9.86295,-18.9089 10.52141,-18.9089 0.65844,0 0.5282,4.94447 -0.28941,10.98771 -4.83563,35.74078 -31.70668,72.90098 -65.47713,90.54888 -24.5215,12.8146 -60.32607,18.1571 -86.78642,12.9497 z"
       id="path22"
       inkscape:connector-curvature="0" />
  </g>
</svg>
