<?xml version="1.0" encoding="UTF-8" standalone="no"?>
<!-- Created with Inkscape (http://www.inkscape.org/) -->

<svg
   xmlns:dc="http://purl.org/dc/elements/1.1/"
   xmlns:cc="http://creativecommons.org/ns#"
   xmlns:rdf="http://www.w3.org/1999/02/22-rdf-syntax-ns#"
   xmlns:svg="http://www.w3.org/2000/svg"
   xmlns="http://www.w3.org/2000/svg"
   xmlns:sodipodi="http://sodipodi.sourceforge.net/DTD/sodipodi-0.dtd"
   xmlns:inkscape="http://www.inkscape.org/namespaces/inkscape"
   width="297mm"
   height="420mm"
   viewBox="0 0 297 420"
   version="1.1"
   id="svg8"
   inkscape:version="0.92.2 (5c3e80d, 2017-08-06)"
   sodipodi:docname="AWS_Application_LoadBalancer.svg">
  <defs
     id="defs2" />
  <sodipodi:namedview
     id="base"
     pagecolor="#ffffff"
     bordercolor="#666666"
     borderopacity="1.0"
     inkscape:pageopacity="0.0"
     inkscape:pageshadow="2"
     inkscape:zoom="0.35"
     inkscape:cx="400"
     inkscape:cy="560"
     inkscape:document-units="mm"
     inkscape:current-layer="layer1"
     showgrid="false"
     inkscape:window-width="1920"
     inkscape:window-height="1001"
     inkscape:window-x="-9"
     inkscape:window-y="-9"
     inkscape:window-maximized="1" />
  <metadata
     id="metadata5">
    <rdf:RDF>
      <cc:Work
         rdf:about="">
        <dc:format>image/svg+xml</dc:format>
        <dc:type
           rdf:resource="http://purl.org/dc/dcmitype/StillImage" />
        <dc:title></dc:title>
      </cc:Work>
    </rdf:RDF>
  </metadata>
  <g
     inkscape:label="Layer 1"
     inkscape:groupmode="layer"
     id="layer1"
     transform="translate(0,123)">
    <g
       id="g53">
      <path
         inkscape:connector-curvature="0"
         id="path38"
         d="M 134.09989,252.21346 C 112.57982,249.2416 98.573664,245.20877 82.893514,237.4695 48.218474,220.35489 22.649074,191.68342 10.399774,156.18085 4.7971243,139.9425 4.0384243,133.97641 4.0819343,106.49997 4.1169343,84.3692 4.3540143,80.579238 6.2035043,72.580593 19.324364,15.8355 61.810944,-24.913946 120.6498,-37.186394 c 13.9289,-2.905249 42.61673,-2.905249 56.54562,0 58.83887,12.272448 101.32545,53.021894 114.44631,109.766987 1.84948,7.998645 2.08653,11.788607 2.12157,33.919377 0.0435,27.47644 -0.71519,33.44253 -6.31785,49.68088 -16.5714,48.02946 -58.45047,83.87131 -109.73572,93.91643 -8.85229,1.73388 -36.62078,3.08135 -43.60984,2.11618 z m -52.339366,-96.57637 -0.25737,-20.53147 -8.12859,-0.46138 -8.12859,-0.46138 -0.26464,-13.61075 -0.26464,-13.61075 h 23.00243 23.002446 l -0.26465,13.61075 -0.26464,13.61075 -8.12859,0.46138 -8.128586,0.46138 -0.25742,20.54917 -0.25742,20.54918 21.296116,-0.2484 21.29612,-0.24839 V 155.4064 135.10562 l -8.12859,-0.46138 -8.12858,-0.46138 -0.47816,-17.5325 -0.47815,-17.532487 -13.13772,-0.256657 C 90.186574,98.558901 91.315334,99.698088 91.743654,84.815051 l 0.27884,-9.689008 h 55.943816 55.94381 v 11.534534 11.534534 l -13.14918,0.256731 c -7.23206,0.141201 -13.23269,0.348822 -13.33473,0.461381 -0.10205,0.112559 -0.4248,8.094267 -0.71723,17.737137 l -0.53169,17.5325 -8.12859,0.46138 -8.12859,0.46138 v 20.30078 20.30078 l 21.29612,0.24839 21.29613,0.2484 -0.25743,-20.54918 -0.25742,-20.54917 -8.12859,-0.46138 -8.12858,-0.46138 V 120.8028 107.42274 l 22.7379,-0.24745 22.73789,-0.24745 -0.26474,13.62751 -0.26474,13.62751 -8.12859,0.46138 -8.12859,0.46138 v 20.30078 20.30078 l 21.29612,0.24839 21.29613,0.2484 -0.25743,-20.54918 -0.25742,-20.54917 -8.12859,-0.46138 -8.12859,-0.46138 -0.47815,-17.5325 -0.47815,-17.532487 -12.91011,-0.461381 -12.91011,-0.461381 -0.2623,-14.900505 c -0.19193,-10.903161 -0.59836,-15.169619 -1.515,-15.903686 -0.8247,-0.660431 -11.02729,-1.086784 -29.8613,-1.247843 L 153.22598,65.898416 V 52.518356 39.138297 l 18.44563,-0.461381 c 14.98677,-0.374865 18.61529,-0.720931 19.35052,-1.845526 0.98376,-1.504775 1.30891,-45.9676761 0.35372,-48.369572 -0.51709,-1.300226 -5.15292,-1.459614 -42.45324,-1.459614 -37.30031,0 -41.93615,0.159388 -42.45323,1.459614 -0.9552,2.4018959 -0.63005,46.864797 0.35371,48.369572 0.73523,1.124595 4.36376,1.470661 19.35053,1.845526 l 18.44562,0.461381 v 13.380059 13.38006 l -30.12359,0.461381 -30.123586,0.461381 -0.23179,13.841441 c -0.12748,7.612792 -0.45843,14.775738 -0.73545,15.917657 -0.49157,2.026405 -0.81295,2.076216 -13.39555,2.076216 -7.09054,0 -12.97538,0.103811 -13.07743,0.230691 -0.10204,0.126879 -0.4248,8.120307 -0.71723,17.763177 l -0.53169,17.5325 -8.12858,0.46138 -8.12859,0.46138 -0.25913,19.35417 c -0.14252,10.6448 -0.0484,19.88396 0.20906,20.53148 0.36002,0.9053 5.34,1.17729 21.5552,1.17729 h 21.08701 z"
         style="fill:#f38537;stroke-width:0.93938392" />
      <path
         transform="matrix(0.26458333,0,0,0.26458333,0,-123)"
         inkscape:connector-curvature="0"
         id="path49"
         d="m 153.39502,1127.1124 c -4.85625,-1.2577 -5.12133,-5.8386 -4.28572,-74.062 0.74541,-60.85894 1.58979,-73.16277 5.17641,-75.42708 2.35715,-1.48812 14.57143,-2.74506 27.14286,-2.79317 12.57143,-0.048 24.44684,-1.0972 26.3898,-2.33126 2.51584,-1.59794 4.17035,-20.44149 5.7481,-65.46626 1.21849,-34.77237 3.22469,-64.23174 4.45823,-65.46528 1.23353,-1.23355 22.72345,-2.764 47.75536,-3.40106 30.72813,-0.782 46.44016,-2.27594 48.36807,-4.59894 1.57053,-1.89238 3.73159,-28.73955 4.80234,-59.66038 l 1.94684,-56.21968 55.97992,-0.009 c 30.78895,-0.003 82.01563,-0.85 113.83706,-1.881 l 57.85714,-1.87457 V 662.94808 611.973 L 535,611.81996 c -7.46429,-0.0842 -39.10066,-1.19323 -70.30306,-2.46457 -43.32611,-1.76533 -57.32479,-3.24821 -59.24195,-6.27553 -1.38069,-2.1802 -2.53003,-43.99262 -2.5541,-92.91648 l -0.0437,-88.95248 6.42857,-1.72279 c 8.39374,-2.24944 298.74912,-2.24944 307.14286,0 l 6.42857,1.72279 -0.0437,88.95248 c -0.0229,48.92386 -1.17343,90.73628 -2.55412,92.91648 -1.91714,3.02732 -15.91582,4.5102 -59.24194,6.27553 -31.2024,1.27134 -62.83877,2.3804 -70.30306,2.46457 l -13.57145,0.15304 v 50.97716 50.97716 l 105,2.01011 c 57.75,1.10557 107.79983,2.71043 111.22183,3.5664 3.42202,0.85597 6.95785,3.47434 7.85742,5.8186 0.8996,2.34429 2.47532,28.40952 3.50163,57.92274 l 1.86603,53.66046 47.40852,2.0466 c 26.07468,1.12563 47.81862,2.45674 48.31988,2.958 0.50126,0.50126 1.6602,29.649 2.5754,64.77277 1.0838,41.59275 2.76237,64.5934 4.8138,65.96055 1.73237,1.15451 14.07834,2.13848 27.43549,2.1866 13.35714,0.048 25.76394,1.03208 27.57068,2.1866 2.29529,1.46668 3.58649,24.69545 4.28572,77.10005 l 1.00074,75.0009 -79.28571,-9e-4 -79.28572,-9e-4 v -75.4086 c 0,-66.12713 0.55626,-75.6221 4.5194,-77.1429 2.48566,-0.95385 14.5948,-1.73425 26.90917,-1.73425 12.31437,0 24.42352,-0.7804 26.90917,-1.73426 3.88812,-1.492 4.5194,-8.87543 4.5194,-52.85714 V 869.11586 H 787.14286 700 v 51.12289 c 0,43.98171 0.63129,51.36514 4.5194,52.85714 2.48566,0.95386 14.5948,1.73426 26.90917,1.73426 12.31437,0 24.42352,0.7804 26.90917,1.73425 3.96315,1.5208 4.5194,11.01577 4.5194,77.1429 v 75.4086 h -78.57143 -78.57142 v -75.4086 c 0,-66.12713 0.55625,-75.6221 4.5194,-77.1429 2.48565,-0.95385 15.18537,-1.73425 28.22157,-1.73425 15.55077,0 24.67345,-1.22826 26.52637,-3.57143 1.55328,-1.96429 3.56488,-31.6756 4.4702,-66.02515 0.90534,-34.34954 2.46951,-63.27811 3.47594,-64.28571 1.00643,-1.0076 23.58083,-2.28306 50.16534,-2.83437 l 48.33546,-1.00237 V 791.6666 746.22212 l -212.14286,0.73257 -212.14285,0.7326 -0.71352,40 c -0.39244,22 0.4399,41.79094 1.84963,43.97988 3.64085,5.65326 24.92186,8.51018 64.85802,8.70695 l 34.56558,0.17031 2.03574,64.93814 c 1.41406,45.10655 3.07369,65.59809 5.43443,67.09912 1.86929,1.18851 13.04155,2.1982 24.82726,2.24371 11.78571,0.0454 24.34249,0.86352 27.90391,1.8178 l 6.47532,1.735 -0.76103,74.6545 -0.76106,74.6546 -79.7074,0.7602 -79.70741,0.7602 1.52217,-74.6745 c 1.1967,-58.70785 2.35595,-75.2028 5.42169,-77.14505 2.14474,-1.35878 15.07364,-2.4902 28.7309,-2.51426 13.65726,-0.0229 25.4229,-1.00803 26.14586,-2.1866 0.72296,-1.17857 2.25598,-24.96429 3.4067,-52.85714 l 2.09222,-50.71429 H 331.5492 242.33652 l 2.06954,50.71429 c 1.30564,31.99505 3.24729,51.48908 5.26031,52.8134 1.75492,1.15451 13.47649,2.13848 26.04792,2.1866 12.57142,0.048 24.78571,1.30605 27.14285,2.7954 3.58697,2.26642 4.44805,14.83665 5.28138,77.09915 l 0.99566,74.3912 -75.28138,-0.3315 c -41.40475,-0.1823 -77.61076,-0.9347 -80.45778,-1.672 z"
         style="opacity:1;fill:#ffffff;fill-opacity:1;stroke-width:2.85714293" />
    </g>
  </g>
</svg>
