<?xml version="1.0" encoding="UTF-8" standalone="no"?>
<!-- Created with Inkscape (http://www.inkscape.org/) -->

<svg
   xmlns:dc="http://purl.org/dc/elements/1.1/"
   xmlns:cc="http://creativecommons.org/ns#"
   xmlns:rdf="http://www.w3.org/1999/02/22-rdf-syntax-ns#"
   xmlns:svg="http://www.w3.org/2000/svg"
   xmlns="http://www.w3.org/2000/svg"
   xmlns:sodipodi="http://sodipodi.sourceforge.net/DTD/sodipodi-0.dtd"
   xmlns:inkscape="http://www.inkscape.org/namespaces/inkscape"
   version="1.1"
   id="svg2"
   width="420mm"
   height="297mm"
   viewBox="0 0 1587.4016 1122.5197"
   sodipodi:docname="AWS_VPC.svg"
   inkscape:version="0.92.2 (5c3e80d, 2017-08-06)">
  <metadata
     id="metadata8">
    <rdf:RDF>
      <cc:Work
         rdf:about="">
        <dc:format>image/svg+xml</dc:format>
        <dc:type
           rdf:resource="http://purl.org/dc/dcmitype/StillImage" />
        <dc:title></dc:title>
      </cc:Work>
    </rdf:RDF>
  </metadata>
  <defs
     id="defs6" />
  <sodipodi:namedview
     pagecolor="#ffffff"
     bordercolor="#666666"
     borderopacity="1"
     objecttolerance="10"
     gridtolerance="10"
     guidetolerance="10"
     inkscape:pageopacity="0"
     inkscape:pageshadow="2"
     inkscape:window-width="1920"
     inkscape:window-height="1001"
     id="namedview4"
     showgrid="false"
     units="mm"
     inkscape:zoom="0.95762712"
     inkscape:cx="795.19469"
     inkscape:cy="349.9115"
     inkscape:window-x="-9"
     inkscape:window-y="-9"
     inkscape:window-maximized="1"
     inkscape:current-layer="svg2" />
  <path
     style="opacity:1;fill:#ffffff;fill-opacity:0;stroke-width:1.04424775"
     d="m 538.16436,860.254 c -1.22328,-0.32536 -2.62048,-4.09022 -4.89616,-13.19303 -10.94309,-43.77276 -36.80881,-173.49794 -35.13387,-176.20805 1.6744,-2.70924 13.76595,-3.88484 20.55729,-1.99868 3.23138,0.89745 4.06215,1.72297 4.98584,4.95435 1.24384,4.35135 9.03325,42.85413 19.26965,95.24915 7.43469,38.05443 8.54663,42.81416 10.00201,42.81416 1.67708,0 3.85697,-9.5454 15.02392,-65.78761 14.0199,-70.61104 15.04047,-75.00164 17.77927,-76.48767 2.76494,-1.50021 22.03317,-1.67528 23.50514,-0.21357 1.54673,1.53595 -10.30485,58.97189 -28.1089,136.22336 -9.30059,40.3551 -12.56268,52.57369 -14.42738,54.03982 -1.59471,1.25384 -24.31007,1.73729 -28.55681,0.60777 z"
     id="path20"
     inkscape:connector-curvature="0" />
  <path
     style="opacity:1;fill:#ffffff;fill-opacity:0;stroke-width:1.04424775"
     d="m 632.70938,859.98378 c -3.23672,-1.38397 -3.45975,-5.16554 -4.16163,-70.56321 -0.76194,-70.99396 0.46097,-117.15434 3.15593,-119.12495 2.91426,-2.13096 19.51943,-2.78561 43.14591,-1.70101 20.74211,0.95218 22.56105,1.19809 27.79192,3.75732 11.68533,5.7171 21.60439,19.56448 24.76512,34.57306 1.77803,8.44289 1.57657,26.50941 -0.39728,35.62662 -5.69197,26.29118 -21.85108,37.3725 -57.75822,39.60844 l -11.59843,0.72224 -0.7461,30.41958 c -0.78501,32.00561 -1.75068,43.99964 -3.69952,45.94927 -1.44936,1.44994 -17.48005,2.02292 -20.4977,0.73264 z m 54.21373,-104.96993 c 5.19103,-1.85136 7.71809,-4.22349 10.62519,-9.97381 9.4806,-18.75289 3.03275,-46.85221 -11.74212,-51.17141 -2.1518,-0.62905 -9.35703,-1.42116 -16.0116,-1.76026 L 657.69535,691.49183 657.0051,714.35 c -0.37963,12.572 -0.6914,27.20486 -0.6928,32.51747 l -0.003,9.65929 13.31416,-0.0458 c 8.47039,-0.0292 14.76395,-0.56289 17.29922,-1.46708 z"
     id="path22"
     inkscape:connector-curvature="0" />
  <g
     id="g28">
    <path
       inkscape:connector-curvature="0"
       id="path18"
       d="m 427.45047,957.92387 c -46.6065,-13.0695 -88.0514,-52.94991 -102.0325,-98.18088 -4.2655,-13.79943 -4.7905,-19.69217 -4.829,-54.20765 -0.048,-42.68882 1.9925,-56.15126 12.3666,-81.60328 13.8898,-34.07745 36.6604,-61.79032 63.4456,-77.21624 l 15.3761,-8.85527 2.5058,-24.3535 c 3.0096,-29.24926 8.5193,-50.93662 18.9709,-74.6731 25.4933,-57.89747 72.2864,-98.29676 129.0745,-111.43772 23.2455,-5.37912 64.2667,-3.68792 86.2408,3.55548 45.0848,14.86142 85.9981,51.13076 109.5433,97.1092 4.3206,8.43711 9.0064,15.34019 10.4128,15.34019 1.4065,0 7.9735,-2.89738 14.5934,-6.43862 11.0341,-5.90262 14.0842,-6.43863 36.6379,-6.43863 23.4487,0 25.2539,0.3528 38.5173,7.52748 27.3359,14.78699 47.4944,43.97094 53.0212,76.75998 1.3023,7.72635 2.5966,14.38182 2.8761,14.78994 0.2795,0.40811 6.7468,2.23268 14.3717,4.05459 50.5653,12.0822 97.24733,63.17511 110.78863,121.25687 1.8531,7.9484 2.8109,25.30611 2.7985,50.71604 -0.016,34.46039 -0.5357,40.30353 -4.8047,54.11424 -10.8269,35.02661 -36.1608,65.49098 -69.89073,84.04458 -36.0295,19.8185 -19.1778,18.7319 -287.4928,18.5371 -221.6792,-0.1608 -238.4117,-0.4525 -252.4914,-4.4008 z m 398.8388,-97.57357 c 17.2456,-7.00478 30.4849,-33.32201 28.9542,-57.55538 l -0.6343,-10.04342 h -12.3009 c -12.1653,0 -12.3076,0.0775 -12.9113,7.02396 -1.3213,15.20532 -6.6841,31.37483 -11.9851,36.13682 -7.1623,6.43396 -20.8829,6.49475 -27.9748,0.12385 -9.9548,-8.9424 -12.7335,-24.51943 -12.7335,-71.38045 0,-46.93156 1.9196,-58.74412 11.2843,-69.43886 10.521,-12.0152 28.7912,-8.23711 35.8808,7.41978 1.6849,3.72105 3.0776,9.71527 3.0949,13.32046 0.053,11.03032 2.265,12.73211 15.5349,11.9507 l 12.1107,-0.71317 -0.3864,-13.27349 c -0.9306,-31.96497 -18.3771,-49.10691 -50.1408,-49.2653 -40.7033,-0.20299 -55.8268,26.88709 -55.8268,99.99988 0,53.38417 7.804,80.4079 26.8982,93.14336 12.87,8.58395 33.7222,9.62432 51.1359,2.55126 z m -258.3439,-0.35009 c 2.7183,-1.97455 44.0834,-187.60464 42.4696,-190.58669 -1.691,-3.1246 -24.6696,-2.26529 -26.8499,1.0041 -1.0735,1.60966 -7.2597,30.32007 -13.7471,63.80093 -14.902,76.90748 -15.4862,79.46317 -17.5966,76.97599 -0.9585,-1.1296 -7.3927,-32.55976 -14.2982,-69.84478 -6.9055,-37.28503 -13.5476,-69.15623 -14.7603,-70.82488 -3.3719,-4.63993 -24.0451,-4.03946 -25.6528,0.74512 -1.6747,4.98404 35.7411,186.38765 38.9198,188.6953 3.1663,2.29861 28.3608,2.32652 31.5155,0.0349 z m 86.468,-1.27015 c 1.3536,-1.86268 2.4714,-17.44174 2.8137,-39.21708 l 0.5679,-36.12675 18.6785,-1.35052 c 32.1446,-2.32416 47.8468,-15.9341 51.995,-45.06686 3.8249,-26.86209 -3.5066,-49.9772 -19.4375,-61.28326 -9.7468,-6.91733 -10.391,-7.03599 -42.4385,-7.8167 -23.3581,-0.56901 -33.3857,0.007 -35.533,2.04268 -2.5289,2.39683 -2.9916,17.02333 -2.9916,94.56252 0,68.22157 0.6304,92.44712 2.4601,94.53672 3.3337,3.80713 21.0661,3.5987 23.8854,-0.28075 z m 2.8112,-134.46212 0.5704,-32.19312 13.9056,0.3663 c 9.0805,0.23918 15.7203,1.72412 19.1351,4.27941 10.0915,7.55124 13.9587,28.49345 8.1788,44.29119 -4.4646,12.20288 -10.2186,15.44935 -27.3825,15.44935 h -14.9778 z"
       style="fill:#f38536;stroke-width:2.19090104" />
    <path
       inkscape:connector-curvature="0"
       id="path24"
       d="m 784.60663,861.66712 c -12.22667,-4.16757 -21.33689,-13.60538 -26.89878,-27.86602 -6.42018,-16.46128 -8.5952,-34.10571 -8.56014,-69.44248 0.0378,-38.06631 2.74063,-56.72343 10.60868,-73.22866 7.37642,-15.4739 18.1735,-23.30443 34.91618,-25.32279 15.94263,-1.92191 32.11326,1.43387 41.53394,8.61927 11.42631,8.71513 16.38054,20.24878 17.21164,40.06935 l 0.53638,12.79204 h -11.10558 c -13.8505,0 -14.67962,-0.59797 -15.57095,-11.22981 -0.79684,-9.5047 -4.0304,-16.91127 -9.64093,-22.08289 -6.42373,-5.92118 -12.75955,-7.47642 -20.72979,-5.08847 -8.79294,2.63442 -15.95875,13.1928 -18.6208,27.43656 -2.16558,11.58739 -1.80136,85.91155 0.47837,97.61559 3.41388,17.52672 10.27118,25.76738 22.35348,26.86296 7.75263,0.70299 14.40373,-1.90716 18.48092,-7.25263 3.75421,-4.92204 7.74567,-16.99763 9.55606,-28.91057 0.82278,-5.41416 2.09412,-10.22356 2.82519,-10.68754 0.73108,-0.46399 6.20713,-0.85081 12.169,-0.85961 l 10.83976,-0.016 -0.53296,13.83628 c -0.77387,20.09054 -5.39381,32.3159 -16.75753,44.34396 -8.63101,9.1356 -18.90004,12.81271 -35.71647,12.78925 -8.08041,-0.0113 -12.01075,-0.54912 -17.37567,-2.37781 z"
       style="opacity:1;fill:#ffffff;fill-opacity:0;stroke-width:1.04424775" />
  </g>
</svg>
