<?xml version="1.0" encoding="UTF-8" standalone="no"?>
<!-- Created with Inkscape (http://www.inkscape.org/) -->

<svg
   xmlns:dc="http://purl.org/dc/elements/1.1/"
   xmlns:cc="http://creativecommons.org/ns#"
   xmlns:rdf="http://www.w3.org/1999/02/22-rdf-syntax-ns#"
   xmlns:svg="http://www.w3.org/2000/svg"
   xmlns="http://www.w3.org/2000/svg"
   xmlns:sodipodi="http://sodipodi.sourceforge.net/DTD/sodipodi-0.dtd"
   xmlns:inkscape="http://www.inkscape.org/namespaces/inkscape"
   version="1.1"
   id="svg2"
   width="210mm"
   height="148mm"
   viewBox="0 0 793.7008 559.37009"
   sodipodi:docname="AWS_General_Users.svg"
   inkscape:version="0.92.2 (5c3e80d, 2017-08-06)">
  <metadata
     id="metadata8">
    <rdf:RDF>
      <cc:Work
         rdf:about="">
        <dc:format>image/svg+xml</dc:format>
        <dc:type
           rdf:resource="http://purl.org/dc/dcmitype/StillImage" />
        <dc:title></dc:title>
      </cc:Work>
    </rdf:RDF>
  </metadata>
  <defs
     id="defs6" />
  <sodipodi:namedview
     pagecolor="#ffffff"
     bordercolor="#666666"
     borderopacity="1"
     objecttolerance="10"
     gridtolerance="10"
     guidetolerance="10"
     inkscape:pageopacity="0"
     inkscape:pageshadow="2"
     inkscape:window-width="1920"
     inkscape:window-height="1001"
     id="namedview4"
     showgrid="false"
     units="mm"
     inkscape:zoom="0.83687943"
     inkscape:cx="439.55932"
     inkscape:cy="224.64407"
     inkscape:window-x="-9"
     inkscape:window-y="-9"
     inkscape:window-maximized="1"
     inkscape:current-layer="svg2" />
  <g
     id="g12"
     transform="translate(-9.5593268,-13.144068)">
    <path
       style="fill:#d0d1d1;stroke-width:1.81055295"
       d="m 262.65632,538.11454 c -0.61992,-2.48975 -0.56065,-8.0113 0.1317,-12.27013 0.69234,-4.25884 1.81858,-33.51061 2.50276,-65.00393 0.91281,-42.01754 1.90903,-58.95427 3.74233,-63.62288 9.69573,-24.69081 32.11157,-42.42487 59.74517,-47.26681 7.88849,-1.38219 32.06409,-1.85308 72.13352,-1.40497 53.80482,0.60173 61.33217,1.04972 70.18681,4.17733 21.01495,7.42285 40.20378,25.52336 47.02604,44.35893 1.62809,4.49499 2.75192,24.1471 3.64608,63.7584 0.71092,31.49332 1.85905,60.74509 2.55138,65.00393 0.69236,4.25883 0.75162,9.78038 0.13165,12.27013 -1.1251,4.51875 -1.16673,4.52679 -23.44154,4.52679 -18.24327,0 -22.50519,-0.5011 -23.36001,-2.74659 -0.57507,-1.5106 -0.53215,-15.8927 0.0954,-31.96022 l 1.14095,-29.21365 -5.2475,0.60324 -5.24746,0.60323 -0.0756,29.08475 c -0.0415,15.99661 -0.24443,30.10726 -0.45084,31.35699 -0.29302,1.77417 -16.38471,2.27225 -73.41048,2.27225 -57.02578,0 -73.11747,-0.49808 -73.41049,-2.27225 -0.20641,-1.24973 -0.40929,-15.36038 -0.45084,-31.35699 l -0.0756,-29.08475 -5.24749,-0.60323 -5.2475,-0.60324 1.14095,29.21365 c 0.62753,16.06752 0.67045,30.44962 0.0954,31.96022 -0.85781,2.25344 -5.21401,2.74659 -24.26166,2.74659 h -23.2161 z M 128.21274,412.26873 c -0.13839,-0.77972 -0.0449,-30.86597 0.20773,-66.85834 0.4069,-57.96866 0.84404,-66.68601 3.82854,-76.34746 6.51386,-21.08678 25.03259,-38.95258 48.42749,-46.72004 10.74399,-3.56717 16.56423,-3.98725 64.68123,-4.66841 29.08117,-0.41168 54.73166,-0.27874 57.00108,0.29541 3.33202,0.843 4.51527,2.99667 6.14753,11.18943 2.60972,13.09897 12.85776,32.67471 22.27997,42.55903 11.01245,11.55257 26.9904,21.19422 41.26552,24.90107 11.85137,3.07746 12.69946,3.64405 14.47422,9.66982 1.03685,3.52044 1.62243,10.49085 1.30127,15.4898 l -0.58394,9.08898 -28.85341,1.1443 c -32.43908,1.28653 -41.41045,3.04665 -59.51016,11.67545 -15.09378,7.19577 -28.96535,20.46725 -36.63031,35.04565 -4.91847,9.35473 -6.71563,14.66191 -10.11994,29.88534 l -1.12682,5.0389 -33.76828,-0.49441 -33.76829,-0.49438 0.68895,-31.357 0.68896,-31.35699 h -5.87769 -5.87768 l 0.68039,31.35699 0.68038,31.357 -22.99256,0.50876 c -12.64591,0.27982 -23.10579,-0.12924 -23.24418,-0.9089 z m 406.76762,-3.6508 c -3.40632,-15.23269 -5.20514,-20.53713 -10.16033,-29.96129 -10.68855,-20.32831 -32.75776,-36.70106 -58.22977,-43.19961 -4.95918,-1.26522 -22.00073,-2.81533 -37.8701,-3.44471 l -28.85341,-1.1443 -0.58394,-9.08898 c -0.32116,-4.99895 0.26152,-11.9596 1.29483,-15.46811 1.75274,-5.95125 2.68674,-6.59275 13.92502,-9.56395 21.00696,-5.55386 38.46141,-18.13031 51.33081,-36.98529 6.09582,-8.931 14.17923,-29.68097 14.24379,-36.56349 0.0258,-2.7418 1.4327,-4.40825 4.34365,-5.14471 2.36811,-0.59913 28.1333,-0.77242 57.25599,-0.38508 48.40816,0.6438 53.96314,1.04263 64.75673,4.64928 23.43323,7.8302 41.91811,25.67294 48.42749,46.74524 2.96992,9.61426 3.44723,18.76963 4.02776,77.25636 l 0.65856,66.34958 h -22.54173 -22.54172 l 0.67345,-31.16327 c 0.65741,-30.42028 0.58255,-31.19236 -3.1397,-32.38323 -7.47914,-2.39282 -7.94661,-0.29568 -7.23072,32.43972 l 0.68028,31.10678 -34.67017,0.49355 -34.67017,0.49353 z M 376.03751,285.62148 c -25.45276,-8.38295 -43.07848,-29.51953 -47.45389,-56.90622 -1.20679,-7.55354 -0.95072,-16.24048 0.89698,-30.42999 4.22818,-32.47052 15.16683,-49.68588 38.61131,-60.76689 14.55527,-6.87954 36.37104,-6.87954 50.92631,0 28.29933,13.37565 40.69461,39.52003 39.9588,84.28184 -0.42305,25.735 -14.41993,47.77542 -37.6658,59.31109 -13.71149,6.80426 -32.59619,8.68556 -45.27371,4.51017 z M 231.0607,198.5357 c -5.56177,-2.36224 -12.53764,-6.03582 -15.50194,-8.16351 -15.4153,-11.06466 -28.0633,-32.58477 -31.52401,-53.63693 -2.56174,-15.58358 1.89053,-50.066618 8.28109,-64.137358 13.74668,-30.267447 49.44294,-47.970953 80.57513,-39.961112 22.56191,5.804838 38.87824,19.252847 48.74823,40.178595 5.93524,12.583491 9.80686,41.955445 8.32717,63.173745 -1.74029,24.95513 -18.46801,48.88219 -42.43905,60.70416 -8.75085,4.31572 -12.87164,5.13036 -28.29833,5.59433 -15.67155,0.47133 -19.39141,-0.0241 -28.16829,-3.75192 z m 274.70189,0.67666 c -21.40501,-7.94992 -38.91912,-27.01771 -45.80441,-49.86773 -3.33311,-11.06153 -3.65009,-15.23508 -2.59133,-34.11943 1.94557,-34.701947 10.95072,-55.937854 29.58158,-69.759149 39.9535,-29.639457 94.50738,-12.480628 111.10761,34.946658 4.43986,12.684811 7.27716,48.824091 4.7837,60.931271 -4.89063,23.74693 -21.757,45.57459 -42.92197,55.54757 -13.98999,6.59211 -39.68942,7.69346 -54.15518,2.32081 z"
       id="path16"
       inkscape:connector-curvature="0" />
    <path
       style="fill:#7c7b7b;stroke-width:1.81055295"
       d="m 265.51806,533.007 c 0,-5.29887 0.9738,-10.61593 2.164,-11.81567 2.38863,-2.40778 35.17175,-3.07853 38.62051,-0.79018 1.10701,0.73453 2.39103,6.03906 2.85337,11.78785 l 0.84064,10.45233 h -22.23926 -22.23926 z m 57.20563,0.0909 c 0.42501,-5.24888 1.09192,-10.56594 1.48204,-11.81567 0.55132,-1.76616 16.19814,-2.27225 70.251,-2.27225 54.05286,0 69.69969,0.50609 70.25101,2.27225 0.39011,1.24973 1.05702,6.56679 1.48203,11.81567 l 0.77272,9.54344 h -72.50576 -72.50575 z m 157.03384,-0.9089 c 0.46234,-5.74879 1.74635,-11.05332 2.85337,-11.78785 3.43494,-2.27919 34.4322,-1.61391 36.81717,0.79018 1.1902,1.19974 2.164,6.5168 2.164,11.81567 v 9.63433 h -21.33758 -21.3376 z M 310.60151,465.26423 c 0,-9.96607 0.0748,-10.10995 4.95918,-9.54343 4.62544,0.53649 4.99586,1.21743 5.50426,10.11862 l 0.54507,9.54343 h -5.50425 c -5.47757,0 -5.50426,-0.0491 -5.50426,-10.11862 z m 157.24701,0.57519 c 0.5084,-8.90119 0.87882,-9.58213 5.50426,-10.11862 4.88441,-0.56652 4.95918,-0.42264 4.95918,9.54343 0,10.06954 -0.0267,10.11862 -5.50426,10.11862 h -5.50426 z M 128.46436,400.7002 v -10.75379 h 21.73005 21.73005 l -0.54083,10.45233 -0.54083,10.45233 -21.18922,0.30146 -21.18922,0.30149 z m 58.95109,9.89029 c -0.68435,-0.68984 -1.24427,-5.61696 -1.24427,-10.94917 v -9.69491 h 30.43594 c 33.50803,0 33.27885,0.0754 35.05234,-11.54788 2.9752,-19.49934 22.35102,-46.26273 40.83401,-56.40309 19.55619,-10.72914 27.52262,-12.47877 61.03348,-13.4045 l 31.20375,-0.86198 -0.54701,10.66063 -0.54698,10.66063 -30.65675,1.01406 c -26.70367,0.88329 -32.30821,1.60953 -43.46413,5.63215 -30.85599,11.12606 -50.62638,32.57641 -58.37836,63.33896 l -2.97748,11.81568 -29.75013,0.49684 c -16.36257,0.27325 -30.31005,-0.0676 -30.99441,-0.75742 z m 351.67854,-0.15142 c -0.43794,-0.77315 -1.82588,-5.90475 -3.08432,-11.40359 -6.73943,-29.44843 -27.8215,-52.30742 -58.41537,-63.33896 -11.15592,-4.02262 -16.76046,-4.74886 -43.46413,-5.63215 l -30.65675,-1.01406 -0.54698,-10.66063 -0.54701,-10.66063 31.20375,0.86198 c 33.51086,0.92573 41.47729,2.67536 61.03348,13.4045 18.48299,10.14037 37.85881,36.90375 40.83401,56.40309 1.77784,11.65184 1.45333,11.54788 36.04401,11.54788 h 31.4276 l -0.54084,10.45233 -0.54082,10.45233 -30.97518,0.4968 c -17.03635,0.27324 -31.33351,-0.13578 -31.77145,-0.90889 z m 79.35693,0.18947 c -0.70506,-0.71082 -1.28193,-5.65501 -1.28193,-10.98722 v -9.69491 h 20.73839 20.73839 v 10.69584 10.69584 l -19.45647,0.29129 c -10.70104,0.16015 -20.03332,-0.29023 -20.73838,-1.00094 z M 174.32765,343.92805 c -0.55406,-1.45542 -0.7533,-6.21634 -0.44277,-10.57983 0.5052,-7.09886 1.03894,-7.93359 5.07295,-7.93359 4.26243,0 4.50834,0.54534 4.50834,9.99788 0,8.9901 -0.40981,10.05654 -4.06557,10.57983 -2.32824,0.33326 -4.49606,-0.54886 -5.07295,-2.06429 z m 430.99781,0 c -0.55405,-1.45542 -0.75331,-6.21634 -0.44277,-10.57983 0.5052,-7.09886 1.03896,-7.93359 5.07295,-7.93359 4.26244,0 4.50835,0.54534 4.50835,9.99788 0,8.9901 -0.40981,10.05654 -4.06557,10.57983 -2.32824,0.33326 -4.49605,-0.54886 -5.07296,-2.06429 z M 375.24069,282.08828 c -23.23369,-8.74464 -38.5997,-26.60585 -42.91359,-49.88206 -2.24963,-12.13823 -0.45848,-13.02099 5.40868,-2.66562 20.58963,36.34012 67.85714,44.43549 97.8916,16.76561 5.29335,-4.8766 11.58381,-12.58993 13.97881,-17.14073 5.3707,-10.20506 7.89721,-10.60994 6.3762,-1.02179 -3.51483,22.15676 -15.18746,39.07387 -33.89684,49.12667 -9.70363,5.21387 -13.5442,6.21203 -25.82548,6.71198 -9.14372,0.37221 -16.8409,-0.32139 -21.01938,-1.89406 z m -134.0677,-83.64227 c -18.83537,-4.93805 -34.09871,-16.24209 -43.66374,-32.33737 -6.30534,-10.61013 -12.5777,-31.94911 -10.11946,-34.42706 0.84246,-0.84921 3.85742,2.9336 6.69993,8.40624 6.90583,13.29572 23.4247,28.4925 36.65172,33.71829 7.97706,3.15162 14.27241,4.15025 26.75512,4.24417 15.30452,0.11516 17.16208,-0.2958 29.75508,-6.58286 15.94761,-7.96185 24.70239,-16.51266 33.21821,-32.44422 l 6.27978,-11.7484 0.0409,7.77105 c 0.1295,24.56503 -20.96319,52.18899 -46.8458,61.35142 -11.23241,3.97627 -28.03327,4.86405 -38.77177,2.04874 z m 271.44611,-0.46454 c -13.35246,-3.61691 -22.8419,-9.52146 -33.14282,-20.62227 -10.633,-11.45868 -17.36847,-25.84562 -18.55187,-39.62667 l -0.89801,-10.45773 6.44684,11.7484 c 8.80698,16.04937 17.53415,24.53055 33.38525,32.44422 12.593,6.28706 14.45057,6.69801 29.75508,6.58286 12.48271,-0.0939 18.77807,-1.09255 26.75512,-4.24417 13.72916,-5.42418 29.57886,-20.2807 37.38335,-35.0408 10.44569,-19.75525 9.46215,0.70771 -1.05229,21.89334 -9.92746,20.00296 -27.32555,33.53473 -49.10554,38.19302 -12.24956,2.61992 -18.76655,2.43684 -30.97511,-0.8702 z"
       id="path14"
       inkscape:connector-curvature="0" />
  </g>
</svg>
