<?xml version="1.0" encoding="UTF-8" standalone="no"?>
<!-- Created with Inkscape (http://www.inkscape.org/) -->

<svg
   xmlns:dc="http://purl.org/dc/elements/1.1/"
   xmlns:cc="http://creativecommons.org/ns#"
   xmlns:rdf="http://www.w3.org/1999/02/22-rdf-syntax-ns#"
   xmlns:svg="http://www.w3.org/2000/svg"
   xmlns="http://www.w3.org/2000/svg"
   xmlns:sodipodi="http://sodipodi.sourceforge.net/DTD/sodipodi-0.dtd"
   xmlns:inkscape="http://www.inkscape.org/namespaces/inkscape"
   version="1.1"
   id="svg2"
   width="148mm"
   height="210mm"
   viewBox="0 0 559.37009 793.7008"
   sodipodi:docname="AWS_RDS_MySQLinstance.svg"
   inkscape:version="0.92.2 (5c3e80d, 2017-08-06)">
  <metadata
     id="metadata8">
    <rdf:RDF>
      <cc:Work
         rdf:about="">
        <dc:format>image/svg+xml</dc:format>
        <dc:type
           rdf:resource="http://purl.org/dc/dcmitype/StillImage" />
        <dc:title></dc:title>
      </cc:Work>
    </rdf:RDF>
  </metadata>
  <defs
     id="defs6" />
  <sodipodi:namedview
     pagecolor="#ffffff"
     bordercolor="#666666"
     borderopacity="1"
     objecttolerance="10"
     gridtolerance="10"
     guidetolerance="10"
     inkscape:pageopacity="0"
     inkscape:pageshadow="2"
     inkscape:window-width="1920"
     inkscape:window-height="1001"
     id="namedview4"
     showgrid="false"
     units="mm"
     inkscape:zoom="0.84892086"
     inkscape:cx="133"
     inkscape:cy="374.59322"
     inkscape:window-x="-9"
     inkscape:window-y="-9"
     inkscape:window-maximized="1"
     inkscape:current-layer="svg2" />
  <path
     style="opacity:1;fill:#ffffff;fill-opacity:1;stroke-width:1.17796612"
     d="m 91.812632,278.53586 c -1.387125,-2.59187 -1.655392,-48.52845 -0.446511,-76.45795 l 0.7729,-17.85678 h 12.802869 12.80286 l 1.23956,3.2394 c 0.68176,1.78168 3.53618,13.04598 6.34316,25.03178 5.60716,23.94257 7.12479,28.74875 8.75898,27.73877 0.59997,-0.37081 3.29414,-10.07675 5.98703,-21.56877 2.6929,-11.49201 5.78108,-23.81004 6.86262,-27.37339 l 1.96644,-6.47881 7.75125,-0.8562 c 4.26319,-0.4709 10.09412,-0.45862 12.95763,0.0273 l 5.20638,0.88348 1.01345,11.29454 c 0.56596,6.30742 0.56596,27.36077 0,47.68035 l -1.01345,36.38579 -7.95127,0.34832 -7.95128,0.34831 -0.11649,-21.5517 c -0.13118,-24.26713 -0.99588,-34.10697 -3.05699,-34.78678 -1.68554,-0.55594 -2.64715,2.83587 -8.64333,30.48693 -2.49685,11.51409 -5.11884,22.01678 -5.82663,23.33931 -1.04905,1.96016 -2.45005,2.4046 -7.58004,2.4046 -3.79617,0 -6.80852,-0.62101 -7.59207,-1.56513 -0.71442,-0.86082 -2.65443,-7.88445 -4.31113,-15.60805 -6.15006,-28.67179 -9.03365,-39.49228 -10.40336,-39.03802 -2.1665,0.71852 -2.94181,9.28475 -3.03518,33.53535 l -0.0873,22.67585 h -7.61533 c -6.323464,0 -7.822199,-0.38653 -8.834748,-2.27849 z"
     id="path14"
     inkscape:connector-curvature="0" />
  <path
     style="opacity:1;fill:#ffffff;fill-opacity:1;stroke-width:1.17796612"
     d="m 187.18644,299.87479 c 0,-5.72751 0.16434,-6.01817 4.8993,-8.66498 2.69462,-1.50628 5.45762,-3.63902 6.14001,-4.73943 1.74436,-2.81291 -0.37993,-14.20018 -8.08711,-43.35095 -3.51151,-13.28157 -6.73354,-26.35952 -7.16007,-29.06212 l -0.77551,-4.91382 5.14212,-0.76791 c 6.06118,-0.90516 10.9557,0.6727 12.80489,4.12795 0.72997,1.36396 2.8873,9.39893 4.79408,17.8555 1.90677,8.45656 3.75842,15.84732 4.11477,16.42392 2.31555,3.74663 4.22014,-1.17648 7.493,-19.36846 1.26259,-7.01802 3.11913,-14.01687 4.12565,-15.553 2.14031,-3.26652 8.9688,-4.94117 13.51159,-3.31364 4.13811,1.48254 4.02435,2.25497 -6.47937,43.99531 -12.27708,48.78745 -14.2101,52.06299 -31.17914,52.83359 l -9.34421,0.42434 z"
     id="path16"
     inkscape:connector-curvature="0" />
  <path
     style="opacity:1;fill:#ffffff;fill-opacity:1;stroke-width:1.17796612"
     d="m 285.78673,281.56796 c -10.39272,-2.934 -17.24637,-12.45215 -17.29476,-24.01844 l -0.0259,-6.18433 h 5.1536 c 10.25934,0 11.65312,0.75541 15.15794,8.21532 2.41834,5.14737 4.08743,7.16048 6.68871,8.06729 9.87387,3.44205 18.09835,-6.38195 13.8517,-16.54561 -1.5389,-3.68312 -3.34091,-4.94477 -15.22026,-10.65624 -22.60362,-10.86759 -27.372,-18.86741 -23.12229,-38.79184 3.64737,-17.10043 26.92528,-25.17716 44.69258,-15.50699 8.30177,4.51839 11.95109,10.14075 11.47173,17.67401 l -0.36439,5.72627 -5.92885,0.5976 c -8.48807,0.85556 -9.73612,0.3632 -12.42133,-4.90026 -4.09029,-8.01761 -14.02284,-9.99659 -17.50616,-3.48795 -1.97368,3.68786 -1.46251,10.14711 1.05644,13.34944 1.26831,1.6124 6.1716,4.93892 10.89618,7.39227 13.46053,6.98968 23.69109,14.18519 26.25231,18.46415 2.76578,4.62072 3.10783,16.51867 0.68294,23.7557 -2.08212,6.21403 -7.90834,12.50694 -14.12571,15.25722 -6.69137,2.95994 -22.13625,3.78264 -29.89451,1.59239 z"
     id="path18"
     inkscape:connector-curvature="0" />
  <path
     style="opacity:1;fill:#ffffff;fill-opacity:1;stroke-width:1.17796612"
     d="m 387.44068,288.47113 c -2.71412,-2.26759 -5.01714,-4.14651 -5.11781,-4.17539 -0.10067,-0.0289 -6.64773,-0.73909 -14.54902,-1.57824 -12.40481,-1.31746 -14.92509,-1.95219 -18.46154,-4.64958 -5.39179,-4.11251 -9.77862,-13.42619 -11.46758,-24.34679 -1.72672,-11.16474 -0.62968,-43.11563 1.75109,-51.00015 3.81022,-12.61849 13.21342,-19.69907 27.36718,-20.6074 8.03765,-0.51583 9.33092,-0.26023 16.47279,3.25571 8.40166,4.13612 13.32925,10.11223 16.03595,19.44813 2.09005,7.20898 1.60541,46.13826 -0.7188,57.73845 -2.43589,12.15759 -2.49666,11.59405 1.77513,16.45935 l 3.66367,4.17269 -4.70305,4.70305 c -2.58668,2.58668 -5.24534,4.70305 -5.90815,4.70305 -0.6628,0 -3.42574,-1.8553 -6.13986,-4.12288 z m -11.05117,-23.44357 c 3.63669,-4.12671 5.64145,-16.5933 5.6068,-34.86576 -0.0458,-24.16841 -3.12261,-31.80508 -12.81411,-31.80508 -5.69094,0 -9.38787,3.13773 -11.21881,9.52182 -1.5017,5.23614 -1.48544,40.17065 0.0225,48.33223 1.52777,8.26894 6.63318,13.42604 12.22963,12.35347 2.02321,-0.38775 4.8015,-1.97926 6.17399,-3.53668 z"
     id="path20"
     inkscape:connector-curvature="0" />
  <g
     id="g26">
    <path
       inkscape:connector-curvature="0"
       id="path12"
       d="m 92.700805,652.05878 c -27.89697,-6.93787 -49.45462,-27.11774 -60.41875,-56.55728 -3.61759,-9.7135 -3.69471,-14.22602 -3.47143,-203.12911 0.22401,-189.52646 0.30059,-193.41974 4.03281,-205.03541 7.47377,-23.2603 25.33897,-42.28011 49.75763,-52.97336 l 12.0267,-5.26666 H 273.17798 451.72819 l 12.0267,5.26666 c 24.41989,10.6938 42.2867,29.71605 49.75567,52.97336 3.72807,11.60872 3.80732,15.58533 4.04813,203.14135 0.18391,143.25493 -0.31086,193.4415 -1.97012,199.82415 -7.90108,30.39315 -34.14424,55.7698 -64.41402,62.28719 -14.52923,3.1283 -345.73259,2.63777 -358.473745,-0.53089 z M 210.80379,302.38017 c 2.60385,-2.09668 6.02711,-7.84991 7.60723,-12.78496 4.26328,-13.31501 19.58524,-74.74469 19.5996,-78.57981 0.009,-2.66992 -1.61476,-3.31461 -8.35345,-3.31461 -9.69245,0 -10.45642,1.15304 -13.8043,20.83474 -4.17019,24.51595 -5.77617,24.88624 -10.2685,2.36759 -4.49959,-22.55505 -4.90965,-23.20233 -14.69892,-23.20233 -4.48353,0 -8.59447,0.73308 -9.13542,1.62907 -0.54094,0.89599 3.19552,16.839 8.30324,35.42892 5.10773,18.58992 9.03981,35.88289 8.73795,38.42883 -0.53438,4.50714 -2.70171,6.504 -9.33756,8.60309 -2.28361,0.72236 -3.23796,2.99566 -3.23796,7.71293 v 6.68868 h 9.92691 c 7.1461,0 11.25312,-1.06789 14.66118,-3.81214 z m 189.94807,-14.48919 3.87497,-5.04286 -4.04168,-4.40403 c -3.88495,-4.23325 -3.94033,-4.82729 -1.42784,-15.31837 1.55792,-6.50528 2.57242,-20.12082 2.5113,-33.70433 -0.0884,-19.6438 -0.67843,-24.00785 -4.27429,-31.61179 -10.26132,-21.69891 -45.21457,-22.41189 -55.98877,-1.14206 -3.44186,6.7947 -4.28591,12.10046 -4.9481,31.10357 -0.95503,27.40638 1.89578,40.39807 10.77564,49.10696 5.18579,5.08592 7.11516,5.68511 20.27607,6.29693 12.47805,0.58007 15.13719,1.3215 18.71264,5.2175 5.40901,5.89394 9.73036,5.74479 14.53006,-0.50152 z m -40.10639,-24.70541 c -2.73704,-4.27614 -3.28061,-9.42148 -3.28061,-31.05327 0,-22.83883 0.41994,-26.40288 3.52473,-29.91486 4.80162,-5.43135 13.1741,-5.22647 16.78226,0.41068 6.7084,10.48069 5.08942,57.81213 -2.16571,63.31525 -5.18845,3.93552 -11.30275,2.80084 -14.86067,-2.7578 z m -43.19274,16.96037 c 8.85041,-4.61979 13.45142,-11.86323 14.47722,-22.79172 1.4885,-15.85794 -2.50002,-21.51971 -22.39589,-31.79141 -18.35619,-9.47678 -19.63298,-10.65157 -19.6754,-18.10362 -0.0638,-11.20507 13.78265,-12.73994 18.38268,-2.03772 2.53467,5.89704 3.15153,6.21277 11.10156,5.6822 7.59286,-0.50673 8.474,-1.0599 8.9914,-5.64471 2.06691,-18.31559 -24.6828,-30.54528 -44.8987,-20.52723 -10.23401,5.0715 -13.95814,12.0912 -13.95814,26.31001 0,10.08833 0.68185,12.27476 5.62549,18.03856 3.72821,4.34672 9.97763,8.26119 18.52961,11.60646 7.09725,2.77622 13.72457,6.61704 14.72738,8.53515 4.92967,9.42924 -0.8477,19.69478 -10.44401,18.5575 -4.95583,-0.58732 -8.11232,-4.53991 -10.70143,-13.40045 -0.75572,-2.58621 -3.01433,-3.31461 -10.27794,-3.31461 h -9.30937 v 6.72329 c 0,8.9829 4.4294,17.25503 11.65397,21.7644 7.89323,4.92674 29.06908,5.14525 38.17157,0.3939 z M 108.63477,255.526 c 0.0715,-14.32389 0.79837,-27.7481 1.61521,-29.83157 1.71735,-4.3804 2.67453,-1.27547 9.34244,30.30508 5.83993,27.65914 4.70496,25.56992 13.89083,25.56992 9.18587,0 8.05091,2.08922 13.89084,-25.56992 6.66791,-31.58055 7.62509,-34.68548 9.34244,-30.30508 0.81684,2.08347 1.54368,15.55438 1.61521,29.93535 l 0.13004,26.14721 8.78874,-0.5773 8.78874,-0.57729 0.52168,-44.5106 c 0.28692,-24.48082 0.0629,-46.42834 -0.49782,-48.77225 -0.93501,-3.90853 -2.08072,-4.26165 -13.82687,-4.26165 -8.09612,0 -13.35802,0.85767 -14.30427,2.33154 -0.82329,1.28234 -3.99475,14.11973 -7.04768,28.5275 -3.05293,14.40778 -6.3834,26.19596 -7.40105,26.19596 -1.01764,0 -4.34811,-11.96489 -7.40104,-26.58864 -3.05293,-14.62375 -6.46594,-27.50301 -7.58446,-28.62056 -1.17311,-1.17209 -7.43674,-1.79216 -14.80209,-1.46534 l -12.768415,0.56657 -0.49644,46.36889 c -0.27304,25.50289 -0.091,47.4504 0.4045,48.77225 0.54449,1.4525 4.21806,2.40336 9.285175,2.40336 h 8.38425 z m 354.76394,17.99364 -0.56895,-8.04979 -16.18979,-0.54726 -16.18979,-0.54725 -0.0283,-38.28113 c -0.0148,-21.05463 -0.72257,-39.40185 -1.57108,-40.7716 -0.99696,-1.60938 -4.42353,-2.27946 -9.68554,-1.89407 l -8.1428,0.59639 -0.4938,48.77225 -0.4938,48.77225 h 26.96642 26.96641 z"
       style="fill:#2d71b6;stroke-width:1.87203634" />
    <path
       inkscape:connector-curvature="0"
       id="path22"
       d="m 411,232.46613 v -48.34822 l 8.54025,0.3461 8.54026,0.3461 0.78028,5.88983 c 0.42915,3.23941 0.82671,21.07305 0.88347,39.63033 0.0906,29.61872 0.33082,33.82784 1.96649,34.4555 1.02481,0.39326 8.446,0.71502 16.49152,0.71502 h 14.62824 v 7.65678 7.65678 H 436.91525 411 Z"
       style="opacity:1;fill:#ffffff;fill-opacity:1;stroke-width:1.17796612" />
  </g>
</svg>
