<?xml version="1.0" encoding="UTF-8" standalone="no"?>
<!-- Created with Inkscape (http://www.inkscape.org/) -->

<svg
   xmlns:dc="http://purl.org/dc/elements/1.1/"
   xmlns:cc="http://creativecommons.org/ns#"
   xmlns:rdf="http://www.w3.org/1999/02/22-rdf-syntax-ns#"
   xmlns:svg="http://www.w3.org/2000/svg"
   xmlns="http://www.w3.org/2000/svg"
   xmlns:sodipodi="http://sodipodi.sourceforge.net/DTD/sodipodi-0.dtd"
   xmlns:inkscape="http://www.inkscape.org/namespaces/inkscape"
   width="297mm"
   height="420mm"
   viewBox="0 0 297 420"
   version="1.1"
   id="svg97"
   inkscape:version="0.92.2 (5c3e80d, 2017-08-06)"
   sodipodi:docname="AWS_Internet_Gateway.svg">
  <defs
     id="defs91" />
  <sodipodi:namedview
     id="base"
     pagecolor="#ffffff"
     bordercolor="#666666"
     borderopacity="1.0"
     inkscape:pageopacity="0.0"
     inkscape:pageshadow="2"
     inkscape:zoom="0.35"
     inkscape:cx="400"
     inkscape:cy="560"
     inkscape:document-units="mm"
     inkscape:current-layer="layer1"
     showgrid="false"
     inkscape:window-width="1920"
     inkscape:window-height="1001"
     inkscape:window-x="-9"
     inkscape:window-y="-9"
     inkscape:window-maximized="1" />
  <metadata
     id="metadata94">
    <rdf:RDF>
      <cc:Work
         rdf:about="">
        <dc:format>image/svg+xml</dc:format>
        <dc:type
           rdf:resource="http://purl.org/dc/dcmitype/StillImage" />
        <dc:title></dc:title>
      </cc:Work>
    </rdf:RDF>
  </metadata>
  <g
     inkscape:label="Layer 1"
     inkscape:groupmode="layer"
     id="layer1"
     transform="translate(0,123)">
    <g
       id="g131">
      <path
         inkscape:connector-curvature="0"
         id="path116"
         d="M 136.28042,233.81546 C 103.9131,230.89782 75.122965,218.43571 51.415415,197.08079 30.914225,178.61404 17.893445,157.27959 11.161745,131.12548 9.1116948,123.16057 8.7478348,119.39939 8.3381248,101.93758 7.9655448,86.058312 8.1879148,79.857897 9.4081948,72.100812 14.069805,42.467745 27.602595,17.605183 50.508325,-3.4087196 77.949965,-28.583905 111.33556,-41.28728 150.05654,-41.28728 c 23.88916,0 43.72907,4.326226 64.19455,13.998049 13.80749,6.525316 23.77487,13.258029 35.35366,23.8805114 22.90575,21.0139026 36.43854,45.8764646 41.10015,75.5095316 1.22028,7.757085 1.44266,13.9575 1.07008,29.836768 -0.40973,17.46181 -0.77357,21.22299 -2.82363,29.1879 -4.39361,17.07014 -11.14407,31.41167 -21.51797,45.7155 -7.5125,10.35842 -26.51846,28.06052 -37.27887,34.7214 -28.35442,17.55191 -60.77319,25.23685 -93.87409,22.25308 z m 86.91086,-94.40815 c 20.18471,-4.90118 34.31075,-20.13404 34.27229,-36.95764 -0.0375,-16.429323 -13.24212,-33.354413 -30.48384,-39.073039 -6.32521,-2.097906 -6.53913,-2.282257 -8.26342,-7.121831 -2.12494,-5.964027 -8.88248,-12.740807 -15.7032,-15.747906 -6.98307,-3.078667 -12.84038,-3.809171 -20.35164,-2.538186 l -5.98392,1.012543 -3.25164,-3.779556 c -10.88782,-12.655486 -23.844,-19.684671 -39.65587,-21.514692 -13.87206,-1.605515 -27.69479,1.47359 -39.411585,8.779196 -13.82336,8.61908 -22.34656,21.617426 -25.09424,38.270061 -0.43769,2.652675 -1.31453,3.662387 -5.19772,5.985361 -12.45061,7.448109 -21.3864,22.354898 -21.41698,35.728049 -0.0381,16.6512 13.96956,31.91696 33.87187,36.91414 7.45928,1.87292 138.975085,1.91192 146.669895,0.0435 z M 83.055385,126.74125 c -15.20746,-2.86233 -25.47182,-12.87233 -25.47182,-24.8406 0,-4.407554 0.59214,-6.475464 3.29814,-11.517884 4.50007,-8.385549 8.37603,-11.394935 20.28714,-15.751379 2.41963,-0.884974 2.56949,-1.25641 2.5825,-6.400484 0.0314,-12.434582 4.63168,-22.490347 13.97966,-30.558438 21.900955,-18.902349 55.331895,-12.24569 68.513035,13.642091 1.81832,3.571191 3.67294,6.70447 4.12138,6.962828 0.44843,0.258367 3.41318,-1.121771 6.58832,-3.06697 6.44953,-3.951195 11.94796,-5.024439 17.30203,-3.377183 7.49635,2.306369 11.78786,8.239736 11.82449,16.348369 0.024,5.317619 0.74175,5.873989 8.48974,6.58116 6.86569,0.626651 13.10312,3.4619 18.60337,8.456254 6.04066,5.485068 8.59706,10.406702 9.15255,17.620736 0.39315,5.10565 0.12519,6.47125 -2.10278,10.71648 -3.01733,5.74926 -9.15293,10.64674 -17.07363,13.6283 l -5.37286,2.02248 -65.38494,0.13898 c -35.96171,0.0765 -67.163055,-0.1957 -69.336325,-0.60474 z"
         style="fill:#f38436;stroke-width:0.90186584" />
      <path
         transform="matrix(0.26458333,0,0,0.26458333,0,-123)"
         inkscape:connector-curvature="0"
         id="path127"
         d="m 314.28571,992.05929 c -33.02197,-2.29866 -50.93148,-7.8812 -78.74355,-24.545 -56.53589,-33.87386 -83.13752,-91.35372 -68.42311,-147.84614 9.0626,-34.79368 33.81114,-71.11977 62.88514,-92.30326 10.54043,-7.67983 21.63365,-15.89189 24.65161,-18.24903 3.44955,-2.69423 7.56046,-13.01329 11.0703,-27.78825 13.31643,-56.05662 42.86845,-98.79981 88.39386,-127.85037 39.26624,-25.05647 76.40465,-35.70939 124.45147,-35.69811 68.9962,0.0162 118.19377,21.23512 167.75688,72.35356 l 22.0426,22.73431 23.67169,-3.29113 c 30.41626,-4.22883 51.48003,-0.90625 78.40897,12.36815 24.64154,12.14687 45.91474,34.00875 55.42849,56.96239 6.82477,16.46596 13.14771,21.1632 40.34388,29.97101 14.56369,4.71661 42.87749,23.47522 57.49243,38.09014 50.66743,50.66744 61.68366,117.88741 27.87457,170.0879 -20.11668,31.05974 -56.84488,57.80883 -97.30523,70.86729 -14.49382,4.67782 -34.90851,5.11651 -262.85714,5.64831 C 455.5,993.88817 330.78571,993.20789 314.28571,992.05929 Z M 855.469,933.78292 c 26.32606,-12.86186 46.03394,-31.19 55.66889,-51.77155 9.03342,-19.29665 7.54054,-48.14488 -3.67815,-71.07505 -14.83151,-30.31453 -56.16877,-59.48681 -89.66251,-63.27611 -34.61714,-3.91639 -35.69046,-4.84011 -38.98794,-33.55349 -1.71555,-14.93833 -9.5022,-32.29173 -17.89538,-39.88173 -2.97462,-2.68998 -11.69025,-7.66964 -19.36811,-11.06591 -21.21569,-9.38472 -43.56457,-6.72745 -71.2602,8.47279 -11.79474,6.47334 -22.67277,11.7697 -24.17334,11.7697 -1.5006,0 -8.954,-11.22858 -16.56315,-24.95241 C 604.52611,613.3178 566.04614,582.42845 520,570.5099 c -25.58271,-6.62181 -72.00849,-4.77968 -95.52044,3.79016 -24.08291,8.77794 -45.57093,22.35965 -64.18438,40.56835 -28.23462,27.62065 -41.2516,57.3066 -44.69364,101.92638 l -2.02499,26.25035 -22.71929,9.15816 c -30.21861,12.18114 -49.50913,29.7797 -63.35195,57.79542 -8.67945,17.56583 -10.35792,23.9536 -10.33454,39.33025 0.0624,41.0568 27.77374,73.58809 77.04897,90.45049 l 18.6374,6.37789 260,-0.6636 260,-0.6636 z"
         style="opacity:1;fill:#ffffff;fill-opacity:1;stroke-width:2.85714293" />
    </g>
  </g>
</svg>
