<?xml version="1.0" encoding="UTF-8" standalone="no"?>
<!-- Created with Inkscape (http://www.inkscape.org/) -->

<svg
   xmlns:dc="http://purl.org/dc/elements/1.1/"
   xmlns:cc="http://creativecommons.org/ns#"
   xmlns:rdf="http://www.w3.org/1999/02/22-rdf-syntax-ns#"
   xmlns:svg="http://www.w3.org/2000/svg"
   xmlns="http://www.w3.org/2000/svg"
   xmlns:sodipodi="http://sodipodi.sourceforge.net/DTD/sodipodi-0.dtd"
   xmlns:inkscape="http://www.inkscape.org/namespaces/inkscape"
   width="297mm"
   height="420mm"
   viewBox="0 0 297 420"
   version="1.1"
   id="svg258"
   inkscape:version="0.92.2 (5c3e80d, 2017-08-06)"
   sodipodi:docname="AWS_VPC_Peering.svg">
  <defs
     id="defs252" />
  <sodipodi:namedview
     id="base"
     pagecolor="#ffffff"
     bordercolor="#666666"
     borderopacity="1.0"
     inkscape:pageopacity="0.0"
     inkscape:pageshadow="2"
     inkscape:zoom="0.35"
     inkscape:cx="400"
     inkscape:cy="560"
     inkscape:document-units="mm"
     inkscape:current-layer="layer1"
     showgrid="false"
     inkscape:window-width="1920"
     inkscape:window-height="1001"
     inkscape:window-x="-9"
     inkscape:window-y="-9"
     inkscape:window-maximized="1" />
  <metadata
     id="metadata255">
    <rdf:RDF>
      <cc:Work
         rdf:about="">
        <dc:format>image/svg+xml</dc:format>
        <dc:type
           rdf:resource="http://purl.org/dc/dcmitype/StillImage" />
        <dc:title></dc:title>
      </cc:Work>
    </rdf:RDF>
  </metadata>
  <g
     inkscape:label="Layer 1"
     inkscape:groupmode="layer"
     id="layer1"
     transform="translate(0,123)">
    <g
       id="g303">
      <path
         inkscape:connector-curvature="0"
         id="path288"
         d="M 125.49317,245.25667 C 94.483337,239.99803 68.628777,226.40642 46.058217,203.49812 25.203607,182.33146 12.715227,159.2773 6.2651266,130.03815 c -2.03087,-9.20616 -2.22036,-12.3365 -2.19637,-36.282051 0.0295,-29.412184 0.96375,-36.20099 7.7002904,-55.953737 18.52537,-54.319681 68.31147,-93.131531 125.553953,-97.87834 65.37963,-5.421579 127.45294,35.422123 148.75321,97.87834 6.73655,19.752747 7.67081,26.541553 7.70029,55.953737 0.024,23.945551 -0.1655,27.075891 -2.19636,36.282051 -6.4501,29.23915 -18.93849,52.29331 -39.79309,73.45997 -20.73143,21.04165 -44.62654,34.32943 -73.21898,40.71618 -9.802,2.18951 -42.52105,2.83208 -53.0749,1.04237 z m 38.41296,-42.78902 c 7.56948,-13.29521 13.54819,-24.74046 13.28603,-25.43388 -0.33616,-0.88912 -2.74064,-1.26076 -8.15713,-1.26076 h -7.68044 v -23.64087 -23.64087 l 16.9744,-0.5189 c 14.13283,-0.43204 17.86761,-0.86285 22.30997,-2.57348 9.42046,-3.62756 16.1837,-11.04401 18.50937,-20.29704 l 1.14397,-4.55145 h 7.58795 7.58794 l 0.27775,8.00758 c 0.20711,5.97106 0.60891,8.00756 1.57988,8.00756 1.73938,0 48.6398,-27.579301 49.05611,-28.846933 0.32017,-0.974885 -45.07734,-28.19415 -48.56925,-29.120971 -1.62286,-0.430739 -1.81121,0.265725 -2.06511,7.636104 l -0.27938,8.110074 -14.91603,0.26655 c -14.03466,0.250797 -15.20931,0.128626 -19.8798,-2.067622 -4.1268,-1.940578 -5.36863,-3.158747 -7.3648,-7.224485 -4.16988,-8.493079 -11.62375,-12.48703 -21.59222,-11.569596 -5.46632,0.503089 -5.68189,0.431428 -8.00615,-2.661424 l -2.38857,-3.178441 0.25606,-24.151138 0.25606,-24.15114064 7.99051,-0.283564 c 7.2752,-0.2581786 7.9485,-0.44656406 7.52136,-2.10440726 -0.72315,-2.8067029 -27.52971,-49.5398911 -28.41651,-49.5398911 -0.90402,0 -27.67144,46.6056271 -28.40693,49.4602493 -0.45331,1.759382 0.1036,1.92153866 7.50084,2.18404906 l 7.99051,0.283564 V 17.562881 35.519244 l -5.73783,0.662862 c -17.49288,2.020858 -30.380513,13.807541 -33.875533,30.981677 -1.52691,7.503081 -2.26931,7.784268 -19.67752,7.452997 l -14.34457,-0.272966 -0.27938,-8.110074 c -0.2539,-7.370379 -0.44225,-8.066843 -2.06511,-7.636104 -3.49191,0.926821 -48.88942,28.146086 -48.56925,29.120971 0.41632,1.267632 47.31673,28.846933 49.05611,28.846933 0.97097,0 1.37277,-2.0365 1.57988,-8.00756 l 0.27775,-8.00758 h 7.58795 7.58795 l 1.14396,4.55145 c 2.32567,9.25303 9.08891,16.66948 18.50938,20.29704 4.443153,1.71093 8.177413,2.14145 22.326643,2.57396 l 16.9911,0.5194 -0.25577,23.39772 -0.25576,23.39774 -7.45713,0.28432 c -4.90536,0.18702 -7.61578,0.70395 -7.92076,1.51061 -0.39939,1.05634 4.52719,10.12734 23.69979,43.63704 2.07924,3.63407 4.23687,6.45299 4.79473,6.26425 0.55787,-0.18874 7.20751,-11.22107 14.77698,-24.51628 z M 100.1511,115.51337 c -4.971883,-2.28777 -8.225443,-5.12913 -10.132063,-8.84842 -1.53424,-2.99289 -1.77105,-10.185424 -0.45135,-13.708453 1.49387,-3.987972 6.88194,-9.470467 11.484513,-11.685778 l 4.35857,-2.097876 0.61804,-7.010533 c 0.9633,-10.926709 6.77255,-19.211882 16.59545,-23.668448 13.07606,-5.93251 29.82378,0.372483 35.95602,13.536323 3.39969,7.29797 3.28356,7.247926 9.09478,3.919194 4.26438,-2.442677 5.82099,-2.856896 8.68601,-2.311372 4.85054,0.923588 8.89681,5.498433 8.91577,10.080499 0.0202,4.879404 0.67367,5.555466 6.60867,6.837133 6.92908,1.496347 11.20768,4.340606 14.53137,9.659951 2.05872,3.294827 2.75293,5.593921 2.75293,9.117118 0,7.636542 -3.43599,12.481292 -11.47565,16.180662 -4.13378,1.90212 -6.05577,1.98016 -48.77153,1.98016 -42.71576,0 -44.63775,-0.078 -48.77153,-1.98016 z"
         style="fill:#f38537;stroke-width:0.96343279" />
      <path
         transform="matrix(0.26458333,0,0,0.26458333,0,-123)"
         inkscape:connector-curvature="0"
         id="path299"
         d="m 555.43926,1312.6873 c -8.02215,-12.0797 -77.05406,-133.8151 -89.00749,-156.9616 -5.83206,-11.2932 -9.70211,-21.4347 -8.60011,-22.5367 1.10197,-1.102 14.06625,-2.6346 28.80951,-3.4058 l 26.80589,-1.4021 1.84791,-34.3669 c 1.01634,-18.9018 1.84789,-59.0655 1.84789,-89.2527 v -54.88567 l -53.57143,-1.98648 c -29.46429,-1.09258 -61.80612,-3.2486 -71.87069,-4.79118 -46.67368,-7.15351 -81.72407,-39.10551 -94.4768,-86.12517 l -3.68086,-13.57143 H 263.9144 234.28571 l -0.0315,19.28572 c -0.0395,24.1986 -2.68849,40.71428 -6.53036,40.71428 -5.4231,0 -157.7987,-89.00914 -177.455301,-103.65928 -5.103766,-3.80386 -4.206831,-4.85954 14.285714,-16.81429 56.708747,-36.66014 163.486427,-98.15234 166.026027,-95.61274 0.94244,0.94243 2.32767,14.46743 3.07829,30.05554 l 1.36477,28.34203 38.52281,2.06326 c 48.11827,2.5772 74.24839,0.20857 82.42362,-7.47172 3.35268,-3.14968 7.635,-12.8904 9.66866,-21.9926 8.30791,-37.1848 28.84368,-69.22851 56.56557,-88.26414 24.57354,-16.8738 43.62277,-23.82183 77.08165,-28.11483 l 15,-1.9246 v -67.97007 -67.97009 l -6.42857,-1.72279 c -3.53571,-0.94754 -15.79034,-1.74035 -27.23251,-1.7618 -15.53177,-0.0291 -21.20772,-1.09118 -22.39714,-4.1908 -2.38972,-6.22745 98.70682,-184.41965 104.62965,-184.41965 5.72389,0 107.04743,178.11909 104.74166,184.12785 -1.04946,2.73484 -8.96703,4.15323 -27.1626,4.86606 -14.12477,0.55335 -26.5678,1.89411 -27.6512,2.97946 -1.0834,1.08535 -2.66554,42.44507 -3.51583,91.91049 l -1.546,89.93709 8.97849,11.33628 8.97848,11.33626 29.30277,1.19366 c 41.96683,1.70954 53.54772,8.67451 77.48083,46.59857 18.09772,28.67734 42.37406,35.23431 116.69517,31.519 l 41.53252,-2.0762 1.36448,-28.33637 c 0.75046,-15.585 2.13558,-29.10746 3.07803,-30.04989 2.5396,-2.5396 109.31721,58.9526 166.02601,95.61274 18.4925,11.95475 19.3894,13.01043 14.2857,16.81429 -19.6566,14.65014 -172.03216,103.65928 -177.45528,103.65928 -3.84186,0 -6.49091,-16.51568 -6.53034,-40.71428 l -0.0315,-19.28572 H 861.79989 832.1712 l -3.68086,13.57143 c -12.81843,47.26195 -47.56263,78.9348 -94.4768,86.12517 -10.06457,1.54258 -42.4064,3.6986 -71.87068,4.79118 l -53.57143,1.98648 v 89.18837 89.1885 l 28.95123,1.7637 c 15.92317,0.9701 29.5034,2.316 30.17828,2.9909 3.89792,3.8979 -98.89725,187.5371 -104.97708,187.5371 -1.13666,0 -4.41475,-3.5357 -7.2846,-7.8571 z M 753.76814,899.269 c 34.96155,-19.36711 46.7294,-52.02843 30.938,-85.86743 C 773.26389,788.8822 757.2614,777.5732 717.26471,765.7406 l -12.73528,-3.7676 -3.20854,-17.87131 c -3.5448,-19.74417 -11.09686,-30.33486 -26.22912,-36.78263 -13.56528,-5.78009 -21.27406,-4.869 -39.37748,4.65394 -8.962,4.71429 -18.07406,8.57143 -20.249,8.57143 -2.17495,0 -7.90309,-7.82217 -12.72918,-17.38263 -16.88525,-33.44951 -45.08568,-55.29203 -80.78317,-62.57023 -22.29283,-4.5452 -41.06088,-1.53871 -64.92625,10.40066 -33.00243,16.51046 -51.7886,44.2632 -56.96726,84.1576 -1.50709,11.60989 -2.77983,22.68989 -2.82834,24.62226 -0.0486,1.93234 -5.55252,6.29643 -12.23109,9.69794 -31.81406,16.20352 -47.81451,36.63172 -49.99803,63.83372 -1.6456,20.50071 2.21852,34.92757 12.68754,47.36931 8.40023,9.98309 28.8842,22.59531 41.83043,25.75551 4.97832,1.2152 85.55149,1.99555 179.05149,1.73409 l 170,-0.47537 z"
         style="opacity:1;fill:#ffffff;fill-opacity:1;stroke-width:2.85714293" />
    </g>
  </g>
</svg>
