<?xml version="1.0" encoding="UTF-8" standalone="no"?>
<!-- Created with Inkscape (http://www.inkscape.org/) -->

<svg
   xmlns:dc="http://purl.org/dc/elements/1.1/"
   xmlns:cc="http://creativecommons.org/ns#"
   xmlns:rdf="http://www.w3.org/1999/02/22-rdf-syntax-ns#"
   xmlns:svg="http://www.w3.org/2000/svg"
   xmlns="http://www.w3.org/2000/svg"
   xmlns:sodipodi="http://sodipodi.sourceforge.net/DTD/sodipodi-0.dtd"
   xmlns:inkscape="http://www.inkscape.org/namespaces/inkscape"
   width="420mm"
   height="594mm"
   viewBox="0 0 420 594"
   version="1.1"
   id="svg108"
   inkscape:version="0.92.2 (5c3e80d, 2017-08-06)"
   sodipodi:docname="AWS_InternetGateway.svg">
  <defs
     id="defs102" />
  <sodipodi:namedview
     id="base"
     pagecolor="#ffffff"
     bordercolor="#666666"
     borderopacity="1.0"
     inkscape:pageopacity="0.0"
     inkscape:pageshadow="2"
     inkscape:zoom="0.35"
     inkscape:cx="814.80315"
     inkscape:cy="1017.1429"
     inkscape:document-units="mm"
     inkscape:current-layer="layer1"
     showgrid="false"
     inkscape:window-width="1920"
     inkscape:window-height="1001"
     inkscape:window-x="-9"
     inkscape:window-y="-9"
     inkscape:window-maximized="1" />
  <metadata
     id="metadata105">
    <rdf:RDF>
      <cc:Work
         rdf:about="">
        <dc:format>image/svg+xml</dc:format>
        <dc:type
           rdf:resource="http://purl.org/dc/dcmitype/StillImage" />
        <dc:title></dc:title>
      </cc:Work>
    </rdf:RDF>
  </metadata>
  <g
     inkscape:label="Layer 1"
     inkscape:groupmode="layer"
     id="layer1"
     transform="translate(0,297)">
    <g
       id="g126">
      <path
         inkscape:connector-curvature="0"
         id="path121"
         d="M 190.31235,185.05811 C 147.24438,180.96162 108.9362,163.46432 77.390923,133.48114 50.112043,107.55308 32.786583,77.598649 23.829383,40.877209 21.101583,29.69415 20.617433,24.413308 20.072273,-0.10377581 19.576513,-22.398909 19.872403,-31.104543 21.496103,-41.995804 c 6.20275,-41.60603 24.20949,-76.514066 54.68786,-106.018436 36.513857,-35.34698 80.936747,-53.18303 132.458897,-53.18303 31.78693,0 58.18592,6.07419 85.41729,19.65383 18.37225,9.1618 31.63485,18.6148 47.0416,33.5292 30.47838,29.50437 48.48511,64.412406 54.68787,106.018436 1.6237,10.891261 1.91959,19.596895 1.42383,41.89202819 -0.54517,24.51708381 -1.02931,29.79792581 -3.75712,40.98098481 -5.84613,23.967171 -14.8283,44.103256 -28.63182,64.186421 -9.99612,14.54364 -35.28546,39.39811 -49.60326,48.75025 -37.72841,24.64359 -80.86483,35.43356 -124.9089,31.24423 z M 305.95598,52.505232 c 26.85777,-6.881444 45.65389,-28.269006 45.60271,-51.89002181 -0.05,-23.06742419 -17.61996,-46.83093519 -40.5618,-54.86011819 -8.41634,-2.945545 -8.70097,-3.204381 -10.99531,-9.999336 -2.82744,-8.37374 -11.81903,-17.88861 -20.89469,-22.1107 -9.29167,-4.32257 -17.08541,-5.34823 -27.0799,-3.56372 l -7.9622,1.42166 -4.32664,-5.30665 c -14.48733,-17.768816 -31.72683,-27.638076 -52.76612,-30.207506 -18.45816,-2.2542 -36.85069,2.06898 -52.44107,12.32635 -18.39337,12.101536 -29.73435,30.351736 -33.39041,53.732715 -0.58239,3.724463 -1.749107,5.142139 -6.916087,8.403689 -16.56678,10.457447 -28.45675,31.387182 -28.49744,50.16361619 -0.0507,23.37896581 18.5879,44.81270581 45.069917,51.82895281 9.92532,2.629651 184.92031,2.684411 195.15904,0.06101 z M 119.49109,34.721573 C 99.256033,30.702745 85.598273,16.648304 85.598273,-0.15562581 c 0,-6.18838999 0.7879,-9.09181699 4.38851,-16.17157819 5.9878,-11.773647 11.145147,-15.998947 26.994067,-22.11557 3.21956,-1.242539 3.41898,-1.764051 3.43628,-8.986539 0.0418,-17.458661 6.16292,-31.577361 18.60135,-42.905281 29.14142,-26.539666 73.62465,-17.193446 91.16347,19.15405 2.41947,5.01409 4.88722,9.41334 5.48391,9.77609 0.59668,0.36275 4.54158,-1.57501 8.76642,-4.30615 8.58175,-5.54764 15.89797,-7.05452 23.02209,-4.7417 9.97465,3.23823 15.68493,11.568919 15.73367,22.953768 0.0319,7.466151 0.98697,8.247318 11.29645,9.240215 9.13549,0.879843 17.43502,4.860648 24.75365,11.872922 8.03771,7.701257 11.43926,14.611432 12.1784,24.7402202 0.52312,7.168547 0.16657,9.085899 -2.79797,15.0463718 -4.01486,8.072193 -12.17889,14.948454 -22.71817,19.134679 l -7.14913,2.839644 -87.00122,0.195139 c -47.85068,0.107344 -89.36721,-0.274767 -92.25896,-0.849082 z"
         style="fill:#f38436;stroke-width:1.23269486" />
    </g>
    <path
       style="opacity:1;fill:#ffffff;fill-opacity:1;stroke-width:2.85714293"
       d="m 491.94601,1323.7925 c -35.35715,-1.1121 -70.07143,-3.5944 -77.14286,-5.5162 -41.59851,-11.3051 -80.99336,-35.3467 -112.09627,-68.4093 -63.52046,-67.5226 -69.87572,-151.06 -18.15068,-238.5837 13.96197,-23.62502 47.91229,-59.1921 71.79062,-75.20944 9.49188,-6.36706 18.75112,-13.37561 20.57608,-15.57456 1.82497,-2.19895 6.08776,-16.79843 9.47288,-32.4433 20.63163,-95.35233 72.27668,-163.35746 155.55023,-204.82532 41.99743,-20.91352 78.17243,-29.11515 128.57143,-29.14982 83.8404,-0.0577 146.45128,25.87662 205.9676,85.31458 15.8536,15.83273 32.62988,33.58644 37.28065,39.45267 l 8.45592,10.66589 24.14791,-4.55634 c 82.50888,-15.56815 158.40998,24.53401 188.18658,99.42789 3.5432,8.91183 8.584,18.11396 11.2018,20.44919 2.6177,2.33522 15.9455,8.6694 29.6172,14.07594 36.9407,14.60838 54.9638,26.47226 83.5994,55.02998 28.3074,28.23044 45.3612,54.86784 57.946,90.50944 9.8565,27.9147 12.1914,74.9581 5.0776,102.3036 -17.2807,66.4271 -73.0084,121.7958 -148.6235,147.666 -17.9742,6.1495 -27.5247,7.1131 -94.2857,9.513 -84.15612,3.0252 -489.58535,2.9284 -587.14289,-0.14 z m 662.09689,-76.4099 c 47.6981,-20.5671 73.8197,-43.0285 90.4449,-77.7718 7.8644,-16.4348 8.8667,-21.3655 8.7119,-42.8571 -0.3009,-41.7749 -13.6753,-73.0847 -43.6784,-102.2517 -29.0908,-28.28026 -55.2832,-40.84312 -99.7487,-47.84326 -32.4912,-5.11503 -37.8266,-9.15643 -37.8266,-28.6524 0,-56.34724 -35.1137,-95.5729 -85.50896,-95.52246 -21.67809,0.0217 -31.71069,3.2762 -61.18166,19.84691 -13.89414,7.81228 -27.47077,14.90516 -30.17026,15.76194 -3.87963,1.23135 -8.46486,-5.15961 -21.88077,-30.49788 -30.82849,-58.22481 -60.63989,-89.08687 -108.4012,-112.22158 -37.20849,-18.02313 -59.06474,-22.48078 -101.99309,-20.80183 -61.83662,2.41846 -99.47751,19.26158 -145.22105,64.9819 -42.60789,42.58624 -58.63715,79.1078 -62.44105,142.26758 -1.47927,24.56168 -3.3452,36.24139 -6.2284,38.98648 -2.26402,2.15557 -13.75927,8.08874 -25.54498,13.18483 -46.25956,20.00247 -63.60624,36.21307 -85.20554,79.62557 -12.35808,24.8385 -13.44077,28.759 -14.35893,51.9949 -1.54164,39.0138 9.65581,66.3163 38.71078,94.3876 16.77842,16.2103 30.49538,24.8026 56.56797,35.4341 27.74877,11.3149 39.76982,11.6814 402.09686,12.258 l 307.81118,0.4898 z"
       id="path123"
       inkscape:connector-curvature="0"
       transform="matrix(0.26458333,0,0,0.26458333,0,-297)" />
  </g>
</svg>
