<?xml version="1.0" encoding="UTF-8" standalone="no"?>
<!-- Created with Inkscape (http://www.inkscape.org/) -->

<svg
   xmlns:dc="http://purl.org/dc/elements/1.1/"
   xmlns:cc="http://creativecommons.org/ns#"
   xmlns:rdf="http://www.w3.org/1999/02/22-rdf-syntax-ns#"
   xmlns:svg="http://www.w3.org/2000/svg"
   xmlns="http://www.w3.org/2000/svg"
   xmlns:sodipodi="http://sodipodi.sourceforge.net/DTD/sodipodi-0.dtd"
   xmlns:inkscape="http://www.inkscape.org/namespaces/inkscape"
   width="297mm"
   height="420mm"
   viewBox="0 0 297 420"
   version="1.1"
   id="svg211"
   inkscape:version="0.92.2 (5c3e80d, 2017-08-06)"
   sodipodi:docname="AWS_VPN_Connection.svg">
  <defs
     id="defs205" />
  <sodipodi:namedview
     id="base"
     pagecolor="#ffffff"
     bordercolor="#666666"
     borderopacity="1.0"
     inkscape:pageopacity="0.0"
     inkscape:pageshadow="2"
     inkscape:zoom="0.35"
     inkscape:cx="400"
     inkscape:cy="560"
     inkscape:document-units="mm"
     inkscape:current-layer="layer1"
     showgrid="false"
     inkscape:window-width="1920"
     inkscape:window-height="1001"
     inkscape:window-x="-9"
     inkscape:window-y="-9"
     inkscape:window-maximized="1" />
  <metadata
     id="metadata208">
    <rdf:RDF>
      <cc:Work
         rdf:about="">
        <dc:format>image/svg+xml</dc:format>
        <dc:type
           rdf:resource="http://purl.org/dc/dcmitype/StillImage" />
        <dc:title></dc:title>
      </cc:Work>
    </rdf:RDF>
  </metadata>
  <g
     inkscape:label="Layer 1"
     inkscape:groupmode="layer"
     id="layer1"
     transform="translate(0,123)">
    <path
       style="fill:#f38537;stroke-width:1.18363094"
       d="m 60.668533,171.33838 0.28965,-60.58466 10.00494,-0.36677 c 6.27527,-0.23005 10.32425,-0.93216 10.86149,-1.88346 1.56566,-2.77232 1.03385,-20.537933 -0.66222,-22.122028 -1.03298,-0.964783 -5.98288,-1.331572 -14.7837,-1.095477 l -13.23077,0.354933 -0.33342,9.415837 c -0.18338,5.178705 -0.68559,9.812155 -1.11602,10.296545 -0.43042,0.48439 -11.57736,-7.457667 -24.77097,-17.649037 L 2.9391233,69.174506 2.6554933,61.084386 2.3718533,52.994265 26.504063,34.496046 c 13.27271,-10.174021 24.57181,-18.192469 25.1091,-17.818773 0.53729,0.373696 0.97689,4.540914 0.97689,9.260486 0,6.666469 0.39377,8.751091 1.76488,9.3432 3.41163,1.473306 24.51421,0.826672 26.34881,-0.807391 0.96919,-0.863253 2.37931,-4.677261 3.13359,-8.475573 4.71498,-23.7429544 20.181147,-42.57933 41.876957,-51.002315 7.82126,-3.036453 10.55111,-3.451555 22.83035,-3.471583 21.87578,-0.03568 36.5845,5.747421 49.67912,19.5325828 9.02277,9.49858386 13.67635,19.5715512 15.38633,33.3046202 0.67101,5.389098 1.74501,10.213484 2.38664,10.720861 1.40423,1.110408 24.23362,1.280148 26.73762,0.198798 1.37112,-0.592109 1.76489,-2.676731 1.76489,-9.3432 0,-4.719572 0.43873,-8.88619 0.97497,-9.259153 0.53623,-0.372961 5.95086,3.12518 12.03251,7.773649 6.08166,4.648469 16.94753,12.972068 24.1464,18.496887 l 13.08886,10.045123 -0.29591,8.088324 -0.29591,8.088324 -23.25177,17.966216 c -12.78849,9.881423 -23.93882,17.966211 -24.77854,17.966211 -1.13246,0 -1.61091,-2.51308 -1.85262,-9.731209 l -0.32587,-9.731213 H 229.4366 214.93183 v 11.928584 11.928578 l 9.81481,0.36365 c 6.44178,0.23867 9.9676,0.88595 10.25944,1.88346 0.24456,0.8359 0.59952,28.21787 0.78878,60.84883 l 0.34413,59.32901 H 148.25893 60.378873 Z M 176.9963,97.569502 V 85.640918 h -30.68316 -30.68315 l -0.31955,12.262435 -0.31957,12.262437 31.00272,-0.33386 31.00271,-0.33385 z m -5.35968,-63.59955 c 0.48344,-1.417792 -0.7206,-3.571684 -3.80878,-6.813475 -11.00452,-11.551893 -33.14062,-11.551893 -44.14514,0 -3.08819,3.241791 -4.29223,5.395683 -3.80879,6.813475 0.62823,1.842366 3.50953,2.073167 25.88136,2.073167 22.37182,0 25.25313,-0.230801 25.88135,-2.073167 z"
       id="path241"
       inkscape:connector-curvature="0" />
  </g>
</svg>
