<?xml version="1.0" encoding="UTF-8" standalone="no"?>
<!-- Created with Inkscape (http://www.inkscape.org/) -->

<svg
   xmlns:dc="http://purl.org/dc/elements/1.1/"
   xmlns:cc="http://creativecommons.org/ns#"
   xmlns:rdf="http://www.w3.org/1999/02/22-rdf-syntax-ns#"
   xmlns:svg="http://www.w3.org/2000/svg"
   xmlns="http://www.w3.org/2000/svg"
   xmlns:sodipodi="http://sodipodi.sourceforge.net/DTD/sodipodi-0.dtd"
   xmlns:inkscape="http://www.inkscape.org/namespaces/inkscape"
   version="1.1"
   id="svg2"
   width="148mm"
   height="210mm"
   viewBox="0 0 559.37009 793.7008"
   sodipodi:docname="AWS_EC2_Instances.svg"
   inkscape:version="0.92.2 (5c3e80d, 2017-08-06)">
  <metadata
     id="metadata8">
    <rdf:RDF>
      <cc:Work
         rdf:about="">
        <dc:format>image/svg+xml</dc:format>
        <dc:type
           rdf:resource="http://purl.org/dc/dcmitype/StillImage" />
        <dc:title></dc:title>
      </cc:Work>
    </rdf:RDF>
  </metadata>
  <defs
     id="defs6" />
  <sodipodi:namedview
     pagecolor="#ffffff"
     bordercolor="#666666"
     borderopacity="1"
     objecttolerance="10"
     gridtolerance="10"
     guidetolerance="10"
     inkscape:pageopacity="0"
     inkscape:pageshadow="2"
     inkscape:window-width="1920"
     inkscape:window-height="1001"
     id="namedview4"
     showgrid="false"
     units="mm"
     inkscape:zoom="0.84587814"
     inkscape:cx="133"
     inkscape:cy="328.65254"
     inkscape:window-x="-9"
     inkscape:window-y="-9"
     inkscape:window-maximized="1"
     inkscape:current-layer="svg2" />
  <g
     id="g20"
     transform="translate(-2.3644098,-36.648305)">
    <g
       id="g27">
      <path
         inkscape:connector-curvature="0"
         id="path24"
         d="m 264.24574,676.59523 c -3.24302,-1.59504 -7.66535,-5.75565 -9.82738,-9.24581 l -3.93097,-6.34574 0.41049,-127.85018 c 0.22578,-70.31759 1.09288,-129.64081 1.92689,-131.82934 3.09907,-8.13229 13.68404,-15.16832 24.94294,-16.58003 5.80365,-0.72769 59.22274,-0.74686 118.70909,-0.0426 118.76257,1.40604 113.80471,0.89828 122.50911,12.54662 3.79351,5.07654 3.82949,6.19231 4.29667,133.29662 0.52592,143.07933 1.10762,136.11299 -12.10097,144.9165 l -6.17656,4.11667 -117.43144,-0.0413 C 283.68012,679.49994 269.4624,679.16095 264.24574,676.59518 Z M 160.16739,572.87828 c -3.4992,-1.86408 -8.20266,-6.07934 -10.45215,-9.36723 l -4.08997,-5.978 V 429.46364 c 0,-145.24686 -0.84374,-136.88368 14.60734,-144.78827 l 7.97617,-4.08051 h 113.74885 113.74884 l 7.97617,4.08051 c 13.91056,7.11647 14.73498,10.41185 14.17844,56.67373 l -0.47998,39.89831 -78.16388,0.90678 c -76.78311,0.89076 -78.29951,0.97908 -85.84111,4.99956 -10.36197,5.52407 -19.08711,14.5542 -24.33065,25.18115 -4.32866,8.77278 -4.35135,9.14346 -5.25631,85.88709 l -0.90888,77.07627 -28.17535,0.48465 c -24.626,0.4236 -28.97682,0.0577 -34.53753,-2.90463 z M 52.733645,466.90194 C 39.631924,458.16967 40.20089,464.65137 40.197741,324.09199 c -0.0027,-119.22172 0.180026,-126.41396 3.362969,-132.38983 1.851186,-3.47554 6.062124,-8.15539 9.35764,-10.39967 l 5.991846,-4.08051 H 177.5655 296.22081 l 5.65805,4.74992 c 9.73025,8.16853 10.39643,11.19833 11.5314,52.44554 0.57742,20.98421 0.45819,39.10822 -0.26497,40.2756 -0.96173,1.55251 -21.8014,2.2647 -77.6008,2.65199 l -76.28598,0.52949 -10.55555,5.17115 c -7.0733,3.4652 -12.90853,8.14101 -17.68805,14.17357 -12.30257,15.5279 -12.65611,18.34034 -12.65611,100.67936 v 73.11999 H 88.634498 c -27.876678,0 -30.108226,-0.25589 -35.900853,-4.11665 z"
         style="fill:#f38436;stroke-width:1.81566083" />
    </g>
    <path
       style="fill:#aa5929;stroke-width:1.81566083"
       d="m 266.34539,676.14857 c -8.24985,-5.01906 -13.13328,-12.12121 -14.47573,-21.05258 -1.7546,-11.67339 0.18974,-12.945 8.43275,-5.51518 l 7.12357,6.42084 h 118.78954 118.78953 l 5.99186,-4.08051 c 3.29552,-2.24428 7.50644,-6.92413 9.35763,-10.39967 l 3.3658,-6.31917 v 10.88136 c 0,13.32779 -4.0378,21.63668 -13.82401,28.44673 l -7.08029,4.92704 -115.42806,0.0535 c -109.90087,0.051 -115.69691,-0.11009 -121.04259,-3.36232 z M 160.63315,571.43354 c -6.80705,-3.37655 -12.26912,-11.50919 -13.84776,-20.61833 -1.33028,-7.67606 1.50586,-13.53492 4.28432,-8.85052 0.95832,1.6157 4.01083,4.47206 6.78336,6.34746 4.24402,2.87076 9.63902,3.5532 34.1252,4.31662 l 29.08424,0.90678 v 9.97457 9.97458 l -27.26647,0.43685 c -22.07708,0.3537 -28.38869,-0.11988 -33.16289,-2.48801 z M 59.615558,468.41654 c -13.556664,-4.87347 -19.503311,-14.50516 -19.277134,-31.22288 0.07893,-5.834 0.604559,-9.38312 1.168067,-7.88693 2.523698,6.70074 8.9185,13.38583 15.777357,16.49354 6.136943,2.78061 12.034857,3.38298 33.444753,3.41579 l 25.993859,0.0398 -0.54515,10.42797 -0.54516,10.42797 -24.539821,0.39923 c -17.145983,0.27896 -26.629925,-0.35212 -31.476771,-2.09451 z M 223.89606,407.38029 c -0.13252,-10.31299 8.42459,-28.33911 16.8129,-35.41789 3.19123,-2.69304 10.30122,-7.01028 15.79996,-9.59386 l 9.99771,-4.6974 73.56055,-0.56705 c 68.40418,-0.52731 73.72396,-0.3441 75.89168,2.61357 2.94035,4.01187 3.0342,15.56898 0.14979,18.4467 -1.62589,1.62212 -21.22353,2.17627 -76.96467,2.17627 h -74.78335 l -11.31243,5.6398 c -10.43133,5.20055 -18.51571,13.11309 -26.87996,26.3086 -1.86324,2.93947 -2.18022,2.25469 -2.2722,-4.90874 z M 118.85809,301.68221 c 1.88086,-18.18163 13.14043,-34.02827 30.0726,-42.32397 l 10.32782,-5.05999 h 76.34612 76.34611 v 9.97458 9.97457 l -76.34611,0.90678 c -72.7573,0.86416 -76.73498,1.08629 -84.61842,4.72552 -10.85489,5.01093 -20.75171,13.83469 -26.50744,23.63339 -2.55621,4.35175 -5.09337,7.91228 -5.63813,7.91228 -0.54475,0 -0.5369,-4.38442 0.0175,-9.74316 z"
       id="path22"
       inkscape:connector-curvature="0" />
  </g>
</svg>
