<?xml version="1.0" encoding="UTF-8" standalone="no"?>
<!-- Created with Inkscape (http://www.inkscape.org/) -->

<svg
   xmlns:dc="http://purl.org/dc/elements/1.1/"
   xmlns:cc="http://creativecommons.org/ns#"
   xmlns:rdf="http://www.w3.org/1999/02/22-rdf-syntax-ns#"
   xmlns:svg="http://www.w3.org/2000/svg"
   xmlns="http://www.w3.org/2000/svg"
   xmlns:sodipodi="http://sodipodi.sourceforge.net/DTD/sodipodi-0.dtd"
   xmlns:inkscape="http://www.inkscape.org/namespaces/inkscape"
   width="297mm"
   height="420mm"
   viewBox="0 0 297 420"
   version="1.1"
   id="svg7056"
   inkscape:version="0.92.2 (5c3e80d, 2017-08-06)"
   sodipodi:docname="AWS_VPN_Gateway.svg">
  <defs
     id="defs7050" />
  <sodipodi:namedview
     id="base"
     pagecolor="#ffffff"
     bordercolor="#666666"
     borderopacity="1.0"
     inkscape:pageopacity="0.0"
     inkscape:pageshadow="2"
     inkscape:zoom="0.35"
     inkscape:cx="400"
     inkscape:cy="560"
     inkscape:document-units="mm"
     inkscape:current-layer="layer1"
     showgrid="false"
     inkscape:window-width="1920"
     inkscape:window-height="1001"
     inkscape:window-x="-9"
     inkscape:window-y="-9"
     inkscape:window-maximized="1" />
  <metadata
     id="metadata7053">
    <rdf:RDF>
      <cc:Work
         rdf:about="">
        <dc:format>image/svg+xml</dc:format>
        <dc:type
           rdf:resource="http://purl.org/dc/dcmitype/StillImage" />
        <dc:title></dc:title>
      </cc:Work>
    </rdf:RDF>
  </metadata>
  <g
     inkscape:label="Layer 1"
     inkscape:groupmode="layer"
     id="layer1"
     transform="translate(0,123)">
    <g
       id="g7644">
      <path
         inkscape:connector-curvature="0"
         id="path7086"
         d="M 129.94747,239.14434 C 68.875967,231.20825 21.142007,189.86583 7.7454567,133.30508 c -1.53411,-6.4771 -2.03894,-12.45038 -2.41825,-28.61381 -0.54638,-23.282457 0.61954,-33.895977 5.4301903,-49.431637 3.59071,-11.595966 13.04473,-29.896327 20.73346,-40.134238 20.77089,-27.657432 54.64464,-47.986638 90.475013,-54.29824 13.05269,-2.299261 38.59294,-2.299261 51.64563,0 28.66511,5.049425 55.26934,18.458484 76.05992,38.33570341 11.07215,10.58573329 19.01306,21.26537759 26.35176,35.44022759 6.8994,13.326284 10.97762,25.631485 13.16361,39.718517 2.19405,14.13895 1.43447,47.206697 -1.35489,58.983477 -12.53056,52.90453 -55.37393,92.92486 -111.40337,104.06279 -10.68687,2.1244 -36.27711,3.10245 -46.48106,1.77647 z m 73.96002,-85.92337 c 0.92572,-0.55533 1.13219,-7.23541 0.93901,-30.38027 l -0.24762,-29.668417 -8.92061,-0.44371 -8.92061,-0.44371 -0.46951,-15.97341 c -0.44123,-15.011455 -0.62195,-16.280854 -3.00097,-21.07838 -3.52967,-7.117959 -10.96368,-14.257656 -18.49254,-17.760427 -5.82122,-2.708299 -6.74941,-2.86956 -16.5167,-2.86956 -9.69033,0 -10.75166,0.180317 -16.67852,2.833625 -7.80231,3.4929 -14.46705,9.628408 -18.14135,16.700763 -2.6804,5.159289 -2.77393,5.788553 -3.22984,21.730269 l -0.46951,16.41712 -9.39011,0.44371 -9.390123,0.44371 -0.24762,29.668417 c -0.19318,23.14486 0.0133,29.82494 0.93901,30.38027 1.55058,0.93019 110.687033,0.93019 112.237613,0 z M 129.00846,77.497413 c 0,-13.663614 0.2058,-15.66968 1.95862,-19.091541 2.47027,-4.822507 5.97226,-7.190114 12.56937,-8.497831 9.17258,-1.818245 18.0209,1.776599 21.72655,8.826928 1.53143,2.913667 1.77542,5.451159 1.77542,18.463894 v 15.086 l -19.01498,0.24024 -19.01498,0.24022 z"
         style="fill:#f38436;stroke-width:0.91284722" />
      <path
         transform="matrix(0.26458333,0,0,0.26458333,0,-123)"
         inkscape:connector-curvature="0"
         id="path7097"
         d="m 383.86835,1044.1254 -37.56022,-0.8855 -2.04786,-25.8741 c -1.12633,-14.2308 -1.1018,-64.98011 0.0545,-112.77631 l 2.10235,-86.9022 11.79145,-0.0171 c 6.48529,-0.009 22.39858,-0.84284 35.36287,-1.85205 l 23.57143,-1.83492 0.10192,-37.43366 c 0.17502,-64.2781 3.59595,-90.35662 14.30903,-109.08114 13.40508,-23.42963 36.7487,-45.06683 62.18239,-57.63684 l 21.68173,-10.71569 h 44.49397 44.49397 l 19.6285,9.66308 c 27.02432,13.30403 55.85309,41.92073 67.6694,67.17161 8.79992,18.80497 8.96643,19.98339 10.95409,77.51599 1.11008,32.1314 2.59225,58.99467 3.29374,59.69615 0.70146,0.70148 15.5668,2.17973 33.03409,3.285 l 31.75868,2.0096 2.09303,86.5172 c 1.15117,47.58446 1.18443,97.99718 0.074,112.02838 l -2.01914,25.5112 -55.90555,1.8723 c -53.229,1.7827 -251.04601,1.6267 -331.11828,-0.2612 z M 582.01711,814.83015 h 49.72638 L 630.87174,753.63847 630,692.44679 621.37978,680.19095 c -5.4295,-7.71943 -14.41869,-15.29639 -24.28571,-20.47034 -14.32313,-7.51059 -17.74652,-8.13201 -39.95121,-7.25198 -42.79014,1.69587 -63.47539,18.19004 -68.77892,54.84346 -3.09127,21.36422 -3.48415,105.69989 -0.5068,108.78886 1.17857,1.22274 11.65827,1.43703 23.28823,0.47618 11.62994,-0.96084 43.52223,-1.74698 70.87174,-1.74698 z"
         style="opacity:1;fill:#ffffff;fill-opacity:1;stroke-width:2.85714293" />
    </g>
  </g>
</svg>
