<?xml version="1.0" encoding="UTF-8" standalone="no"?>
<!-- Created with Inkscape (http://www.inkscape.org/) -->

<svg
   xmlns:dc="http://purl.org/dc/elements/1.1/"
   xmlns:cc="http://creativecommons.org/ns#"
   xmlns:rdf="http://www.w3.org/1999/02/22-rdf-syntax-ns#"
   xmlns:svg="http://www.w3.org/2000/svg"
   xmlns="http://www.w3.org/2000/svg"
   xmlns:sodipodi="http://sodipodi.sourceforge.net/DTD/sodipodi-0.dtd"
   xmlns:inkscape="http://www.inkscape.org/namespaces/inkscape"
   version="1.1"
   id="svg2"
   width="210mm"
   height="148mm"
   viewBox="0 0 793.7008 559.37009"
   sodipodi:docname="AWS_AutoScalingGroup.svg"
   inkscape:version="0.92.2 (5c3e80d, 2017-08-06)">
  <metadata
     id="metadata8">
    <rdf:RDF>
      <cc:Work
         rdf:about="">
        <dc:format>image/svg+xml</dc:format>
        <dc:type
           rdf:resource="http://purl.org/dc/dcmitype/StillImage" />
        <dc:title></dc:title>
      </cc:Work>
    </rdf:RDF>
  </metadata>
  <defs
     id="defs6" />
  <sodipodi:namedview
     pagecolor="#ffffff"
     bordercolor="#666666"
     borderopacity="1"
     objecttolerance="10"
     gridtolerance="10"
     guidetolerance="10"
     inkscape:pageopacity="0"
     inkscape:pageshadow="2"
     inkscape:window-width="1920"
     inkscape:window-height="1001"
     id="namedview4"
     showgrid="false"
     units="mm"
     inkscape:zoom="0.69005848"
     inkscape:cx="390.40157"
     inkscape:cy="171"
     inkscape:window-x="-9"
     inkscape:window-y="-9"
     inkscape:window-maximized="1"
     inkscape:current-layer="svg2" />
  <g
     id="g12"
     transform="matrix(1.2802925,0,0,1.2466334,-84.268831,-58.969804)">
    <path
       style="fill:#f38437;stroke-width:1.25442338"
       d="m 337.34853,432.08661 -46.66407,-42.04195 0.38792,-10.0502 0.38791,-10.05021 17.18056,-0.59534 17.18057,-0.59534 0.35143,-31.58842 0.35144,-31.58842 17.82031,-16.02216 c 9.80116,-8.81218 17.82031,-16.55846 17.82031,-17.21395 0,-0.6555 -8.17729,-8.57433 -18.17175,-17.59742 l -18.17174,-16.4056 v -31.23693 -31.23692 l -15.85898,-0.59534 c -8.72244,-0.32743 -16.60237,-1.02881 -17.51096,-1.55862 -1.08482,-0.63256 -1.65198,-4.09549 -1.65198,-10.08668 v -9.1234 l 47.57694,-42.89849 47.57694,-42.898482 47.57694,42.898482 47.57694,42.89849 v 9.1234 c 0,5.99119 -0.56716,9.45412 -1.65198,10.08668 -0.90859,0.52981 -8.78852,1.23119 -17.51096,1.55862 l -15.85898,0.59534 v 31.23692 31.23693 l -18.17174,16.4056 c -9.99446,9.02309 -18.17175,16.94192 -18.17175,17.59742 0,0.65549 8.01915,8.40177 17.82031,17.21395 l 17.82031,16.02216 0.35144,31.58842 0.35143,31.58842 17.18057,0.59534 17.18056,0.59534 0.38791,10.05021 0.38792,10.0502 -46.66407,42.04195 c -25.66523,23.12308 -47.53742,42.04196 -48.60485,42.04196 -1.06743,0 -22.93962,-18.91888 -48.60485,-42.04196 z M 236.317,346.42836 l -0.36313,-19.34851 -42.62101,-0.31416 -42.62101,-0.31418 v -54.73819 -54.73819 l 42.62101,-0.31417 42.62101,-0.31416 0.36395,-18.75318 c 0.27138,-13.98299 0.78207,-18.75317 2.00771,-18.75317 0.90407,0 22.29859,18.63697 47.54338,41.41549 l 45.89962,41.4155 v 10.08762 10.0876 l -46.59263,41.96511 c -25.62595,23.08082 -47.02084,41.96511 -47.54421,41.96511 -0.52336,0 -1.11497,-8.70683 -1.31469,-19.34852 z m 250.4,-22.62908 -46.57877,-41.9776 v -10.07512 -10.07512 l 45.89962,-41.4155 c 25.24479,-22.77852 46.63931,-41.41549 47.54337,-41.41549 1.22565,0 1.73634,4.77018 2.00772,18.75317 l 0.36395,18.75318 42.62101,0.31416 42.62101,0.31417 v 54.73819 54.73819 l -42.62101,0.31418 -42.62101,0.31416 -0.36313,19.34851 c -0.19973,10.64169 -0.79757,19.34852 -1.32856,19.34852 -0.53098,0 -21.92588,-18.88991 -47.5442,-41.9776 z"
       id="path16"
       inkscape:connector-curvature="0" />
    <path
       style="fill:#a95828;stroke-width:1.25442338"
       d="m 338.70684,431.35555 -46.58576,-42.39691 v -7.94857 c 0,-4.37172 0.48316,-8.21761 1.07367,-8.54643 0.59052,-0.3288 21.25348,17.58904 45.91768,39.81745 24.6642,22.2284 45.73616,40.41528 46.82658,40.41528 1.09041,0 22.3278,-18.32424 47.19417,-40.72051 32.65629,-29.41239 45.43055,-40.20643 46.00007,-38.8693 0.43366,1.01817 0.60918,5.13738 0.39005,9.1538 l -0.39842,7.30259 -46.87254,42.2828 c -25.77991,23.25555 -46.89218,42.1982 -46.91615,42.09477 -0.024,-0.10347 -21.00719,-19.26667 -46.62935,-42.58497 z m -100.7706,-77.14721 v -9.18718 l 44.57731,-40.22596 c 24.51753,-22.12427 45.33244,-40.22594 46.25536,-40.22594 1.20215,0 1.67804,2.44998 1.67804,8.63889 v 8.63888 l -45.27125,40.77425 c -24.89919,22.42584 -45.7141,40.77424 -46.25536,40.77424 -0.54126,0 -0.9841,-4.13423 -0.9841,-9.18718 z m 248.78055,-31.59992 -45.25698,-40.7871 v -8.62603 c 0,-6.17851 0.47612,-8.62603 1.67804,-8.62603 0.92292,0 21.73783,18.10167 46.25535,40.22594 l 44.57732,40.22596 v 9.18718 c 0,5.05295 -0.44927,9.18718 -0.99837,9.18718 -0.54909,0 -21.364,-18.35419 -46.25536,-40.7871 z m -336.00494,-5.98989 c 0,-8.13043 0.41111,-10.2629 2.09046,-10.84349 2.72853,-0.94333 78.99335,-0.94333 81.72189,0 1.6619,0.57456 2.09046,2.64937 2.09046,10.12076 v 9.39803 h -40.86095 c -22.47351,0 -41.80165,0.32522 -42.9514,0.72273 -1.80518,0.62409 -2.09046,-0.65841 -2.09046,-9.39803 z m 426.54047,8.97358 -41.96022,-0.33173 v -9.38131 c 0,-7.45613 0.42899,-9.52962 2.09047,-10.10403 2.72852,-0.94333 78.99335,-0.94333 81.72188,0 1.67646,0.57959 2.09046,2.70183 2.09046,10.7161 0,5.49634 -0.44603,9.86722 -0.99119,9.71304 -0.54515,-0.1542 -19.87328,-0.42963 -42.9514,-0.61207 z m -231.99656,-72.12889 -18.77355,-17.05944 0.0202,-6.45645 c 0.0379,-12.11371 0.39704,-11.96754 25.05533,10.1999 12.37577,11.12561 22.50139,20.79895 22.50139,21.49629 0,1.23681 -8.06738,8.87913 -9.37297,8.87913 -0.36128,0 -9.10495,-7.67675 -19.43042,-17.05943 z m 56.81585,13.13303 c -2.32319,-2.1595 -4.224,-4.44259 -4.224,-5.07351 0,-0.63092 10.12562,-10.2499 22.50137,-21.37551 24.6583,-22.16744 25.01737,-22.31361 25.05534,-10.1999 l 0.0202,6.45645 -18.77356,17.05944 c -10.32545,9.38268 -19.12945,17.05943 -19.56447,17.05943 -0.43499,0 -2.6917,-1.76687 -5.0149,-3.9264 z M 293.71084,173.06158 c -1.21507,-0.69444 -1.59988,-3.54928 -1.32158,-9.80486 l 0.39262,-8.82517 h 16.51977 16.51977 l 0.38296,9.0765 c 0.36241,8.58918 0.2205,9.11571 -2.64316,9.80683 -4.47897,1.08097 -27.86296,0.88254 -29.85038,-0.2533 z m 153.97282,0.18608 c -2.0592,-0.48193 -2.31657,-1.7393 -1.98237,-9.68497 l 0.38405,-9.13114 h 16.51977 16.51977 l 0.39262,8.82517 c 0.2783,6.25558 -0.10652,9.11042 -1.32158,9.80486 -1.7747,1.01427 -26.33363,1.16404 -30.51226,0.18608 z"
       id="path14"
       inkscape:connector-curvature="0" />
  </g>
</svg>
