<?xml version="1.0" encoding="UTF-8" standalone="no"?>
<!-- Created with Inkscape (http://www.inkscape.org/) -->

<svg
   xmlns:osb="http://www.openswatchbook.org/uri/2009/osb"
   xmlns:dc="http://purl.org/dc/elements/1.1/"
   xmlns:cc="http://creativecommons.org/ns#"
   xmlns:rdf="http://www.w3.org/1999/02/22-rdf-syntax-ns#"
   xmlns:svg="http://www.w3.org/2000/svg"
   xmlns="http://www.w3.org/2000/svg"
   xmlns:sodipodi="http://sodipodi.sourceforge.net/DTD/sodipodi-0.dtd"
   xmlns:inkscape="http://www.inkscape.org/namespaces/inkscape"
   width="420mm"
   height="594mm"
   viewBox="0 0 420 594"
   version="1.1"
   id="svg5007"
   inkscape:version="0.92.2 (5c3e80d, 2017-08-06)"
   sodipodi:docname="AWS_EC_CurtomerGateway.svg">
  <defs
     id="defs5001">
    <linearGradient
       id="linearGradient7042"
       osb:paint="solid">
      <stop
         style="stop-color:#ffffff;stop-opacity:1;"
         offset="0"
         id="stop7040" />
    </linearGradient>
  </defs>
  <sodipodi:namedview
     id="base"
     pagecolor="#ffffff"
     bordercolor="#666666"
     borderopacity="1.0"
     inkscape:pageopacity="0.0"
     inkscape:pageshadow="2"
     inkscape:zoom="0.35"
     inkscape:cx="400"
     inkscape:cy="1017.1429"
     inkscape:document-units="mm"
     inkscape:current-layer="layer1"
     showgrid="false"
     inkscape:window-width="1920"
     inkscape:window-height="1001"
     inkscape:window-x="-9"
     inkscape:window-y="-9"
     inkscape:window-maximized="1" />
  <metadata
     id="metadata5004">
    <rdf:RDF>
      <cc:Work
         rdf:about="">
        <dc:format>image/svg+xml</dc:format>
        <dc:type
           rdf:resource="http://purl.org/dc/dcmitype/StillImage" />
        <dc:title></dc:title>
      </cc:Work>
    </rdf:RDF>
  </metadata>
  <g
     inkscape:label="Layer 1"
     inkscape:groupmode="layer"
     id="layer1"
     transform="translate(0,297)">
    <path
       style="opacity:1;fill:#ffffff;fill-opacity:1;stroke-width:2.85714293"
       d="m 749.31809,1600.3251 c -11.34086,-12.2249 -111.65498,-175.7448 -117.91583,-192.2121 -1.75732,-4.6221 -1.5606,-7.5214 0.60091,-8.8573 1.7674,-1.0923 17.46826,-2.745 34.89083,-3.6726 l 31.67743,-1.6866 v -138.5714 -138.5714 l -147.42952,-0.7398 -147.42949,-0.7398 -3.00902,33.0831 c -1.65497,18.1957 -3.70432,33.7783 -4.55412,34.6281 C 393.80462,1185.33 188.70686,1075.92 180,1067.6799 c -3.7857,-3.5828 -3.45236,-4.6959 2.85714,-9.5408 10.90144,-8.3709 99.18956,-56.9194 158.99291,-87.4283 42.20224,-21.52957 53.87105,-26.3962 55.65357,-23.21103 1.24047,2.2166 3.14258,17.75271 4.22691,34.52466 l 1.97152,30.49447 147.43469,-0.7398 147.43469,-0.7397 0.74128,-138.97652 0.74129,-138.9765 -32.16986,-1.06595 c -17.69343,-0.58627 -33.76191,-2.07769 -35.70774,-3.31426 -4.68097,-2.97471 5.39449,-22.84913 45.1674,-89.09537 35.02189,-58.33288 74.43074,-117.14286 78.498,-117.14286 5.75631,0 83.33474,121.58158 112.97594,177.05689 10.88892,20.37925 13.408,27.29651 10.59169,29.08416 -2.03232,1.29002 -18.17157,2.82517 -35.865,3.41144 l -32.16986,1.06595 0.74129,138.9765 0.74128,138.97652 147.43469,0.7397 147.43467,0.7398 1.9715,-30.49447 c 1.0844,-16.77195 3.0153,-32.3596 4.2911,-34.63917 1.8652,-3.33309 13.8206,1.7572 61.0532,25.99488 91.0568,46.72626 159.2434,85.35016 159.2434,90.20236 0,3.9919 -3.9648,6.3748 -72.8571,43.7877 -100.2892,54.4635 -144.4524,77.3121 -146.1508,75.6136 -0.849,-0.8489 -2.8977,-16.4309 -4.5526,-34.6266 l -3.0091,-33.0831 -147.42944,0.7398 -147.42952,0.7398 -0.74123,138.886 -0.74122,138.886 32.5208,1.4351 c 17.88642,0.7893 33.9572,2.3229 35.7128,3.4079 2.19225,1.3549 0.88662,6.5223 -4.16866,16.4984 -18.34814,36.2083 -114.35092,190.8236 -118.51303,190.8687 -0.90463,0.01 -4.32849,-2.875 -7.60851,-6.4107 z"
       id="path5031"
       inkscape:connector-curvature="0"
       transform="matrix(0.26458333,0,0,0.26458333,0,-297)" />
    <path
       style="opacity:1;fill:#ffffff;fill-opacity:1;stroke-width:2.85714293"
       d="m 746.63657,1596.9454 c -18.46328,-22.4536 -118.90746,-189.0878 -117.1552,-194.3573 1.46614,-4.4091 14.63046,-6.546 42.66149,-6.925 l 25,-0.338 v -140 -140 H 550.51857 403.89431 l -3.06938,33.027 c -1.68815,18.1648 -3.78914,33.7467 -4.66886,34.6264 -2.38233,2.3824 -207.04289,-106.521 -215.77985,-114.8201 -2.15023,-2.0424 -3.13771,-4.9623 -2.19441,-6.4886 3.73363,-6.0411 112.26358,-66.06214 180.22456,-99.67074 30.08149,-14.87612 37.41066,-17.51303 39.29882,-14.13909 1.27656,2.28109 3.15337,17.75106 4.17068,34.37771 l 1.84965,30.23022 h 146.31071 146.31068 l 1.80172,-14.99996 c 0.99094,-8.25 1.81288,-71.11123 1.82654,-139.69163 L 700,733.08466 667.26934,732.04565 c -18.00185,-0.57145 -34.047,-2.35535 -35.65585,-3.96422 -1.99552,-1.99552 -0.108,-8.34672 5.93902,-19.98364 26.49003,-50.97762 112.20223,-185.62985 118.16178,-185.62985 4.07117,0 42.17085,56.97411 78.33568,117.14286 39.76169,66.15298 49.89003,86.1163 45.2022,89.09537 -1.94583,1.23657 -18.00217,2.7276 -35.68074,3.3134 l -32.14286,1.06509 0.0257,124.69165 c 0.0143,68.5804 0.8356,131.44163 1.82654,139.69163 l 1.80171,14.99996 h 146.31535 146.31533 l 1.9491,-32.0909 c 1.072,-17.65003 2.9677,-33.10963 4.2128,-34.35466 4.707,-4.707 212.7829,104.98516 219.3726,115.64746 0.9432,1.5263 -0.044,4.4562 -2.1945,6.511 -8.9431,8.5462 -213.3255,117.252 -215.7993,114.7783 -0.869,-0.869 -2.9612,-16.4422 -4.6494,-34.607 l -3.0702,-33.027 H 961.30797 815.08166 l -1.80172,15 c -0.99094,8.25 -1.81288,71.0706 -1.82654,139.6015 l -0.0257,124.6014 32.49385,1.434 c 17.8716,0.7887 33.93026,2.3217 35.68586,3.4067 4.29717,2.6558 -4.1302,18.9293 -45.43357,87.7334 -39.2366,65.3628 -74.33466,119.6516 -77.35463,119.6516 -1.1646,0 -5.74677,-4.4138 -10.18263,-9.8083 z"
       id="path5033"
       inkscape:connector-curvature="0"
       transform="matrix(0.26458333,0,0,0.26458333,0,-297)" />
    <path
       style="opacity:1;fill:#ffffff;fill-opacity:1;stroke-width:2.85714293"
       d="M 745.02963,1594.7477 C 725.20614,1570.067 627.68446,1407.986 629.45749,1402.6669 c 1.58414,-4.7524 13.2958,-6.7557 41.2568,-7.057 l 26.42857,-0.2848 v -140 -140 H 550.52723 403.91159 l -2.83047,32.7794 c -1.55675,18.0287 -3.64843,33.5974 -4.64817,34.5972 -3.22793,3.2279 -213.62183,-109.0881 -218.18846,-116.477 -0.97778,-1.5821 -0.0185,-4.626 2.13173,-6.7644 12.79507,-12.724 213.02022,-117.59593 216.97253,-113.64362 1.35815,1.35815 3.34644,16.91029 4.41843,34.56032 l 1.94906,32.0909 H 549.993 696.26977 l 1.85212,-32.14282 c 1.01868,-17.67857 1.85797,-80.5398 1.86511,-139.69162 L 700,733.08466 667.26934,732.04565 c -18.00185,-0.57145 -34.09977,-2.40814 -35.77317,-4.08153 -2.15191,-2.15193 -0.43794,-8.00142 5.85552,-19.98364 27.48271,-52.32494 112.46042,-185.51254 118.3626,-185.51254 6.18634,0 95.25145,140.33923 118.22145,186.28068 6.64286,13.28612 7.97072,18.27078 5.31643,19.95755 -1.94583,1.23657 -18.02826,2.72843 -35.73868,3.31524 l -32.2008,1.06693 0.54262,118.97552 c 0.29846,65.43654 1.07289,128.29694 1.72098,139.6898 l 1.17834,20.71424 h 146.47886 146.47881 l 1.9491,-32.0909 c 1.072,-17.65003 3.061,-33.20292 4.4201,-34.56197 4.1424,-4.14246 203.615,100.48427 217.245,113.94867 3.6735,3.6288 3.6735,4.6332 0,8.2355 -9.7853,9.596 -213.4447,117.5886 -216.3248,114.7086 -1.0031,-1.0031 -3.0975,-16.5746 -4.6542,-34.6033 l -2.8305,-32.7794 H 961.33229 815.14757 l -1.84471,27.8571 c -1.0146,15.3215 -1.85137,78.1597 -1.85952,139.6405 l -0.0143,111.7833 32.23308,1.2338 c 17.7282,0.6786 33.78683,2.1941 35.68586,3.3677 2.5502,1.5762 1.51106,6.0157 -3.97509,16.9829 -18.24054,36.4644 -112.11354,188.0484 -117.58385,189.8718 -1.59275,0.5309 -7.33426,-4.5606 -12.75895,-11.3145 z"
       id="path5035"
       inkscape:connector-curvature="0"
       transform="matrix(0.26458333,0,0,0.26458333,0,-297)" />
    <g
       id="g7048">
      <path
         inkscape:connector-curvature="0"
         id="path5020"
         d="M 180.5787,160.10821 C 151.06639,157.33657 119.85816,145.65485 95.184957,128.14403 83.138317,119.5944 63.808577,100.488 55.946987,89.359434 43.667157,71.976554 34.071197,50.724471 29.254687,30.244186 c -2.57248,-10.938407 -3.6283,-52.00838 -1.70765,-66.425096 8.44535,-63.392198 54.47602,-115.91148 119.026323,-135.80459 32.4226,-9.99199 74.3295,-9.99199 106.7521,0 64.5503,19.89311 110.58096,72.412392 119.02631,135.80459 1.92065,14.416716 0.86483,55.486689 -1.70764,66.425096 -4.81652,20.480285 -14.41247,41.732368 -26.69231,59.115248 -7.86159,11.128566 -27.19133,30.234966 -39.23797,38.784596 -25.50708,18.10265 -55.84631,29.20138 -87.70109,32.08293 -14.91137,1.34886 -21.01896,1.32896 -36.43406,-0.11875 z m 37.32907,-58.32777 c 9.01808,-14.692506 16.13164,-27.363756 15.80791,-28.158326 -0.42526,-1.043764 -3.13713,-1.444678 -9.7721,-1.444678 h -9.18352 l 0.30039,-36.825995 0.30038,-36.8259946 h 38.81396 38.81395 l 0.57079,9.1392979 c 0.43087,6.8988787 0.94806,9.0647857 2.10974,8.8353457 1.33324,-0.26333 48.50445,-25.5658636 55.96317,-30.01853 2.63473,-1.572873 2.64974,-1.664761 0.57079,-3.492169 -3.9873,-3.504824 -56.64929,-31.393757 -57.59613,-30.501966 -0.51777,0.487662 -1.09371,4.755725 -1.27988,9.484591 l -0.33848,8.597929 h -38.81395 -38.81396 l -0.30038,-36.825995 -0.30039,-36.826 h 9.18352 c 6.91262,0 9.3385,-0.38041 9.81029,-1.53841 0.85815,-2.10626 -31.63425,-54.91019 -33.78846,-54.91019 -2.19143,0 -34.70789,52.73206 -33.83602,54.87202 0.49075,1.20451 2.80964,1.57658 9.82585,1.57658 h 9.18352 l -0.30039,36.826 -0.30039,36.825995 h -38.81395 -38.81395 l -0.33849,-8.597929 c -0.18616,-4.728866 -0.76211,-8.996929 -1.27987,-9.484591 -0.94685,-0.891791 -53.608843,26.997142 -57.596133,30.501966 -2.07896,1.827408 -2.06394,1.919296 0.57079,3.492169 7.45872,4.4526664 54.629923,29.7552 55.963173,30.01853 1.16168,0.22944 1.67886,-1.936467 2.10973,-8.8353457 l 0.5708,-9.1392979 h 38.81395 38.81395 V 35.082638 71.63983 l -8.90193,0.314962 c -6.03645,0.213569 -9.08684,0.768819 -9.47638,1.724932 -0.51055,1.25311 5.62352,11.77022 26.59808,45.603316 3.41337,5.50594 6.77928,9.83086 7.47982,9.61093 0.70052,-0.21992 8.65212,-12.42102 17.6702,-27.11353 z"
         style="fill:#f38537;stroke-width:1.10790229" />
      <path
         transform="matrix(0.26458333,0,0,0.26458333,0,-297)"
         inkscape:connector-curvature="0"
         id="path5037"
         d="m 743.8534,1594.5225 c -21.715,-29.0729 -115.96649,-187.1438 -114.39591,-191.8556 1.58414,-4.7524 13.2958,-6.7557 41.2568,-7.057 l 26.42857,-0.2848 v -140 -140 H 550 402.85714 l -0.0935,13.5714 c -0.11175,16.2206 -4.49995,51.9744 -6.64194,54.1164 -2.74439,2.7444 -207.4899,-106.4737 -216.1217,-115.2866 -3.81995,-3.9 -3.4128,-5.0446 3.74633,-10.5312 25.05994,-19.2057 209.67604,-115.30479 213.72797,-111.25284 1.42904,1.42902 3.42123,16.98191 4.42709,34.56197 l 1.82883,31.96367 h 146.25901 146.259 l 1.86637,-44.99996 c 1.02649,-24.75 1.87066,-87.63937 1.87589,-139.75414 l 0.01,-94.75413 -32.72194,-0.96015 c -18.48432,-0.54238 -34.07343,-2.31498 -35.82806,-4.07392 -2.23791,-2.24344 0.19486,-9.34412 8.70371,-25.40404 23.99303,-45.28526 103.0994,-170.65442 112.71763,-178.63683 3.01535,-2.50253 6.23872,0.0695 15.0192,11.98413 25.82623,35.04491 104.94169,164.88925 112.36449,184.4127 2.13677,5.62013 1.40328,7.06933 -4.76503,9.41452 -4.00983,1.52452 -20.064,2.77186 -35.676,2.77186 h -28.38543 l 0.009,90.71429 c 0.006,49.89285 0.85003,112.89285 1.87829,140 l 1.86954,49.28567 h 146.2566 146.25661 l 1.8288,-31.96367 c 1.0059,-17.58006 2.9947,-33.1296 4.4197,-34.55457 4.2428,-4.24278 193.3686,94.29764 214.9704,112.00624 8.9969,7.3754 7.2032,9.0231 -36.0601,33.1254 -38.4657,21.4296 -166.0433,88.7702 -173.2189,91.432 -5.9557,2.2093 -7.4472,-3.6954 -9.9587,-39.425 l -1.9514,-27.7632 H 961.45294 815.17789 l -1.87466,43.3114 c -1.03106,23.8213 -1.87466,86.6595 -1.87466,139.6405 v 96.329 l 32.23309,1.2338 c 17.7282,0.6786 33.78454,2.1927 35.68074,3.3646 2.52091,1.558 1.05214,6.8912 -5.464,19.84 -22.1702,44.0564 -112.30443,187.7629 -117.67783,187.6209 -1.83888,-0.049 -7.39511,-5.5129 -12.34717,-12.1428 z"
         style="opacity:1;fill:#ffffff;fill-opacity:1;stroke-width:2.85714293" />
    </g>
  </g>
</svg>
