<?xml version="1.0" encoding="UTF-8" standalone="no"?>
<!-- Created with Inkscape (http://www.inkscape.org/) -->

<svg
   xmlns:dc="http://purl.org/dc/elements/1.1/"
   xmlns:cc="http://creativecommons.org/ns#"
   xmlns:rdf="http://www.w3.org/1999/02/22-rdf-syntax-ns#"
   xmlns:svg="http://www.w3.org/2000/svg"
   xmlns="http://www.w3.org/2000/svg"
   xmlns:sodipodi="http://sodipodi.sourceforge.net/DTD/sodipodi-0.dtd"
   xmlns:inkscape="http://www.inkscape.org/namespaces/inkscape"
   width="420mm"
   height="594mm"
   viewBox="0 0 420 594"
   version="1.1"
   id="svg3749"
   inkscape:version="0.92.2 (5c3e80d, 2017-08-06)"
   sodipodi:docname="AWS_EC2_ElasticIP.svg">
  <defs
     id="defs3743" />
  <sodipodi:namedview
     id="base"
     pagecolor="#ffffff"
     bordercolor="#666666"
     borderopacity="1.0"
     inkscape:pageopacity="0.0"
     inkscape:pageshadow="2"
     inkscape:zoom="0.35"
     inkscape:cx="400"
     inkscape:cy="1360"
     inkscape:document-units="mm"
     inkscape:current-layer="layer1"
     showgrid="false"
     inkscape:window-width="1920"
     inkscape:window-height="1001"
     inkscape:window-x="-9"
     inkscape:window-y="-9"
     inkscape:window-maximized="1" />
  <metadata
     id="metadata3746">
    <rdf:RDF>
      <cc:Work
         rdf:about="">
        <dc:format>image/svg+xml</dc:format>
        <dc:type
           rdf:resource="http://purl.org/dc/dcmitype/StillImage" />
        <dc:title></dc:title>
      </cc:Work>
    </rdf:RDF>
  </metadata>
  <g
     inkscape:label="Layer 1"
     inkscape:groupmode="layer"
     id="layer1"
     transform="translate(0,297)">
    <path
       style="fill:#f28538;stroke-width:0.92087209"
       d="m 238.7543,-16.28837 -0.25134,-13.843399 H 169.15048 99.798011 l -2.31181,4.583941 c -3.16748,6.280596 -9.80745,12.941536 -16.02634,16.0769542 -7.15343,3.606583 -18.36782,4.239383 -25.99545,1.466856 -10.58228,-3.8465012 -18.74286,-12.6012062 -21.87343,-23.4659312 -1.92068,-6.665757 -1.95124,-22.97947 -0.0571,-30.473385 3.94964,-15.62618 16.8943,-25.6792 33.06551,-25.6792 12.53007,0 23.73092,6.24364 28.82333,16.06687 4.745229,9.1535 -3.38303,8.23817 73.156039,8.23817 37.12937,0 68.15366,-0.25534 68.94285,-0.56742 1.21866,-0.4819 1.43491,-2.64422 1.43491,-14.3475 v -13.78009 l 50.57322,19.38872 50.57322,19.388708 0.26464,6.014135 0.26464,6.014135 -48.79678,18.746565 c -26.83824,10.310609 -49.70423,19.0320222 -50.81331,19.3809162 -2.01341,0.633373 -2.01691,0.612962 -2.26786,-13.2090452 z"
       id="path3773"
       inkscape:connector-curvature="0" />
  </g>
</svg>
