<?xml version="1.0" encoding="UTF-8" standalone="no"?>
<!-- Created with Inkscape (http://www.inkscape.org/) -->

<svg
   xmlns:dc="http://purl.org/dc/elements/1.1/"
   xmlns:cc="http://creativecommons.org/ns#"
   xmlns:rdf="http://www.w3.org/1999/02/22-rdf-syntax-ns#"
   xmlns:svg="http://www.w3.org/2000/svg"
   xmlns="http://www.w3.org/2000/svg"
   xmlns:sodipodi="http://sodipodi.sourceforge.net/DTD/sodipodi-0.dtd"
   xmlns:inkscape="http://www.inkscape.org/namespaces/inkscape"
   version="1.1"
   id="svg2"
   width="210mm"
   height="148mm"
   viewBox="0 0 793.7008 559.37009"
   sodipodi:docname="AWS_Route_Table.svg"
   inkscape:version="0.92.2 (5c3e80d, 2017-08-06)">
  <metadata
     id="metadata8">
    <rdf:RDF>
      <cc:Work
         rdf:about="">
        <dc:format>image/svg+xml</dc:format>
        <dc:type
           rdf:resource="http://purl.org/dc/dcmitype/StillImage" />
        <dc:title></dc:title>
      </cc:Work>
    </rdf:RDF>
  </metadata>
  <defs
     id="defs6" />
  <sodipodi:namedview
     pagecolor="#ffffff"
     bordercolor="#666666"
     borderopacity="1"
     objecttolerance="10"
     gridtolerance="10"
     guidetolerance="10"
     inkscape:pageopacity="0"
     inkscape:pageshadow="2"
     inkscape:window-width="1920"
     inkscape:window-height="1001"
     id="namedview4"
     showgrid="false"
     units="mm"
     inkscape:zoom="0.54005566"
     inkscape:cx="812.48359"
     inkscape:cy="296.7415"
     inkscape:window-x="-9"
     inkscape:window-y="-9"
     inkscape:window-maximized="1"
     inkscape:current-layer="svg2" />
  <path
     style="opacity:1;fill:#ffffff;fill-opacity:1;stroke-width:1.85166097"
     d="M 179.21554,98.015921 V 69.315176 h -4.47771 c -11.52328,0 -14.00471,-5.90852 -3.88419,-9.248595 3.54827,-1.171034 8.51592,-4.767126 11.03923,-7.991316 2.95457,-3.775235 5.20357,-5.210749 6.31744,-4.032346 0.95129,1.006399 2.07082,19.119701 2.48784,40.251782 l 0.75824,38.421969 h -6.12043 -6.12042 z"
     id="path22"
     inkscape:connector-curvature="0" />
  <path
     style="opacity:1;fill:#ffffff;fill-opacity:1;stroke-width:1.85166097"
     d="m 226.10693,118.66769 c 1.41381,-10.31489 5.50189,-22.525737 13.62539,-40.698235 3.56291,-7.970316 5.91933,-15.052919 5.2365,-15.739118 -0.68283,-0.686199 -7.21587,-1.664259 -14.51787,-2.173466 -12.8434,-0.895637 -13.29547,-1.091891 -13.86227,-6.017898 l -0.58591,-5.092067 h 22.34293 22.34292 v 4.681955 c 0,2.575076 -2.39566,9.449367 -5.32369,15.276204 -6.55969,13.053928 -14.11166,34.025375 -15.8174,43.924145 -2.24486,13.02746 -2.79365,13.88746 -8.86195,13.88746 -5.6392,0 -5.6736,-0.0605 -4.57865,-8.04898 z"
     id="path24"
     inkscape:connector-curvature="0" />
  <path
     style="opacity:1;fill:#ffffff;fill-opacity:1;stroke-width:1.85166097"
     d="m 331.39733,120.69877 c 0.48349,-5.01445 1.42931,-6.1156 5.67231,-6.60381 4.71265,-0.54225 5.09206,-0.0939 5.09206,6.0179 0,6.13347 -0.40399,6.60381 -5.6723,6.60381 -5.2841,0 -5.63259,-0.41186 -5.09207,-6.0179 z"
     id="path28"
     inkscape:connector-curvature="0" />
  <path
     style="opacity:1;fill:#ffffff;fill-opacity:1;stroke-width:1.85166097"
     d="m 272.51997,124.0741 c -1.8314,-4.77256 6.16855,-19.11536 17.38967,-31.177214 12.31611,-13.2389 16.36711,-22.172112 13.48825,-29.74409 -2.08584,-5.486169 -9.89523,-8.361317 -13.83335,-5.092963 -1.40483,1.165903 -3.57822,4.59194 -4.82976,7.613415 -1.55282,3.748856 -3.57635,5.493589 -6.37141,5.493589 -5.71215,0 -6.46718,-1.290594 -4.58811,-7.842527 3.60516,-12.570466 15.51976,-18.686265 28.23114,-14.49113 8.75428,2.889172 12.65672,7.787746 13.72013,17.222301 1.26114,11.188774 -2.40756,18.576476 -17.05569,34.345239 -6.89466,7.42212 -11.95577,14.07473 -11.24691,14.78359 0.70886,0.70886 7.48211,1.60159 15.05168,1.98383 13.08433,0.66073 13.76284,0.91324 13.76284,5.12176 0,4.41199 -0.0713,4.42677 -21.35222,4.42677 -16.78706,0 -21.56902,-0.56499 -22.36626,-2.64257 z"
     id="path30"
     inkscape:connector-curvature="0" />
  <path
     style="opacity:1;fill:#ffffff;fill-opacity:1;stroke-width:1.85166097"
     d="m 376.61554,123.78773 c -0.61817,-1.61091 -1.12394,-14.47595 -1.12394,-28.588966 V 69.538729 l -6.94373,-0.574692 c -5.4242,-0.44893 -6.94373,-1.35595 -6.94373,-4.144792 0,-2.41002 1.80506,-4.041409 5.55499,-5.020532 3.05524,-0.797737 7.79097,-4.092788 10.52384,-7.322336 3.19219,-3.772347 6.00603,-5.473904 7.86956,-4.758803 2.50593,0.961615 2.9007,6.413079 2.9007,40.056098 v 38.942998 h -5.35688 c -3.17663,0 -5.81432,-1.19208 -6.48081,-2.92894 z"
     id="path32"
     inkscape:connector-curvature="0" />
  <path
     style="opacity:1;fill:#ffffff;fill-opacity:1;stroke-width:1.85166097"
     d=""
     id="path34"
     inkscape:connector-curvature="0" />
  <path
     style="opacity:1;fill:#ffffff;fill-opacity:1;stroke-width:1.85166097"
     d="m 472.12357,120.69877 c 0.48348,-5.01445 1.4293,-6.1156 5.6723,-6.60381 4.71265,-0.54225 5.09207,-0.0939 5.09207,6.0179 0,6.13347 -0.40399,6.60381 -5.6723,6.60381 -5.2841,0 -5.63259,-0.41186 -5.09207,-6.0179 z"
     id="path36"
     inkscape:connector-curvature="0" />
  <path
     style="opacity:1;fill:#ffffff;fill-opacity:1;stroke-width:1.85166097"
     d="m 509.21262,125.67843 c -6.38706,-4.47367 -9.33974,-11.94796 -10.71489,-27.12326 -1.40815,-15.539567 1.43755,-36.386202 5.89576,-43.190297 5.71447,-8.721376 21.38488,-9.843971 29.88086,-2.140602 5.94699,5.392181 7.85037,14.271143 7.81575,36.459176 -0.033,21.133433 -3.49714,32.986243 -10.77983,36.883823 -5.46019,2.92221 -17.33877,2.44441 -22.09765,-0.88884 z m 19.51031,-10.07173 c 1.69847,-3.26682 2.25602,-11.62645 1.89456,-28.405654 -0.47594,-22.093475 -0.80663,-24.014618 -4.67167,-27.140416 -4.97349,-4.022235 -10.83468,-2.948587 -13.87775,2.542113 -1.32099,2.383505 -2.21045,12.727258 -2.25594,26.235069 -0.0623,18.498178 0.49712,23.173658 3.28124,27.423798 4.26516,6.51103 12.074,6.18382 15.62956,-0.65491 z"
     id="path38"
     inkscape:connector-curvature="0" />
  <path
     style="opacity:1;fill:#ffffff;fill-opacity:1;stroke-width:1.85166097"
     d="m 559.26895,127.29193 c 1.78223,-0.46574 4.69859,-0.46574 6.48082,0 1.78222,0.46574 0.32404,0.84681 -3.24041,0.84681 -3.56445,0 -5.02263,-0.38107 -3.24041,-0.84681 z"
     id="path40"
     inkscape:connector-curvature="0" />
  <path
     style="opacity:1;fill:#ffffff;fill-opacity:1;stroke-width:1.85166097"
     d="m 591.70223,123.16987 -6.04711,-5.39845 -0.60099,-25.971889 c -0.49837,-21.537184 -0.0605,-27.110841 2.56427,-32.642164 7.94631,-16.745621 29.7918,-15.524284 37.14599,2.076756 3.054,7.309255 3.47314,42.653077 0.62734,52.899607 -4.11108,14.80225 -21.88919,19.57066 -33.6895,9.03614 z m 22.12052,-7.56317 c 3.15085,-6.25948 3.14823,-45.594618 -0.003,-51.846507 -2.8705,-5.694127 -9.67798,-6.939292 -14.42942,-2.639301 -3.16611,2.865287 -3.55062,5.923642 -3.55062,28.240823 0,20.944285 0.51291,25.594315 3.14379,28.501405 4.29368,4.74446 11.89766,3.58826 14.8397,-2.25642 z"
     id="path42"
     inkscape:connector-curvature="0" />
  <path
     style="opacity:1;fill:#ffffff;fill-opacity:1;stroke-width:1.85166097"
     d="m 180.40515,300.50118 c -0.65429,-6.25988 -1.18961,-18.65656 -1.18961,-27.54819 0,-17.25505 -0.82749,-19.0663 -9.73158,-21.30108 -6.85147,-1.71961 -6.39511,-4.21747 1.36275,-7.45891 3.54445,-1.48097 7.80651,-4.77144 9.47126,-7.31216 1.90198,-2.90279 4.7615,-4.6195 7.69469,-4.6195 4.48786,0 4.62246,0.33131 3.49036,8.59092 -0.64763,4.725 -1.17752,22.63982 -1.17752,39.81071 v 31.21979 h -4.36537 c -3.98356,0 -4.46942,-0.99546 -5.55498,-11.38158 z"
     id="path44"
     inkscape:connector-curvature="0" />
  <path
     style="opacity:1;fill:#ffffff;fill-opacity:1;stroke-width:1.85166097"
     d="m 225.50706,306.78685 c 0,-7.70002 4.7671,-22.93137 13.3513,-42.65874 4.11698,-9.46124 6.97807,-17.7096 6.35798,-18.3297 -0.6201,-0.62009 -7.39148,-1.52945 -15.04752,-2.02078 -13.15607,-0.84431 -13.92006,-1.13404 -13.92006,-5.27898 0,-4.36944 0.0821,-4.38565 22.21993,-4.38565 18.84126,0 22.21993,0.43669 22.21993,2.87191 0,1.57954 -3.32234,10.67776 -7.38297,20.21824 -4.06064,9.54049 -9.73331,25.53802 -12.60593,35.55006 -4.83172,16.84013 -5.59636,18.24761 -10.20781,18.78963 -4.39549,0.51664 -4.98485,-0.0457 -4.98485,-4.75599 z"
     id="path46"
     inkscape:connector-curvature="0" />
  <path
     style="opacity:1;fill:#ffffff;fill-opacity:1;stroke-width:1.85166097"
     d="m 272.75082,310.07383 c -2.80113,-4.53233 3.46903,-16.75328 16.58848,-32.33201 7.66564,-9.10259 14.03348,-18.26831 14.15075,-20.36827 0.64534,-11.55561 -1.98009,-15.8539 -9.68369,-15.8539 -4.32117,0 -5.9222,1.29234 -8.57155,6.91892 -3.27959,6.96504 -8.56669,9.80124 -11.95489,6.41304 -2.52012,-2.52012 4.49591,-17.99166 9.33273,-20.58025 2.06567,-1.10551 7.86441,-2.01002 12.88609,-2.01002 12.3494,0 18.25562,4.70245 19.92999,15.86799 1.82253,12.15346 -2.60342,21.93916 -15.85281,35.05029 -15.01639,14.85971 -14.72172,16.81986 2.77507,18.45944 13.08871,1.22652 13.88746,1.55853 13.88746,5.77254 0,4.46658 -0.0217,4.47116 -21.18482,4.47116 -11.79229,0 -21.68049,-0.80201 -22.30281,-1.80893 z"
     id="path48"
     inkscape:connector-curvature="0" />
  <path
     style="opacity:1;fill:#ffffff;fill-opacity:1;stroke-width:1.85166097"
     d="m 331.77302,309.23994 c -1.9795,-5.1585 0.11583,-11.23196 4.0699,-11.7969 5.24018,-0.74871 8.86103,4.02948 7.41611,9.78653 -0.85966,3.42515 -2.3956,4.65319 -5.81987,4.65319 -2.55859,0 -5.10836,-1.18927 -5.66614,-2.64282 z"
     id="path50"
     inkscape:connector-curvature="0" />
  <path
     style="opacity:1;fill:#ffffff;fill-opacity:1;stroke-width:1.85166097"
     d="m 376.68473,307.81616 c -0.62841,-2.34623 -1.15394,-14.405 -1.16784,-26.79728 -0.028,-24.92139 -0.71532,-28.38927 -5.62694,-28.38927 -4.62769,0 -9.21164,-1.92272 -9.21164,-3.86379 0,-0.88876 3.12468,-3.21069 6.94373,-5.15984 3.81905,-1.94916 8.53106,-5.29908 10.47112,-7.44428 1.94007,-2.1452 5.08132,-3.90036 6.98056,-3.90036 3.27712,0 3.42768,2.00596 2.95342,39.3478 l -0.49974,39.34779 -4.85005,0.56256 c -3.74551,0.43444 -5.11026,-0.40896 -5.99262,-3.70333 z"
     id="path52"
     inkscape:connector-curvature="0" />
  <path
     style="opacity:1;fill:#ffffff;fill-opacity:1;stroke-width:1.85166097"
     d="m 424.3778,310.22174 c -8.08392,-4.92949 -11.85298,-15.57143 -11.85298,-33.46686 0,-31.19942 6.84708,-44.49354 22.9162,-44.49354 10.89113,0 17.05136,2.9315 19.7252,9.38674 4.22936,10.21057 -1.55239,11.94832 -12.03552,3.61739 -5.59919,-4.44969 -7.62887,-5.14198 -10.52738,-3.59074 -4.26226,2.28109 -7.11687,9.0311 -7.11687,16.82851 0,4.60746 0.58973,5.4044 3.2404,4.37894 13.37126,-5.17291 21.49831,-2.29121 26.69962,9.4672 6.52998,14.76212 1.53627,32.77301 -10.69607,38.57763 -7.84705,3.72367 -13.40538,3.53106 -20.3526,-0.70527 z m 16.59824,-6.26002 c 4.90141,-3.584 7.16727,-16.37176 4.40185,-24.84251 -1.94477,-5.95702 -3.20407,-7.13486 -8.14068,-7.61412 -7.55846,-0.7338 -11.75076,4.94382 -11.75076,15.91399 0,14.84449 7.23899,22.57563 15.48959,16.54264 z"
     id="path54"
     inkscape:connector-curvature="0" />
  <path
     style="opacity:1;fill:#ffffff;fill-opacity:1;stroke-width:1.85166097"
     d="m 472.49926,309.23994 c -1.9795,-5.1585 0.11582,-11.23196 4.0699,-11.7969 5.24018,-0.74871 8.86103,4.02948 7.4161,9.78653 -0.85966,3.42515 -2.3956,4.65319 -5.81987,4.65319 -2.55859,0 -5.10835,-1.18927 -5.66613,-2.64282 z"
     id="path56"
     inkscape:connector-curvature="0" />
  <path
     style="opacity:1;fill:#ffffff;fill-opacity:1;stroke-width:1.85166097"
     d="m 517.42224,305.03711 c -0.64001,-3.87299 -1.17282,-16.85861 -1.18402,-28.85693 -0.0148,-15.82268 -0.65618,-22.01101 -2.33496,-22.52819 -1.27302,-0.39219 -4.60601,-1.21516 -7.40664,-1.82883 -6.95124,-1.52314 -6.39075,-4.01045 1.85166,-8.21718 3.81905,-1.94916 8.53105,-5.29908 10.47112,-7.44428 1.94006,-2.1452 5.08131,-3.90036 6.98055,-3.90036 3.27712,0 3.42769,2.00596 2.95342,39.3478 l -0.49974,39.34779 -4.83387,0.561 c -4.29886,0.4989 -4.96267,-0.21841 -5.99752,-6.48082 z"
     id="path58"
     inkscape:connector-curvature="0" />
  <path
     style="opacity:1;fill:#ffffff;fill-opacity:1;stroke-width:1.85166097"
     d="m 557.67223,309.231 c -0.61448,-1.60132 -0.58131,-5.04685 0.0737,-7.65672 0.89832,-3.57918 2.19866,-4.60193 5.29176,-4.1621 3.34111,0.4751 4.10079,1.78372 4.10079,7.06394 0,5.31492 -0.75099,6.58746 -4.17451,7.0736 -2.50602,0.35585 -4.62107,-0.57091 -5.29177,-2.31872 z"
     id="path60"
     inkscape:connector-curvature="0" />
  <path
     style="opacity:1;fill:#ffffff;fill-opacity:1;stroke-width:1.85166097"
     d="m 598.61675,312.05411 c -11.78789,-5.15024 -17.04043,-22.39098 -14.92432,-48.98697 1.78039,-22.37652 7.89073,-30.8058 22.33096,-30.8058 16.40792,0 21.2941,9.13504 21.2941,39.81071 0,22.52987 -1.91956,30.54882 -8.77308,36.64945 -4.38943,3.90724 -14.67534,5.6274 -19.92766,3.33261 z m 14.90777,-12.14767 c 3.4543,-8.26729 3.66807,-46.13728 0.29823,-52.83181 -3.21698,-6.39087 -11.27873,-7.19949 -14.96022,-1.50055 -5.88098,9.10376 -5.3183,50.74864 0.78504,58.10272 1.21007,1.45804 4.22373,2.65098 6.69703,2.65098 3.38117,0 5.1626,-1.59321 7.17992,-6.42134 z"
     id="path62"
     inkscape:connector-curvature="0" />
  <path
     style="opacity:1;fill:#ffffff;fill-opacity:1;stroke-width:1.85166097"
     d="m 180.40402,480.84683 c -0.63125,-3.81905 -1.15689,-17.10071 -1.1681,-29.5148 l -0.0204,-22.57107 -6.8006,-0.57469 c -8.90313,-0.75237 -9.95377,-4.57736 -2.15788,-7.85602 3.39954,-1.42972 8.62831,-5.16748 11.61948,-8.30613 2.99118,-3.13866 6.11585,-5.70665 6.94373,-5.70665 0.82788,0 1.50523,18.33145 1.50523,40.73655 v 40.73654 h -4.38687 c -3.6308,0 -4.58469,-1.19675 -5.53461,-6.94373 z"
     id="path64"
     inkscape:connector-curvature="0" />
  <path
     style="opacity:1;fill:#ffffff;fill-opacity:1;stroke-width:1.85166097"
     d="m 226.04101,478.92671 c 1.28185,-10.82316 7.43143,-29.17866 14.53775,-43.39277 2.91312,-5.82684 5.29657,-11.35189 5.29657,-12.27791 0,-0.92601 -6.45766,-2.40795 -14.35037,-3.29321 -13.8197,-1.55003 -14.37204,-1.79785 -14.93628,-6.70162 l -0.58591,-5.09206 h 19.41399 c 10.6777,0 20.73201,0.50577 22.34293,1.12393 3.98549,1.52938 3.67952,7.71461 -0.79459,16.06233 -6.03154,11.25355 -12.64697,29.00301 -16.57598,44.474 -4.47633,17.62615 -4.67441,17.96116 -10.6201,17.96116 -4.61677,0 -4.74241,-0.29875 -3.72801,-8.86385 z"
     id="path66"
     inkscape:connector-curvature="0" />
  <path
     style="opacity:1;fill:#ffffff;fill-opacity:1;stroke-width:1.85166097"
     d="m 272.86564,486.1674 c -0.55174,-0.89273 0.20475,-5.69065 1.6811,-10.66203 1.91119,-6.43568 6.36739,-13.16348 15.47294,-23.36043 16.36768,-18.32952 18.7256,-28.81793 7.79386,-34.66842 -5.15248,-2.75753 -9.03344,-0.52206 -13.16983,7.58594 -3.77043,7.39064 -7.21955,8.94807 -10.65343,4.81049 -2.59139,-3.12244 3.46429,-16.93327 8.63912,-19.70276 2.05646,-1.10058 7.91356,-2.00105 13.01579,-2.00105 12.08362,0 18.54517,5.16653 19.99678,15.98903 1.55815,11.6169 -2.00414,19.24409 -16.32584,34.95512 -14.91665,16.3637 -14.69116,17.49438 3.49778,17.53895 l 11.57288,0.0283 v 5.55498 5.55499 H 294.1278 c -11.14245,0 -20.71042,-0.73042 -21.26216,-1.62316 z"
     id="path68"
     inkscape:connector-curvature="0" />
  <path
     style="opacity:1;fill:#ffffff;fill-opacity:1;stroke-width:1.85166097"
     d="m 332.28618,486.55612 c -0.67894,-0.67895 -1.23444,-3.59531 -1.23444,-6.48082 0,-4.57146 0.70055,-5.24637 5.4457,-5.24637 6.45423,0 8.27413,2.28198 6.72914,8.43771 -0.79491,3.16718 -2.4206,4.52392 -5.4207,4.52392 -2.35689,0 -4.84076,-0.5555 -5.5197,-1.23444 z"
     id="path70"
     inkscape:connector-curvature="0" />
  <path
     style="opacity:1;fill:#ffffff;fill-opacity:1;stroke-width:1.85166097"
     d="m 377.10421,486.5248 c -0.13148,-0.83145 -0.75641,-14.01045 -1.38874,-29.28665 l -1.1497,-27.77491 -6.45979,-0.92583 c -8.62354,-1.23595 -10.07596,-6.96957 -2.16624,-8.55152 3.04704,-0.60941 7.84849,-3.51748 10.66989,-6.46238 10.92182,-11.39993 12.22698,-6.84387 11.46196,40.01132 l -0.54419,33.3299 -5.09207,0.5859 c -2.80064,0.32225 -5.19964,-0.0944 -5.33112,-0.92583 z"
     id="path72"
     inkscape:connector-curvature="0" />
  <path
     style="opacity:1;fill:#ffffff;fill-opacity:1;stroke-width:1.85166097"
     d="m 421.23056,484.05003 c -6.36493,-5.00666 -9.43583,-20.17807 -8.26121,-40.81352 1.44138,-25.32171 8.69384,-35.6846 24.97382,-35.6846 9.75778,0 17.16985,6.00121 17.16985,13.90162 0,6.80303 -6.06074,7.15602 -10.35441,0.60306 -3.94015,-6.01344 -12.35286,-6.27718 -16.38967,-0.51382 -1.58537,2.26343 -2.88249,7.31906 -2.88249,11.23474 0,5.98892 0.52444,6.95297 3.30271,6.07118 6.69834,-2.12597 18.8118,-1.59397 21.89315,0.96151 10.46658,8.68032 10.3178,33.0033 -0.26661,43.58771 -5.8989,5.8989 -22.05598,6.25991 -29.18514,0.65212 z m 19.74548,-4.18052 c 4.90141,-3.58399 7.16727,-16.37175 4.40185,-24.84251 -1.94477,-5.95701 -3.20407,-7.13486 -8.14068,-7.61412 -7.78108,-0.75541 -11.75076,4.92079 -11.75076,16.80226 0,7.01284 0.97593,9.9064 4.54498,13.47545 5.20154,5.20153 6.46653,5.45338 10.94461,2.17892 z"
     id="path74"
     inkscape:connector-curvature="0" />
  <path
     style="opacity:1;fill:#ffffff;fill-opacity:1;stroke-width:1.85166097"
     d=""
     id="path76"
     inkscape:connector-curvature="0" />
  <path
     style="opacity:1;fill:#ffffff;fill-opacity:1;stroke-width:1.85166097"
     d="m 499.55289,482.35612 c 0,-8.75183 2.61414,-13.43414 16.50287,-29.55895 11.35895,-13.18775 13.1237,-16.19642 13.1237,-22.37424 0,-10.85621 -1.41983,-12.99549 -8.62506,-12.99549 -5.49439,0 -6.73905,0.86606 -8.99121,6.25623 -2.38359,5.70473 -5.82026,8.55706 -10.31008,8.55706 -0.93512,0 -1.70022,-2.804 -1.70022,-6.2311 0,-12.92514 14.13409,-22.14615 27.71089,-18.07844 9.47214,2.83792 13.4132,7.87205 14.42761,18.42916 1.09981,11.44597 -2.20941,17.99845 -16.72323,33.11309 -14.16124,14.74745 -13.56755,17.20715 4.15319,17.20715 h 13.01974 v 5.55498 5.55499 h -21.2941 -21.2941 z"
     id="path78"
     inkscape:connector-curvature="0" />
  <path
     style="opacity:1;fill:#ffffff;fill-opacity:1;stroke-width:1.85166097"
     d="m 557.66549,485.12123 c -2.01925,-5.26209 0.17117,-9.35779 5.32262,-9.95238 4.6945,-0.54184 5.07623,-0.0893 5.07623,6.0179 0,5.83145 -0.5482,6.60381 -4.68726,6.60381 -2.578,0 -5.14821,-1.2012 -5.71159,-2.66933 z"
     id="path80"
     inkscape:connector-curvature="0" />
  <g
     id="g86">
    <path
       inkscape:connector-curvature="0"
       id="path12"
       d="m 125.30077,534.5853 c -0.322,-0.68691 -0.2917,-35.53236 0.067,-77.43431 l 0.653,-76.18538 h 270.1456 270.1456 l 0.653,76.18538 c 0.3591,41.90195 0.3894,76.7474 0.067,77.43431 -0.3221,0.68692 -122.2118,1.24894 -270.866,1.24894 -148.6541,0 -270.5438,-0.56202 -270.8659,-1.24894 z m 66.4228,-86.06278 c 0.247,-22.6372 -0.2073,-40.51224 -1.0517,-41.38047 -2.4131,-2.48114 -7.2793,0.0931 -10.2068,5.39932 -1.6424,2.97705 -4.5387,5.33433 -7.2881,5.93187 -6.8883,1.49702 -9.4214,3.32615 -9.4214,6.8031 0,2.49865 1.5053,3.32098 7.2882,3.98164 l 7.2881,0.83262 0.4191,27.4767 c 0.2304,15.11218 0.772,28.46126 1.2035,29.66462 0.4864,1.35653 2.7889,1.98931 6.0594,1.66525 l 5.2748,-0.52267 z m 45.4594,37.77041 c 0.8082,-1.6028 1.9896,-6.59605 2.6252,-11.09608 1.6355,-11.57827 9.9544,-35.03472 16.5248,-46.59403 3.8208,-6.72198 5.4239,-11.44396 5.0882,-14.98729 l -0.4902,-5.17323 -22.2271,-0.46302 -22.2271,-0.46303 -1.0329,4.23148 c -1.8015,7.38017 1.4457,9.18398 16.5328,9.18398 7.4625,0 13.5682,0.65038 13.5682,1.44527 0,0.79491 -3.1882,7.86968 -7.0849,15.72172 -9.6486,19.44209 -16.5548,46.2302 -12.89,49.99825 2.229,2.29189 10.1695,1.05836 11.613,-1.80402 z m 78.8141,-3.74682 v -5.82839 l -14.1714,-0.48114 c -9.4864,-0.32209 -14.1715,-1.12623 -14.1715,-2.4324 0,-1.07319 5.5018,-7.40987 12.2263,-14.08153 6.7243,-6.67165 13.2837,-14.73272 14.5763,-17.91348 3.1745,-7.81203 2.9723,-20.11323 -0.4281,-26.03181 -5.4791,-9.53698 -23.3644,-12.45458 -33.6928,-5.4963 -4.3359,2.92104 -9.7746,15.8367 -8.3153,19.74675 0.5714,1.53113 2.9458,2.56068 5.9054,2.56068 3.9372,0 5.2725,-0.93671 6.5282,-4.57945 3.8034,-11.03403 8.7346,-13.79302 15.2435,-8.52872 8.1752,6.61184 3.8103,20.58884 -10.2314,32.76278 -9.3205,8.08081 -15.6057,18.10278 -17.291,27.57118 -0.8313,4.67012 -0.5322,6.83284 1.094,7.9115 1.2309,0.81646 11.3482,1.29642 22.4829,1.0666 l 20.2449,-0.41788 z m 26.6354,4.27191 c 1.0606,-1.314 1.6965,-4.87348 1.413,-7.90996 -0.4894,-5.2425 -0.842,-5.52085 -6.9938,-5.52085 -6.1517,0 -6.5043,0.27835 -6.9937,5.52085 -0.6102,6.53618 1.945,10.29907 6.9937,10.29907 2.0088,0 4.5202,-1.07509 5.5808,-2.38911 z m 45.2689,0.0986 c 1.2954,-1.60488 1.7184,-13.63853 1.413,-40.20218 -0.3863,-33.60676 -0.7492,-38.1148 -3.1959,-39.70052 -2.2655,-1.46831 -3.8897,-0.53079 -9.0638,5.23182 -4.2152,4.69454 -7.6621,7.02072 -10.4033,7.02072 -2.2547,0 -4.999,1.1145 -6.0985,2.47668 -3.3848,4.19346 -0.7171,7.27569 6.7779,7.83097 l 6.9715,0.51651 0.4464,27.35748 c 0.2729,16.72209 1.137,28.21306 2.2228,29.55826 2.3189,2.87285 8.5801,2.82144 10.9299,-0.0898 z m 60.1453,-0.23556 c 5.8921,-3.13283 9.5544,-10.18102 10.7689,-20.72466 1.322,-11.47638 -0.4778,-19.00398 -5.9959,-25.07759 -4.4232,-4.86862 -5.4376,-5.21834 -13.31,-4.58858 -4.6869,0.37497 -9.9054,1.31707 -11.5966,2.09359 -2.8371,1.30267 -3.0084,0.80602 -2.216,-6.42245 1.024,-9.34156 4.9274,-14.36017 11.1688,-14.36017 3.4551,0 5.1896,1.23962 7.1283,5.09428 2.1632,4.30109 3.3675,5.01413 7.7347,4.57945 4.7955,-0.47731 5.1521,-0.93784 4.8922,-6.31897 -0.7551,-15.63801 -25.7402,-20.10408 -36.8083,-6.57947 -5.8387,7.13446 -7.9473,16.544 -7.9995,35.69717 -0.08,29.25682 5.6287,39.13347 22.6185,39.13347 4.8752,0 11.0019,-1.13673 13.6149,-2.52607 z m -18.6189,-9.06313 c -4.0521,-4.60375 -4.9996,-16.29919 -1.9322,-23.84767 2.2112,-5.44141 3.1924,-6.19448 8.0702,-6.19448 3.0541,0 6.4062,1.05718 7.4491,2.34929 4.5708,5.66274 4.0291,23.36811 -0.8691,28.40437 -3.4248,3.52138 -9.2806,3.19376 -12.718,-0.71151 z m 54.109,9.20009 c 1.0606,-1.314 1.6965,-4.87348 1.413,-7.90995 -0.4894,-5.24249 -0.842,-5.52084 -6.9937,-5.52084 -6.1518,0 -6.5044,0.27835 -6.9938,5.52085 -0.6102,6.53618 1.9451,10.29907 6.9938,10.29907 2.0088,0 4.5201,-1.07509 5.5807,-2.38911 z m 59.2029,-4.27189 v -5.82839 l -14.1715,-0.48114 c -11.4589,-0.38905 -14.1714,-0.97053 -14.1714,-3.03794 0,-1.40622 5.4526,-7.87237 12.1168,-14.36923 13.6957,-13.35172 18.0224,-21.94738 16.5869,-32.95186 -1.1594,-8.88782 -5.041,-14.6827 -11.7719,-17.57435 -15.8351,-6.80286 -33.1042,3.08971 -33.1216,18.97374 -0.01,5.34427 0.1776,5.49681 6.0099,4.99576 5.3919,-0.46324 6.1312,-1.10058 7.1264,-6.14417 1.2622,-6.39642 3.632,-8.46523 9.7385,-8.50184 6.5819,-0.0395 8.5397,3.73708 8.0778,15.58159 -0.1402,3.59871 -3.3769,8.14376 -13.0726,18.35718 -7.0875,7.46585 -14.0112,16.3426 -15.3862,19.7261 -2.6122,6.4282 -3.3013,14.87123 -1.3753,16.85149 0.6185,0.63592 10.6397,0.94816 22.2693,0.69384 l 21.1449,-0.46239 z m 25.9134,-1.66525 c 0,-7.454 -0.03,-7.49365 -5.6686,-7.49365 -5.2452,0 -5.7073,0.41602 -6.1876,5.57061 -0.792,8.50082 0.5559,10.53641 6.5814,9.93935 5.0966,-0.50502 5.2748,-0.77585 5.2748,-8.01631 z m 50.7847,4.10863 c 7.3055,-6.32049 9.1337,-13.80649 9.1371,-37.41372 0,-18.34547 -0.4379,-21.73598 -3.7126,-28.57081 -8.126,-16.96013 -29.3432,-17.58355 -37.8934,-1.11341 -3.3946,6.53891 -3.7395,9.35359 -3.7395,30.51685 0,25.41859 1.3153,30.37514 9.9036,37.32118 6.4683,5.23139 19.8375,4.85526 26.3048,-0.74009 z m -20.1664,-7.61398 c -2.7413,-3.11445 -3.0853,-6.25169 -3.0853,-28.13448 0,-21.88279 0.344,-25.02003 3.0853,-28.13449 4.3078,-4.8943 9.9903,-4.47232 13.4782,1.00087 2.3932,3.75545 2.8716,8.27613 2.8716,27.13362 0,18.85749 -0.4784,23.37817 -2.8716,27.13362 -3.4879,5.47319 -9.1704,5.89516 -13.4782,1.00086 z M 124.64287,344.0742 c 0.5788,-8.38372 1.0524,-42.85449 1.0524,-76.60169 v -61.35859 h 270.4715 270.4715 v 61.35859 c 0,33.7472 0.4735,68.21797 1.0523,76.60169 l 1.0523,15.2431 h -272.5761 -272.5762 z m 321.7312,-32.63554 c 15.2028,-7.80881 17.5604,-37.48079 3.8585,-48.56257 -4.7277,-3.82371 -11.8744,-4.12858 -21.5164,-0.91789 -3.7739,1.25667 -3.8638,1.08501 -2.9801,-5.68939 1.9348,-14.8318 10.6492,-19.93497 17.3988,-10.18879 2.5115,3.62662 4.775,4.99576 8.259,4.99576 5.8631,0 7.3889,-3.31129 4.654,-10.09997 -2.71,-6.72711 -9.1869,-9.88308 -20.2827,-9.88308 -8.198,0 -9.708,0.57361 -14.5116,5.51266 -7.1225,7.3233 -9.3648,16.50443 -9.4463,38.67822 -0.058,15.69702 0.4595,19.49895 3.5439,26.05004 5.7723,12.26017 18.6564,16.45691 31.0229,10.10501 z m -16.1056,-8.64711 c -5.9886,-6.15745 -6.341,-22.2206 -0.6299,-28.70925 3.2496,-3.69207 9.1586,-3.91508 12.5072,-0.47205 5.7543,5.91662 5.277,24.43098 -0.7607,29.50472 -4.4737,3.7595 -7.2234,3.6795 -11.1166,-0.32342 z m 185.4412,8.91119 c 3.6481,-1.77991 6.6594,-5.20424 9.1526,-10.40784 3.2747,-6.83483 3.7153,-10.22534 3.7126,-28.57081 0,-23.60723 -1.8316,-31.09323 -9.1371,-37.41372 -3.8865,-3.36245 -6.6307,-4.21764 -13.5341,-4.21764 -17.7185,0 -24.272,12.85408 -23.233,45.5691 0.4643,14.61737 1.2951,19.95341 3.9242,25.2042 5.6237,11.23176 17.8142,15.35042 29.1148,9.83671 z m -14.1962,-7.43553 c -4.2332,-2.53741 -6.1182,-12.29174 -6.1281,-31.71095 -0.013,-24.45804 3.8724,-33.60095 13.0105,-30.61884 5.0583,1.6507 6.8489,7.11904 7.6799,23.45462 1.6048,31.54584 -3.6017,45.44503 -14.5623,38.87517 z m -409.7912,-32.79207 0.4337,-40.38241 -4.4826,0.0641 c -3.2177,0.046 -5.3968,1.53768 -7.7219,5.28572 -2.1768,3.50906 -5.3639,5.82667 -9.7175,7.06654 -4.7556,1.35435 -6.4784,2.71643 -6.4784,5.12212 0,2.52911 1.2925,3.40325 5.6621,3.82952 9.576,0.93424 9.724,1.40631 9.724,31.01386 0,14.84739 0.5204,27.53033 1.1565,28.18434 0.6361,0.654 3.3691,0.96623 6.0735,0.69385 l 4.917,-0.49523 z m 45.5314,37.46822 c 0.7463,-2.06075 2.8998,-10.4911 4.7855,-18.73411 2.075,-9.07015 6.641,-21.58584 11.5651,-31.70054 4.4751,-9.19229 8.1365,-18.76726 8.1365,-21.27772 v -4.56444 l -23.0791,0.46202 -23.0792,0.46204 v 4.99576 4.99577 l 15.3861,0.83262 c 8.4624,0.45795 15.2143,1.3999 15.0044,2.09323 -0.2099,0.69333 -3.9963,8.93634 -8.4142,18.31779 -10.2014,21.663 -15.6659,42.9735 -11.9888,46.75423 0.5938,0.6106 3.1603,1.11018 5.7033,1.11018 3.313,0 5.0081,-1.06202 5.9804,-3.74683 z m 79.2509,-2.49788 0.5075,-5.41207 -12.6544,-0.0255 c -6.96,-0.0133 -13.6424,-0.66913 -14.8498,-1.45578 -3.1029,-2.02159 0.9415,-7.95824 12.0981,-17.75831 12.0077,-10.54782 15.7519,-18.42735 14.8498,-31.25109 -0.6079,-8.64022 -1.3822,-10.58008 -5.8687,-14.70178 -4.5433,-4.17388 -6.4238,-4.74824 -15.546,-4.74824 -8.7849,0 -11.1375,0.65754 -15.3299,4.2847 -5.0462,4.36575 -9.2608,15.59151 -7.5623,20.1424 0.5913,1.58429 2.6575,2.24782 5.9383,1.90701 4.2269,-0.43909 5.377,-1.56122 7.192,-7.01721 2.4996,-7.51403 4.8486,-9.5255 10.4219,-8.92413 5.6703,0.61185 8.9241,7.31794 7.4557,15.36612 -0.9093,4.98388 -4.1805,9.63269 -14.6566,20.82961 -9.49,10.14283 -14.0102,16.35491 -15.2549,20.96457 -2.0509,7.59497 -2.2427,11.3554 -0.6624,12.9803 0.6185,0.63593 10.6397,0.94817 22.2694,0.69385 l 21.1448,-0.46239 z m 26.8522,3.61062 c 2.81,-7.52926 -0.1086,-14.01846 -6.3051,-14.01846 -4.4027,0 -7.2881,3.04474 -7.2881,7.6905 0,6.82354 1.7391,8.96205 7.2881,8.96205 3.359,0 5.6847,-0.97161 6.3051,-2.63409 z m 45.5437,-1.11274 c 0.4913,-2.06075 0.6874,-20.23283 0.4357,-40.38241 l -0.4576,-36.63559 -3.7661,-0.54859 c -2.6657,-0.38827 -5.2686,1.17617 -8.9078,5.3539 -2.9492,3.38571 -7.5586,6.50494 -10.8101,7.31544 -6.9853,1.74121 -8.1208,7.57995 -1.6196,8.32849 12.228,1.40794 11.3371,-0.83729 11.3371,28.57128 0,14.56188 0.4424,27.66149 0.9831,29.11022 0.6276,1.68174 2.9587,2.63409 6.4475,2.63409 4.3224,0 5.6511,-0.78307 6.3578,-3.74683 z m 95.3606,1.11274 c 2.8101,-7.52926 -0.1086,-14.01846 -6.305,-14.01846 -4.4028,0 -7.2882,3.04474 -7.2882,7.6905 0,6.82354 1.7391,8.96205 7.2882,8.96205 3.3589,0 5.6846,-0.97161 6.305,-2.63409 z m 45.5437,-1.11274 c 0.4913,-2.06075 0.6874,-20.23283 0.4357,-40.38241 l -0.4576,-36.63559 -3.7661,-0.54859 c -2.6656,-0.38827 -5.2686,1.17617 -8.9077,5.3539 -2.9493,3.38571 -7.5587,6.50494 -10.8102,7.31544 -6.9853,1.74121 -8.1208,7.57995 -1.6196,8.32849 12.228,1.40794 11.3371,-0.83729 11.3371,28.57128 0,14.56188 0.4424,27.66149 0.9831,29.11022 0.6276,1.68174 2.9587,2.63409 6.4475,2.63409 4.3224,0 5.6511,-0.78307 6.3578,-3.74683 z m 38.8483,-4.57945 c 0,-7.45399 -0.03,-7.49364 -5.6686,-7.49364 -5.2452,0 -5.7073,0.41601 -6.1876,5.57061 -0.792,8.50082 0.5559,10.53641 6.5814,9.93935 5.0966,-0.50502 5.2748,-0.77586 5.2748,-8.01632 z M 125.31717,174.8904 c -0.3131,-0.68691 -0.2876,-35.53236 0.057,-77.434313 l 0.6258,-76.185378 h 270.1672 270.1671 l 0.6258,76.185378 c 0.3443,41.901953 0.3697,76.747403 0.056,77.434313 -0.7443,1.63313 -540.9548,1.63313 -541.6991,0 z m 322.7295,-47.90424 c 5.8921,-3.13283 9.5544,-10.18103 10.7689,-20.72466 1.322,-11.476382 -0.4778,-19.003977 -5.9959,-25.077602 -4.4232,-4.868617 -5.4376,-5.218339 -13.31,-4.588561 -4.6869,0.374954 -9.9054,1.317066 -11.5966,2.093582 -2.8371,1.302669 -3.0084,0.806018 -2.216,-6.422452 1.024,-9.341551 4.9274,-14.360166 11.1688,-14.360166 3.4551,0 5.1896,1.239608 7.1283,5.09428 2.1632,4.301089 3.3675,5.014122 7.7347,4.579449 4.7364,-0.471426 5.1514,-0.980356 4.9221,-6.036573 -0.4686,-10.332905 -10.8202,-16.587207 -24.072,-14.543948 -8.5743,1.322052 -15.8591,8.935377 -18.7806,19.627511 -2.5243,9.238716 -2.5755,38.45811 -0.083,47.36004 2.9217,10.43503 9.7139,15.52517 20.7164,15.52517 4.8751,0 11.0018,-1.13673 13.6148,-2.52607 z m -18.6189,-9.06314 c -4.0521,-4.60374 -4.9996,-16.29918 -1.9322,-23.84767 2.2112,-5.441389 3.1924,-6.194474 8.0702,-6.194474 3.0541,0 6.4062,1.057182 7.4491,2.349291 4.5708,5.66274 4.0291,23.368103 -0.8691,28.404373 -3.4248,3.52137 -9.2806,3.19376 -12.718,-0.71152 z m 105.6841,6.68646 c 6.337,-6.51573 8.4559,-16.12939 8.3495,-37.882325 -0.144,-29.420147 -6.1813,-39.645006 -23.4084,-39.645006 -16.4019,0 -22.6619,11.729932 -22.6619,42.463981 0,29.53664 6.1529,39.9661 23.5779,39.9661 8.2172,0 9.9632,-0.60529 14.1429,-4.90275 z m -21.8924,-7.92974 c -4.2319,-6.64075 -4.2319,-47.626469 0,-54.267226 2.8311,-4.442722 7.9991,-5.818988 12.0082,-3.197881 3.8734,2.532335 5.365,11.010444 5.365,30.49339 0,24.459387 -2.1399,31.477937 -9.5975,31.477937 -3.5434,0 -5.7009,-1.2503 -7.7757,-4.50622 z m 106.2183,8.61485 c 7.3055,-6.32049 9.1337,-13.8065 9.1371,-37.413714 0,-18.345464 -0.4379,-21.735987 -3.7126,-28.570823 -8.126,-16.960124 -29.3432,-17.583537 -37.8934,-1.113402 -3.3946,6.538906 -3.7395,9.353593 -3.7395,30.516852 0,25.418597 1.3153,30.375127 9.9036,37.321177 6.4683,5.2314 19.8375,4.85526 26.3048,-0.74009 z m -20.1664,-7.61397 c -2.7413,-3.11447 -3.0853,-6.2517 -3.0853,-28.13449 0,-21.882794 0.344,-25.020026 3.0853,-28.134489 4.3078,-4.894292 9.9903,-4.472315 13.4782,1.000873 2.3932,3.755438 2.8716,8.276135 2.8716,27.133616 0,18.85748 -0.4784,23.37817 -2.8716,27.13361 -3.4879,5.47319 -9.1704,5.89517 -13.4782,1.00088 z M 191.72227,87.464562 c -0.431,-40.137651 -0.4552,-40.385562 -3.9842,-40.901948 -2.5994,-0.380347 -4.2474,0.865861 -6.1514,4.651645 -2.6142,5.197856 -5.8586,7.271211 -14.2921,9.133534 -3.5623,0.786621 -4.4475,1.813076 -4.049,4.694698 0.419,3.029884 1.8105,3.836536 7.7982,4.520589 l 7.2881,0.832627 0.4432,28.725635 0.4431,28.725628 h 6.4689 6.4689 z m 46.307,37.468218 c 0.4403,-1.60281 1.3083,-6.28634 1.9288,-10.40784 1.6836,-11.18247 10.0501,-34.489832 16.3749,-45.617019 3.8208,-6.721982 5.4239,-11.443967 5.0882,-14.987288 l -0.4902,-5.17323 -22.2271,-0.463024 -22.2271,-0.463022 -1.0329,4.231469 c -1.8015,7.380182 1.4457,9.183983 16.5328,9.183983 7.4625,0 13.5682,0.650375 13.5682,1.445279 0,0.794904 -3.1882,7.869675 -7.0849,15.721715 -7.0557,14.217331 -13.9698,36.478037 -13.9698,44.977127 0,4.08746 0.54,4.46604 6.3693,4.46604 4.6812,0 6.5814,-0.77234 7.1698,-2.91419 z m 78.4753,-2.49788 -0.5075,-5.41208 -14.1714,-0.48115 c -9.4864,-0.32208 -14.1715,-1.12622 -14.1715,-2.43239 0,-1.07319 5.5018,-7.40987 12.2263,-14.08153 6.7243,-6.671655 13.2837,-14.732722 14.5763,-17.913483 3.1745,-7.812023 2.9723,-20.113223 -0.4281,-26.031811 -5.4791,-9.536962 -23.3644,-12.454574 -33.6928,-5.496296 -4.3915,2.958494 -9.7675,15.855664 -8.2756,19.853119 0.6887,1.845429 2.579,2.506019 6.136,2.144357 4.1445,-0.421399 5.4804,-1.557127 6.8944,-5.861353 0.9646,-2.936273 2.6101,-6.214742 3.6568,-7.285487 2.8937,-2.960321 10.5322,-2.32485 12.9518,1.077509 5.4941,7.725436 0.3908,21.089277 -12.233,32.033899 -11.5415,10.006386 -20.6827,27.836386 -17.2226,33.592886 0.618,1.02808 9.7157,1.70588 22.8969,1.70588 h 21.8715 z m 27.0255,-2.08157 v -6.66102 h -6.4784 c -5.9107,0 -6.5244,0.41357 -7.004,4.72012 -0.8726,7.83509 0.6354,9.69451 7.3959,9.11955 5.9373,-0.50494 6.0865,-0.68094 6.0865,-7.17865 z m 45.8061,-29.974573 c 0.2517,-20.149575 0.055,-38.321661 -0.4357,-40.382413 -1.2713,-5.331771 -8.4869,-5.160951 -10.4871,0.248266 -1.8119,4.900073 -7.6836,9.326945 -12.3711,9.326945 -1.9197,0 -4.3899,1.114503 -5.4894,2.476674 -3.3848,4.193467 -0.7171,7.275704 6.7779,7.830985 l 6.9715,0.516493 0.4196,26.644067 c 0.2308,14.654236 0.7716,27.626366 1.2017,28.826956 0.5045,1.40807 2.9425,1.99915 6.8685,1.66525 l 6.0865,-0.51763 z m 95.0982,29.974573 v -6.66102 h -6.4783 c -5.9108,0 -6.5245,0.41357 -7.0041,4.72012 -0.8726,7.83509 0.6354,9.69451 7.3959,9.11955 5.9373,-0.50494 6.0865,-0.68094 6.0865,-7.17865 z m 84.7167,0.41631 c -0.4842,-6.88067 -0.6555,-7.07733 -6.1666,-7.07733 -5.511,0 -5.6824,0.19666 -6.1666,7.07733 l -0.498,7.07733 h 6.6646 6.6646 z"
       style="fill:#f3873a;stroke-width:1.64226329" />
    <path
       inkscape:connector-curvature="0"
       id="path82"
       d="m 591.09362,482.11957 c -5.39266,-5.62319 -5.44364,-5.88229 -6.04837,-30.73996 -0.39325,-16.16467 0.15291,-26.91049 1.53763,-30.25351 5.22636,-12.61754 18.52579,-17.87906 28.84702,-11.41244 9.47257,5.9349 11.88759,13.68376 11.88759,38.14258 0,31.37323 -4.77755,39.93432 -22.2855,39.93432 -7.06467,0 -9.41817,-0.95755 -13.93837,-5.67099 z m 23.35088,-8.4496 c 2.62968,-6.91658 2.16057,-45.16018 -0.62175,-50.68755 -3.18973,-6.33672 -11.10109,-7.15032 -15.02696,-1.54537 -3.81442,5.44585 -4.33967,50.94009 -0.64196,55.60246 5.13362,6.47286 13.18148,4.80825 16.29067,-3.36954 z"
       style="opacity:1;fill:#ffffff;fill-opacity:1;stroke-width:1.85166097" />
  </g>
</svg>
