<?xml version="1.0" encoding="UTF-8" standalone="no"?>
<!-- Created with Inkscape (http://www.inkscape.org/) -->

<svg
   xmlns:dc="http://purl.org/dc/elements/1.1/"
   xmlns:cc="http://creativecommons.org/ns#"
   xmlns:rdf="http://www.w3.org/1999/02/22-rdf-syntax-ns#"
   xmlns:svg="http://www.w3.org/2000/svg"
   xmlns="http://www.w3.org/2000/svg"
   xmlns:sodipodi="http://sodipodi.sourceforge.net/DTD/sodipodi-0.dtd"
   xmlns:inkscape="http://www.inkscape.org/namespaces/inkscape"
   width="297mm"
   height="420mm"
   viewBox="0 0 297 420"
   version="1.1"
   id="svg175"
   inkscape:version="0.92.2 (5c3e80d, 2017-08-06)"
   sodipodi:docname="AWS_Elastic_Beanstalk_Deployment.svg">
  <defs
     id="defs169" />
  <sodipodi:namedview
     id="base"
     pagecolor="#ffffff"
     bordercolor="#666666"
     borderopacity="1.0"
     inkscape:pageopacity="0.0"
     inkscape:pageshadow="2"
     inkscape:zoom="0.35"
     inkscape:cx="400"
     inkscape:cy="560"
     inkscape:document-units="mm"
     inkscape:current-layer="layer1"
     showgrid="false"
     inkscape:window-width="1920"
     inkscape:window-height="1001"
     inkscape:window-x="-9"
     inkscape:window-y="-9"
     inkscape:window-maximized="1" />
  <metadata
     id="metadata172">
    <rdf:RDF>
      <cc:Work
         rdf:about="">
        <dc:format>image/svg+xml</dc:format>
        <dc:type
           rdf:resource="http://purl.org/dc/dcmitype/StillImage" />
        <dc:title></dc:title>
      </cc:Work>
    </rdf:RDF>
  </metadata>
  <g
     inkscape:label="Layer 1"
     inkscape:groupmode="layer"
     id="layer1"
     transform="translate(0,123)">
    <g
       id="g203">
      <path
         inkscape:connector-curvature="0"
         id="path188"
         d="m 113.37117,259.89067 c -0.43043,-0.36912 -0.7826,-35.23387 -0.7826,-77.47721 0,-64.95598 0.26127,-77.58481 1.69341,-81.85332 0.93138,-2.775981 2.08763,-9.856981 2.56944,-15.735562 l 0.87604,-10.688312 7.99381,-3.511562 c 10.83043,-4.757644 24.84044,-16.730297 30.4659,-26.035506 5.40007,-8.93239 7.64819,-15.701767 8.54782,-25.738589 l 0.7326,-8.173085 7.7213,-3.334492 c 16.77962,-7.24638135 39.61715,-14.3469517 64.1822,-19.955308 15.12863,-3.453965 35.12112,-6.942806 39.78513,-6.942806 3.29999,0 3.30252,0.0048 3.30252,6.303563 0,5.8927796 -0.34627,6.7383686 -5.31367,12.97575165 C 248.45856,33.233588 205.01312,63.653729 154.84161,83.959738 c -21.75134,8.803471 -21.12652,8.489631 -21.12652,10.611411 0,2.83133 5.26555,2.98099 12.96023,0.36838 11.23435,-3.81446 34.99451,-14.285734 47.71373,-21.027798 36.30149,-19.242284 65.69828,-42.966937 87.64756,-70.735877 l 6.41594,-8.1170754 -1.3e-4,7.6274244 c -3.4e-4,17.823313 -7.00123,52.867436 -13.93146,69.736098 -4.15136,10.104712 -7.469,15.158787 -13.18298,20.082868 -11.11051,9.574621 -41.44054,17.654051 -80.67996,21.491851 -9.33615,0.91312 -15.09498,1.91568 -15.73844,2.73993 -0.57411,0.73543 -0.90892,32.13095 -0.77099,72.29929 l 0.24379,70.99939 -25.1193,0.26308 c -13.81563,0.14469 -25.47148,-0.039 -25.90191,-0.40804 z M 68.320505,76.311198 C 41.241945,72.84157 18.758775,57.033697 8.9147052,34.543078 c -2.55311,-5.833037 -2.95039,-8.505632 -3.41086,-22.945419 -0.41499,-13.0134634 -0.12786,-17.8594524 1.40922,-23.784187 6.1031798,-23.524891 27.9447598,-42.66253 54.8576598,-48.06639 11.77756,-2.364826 30.4165,-1.564854 41.461415,1.779498 23.53776,7.127138 42.57859,25.628015 47.6133,46.263103 2.63543,10.8014766 2.28759,33.513692 -0.65259,42.612351 -9.86167,30.51769 -45.59879,50.55696 -81.872345,45.909164 z m 27.61604,-24.971662 c 1.59323,-0.524289 1.80636,-4.16409 1.80636,-30.848011 V -9.762062 l 10.563265,-0.06883 c 17.86006,-0.1163776 18.15409,0.7752377 -6.56635,-19.911849 -11.933635,-9.986554 -22.234735,-18.169686 -22.891335,-18.184735 -2.02264,-0.04636 -44.54593,35.919772 -43.53886,36.825095 0.52044,0.467868 6.17322,1.071011 12.56171,1.340319 l 11.61544,0.4896509 0.30258,29.8199711 c 0.22688,22.35953 0.65543,30.012168 1.71296,30.588193 1.65127,0.89943 31.77847,1.077722 34.43423,0.203783 z m -29.37126,-4.923793 c -0.43871,-0.376219 -0.79765,-13.57477 -0.79765,-29.330123 0,-15.755352 -0.31193,-29.343168 -0.69317,-30.195145 -0.53112,-1.186923 -2.38409,-1.549047 -7.92642,-1.549047 -4.41517,0 -7.56497,-0.460266 -8.08467,-1.181379 -0.84634,-1.17434 27.36905,-25.259774 29.5911,-25.259774 1.79797,0 30.598565,23.759516 30.166545,24.886372 -0.2246,0.585822 -3.9653,1.285473 -8.31268,1.554781 l -7.904315,0.489651 -0.57099,30.358362 -0.57099,30.358361 -12.04955,0.275987 c -6.62726,0.151791 -12.4085,-0.03183 -12.84721,-0.408046 z"
         style="fill:#f38538;stroke-width:1.05751467" />
      <path
         transform="matrix(0.26458333,0,0,0.26458333,0,-123)"
         inkscape:connector-curvature="0"
         id="path199"
         d="m 246.73217,658.58323 -14.6964,-1.17351 -1.63917,-12.00406 c -0.90155,-6.60226 -2.50871,-57.86223 -3.57147,-113.91109 l -1.9323,-101.90701 -27.44642,-1.73385 c -15.09552,-0.95361 -35.80355,-2.48478 -46.01784,-3.4026 l -18.57143,-1.66876 14.28572,-12.99631 c 46.91308,-42.67881 135.78693,-116.40956 146.26924,-121.34661 7.30262,-3.43946 14.57301,1.83686 93.73076,68.02307 59.93503,50.11349 73.08543,63.24229 67.12248,67.01213 -2.34594,1.48312 -22.49423,2.71627 -44.77396,2.74034 l -40.50863,0.0437 -0.91994,112.71739 c -0.7154,87.65446 -1.74527,113.54258 -4.63172,116.42858 -2.72932,2.72888 -16.71979,3.79597 -52.85714,4.0316 -27.02996,0.17628 -55.75876,-0.20772 -63.84178,-0.85306 z M 346.7545,630.14566 c 0.99931,-7.29077 1.81693,-37.94257 1.81693,-68.11511 0,-30.17256 0.83524,-76.03717 1.85608,-101.92136 l 1.85608,-47.06217 28.101,-2.87504 c 15.45556,-1.58128 29.0846,-3.86996 30.28678,-5.08596 1.20218,-1.21601 -5.60362,-9.54306 -15.12398,-18.50456 -26.85303,-25.27673 -93.11992,-77.4656 -98.36204,-77.4656 -11.63414,0 -115.45554,91.23016 -110.04249,96.69677 1.57143,1.58698 15.07143,3.94371 30,5.23718 l 27.14285,2.35176 1.78383,41.42858 c 0.98111,22.78571 1.94539,72.99285 2.14286,111.57142 0.2576,50.32546 1.3277,71.11152 3.7876,73.57143 2.37483,2.37483 17.18354,3.42857 48.18307,3.42857 h 44.75451 z"
         style="opacity:1;fill:#ffffff;fill-opacity:1;stroke-width:2.85714293" />
    </g>
  </g>
</svg>
