<?xml version="1.0" encoding="UTF-8" standalone="no"?>
<!-- Created with Inkscape (http://www.inkscape.org/) -->

<svg
   xmlns:dc="http://purl.org/dc/elements/1.1/"
   xmlns:cc="http://creativecommons.org/ns#"
   xmlns:rdf="http://www.w3.org/1999/02/22-rdf-syntax-ns#"
   xmlns:svg="http://www.w3.org/2000/svg"
   xmlns="http://www.w3.org/2000/svg"
   xmlns:sodipodi="http://sodipodi.sourceforge.net/DTD/sodipodi-0.dtd"
   xmlns:inkscape="http://www.inkscape.org/namespaces/inkscape"
   width="297mm"
   height="420mm"
   viewBox="0 0 297 420"
   version="1.1"
   id="svg139"
   inkscape:version="0.92.2 (5c3e80d, 2017-08-06)"
   sodipodi:docname="AWS_VPC_Endpoint.svg">
  <defs
     id="defs133" />
  <sodipodi:namedview
     id="base"
     pagecolor="#ffffff"
     bordercolor="#666666"
     borderopacity="1.0"
     inkscape:pageopacity="0.0"
     inkscape:pageshadow="2"
     inkscape:zoom="0.35"
     inkscape:cx="400"
     inkscape:cy="560"
     inkscape:document-units="mm"
     inkscape:current-layer="layer1"
     showgrid="false"
     inkscape:window-width="1920"
     inkscape:window-height="1001"
     inkscape:window-x="-9"
     inkscape:window-y="-9"
     inkscape:window-maximized="1" />
  <metadata
     id="metadata136">
    <rdf:RDF>
      <cc:Work
         rdf:about="">
        <dc:format>image/svg+xml</dc:format>
        <dc:type
           rdf:resource="http://purl.org/dc/dcmitype/StillImage" />
        <dc:title></dc:title>
      </cc:Work>
    </rdf:RDF>
  </metadata>
  <g
     inkscape:label="Layer 1"
     inkscape:groupmode="layer"
     id="layer1"
     transform="translate(0,123)">
    <g
       id="g167">
      <path
         inkscape:connector-curvature="0"
         id="path152"
         d="M 132.66519,242.13911 C 71.895946,234.95524 24.125926,192.23234 10.973776,133.30495 9.5699859,127.01533 9.2902559,121.68963 9.3113659,101.6544 9.3340659,80.111243 9.5544159,76.605421 11.396686,68.476144 23.547336,14.859929 65.476536,-25.61216 120.9387,-37.259104 c 8.00853,-1.681774 12.248,-1.977343 28.36189,-1.977343 16.11388,0 20.35335,0.295569 28.36188,1.977343 55.46217,11.646944 97.39139,52.119033 109.54203,105.735248 1.84228,8.129277 2.06263,11.635099 2.08533,33.178256 0.0211,20.03523 -0.25862,25.36093 -1.66241,31.65055 -9.42719,42.2379 -35.60398,75.56701 -74.63458,95.02704 -10.01455,4.99309 -27.22029,10.61616 -38.27706,12.50946 -10.08442,1.7268 -32.55471,2.42022 -42.05059,1.29766 z m 23.73283,-48.07862 c 17.72875,-8.09654 35.64892,-23.50387 48.32959,-41.55261 18.82062,-26.78791 29.3559,-61.591512 31.11526,-102.790177 0.44456,-10.410335 0.31843,-14.808129 -0.45036,-15.702367 -0.63303,-0.736325 -3.79601,-1.467108 -7.76757,-1.794639 -17.94844,-1.480188 -24.98901,-7.404442 -27.1057,-22.8079344 -0.61613,-4.4837035 -0.65328,-4.5259405 -5.53089,-6.2876545 -6.48141,-2.34098198 -17.41714,-5.002121 -27.55609,-6.705598 -19.01553,-3.194857 -43.47919,-0.604731 -63.99406,6.775464 -4.679357,1.683397 -4.743387,1.757719 -5.356267,6.2177885 -0.926487,6.7422384 -3.854257,13.4729764 -7.237487,16.6385124 -3.96427,3.709194 -9.6691,5.600183 -18.71362,6.203042 -4.06643,0.271046 -7.91337,0.890427 -8.54875,1.376403 -1.89836,1.45198 -1.3535,19.650161 1.25533,41.927807 l 0.60075,5.129956 h -13.79737 c -9.49903,0 -14.14286,0.333528 -14.90639,1.0706 -1.56501,1.510786 -1.4731,13.586062 0.11308,14.856863 0.75047,0.60125 7.205,1.0738 16.72482,1.22445 l 15.50271,0.24533 3.19059,10.174864 c 9.84087,31.38278 28.907204,58.86577 52.543984,75.73905 6.93959,4.95387 21.75018,12.67094 24.31583,12.66978 0.8588,-3.9e-4 4.13148,-1.17441 7.27261,-2.60893 z m -12.18047,-14.15946 c -19.29617,-10.28128 -35.51262,-27.15601 -47.616994,-49.54996 -4.9967,-9.24423 -10.7048,-23.50737 -11.62087,-29.03766 l -0.61253,-3.697784 31.311474,0.23505 31.31148,0.23505 0.25713,12.267294 c 0.14375,6.85799 0.63902,12.26729 1.1232,12.26729 0.47633,0 6.76124,-4.51659 13.96646,-10.03687 22.39467,-17.157688 27.93769,-21.599338 28.30373,-22.679957 0.19467,-0.574707 -2.68496,-3.463783 -6.39917,-6.420163 -13.91593,-11.076612 -34.99432,-26.88333 -35.84915,-26.88333 -0.50824,0 -0.99648,5.04364 -1.14432,11.821205 l -0.25788,11.821205 -33.43593,0.234105 c -31.257114,0.218848 -33.466934,0.131639 -33.911974,-1.33825 -0.53438,-1.764982 -2.03202,-15.019577 -2.8595,-25.307487 -0.61647,-7.664602 -0.2831,-8.230261 5.43811,-9.227184 14.51335,-2.52896 23.533204,-10.579675 27.783544,-24.798338 1.51564,-5.070282 1.58048,-5.136428 6.31991,-6.447728 13.96487,-3.8637824 17.84337,-4.4011649 32.05213,-4.4409689 14.25623,-0.03993 21.87706,0.9647375 34.27249,4.5182389 4.39305,1.259395 4.48498,1.361278 6.03269,6.68614 3.98586,13.713282 13.68198,21.848371 29.17601,24.478788 1.87093,0.317626 3.6136,1.110586 3.87259,1.762131 0.79338,1.995869 -1.18177,23.470372 -3.15724,34.326636 -4.63046,25.446877 -12.78901,45.984307 -25.6496,64.567517 -5.4588,7.88783 -18.89138,21.54388 -26.89329,27.34071 -5.10756,3.70009 -15.68788,9.83947 -16.85883,9.78258 -0.183,-0.009 -2.41215,-1.1241 -4.95367,-2.47826 z"
         style="fill:#f38537;stroke-width:0.90803647" />
      <path
         transform="matrix(0.26458333,0,0,0.26458333,0,-123)"
         inkscape:connector-curvature="0"
         id="path163"
         d="m 523.9824,1189.2001 c -42.81103,-22.058 -72.56203,-43.5783 -106.78863,-77.245 -63.8326,-62.7886 -111.90455,-143.70438 -144.45899,-243.15678 l -10.8593,-33.17466 -57.25971,-2.05003 c -31.49283,-1.12751 -59.55767,-3.27986 -62.36631,-4.783 -4.27168,-2.28611 -5.1066,-6.5938 -5.1066,-26.34671 0,-14.55675 1.31502,-24.9288 3.42857,-27.04235 2.4184,-2.4184 18.92923,-3.42857 56.0387,-3.42857 h 52.61012 l -1.68755,-12.14285 c -7.46309,-53.70113 -12.21489,-161.17925 -7.34437,-166.11805 0.8893,-0.90176 16.81997,-3.63252 35.4015,-6.06834 39.29479,-5.1511 57.71047,-12.1535 71.18401,-27.0671 10.37369,-11.48244 20.49678,-35.25029 24.89794,-58.45754 1.49489,-7.88248 4.30171,-15.83984 6.23738,-17.68301 5.54778,-5.28266 54.76221,-19.96613 89.2337,-26.6235 44.52583,-8.59914 96.22068,-12.03937 132.61908,-8.82565 48.86992,4.31487 141.05763,25.95099 150.79443,35.39089 1.87746,1.82019 5.35906,12.70315 7.73694,24.18435 10.93318,52.78924 31.70232,69.57686 97.30875,78.65422 18.52528,2.56317 31.87463,5.80322 33.32285,8.08786 5.08172,8.01663 0.68452,95.10575 -7.76605,153.81158 -28.25255,196.26909 -119.2248,348.38474 -257.45906,430.49994 -24.80651,14.7358 -51.98429,26.6429 -60.81211,26.6429 -3.18852,0 -20.69589,-7.6764 -38.90529,-17.0586 z m 53.98857,-40.4425 c 56.12154,-28.3313 121.86409,-88.9905 161.08437,-148.6291 57.63212,-87.63575 91.10323,-198.85355 99.7,-331.28303 2.25135,-34.6812 4.99235,-30.95031 -29.23843,-39.79772 -49.48422,-12.78988 -80.7374,-41.25491 -94.03448,-85.64552 -2.84546,-9.49914 -7.31772,-19.21163 -9.9384,-21.58331 -6.85597,-6.20458 -39.21946,-14.85045 -75.54403,-20.18153 -23.678,-3.47503 -44.11131,-4.25682 -82.85714,-3.17014 -44.64855,1.25223 -55.86363,2.56419 -85.06986,9.9516 -18.50269,4.68007 -35.92934,10.57989 -38.72586,13.11071 -2.79654,2.53083 -7.41269,12.37353 -10.25813,21.87267 -13.73371,45.84822 -47.49606,76.58994 -96.19339,87.58719 -11.01452,2.48739 -21.89341,6.38953 -24.1753,8.67143 -2.29476,2.29476 -4.15768,9.48429 -4.16855,16.08766 -0.029,17.63438 8.97181,99.48112 11.76026,106.93878 l 2.40368,6.42857 h 127.21358 127.21357 l 0.25028,-30.71429 c 0.13772,-16.89285 1.10195,-36.98158 2.14286,-44.6416 l 1.89254,-13.92732 34.28572,25.01229 c 44.80628,32.68732 106.43543,81.40641 116.65397,92.21732 l 8.08254,8.55109 -45.2254,35.49405 c -69.30074,54.38903 -112.33586,86.13609 -114.21526,84.25672 -0.93625,-0.93626 -2.374,-21.68943 -3.195,-46.11815 l -1.49268,-44.41582 -44.5898,-0.006 c -24.52437,-0.003 -78.48806,-0.85611 -119.91931,-1.89534 l -75.32953,-1.88949 1.95677,9.75249 c 8.60541,42.88894 48.21431,128.38328 79.96878,172.60959 38.83872,54.093 92.18446,102.9736 141.59066,129.7393 11.78571,6.3849 22.44409,11.627 23.68526,11.6491 1.24117,0.023 7.66974,-2.6924 14.28571,-6.0323 z"
         style="opacity:1;fill:#ffffff;fill-opacity:1;stroke-width:2.85714293" />
    </g>
  </g>
</svg>
