<?xml version="1.0" encoding="UTF-8" standalone="no"?>
<!-- Created with Inkscape (http://www.inkscape.org/) -->

<svg
   xmlns:dc="http://purl.org/dc/elements/1.1/"
   xmlns:cc="http://creativecommons.org/ns#"
   xmlns:rdf="http://www.w3.org/1999/02/22-rdf-syntax-ns#"
   xmlns:svg="http://www.w3.org/2000/svg"
   xmlns="http://www.w3.org/2000/svg"
   xmlns:sodipodi="http://sodipodi.sourceforge.net/DTD/sodipodi-0.dtd"
   xmlns:inkscape="http://www.inkscape.org/namespaces/inkscape"
   width="297mm"
   height="420mm"
   viewBox="0 0 297 420"
   version="1.1"
   id="svg406"
   inkscape:version="0.92.2 (5c3e80d, 2017-08-06)"
   sodipodi:docname="AWS_VPC_Router.svg">
  <defs
     id="defs400" />
  <sodipodi:namedview
     id="base"
     pagecolor="#ffffff"
     bordercolor="#666666"
     borderopacity="1.0"
     inkscape:pageopacity="0.0"
     inkscape:pageshadow="2"
     inkscape:zoom="0.35"
     inkscape:cx="400"
     inkscape:cy="560"
     inkscape:document-units="mm"
     inkscape:current-layer="layer1"
     showgrid="false"
     inkscape:window-width="1920"
     inkscape:window-height="1001"
     inkscape:window-x="-9"
     inkscape:window-y="-9"
     inkscape:window-maximized="1" />
  <metadata
     id="metadata403">
    <rdf:RDF>
      <cc:Work
         rdf:about="">
        <dc:format>image/svg+xml</dc:format>
        <dc:type
           rdf:resource="http://purl.org/dc/dcmitype/StillImage" />
        <dc:title></dc:title>
      </cc:Work>
    </rdf:RDF>
  </metadata>
  <g
     inkscape:label="Layer 1"
     inkscape:groupmode="layer"
     id="layer1"
     transform="translate(0,123)">
    <g
       id="g452">
      <g
         id="g442">
        <g
           id="g434">
          <path
             inkscape:connector-curvature="0"
             id="path419"
             d="M 133.70365,217.9335 C 102.34079,215.22793 73.536679,203.35879 51.104529,183.89738 29.780959,165.39773 17.172329,145.56396 10.342029,119.77669 8.3245086,112.15968 7.9664286,108.56279 7.5632186,91.86372 7.1965486,76.67806 7.4153886,70.748478 8.6162986,63.330222 17.264369,9.9095625 60.311299,-31.441758 119.45531,-43.142864 c 11.24574,-2.224868 43.90914,-2.224868 55.15488,0 13.13422,2.598488 21.9904,5.416218 34.4718,10.967736 41.39727,18.412829 69.59598,53.678323 76.3672,95.50535 1.20091,7.418256 1.41976,13.347838 1.05309,28.533498 -0.40322,16.69907 -0.7613,20.29596 -2.77883,27.91297 -6.83029,25.78727 -19.43892,45.62104 -40.76249,64.12069 -23.01863,19.97021 -51.17528,31.3509 -84.43761,34.12899 -11.22982,0.93792 -12.94535,0.9315 -24.8197,-0.0929 z m 27.73199,-45.27571 c 7.27616,-11.40659 13.0232,-21.22602 12.7712,-21.82093 -0.32317,-0.76292 -2.6354,-1.08167 -7.84641,-1.08167 h -7.3882 l 0.23518,-68.07618 0.23519,-68.07619 7.58379,-0.241861 c 4.72679,-0.150747 7.5838,-0.58593 7.5838,-1.155175 0,-2.023551 -26.25727,-42.27052 -27.57744,-42.27052 -1.32017,0 -27.57744,40.246969 -27.57744,42.27052 0,0.569245 2.857,1.004428 7.58379,1.155175 l 7.5838,0.241861 v 67.868 67.868 l -7.16817,0.24394 c -4.83228,0.16444 -7.31779,0.59715 -7.62733,1.32788 -0.25254,0.59617 3.95742,7.98103 9.35546,16.41079 5.39805,8.42976 11.44785,17.8778 13.44402,20.99565 1.99617,3.11784 4.06814,5.53632 4.60439,5.3744 0.53625,-0.16194 6.92821,-9.62709 14.20437,-21.03369 z M 98.891739,94.24286 C 111.74794,87.52734 122.12347,81.62532 121.94849,81.12727 121.51454,79.89212 77.107059,56.539333 75.138759,56.511195 c -1.33637,-0.01907 -1.61145,1.00547 -1.83849,6.847615 l -0.26699,6.870074 -24.8197,0.416368 -24.81969,0.416368 -0.25799,10.18759 -0.25799,10.18758 25.07769,0.22162 25.07768,0.22161 0.24907,6.24552 c 0.25557,6.40852 0.63653,8.32737 1.6533,8.32737 0.31966,0 11.0999,-5.49452 23.95609,-12.21005 z m 121.680851,4.64949 0.45962,-7.01233 25.07768,-0.22161 25.07769,-0.22162 -0.25799,-10.18758 -0.25799,-10.18759 -24.81969,-0.416368 -24.8197,-0.416368 -0.26698,-6.870074 c -0.22705,-5.842145 -0.50213,-6.86671 -1.8385,-6.847615 -2.32607,0.03323 -46.61466,23.545015 -46.61466,24.746625 0,1.15027 45.43746,25.27447 46.88165,24.89096 0.50558,-0.13426 1.12607,-3.39965 1.37887,-7.25643 z"
             style="fill:#f38537;stroke-width:0.87492347" />
          <path
             transform="matrix(0.26458333,0,0,0.26458333,0,-123)"
             inkscape:connector-curvature="0"
             id="path430"
             d="m 281.71393,863.8633 c -0.89537,-1.44875 -2.46516,-13.52581 -3.48841,-26.8379 l -1.86045,-24.20381 -38.63428,-1.85286 c -21.24886,-1.01908 -63.50243,-1.85287 -93.89682,-1.85287 H 88.571429 v -36.69111 -36.69111 l 53.571431,-1.87224 c 29.46428,-1.02974 71.89285,-1.87588 94.28571,-1.88032 l 40.71429,-0.008 v -12.45837 c 0,-22.90471 3.29709,-38.9702 7.99777,-38.9702 8.13727,0 172.00223,86.84192 172.00223,91.15434 0,5.65754 -172.78941,96.43536 -175.42893,92.16453 z"
             style="opacity:1;fill:#ffffff;fill-opacity:1;stroke-width:2.85714293" />
        </g>
        <path
           style="opacity:1;fill:#ffffff;fill-opacity:1;stroke-width:2.85714293"
           d="m 549.6288,1188.5987 c -6.28209,-6.9103 -62.42531,-94.2164 -83.78561,-130.2916 -6.77652,-11.4448 -11.40498,-21.7305 -10.28547,-22.8571 1.11951,-1.1267 13.18415,-2.6913 26.81031,-3.477 l 24.77483,-1.4286 0.72947,-257.85711 0.72948,-257.85714 h -18.22948 c -21.24603,0 -36.08662,-2.50957 -36.08662,-6.10231 0,-3.83332 34.10328,-58.23323 69.38835,-110.68497 l 31.4745,-46.78728 5.24465,6.78728 c 19.09429,24.7106 96.74965,145.65672 96.74965,150.68497 0,3.57521 -14.81138,6.10231 -35.76575,6.10231 -13.69462,0 -18.31668,1.06343 -19.64286,4.51939 C 600.78041,521.83521 600,638.19235 600,777.92097 V 1031.973 l 25,0.044 c 13.75,0.023 26.59786,1.0585 28.5508,2.2988 2.61148,1.6584 -0.15725,8.7218 -10.46619,26.7008 -16.26561,28.3674 -71.42679,114.3368 -80.94501,126.1538 l -6.48746,8.0542 -6.02334,-6.6256 z"
           id="path436"
           inkscape:connector-curvature="0"
           transform="matrix(0.26458333,0,0,0.26458333,0,-123)" />
      </g>
      <path
         transform="matrix(0.26458333,0,0,0.26458333,0,-123)"
         inkscape:connector-curvature="0"
         id="path444"
         d="m 777.14286,840.28327 c -61.11715,-31.76446 -122.85715,-65.96379 -122.85715,-68.05363 0,-2.51667 7.47589,-6.92429 60,-35.37465 61.0493,-33.06815 107.4516,-56.31056 112.4212,-56.31056 4.24527,0 7.5788,17.14103 7.5788,38.9702 V 731.973 L 875,731.981 c 22.39286,0.005 64.82143,0.85059 94.28571,1.88032 l 53.57139,1.87232 v 36.69111 36.69111 h -55.2625 c -30.3944,0 -72.71196,0.83686 -94.03903,1.85969 l -38.7765,1.85968 -1.88022,20.28318 c -2.30818,24.89977 -3.75285,30.2976 -8.09139,30.23234 -1.85839,-0.0279 -23.30746,-10.40832 -47.6646,-23.06748 z"
         style="opacity:1;fill:#ffffff;fill-opacity:1;stroke-width:2.85714293" />
    </g>
  </g>
</svg>
