<?xml version="1.0" encoding="UTF-8" standalone="no"?>
<!-- Created with Inkscape (http://www.inkscape.org/) -->

<svg
   xmlns:dc="http://purl.org/dc/elements/1.1/"
   xmlns:cc="http://creativecommons.org/ns#"
   xmlns:rdf="http://www.w3.org/1999/02/22-rdf-syntax-ns#"
   xmlns:svg="http://www.w3.org/2000/svg"
   xmlns="http://www.w3.org/2000/svg"
   xmlns:sodipodi="http://sodipodi.sourceforge.net/DTD/sodipodi-0.dtd"
   xmlns:inkscape="http://www.inkscape.org/namespaces/inkscape"
   width="48cm"
   height="48cm"
   viewBox="0 0 480 479.99999"
   version="1.1"
   id="svg8"
   inkscape:version="0.92.1 r15371"
   sodipodi:docname="EC2instance.svg">
  <defs
     id="defs2" />
  <sodipodi:namedview
     id="base"
     pagecolor="#ffffff"
     bordercolor="#666666"
     borderopacity="1.0"
     inkscape:pageopacity="0.0"
     inkscape:pageshadow="2"
     inkscape:zoom="0.35"
     inkscape:cx="1268.3465"
     inkscape:cy="902.85714"
     inkscape:document-units="mm"
     inkscape:current-layer="layer1"
     showgrid="false"
     units="cm"
     inkscape:window-width="1920"
     inkscape:window-height="1001"
     inkscape:window-x="-9"
     inkscape:window-y="-9"
     inkscape:window-maximized="1" />
  <metadata
     id="metadata5">
    <rdf:RDF>
      <cc:Work
         rdf:about="">
        <dc:format>image/svg+xml</dc:format>
        <dc:type
           rdf:resource="http://purl.org/dc/dcmitype/StillImage" />
        <dc:title></dc:title>
      </cc:Work>
    </rdf:RDF>
  </metadata>
  <g
     inkscape:label="Layer 1"
     inkscape:groupmode="layer"
     id="layer1"
     transform="translate(0,182.99998)">
    <g
       id="g68"
       transform="translate(0.75594762,-15.119048)">
      <path
         style="fill:#f48435;stroke-width:1.09544051"
         d="m 217.9429,252.27312 -22.16626,-7.66483 v -11.32946 c 0,-8.20236 -0.43798,-11.32946 -1.58679,-11.32946 -0.87274,0 -9.73592,2.06703 -19.69597,4.59339 l -18.10917,4.59339 -17.35808,-5.96004 -17.35808,-5.96004 v -8.1545 c 0,-4.48497 -0.41949,-8.15449 -0.93221,-8.15449 -0.51271,0 -7.48057,1.27096 -15.48412,2.82436 l -14.551912,2.82437 -14.29145,-4.83172 -14.291448,-4.83171 v -6.21474 c 0,-5.47851 -0.274348,-6.16366 -2.315878,-5.78363 -1.273733,0.23712 -6.712707,1.138 -12.08661,2.00196 l -9.77073,1.57083 -11.733848,-3.94093 -11.733848,-3.94093 V 73.238125 -36.10869 l 11.693753,-3.927467 11.693754,-3.927467 11.790337,1.855603 c 6.484687,1.020582 11.941703,1.751886 12.126704,1.625122 0.185001,-0.126765 0.336366,-2.863599 0.336366,-6.081856 v -5.851375 l 14.291448,-4.831714 14.29145,-4.831714 14.934602,2.898641 c 8.21403,1.594252 15.15689,2.746328 15.42857,2.560169 0.27169,-0.186159 0.66785,-3.946195 0.88036,-8.355633 l 0.38639,-8.01716 17.20366,-5.833693 17.20367,-5.833692 17.91272,4.593902 c 9.85198,2.526646 18.61799,4.593902 19.48,4.593902 1.10512,0 1.67651,-3.374698 1.93766,-11.444325 l 0.37038,-11.444323 22.16016,-7.60112 22.16014,-7.60111 112.49689,38.543986 112.49689,38.543991 -0.33613,109.829327 -0.33613,109.829326 -112.15156,38.42567 c -61.68335,21.13411 -112.30182,38.40405 -112.48549,38.37766 -0.18367,-0.0264 -10.30875,-3.49719 -22.50019,-7.71284 z"
         id="path72"
         inkscape:connector-curvature="0" />
      <path
         style="fill:#9e5024;stroke-width:1.09544051"
         d="m 216.61954,251.81955 -20.8429,-7.21191 V 73.237898 -98.131839 l 21.15818,-7.259551 c 11.63699,-3.99275 21.76069,-7.25954 22.49709,-7.25954 0.89864,0 1.33893,61.126952 1.33893,185.889055 0,148.132255 -0.33599,185.879335 -1.6542,185.841195 -0.90981,-0.0263 -11.03351,-3.29322 -22.4971,-7.25977 z M 138.54138,225.06899 121.66855,219.2154 V 73.237789 -72.739818 l 17.20367,-5.90702 17.20366,-5.90702 v 157.78549 c 0,86.782028 -0.14888,157.764228 -0.33084,157.738218 -0.18196,-0.026 -7.92361,-2.68139 -17.20366,-5.90086 z m -61.991198,-21.23921 -12.696081,-4.42527 -0.868346,-9.72447 c -1.131978,-12.67686 -1.131935,-220.207452 4.9e-5,-232.884369 l 0.868395,-9.725021 13.026872,-4.479334 13.026872,-4.479335 V 73.229855 c 0,74.314835 -0.148878,135.097025 -0.33084,135.071535 -0.181962,-0.0255 -6.044076,-2.03772 -13.026921,-4.47161 z m -50.499588,-17.30279 -10.26132,-3.59458 0.33613,-109.80824 0.33613,-109.808249 9.92519,-3.481068 c 5.458855,-1.914586 10.371824,-3.501261 10.91771,-3.525943 0.545885,-0.02468 0.992519,52.593465 0.992519,116.929215 0,64.335745 -0.446634,116.953685 -0.992519,116.928765 -0.545886,-0.0249 -5.610113,-1.66289 -11.25384,-3.6399 z"
         id="path70"
         inkscape:connector-curvature="0" />
    </g>
  </g>
</svg>
