<?xml version="1.0" encoding="UTF-8" standalone="no"?>
<!-- Created with Inkscape (http://www.inkscape.org/) -->

<svg
   xmlns:dc="http://purl.org/dc/elements/1.1/"
   xmlns:cc="http://creativecommons.org/ns#"
   xmlns:rdf="http://www.w3.org/1999/02/22-rdf-syntax-ns#"
   xmlns:svg="http://www.w3.org/2000/svg"
   xmlns="http://www.w3.org/2000/svg"
   xmlns:sodipodi="http://sodipodi.sourceforge.net/DTD/sodipodi-0.dtd"
   xmlns:inkscape="http://www.inkscape.org/namespaces/inkscape"
   width="297mm"
   height="420mm"
   viewBox="0 0 297 420"
   version="1.1"
   id="svg311"
   inkscape:version="0.92.2 (5c3e80d, 2017-08-06)"
   sodipodi:docname="AWS_VPC_NAT_Gateway.svg">
  <defs
     id="defs305" />
  <sodipodi:namedview
     id="base"
     pagecolor="#ffffff"
     bordercolor="#666666"
     borderopacity="1.0"
     inkscape:pageopacity="0.0"
     inkscape:pageshadow="2"
     inkscape:zoom="0.35"
     inkscape:cx="400"
     inkscape:cy="560"
     inkscape:document-units="mm"
     inkscape:current-layer="layer1"
     showgrid="false"
     inkscape:window-width="1920"
     inkscape:window-height="1001"
     inkscape:window-x="-9"
     inkscape:window-y="-9"
     inkscape:window-maximized="1" />
  <metadata
     id="metadata308">
    <rdf:RDF>
      <cc:Work
         rdf:about="">
        <dc:format>image/svg+xml</dc:format>
        <dc:type
           rdf:resource="http://purl.org/dc/dcmitype/StillImage" />
        <dc:title></dc:title>
      </cc:Work>
    </rdf:RDF>
  </metadata>
  <g
     inkscape:label="Layer 1"
     inkscape:groupmode="layer"
     id="layer1"
     transform="translate(0,123)">
    <path
       style="opacity:1;fill:#ffffff;fill-opacity:1;stroke-width:2.85714293"
       d="M 221.82947,667.13581 C 220.82326,666.1296 220,625.66348 220,577.2111 c 0,-65.01775 0.86979,-88.09524 3.3203,-88.09524 6.84647,0 108.10827,80.11528 108.10827,85.53201 0,5.45431 -106.64102,95.44601 -109.5991,92.48794 z"
       id="path352"
       inkscape:connector-curvature="0"
       transform="matrix(0.26458333,0,0,0.26458333,0,-123)" />
    <path
       style="opacity:1;fill:#ffffff;fill-opacity:1;stroke-width:2.85714293"
       d="m 221.90476,907.2111 c -3.02152,-3.02153 -2.26434,-171.82148 0.77917,-173.70248 3.39694,-2.09942 63.82484,43.25771 89.84128,67.43479 l 19.66807,18.27753 -18.2395,16.9099 c -16.11391,14.93926 -87.14514,72.98502 -89.31257,72.98502 -0.45743,0 -1.68883,-0.85714 -2.73645,-1.90476 z"
       id="path354"
       inkscape:connector-curvature="0"
       transform="matrix(0.26458333,0,0,0.26458333,0,-123)" />
    <path
       style="opacity:1;fill:#ffffff;fill-opacity:1;stroke-width:2.85714293"
       d="m 220,1064.9988 c 0,-49.1215 1.13077,-87.67313 2.59817,-88.58003 4.17588,-2.58083 108.8304,78.12423 108.8304,83.92533 0,5.8479 -100.65807,91.6289 -107.52019,91.6289 -3.22082,0 -3.90838,-15.3005 -3.90838,-86.9742 z"
       id="path356"
       inkscape:connector-curvature="0"
       transform="matrix(0.26458333,0,0,0.26458333,0,-123)" />
    <path
       style="opacity:1;fill:#ffffff;fill-opacity:1;stroke-width:2.85714293"
       d="M 372.85714,1089.3896 344.28571,1087.6873 355,1076.8778 c 13.01521,-13.1309 13.38284,-18.7254 1.90269,-28.9543 -4.84637,-4.3181 -7.95392,-8.7092 -6.90565,-9.758 1.04826,-1.0487 80.54919,-2.5496 176.66873,-3.3354 l 174.7628,-1.4285 0.75329,-91.6974 0.75325,-91.69737 -172.18183,-1.65871 c -94.70002,-0.91232 -175.14226,-2.77329 -178.76055,-4.13552 -6.54199,-2.46297 -6.52207,-2.52831 3.57143,-11.7132 11.9912,-10.91174 12.70663,-17.12861 3.01853,-26.2301 -3.92237,-3.68488 -6.38803,-7.44471 -5.47924,-8.35518 0.9088,-0.91047 78.73713,-2.29826 172.95185,-3.08397 148.10019,-1.2351 171.66619,-2.009 174.00693,-5.71429 1.54803,-2.45045 2.72614,-41.20952 2.75117,-90.5102 0.0369,-72.46894 -0.63277,-86.90102 -4.19697,-90.4652 -3.63306,-3.63308 -28.7762,-4.37874 -175.47774,-5.20408 -94.18037,-0.52986 -172.22423,-1.95126 -173.43079,-3.15868 -1.20656,-1.20742 2.80507,-7.31456 8.91474,-13.57143 l 11.10849,-11.37612 -10.83256,-11.09355 -10.83256,-11.09355 90.30837,-2.11649 c 49.6696,-1.16407 141.15072,-1.57998 203.29136,-0.92423 94.89215,1.00135 113.40443,1.85846 115.61489,5.35289 1.44751,2.28835 2.65451,26.66064 2.6822,54.16064 0.0286,27.5 0.89557,79.89286 1.92866,116.42857 l 1.87831,66.42857 h 47.8274 47.8274 l 1.91851,-36.42857 c 2.96043,-56.2128 -1.32334,-54.79882 48.65689,-16.06051 53.11854,41.17073 88.9586,71.36843 90.9918,76.66684 0.9935,2.58903 -10.01629,14.18285 -30.78306,32.41599 -40.67971,35.7166 -99.97271,83.40625 -103.69977,83.40625 -3.3214,0 -6.45991,-29.36705 -6.48866,-60.71428 L 860,849.11586 h -48.57143 -48.57143 l -0.20857,35 c -0.58211,97.69791 -4.58306,199.50594 -7.97366,202.89824 -2.71794,2.7194 -43.69725,3.5932 -178.38743,3.804 -96.17239,0.1506 -187.71605,-0.4923 -203.43034,-1.4285 z"
       id="path358"
       inkscape:connector-curvature="0"
       transform="matrix(0.26458333,0,0,0.26458333,0,-123)" />
    <path
       style="opacity:1;fill:#ffffff;fill-opacity:1;stroke-width:2.85714293"
       d="M 221.79066,667.09699 C 220.8058,666.11213 220,625.66348 220,577.2111 c 0,-65.01775 0.86979,-88.09524 3.3203,-88.09524 6.92135,0 108.10827,80.13459 108.10827,85.61592 0,5.71915 -106.53383,95.4693 -109.63791,92.36521 z"
       id="path360"
       inkscape:connector-curvature="0"
       transform="matrix(0.26458333,0,0,0.26458333,0,-123)" />
    <path
       style="opacity:1;fill:#ffffff;fill-opacity:1;stroke-width:2.85714293"
       d="m 221.80424,907.11057 c -2.78804,-2.78803 -2.13222,-171.74048 0.67337,-173.47443 4.58014,-2.83068 77.65231,52.94169 99.86347,76.22083 l 9.48393,9.93995 -22.34108,20.26119 c -23.33767,21.165 -73.27788,61.92262 -81.25112,66.31133 -2.54339,1.39995 -5.43624,1.73346 -6.42857,0.74113 z"
       id="path362"
       inkscape:connector-curvature="0"
       transform="matrix(0.26458333,0,0,0.26458333,0,-123)" />
    <g
       id="g398">
      <g
         id="g386">
        <g
           id="g376">
          <g
             id="g368">
            <path
               style="fill:#f38537;stroke-width:0.92011315"
               d="M 132.45805,243.50726 C 85.465362,238.88829 42.725882,209.6416 21.028012,167.25547 c -5.00153,-9.77031 -9.87671,-23.52554 -12.3185396,-34.75645 -1.39393,-6.41124 -1.67953,-11.9819 -1.65841,-32.34703 0.0228,-22.002372 0.24435,-25.582925 2.09647,-33.885488 11.1001096,-49.75865 46.6158496,-88.645566 95.1987576,-104.23509 26.38853,-8.467681 60.49627,-8.467681 86.8848,0 48.58292,15.589524 84.09867,54.47644 95.19877,104.23509 1.85213,8.302563 2.07366,11.883116 2.09648,33.885488 0.0233,22.47937 -0.16081,25.41803 -2.13395,34.06051 -4.08418,17.8888 -11.08587,33.99482 -21.42524,49.28453 -6.06755,8.97261 -19.93752,23.54236 -29.63669,31.13199 -20.54817,16.07899 -46.91635,26.40578 -73.99848,28.98066 -11.48647,1.09209 -16.9171,1.07283 -28.87393,-0.10242 z M 74.349812,170.50251 c 7.68602,-6.41082 13.95901,-12.15128 13.93997,-12.75657 -0.0413,-1.31389 -27.00697,-22.83951 -29.1428,-23.26356 -1.32862,-0.26379 -1.48387,2.17514 -1.48387,23.31112 0,12.98315 0.28745,23.88763 0.63878,24.23218 1.00701,0.98755 1.30644,0.77254 16.04792,-11.52317 z m 125.470138,-5.18079 c 1.17935,-0.73044 1.46515,-5.66829 1.85826,-32.10528 l 0.46457,-31.24208 h 12.54325 12.54325 l 0.26088,11.162 c 0.19297,8.25644 0.56676,11.16201 1.43594,11.16201 1.847,0 36.37203,-29.01903 36.61452,-30.775292 0.14672,-1.062632 -5.54898,-6.146501 -17.58399,-15.695099 -9.79054,-7.767844 -18.25037,-14.123353 -18.79961,-14.123353 -0.63403,0 -1.16822,4.158325 -1.46317,11.3898 l -0.46457,11.389801 h -12.54325 -12.54325 l -0.49479,-31.891442 c -0.27213,-17.540293 -0.58571,-31.99395 -0.69685,-32.119238 -0.11113,-0.125288 -24.6614,-0.227796 -54.55614,-0.227796 -37.81417,0 -54.354088,0.295174 -54.354088,0.97001 0,0.533506 1.28098,2.027068 2.84663,3.319027 l 2.84663,2.349017 -3.3112,3.325475 c -1.82115,1.829012 -3.31119,3.615712 -3.31119,3.970446 0,0.354733 20.662168,0.64497 45.915928,0.64497 25.25376,0 46.57729,0.248885 47.38561,0.553079 1.28858,0.484925 1.46969,3.504493 1.46969,24.504483 0,20.999986 -0.18111,24.019559 -1.46969,24.504482 -0.80832,0.304198 -21.9228,0.553079 -46.92105,0.553079 -27.31013,0 -45.451358,0.337293 -45.451358,0.845051 0,0.464776 1.04527,1.651375 2.32283,2.636893 3.06111,2.361361 2.93176,4.222637 -0.46457,6.685157 -6.05423,4.38963 -6.16339,4.37824 44.365938,4.63129 l 47.15333,0.23615 v 24.14637 24.14638 l -46.68876,0.23623 c -38.890758,0.19677 -46.688768,0.44559 -46.688768,1.48977 0,0.68946 1.04527,1.92522 2.32283,2.74613 3.10748,1.99678 2.9264,4.01284 -0.62132,6.9174 -1.75189,1.43429 -2.67032,2.84487 -2.26799,3.48329 0.85321,1.35385 106.167868,1.53055 108.345518,0.18179 z M 74.082892,106.42831 c 7.57732,-6.32048 13.90468,-12.023032 14.0608,-12.672342 0.35818,-1.489604 -28.28634,-24.439833 -29.54874,-23.674694 -0.58428,0.354132 -0.93184,9.380813 -0.93184,24.201796 0,19.82867 0.21291,23.63701 1.32143,23.63701 0.72678,0 7.52104,-5.1713 15.09835,-11.49177 z m -0.0722,-64.297047 c 7.91278,-6.603262 14.26588,-12.545372 14.11799,-13.20469 -0.37805,-1.685456 -28.66024,-24.0688075 -29.65217,-23.4675995 -0.93881,0.569009 -1.12683,47.1559595 -0.19401,48.0707605 0.34068,0.334104 0.78185,0.607459 0.98037,0.607459 0.19852,0 6.83504,-5.402665 14.74782,-12.00593 z"
               id="path341"
               inkscape:connector-curvature="0" />
            <path
               style="opacity:1;fill:#ffffff;fill-opacity:1;stroke-width:2.85714293"
               d="m 220,1064.9988 c 0,-49.1215 1.13077,-87.67313 2.59817,-88.58003 4.34866,-2.68762 108.8304,77.91653 108.8304,83.95903 0,6.2454 -100.36759,91.5952 -107.71192,91.5952 -2.96938,0 -3.71665,-17.4872 -3.71665,-86.9742 z"
               id="path364"
               inkscape:connector-curvature="0"
               transform="matrix(0.26458333,0,0,0.26458333,0,-123)" />
          </g>
          <path
             transform="matrix(0.26458333,0,0,0.26458333,0,-123)"
             inkscape:connector-curvature="0"
             id="path370"
             d="M 372.85714,1089.3896 344.28571,1087.6873 355,1076.8778 c 13.01521,-13.1309 13.38284,-18.7254 1.90269,-28.9543 -4.84637,-4.3181 -7.95392,-8.7092 -6.90565,-9.758 1.04826,-1.0487 80.54919,-2.5496 176.66873,-3.3354 l 174.7628,-1.4285 0.75329,-91.6974 0.75325,-91.69737 -172.18183,-1.65871 c -94.70002,-0.91232 -175.14226,-2.77329 -178.76055,-4.13552 -6.54199,-2.46297 -6.52207,-2.52831 3.57143,-11.7132 11.9912,-10.91174 12.70663,-17.12861 3.01853,-26.2301 -3.92237,-3.68488 -6.38803,-7.44471 -5.47924,-8.35518 0.9088,-0.91047 78.73713,-2.29826 172.95185,-3.08397 148.10019,-1.2351 171.66619,-2.009 174.00693,-5.71429 1.54803,-2.45045 2.72614,-41.20952 2.75117,-90.5102 0.0369,-72.46894 -0.63277,-86.90102 -4.19697,-90.4652 -3.63306,-3.63308 -28.7762,-4.37874 -175.47774,-5.20408 -94.18037,-0.52986 -172.22423,-1.95126 -173.43079,-3.15868 -1.20656,-1.20742 2.80507,-7.31456 8.91474,-13.57143 l 11.10849,-11.37612 -10.83256,-11.09355 -10.83256,-11.09355 90.30837,-2.11649 c 49.6696,-1.16407 141.15072,-1.57998 203.29136,-0.92423 94.89215,1.00135 113.40443,1.85846 115.61489,5.35289 1.44751,2.28835 2.65451,26.66064 2.6822,54.16064 0.0286,27.5 0.89557,79.89286 1.92866,116.42857 l 1.87831,66.42857 h 47.8274 47.8274 l 1.91851,-36.42857 c 2.96043,-56.2128 -1.32334,-54.79882 48.65689,-16.06051 53.11854,41.17073 88.9586,71.36843 90.9918,76.66684 0.9935,2.58903 -10.01629,14.18285 -30.78306,32.41599 -40.67971,35.7166 -99.97271,83.40625 -103.69977,83.40625 -3.3214,0 -6.45991,-29.36705 -6.48866,-60.71428 L 860,849.11586 h -48.57143 -48.57143 l -0.20857,35 c -0.58211,97.69791 -4.58306,199.50594 -7.97366,202.89824 -2.71794,2.7194 -43.69725,3.5932 -178.38743,3.804 -96.17239,0.1506 -187.71605,-0.4923 -203.43034,-1.4285 z"
             style="opacity:1;fill:#ffffff;fill-opacity:1;stroke-width:2.85714293" />
        </g>
        <path
           style="opacity:1;fill:#ffffff;fill-opacity:1;stroke-width:2.85714293"
           d="m 221.90476,907.2111 c -3.02152,-3.02153 -2.26434,-171.82148 0.77917,-173.70248 3.39694,-2.09942 63.82484,43.25771 89.84128,67.43479 l 19.66807,18.27753 -18.2395,16.9099 c -16.11391,14.93926 -87.14514,72.98502 -89.31257,72.98502 -0.45743,0 -1.68883,-0.85714 -2.73645,-1.90476 z"
           id="path378"
           inkscape:connector-curvature="0"
           transform="matrix(0.26458333,0,0,0.26458333,0,-123)" />
      </g>
      <path
         transform="matrix(0.26458333,0,0,0.26458333,0,-123)"
         inkscape:connector-curvature="0"
         id="path388"
         d="M 221.82947,667.13581 C 220.82326,666.1296 220,625.66348 220,577.2111 c 0,-65.01775 0.86979,-88.09524 3.3203,-88.09524 6.84647,0 108.10827,80.11528 108.10827,85.53201 0,5.45431 -106.64102,95.44601 -109.5991,92.48794 z"
         style="opacity:1;fill:#ffffff;fill-opacity:1;stroke-width:2.85714293" />
    </g>
  </g>
</svg>
