<?xml version="1.0" encoding="UTF-8" standalone="no"?>
<!-- Created with Inkscape (http://www.inkscape.org/) -->

<svg
   xmlns:dc="http://purl.org/dc/elements/1.1/"
   xmlns:cc="http://creativecommons.org/ns#"
   xmlns:rdf="http://www.w3.org/1999/02/22-rdf-syntax-ns#"
   xmlns:svg="http://www.w3.org/2000/svg"
   xmlns="http://www.w3.org/2000/svg"
   xmlns:sodipodi="http://sodipodi.sourceforge.net/DTD/sodipodi-0.dtd"
   xmlns:inkscape="http://www.inkscape.org/namespaces/inkscape"
   width="420mm"
   height="594mm"
   viewBox="0 0 420 594"
   version="1.1"
   id="svg44"
   inkscape:version="0.92.2 (5c3e80d, 2017-08-06)"
   sodipodi:docname="AWS_ElasticLoadBalancer.svg">
  <defs
     id="defs38" />
  <sodipodi:namedview
     id="base"
     pagecolor="#ffffff"
     bordercolor="#666666"
     borderopacity="1.0"
     inkscape:pageopacity="0.0"
     inkscape:pageshadow="2"
     inkscape:zoom="0.35"
     inkscape:cx="814.80315"
     inkscape:cy="1131.4286"
     inkscape:document-units="mm"
     inkscape:current-layer="layer1"
     showgrid="false"
     inkscape:window-width="1920"
     inkscape:window-height="1001"
     inkscape:window-x="-9"
     inkscape:window-y="-9"
     inkscape:window-maximized="1" />
  <metadata
     id="metadata41">
    <rdf:RDF>
      <cc:Work
         rdf:about="">
        <dc:format>image/svg+xml</dc:format>
        <dc:type
           rdf:resource="http://purl.org/dc/dcmitype/StillImage" />
        <dc:title></dc:title>
      </cc:Work>
    </rdf:RDF>
  </metadata>
  <g
     inkscape:label="Layer 1"
     inkscape:groupmode="layer"
     id="layer1"
     transform="translate(0,297)">
    <path
       style="fill:#f38537;stroke-width:1.23638463"
       d="M 192.45938,192.58191 C 163.19752,190.11149 130.80176,179.74568 106.97151,165.228 71.733295,143.76045 42.323915,108.95402 28.304285,72.124195 20.467395,51.536573 18.526225,40.01549 17.835995,9.9937446 c -0.88818,-38.6314056 2.36504,-58.2228856 14.31417,-86.2023856 20.18524,-47.264759 64.78768,-86.793799 116.344145,-103.110309 23.09439,-7.30888 31.36304,-8.44079 61.66046,-8.44079 21.50416,0 29.52572,0.46104 38.02737,2.18564 80.96694,16.42457 140.9216,76.93105 152.83926,154.245999 1.65597,10.743021 1.95775,19.330166 1.45213,41.3218456 -0.55601,24.1833884 -1.04977,29.3923554 -3.8318,40.4232044 -8.38557,33.249187 -24.39608,61.546391 -48.26517,85.304521 -22.74196,22.63623 -47.14057,37.63993 -77.62615,47.7354 -15.59916,5.16576 -28.53645,7.69002 -47.38469,9.24547 -16.03592,1.32337 -15.79421,1.32425 -32.90634,-0.12048 z M 333.74371,91.419516 V 61.87355 l -29.6296,-0.324089 c -20.7918,-0.22742 -30.14949,0.08647 -31.37258,1.052137 -1.22509,0.967311 -1.74297,4.378037 -1.74297,11.479187 0,5.55665 -0.50236,10.102991 -1.11635,10.102991 -0.61401,0 -5.79564,-7.597541 -11.51477,-16.883421 -5.71911,-9.285871 -10.91562,-16.883406 -11.54777,-16.883406 -0.63215,0 -2.43805,1.892667 -4.01309,4.205923 -1.57503,2.313257 -3.43761,4.212641 -4.13907,4.220853 -1.89328,0.02219 -89.61404,-53.6404434 -89.81672,-54.9447954 -0.26762,-1.722397 75.14327,-2.0978 77.3127,-0.384857 0.95557,0.754483 1.73739,3.476077 1.73739,6.047963 0,2.5718994 0.57753,4.6761754 1.28342,4.6761754 0.70588,0 9.82532,-4.070109 20.26542,-9.0446854 10.4401,-4.97457703 19.55954,-9.044685 20.26542,-9.044685 0.78414,0 1.28342,4.892632 1.28342,12.576417 0,9.8251694 0.43576,12.9909894 1.99191,14.4714964 1.69232,1.610062 6.22013,1.892304 30.10501,1.876615 15.46219,-0.0096 28.83666,-0.455406 29.72102,-0.989452 1.24157,-0.749732 1.5304,-7.546584 1.26758,-29.8289854 l -0.34037,-28.8580226 -30.33257,-0.32382 c -23.42097,-0.25004 -30.56512,0.0247 -31.35316,1.20596 -0.56134,0.84137 -1.02934,7.092261 -1.04001,13.890849 -0.0114,7.526287 -0.52139,12.3610686 -1.30283,12.3610686 -0.70588,0 -9.82532,-4.0701076 -20.26542,-9.0446836 -10.4401,-4.974577 -19.55954,-9.044685 -20.26542,-9.044685 -0.70589,0 -1.28342,1.855004 -1.28342,4.122218 0,8.440101 2.54429,7.937362 -40.16999,7.937362 -30.33053,0 -38.52214,-0.323909 -38.12372,-1.507448 0.2791,-0.829096 20.40432,-13.654991 44.72274,-28.502001 l 44.21528,-26.99454 4.2143,4.68432 c 5.06515,5.63009 3.93932,6.60854 17.15886,-14.91249 4.99097,-8.12514 9.52577,-14.77298 10.07734,-14.77298 0.55158,0 1.01161,4.47712 1.02228,9.94915 0.0101,5.47203 0.47867,10.63756 1.04001,11.47894 0.78804,1.18121 7.93219,1.456 31.35316,1.20596 l 30.33257,-0.32383 0.34037,-28.858009 c 0.26282,-22.28241 -0.026,-29.07927 -1.26758,-29.829 -0.88436,-0.53404 -14.25883,-0.97929 -29.72102,-0.98944 -23.88488,-0.0157 -28.41269,0.26655 -30.10501,1.87661 -1.58817,1.51097 -1.99191,4.81078 -1.99191,16.28043 0,7.91195 -0.42781,14.38893 -0.95068,14.39331 -5.1985,0.0435 -44.28352,5.160189 -45.05996,5.898889 -0.56329,0.5359 0.14962,2.86706 1.58424,5.18036 2.48064,3.99997 2.49945,4.29815 0.38409,6.08718 -3.42601,2.89749 -105.52579,64.830757 -106.87643,64.830757 -0.69261,0 -1.19074,-8.010215 -1.19074,-19.147667 0,-14.76021 -0.39872,-19.46249 -1.74009,-20.52161 -1.22854,-0.97002 -11.56952,-1.27933 -35.175325,-1.05213 l -33.43523,0.32181 V -5.6600964 47.402054 l 34.13676,0.321593 c 26.465285,0.249332 34.365805,-0.02171 35.155915,-1.205958 0.56053,-0.840155 1.02788,-10.132832 1.03856,-20.650414 0.0157,-15.499249 0.34184,-19.0051504 1.72099,-18.5016504 2.53141,0.924174 105.12139,63.5043504 107.15671,65.3659004 1.48056,1.35416 1.33518,2.15002 -0.95068,5.20415 -4.93256,6.590381 -6.27006,6.070901 24.5544,9.536921 l 19.01368,2.13799 0.35918,14.396404 c 0.20477,8.2071 0.96073,15.08599 1.75839,16.00038 1.10706,1.26909 7.64828,1.53655 31.33029,1.28104 l 29.93108,-0.32292 z"
       id="path74"
       inkscape:connector-curvature="0" />
    <path
       style="opacity:1;fill:#ffffff;fill-opacity:1;stroke-width:2.85714293"
       d="m 1048.5967,1578.4604 c -8.9136,-0.9563 -16.9635,-2.4957 -17.8886,-3.4209 -2.699,-2.699 -7.1796,-55.8304 -7.2598,-86.0886 -0.07,-26.4831 -0.3788,-27.8694 -6.5023,-29.2085 -3.5357,-0.7732 -36.64285,-4.7443 -73.57142,-8.8247 -77.76594,-8.5926 -94.28572,-11.6018 -94.28572,-17.1744 0,-2.181 4.17858,-9.9167 9.28572,-17.1904 l 9.28571,-13.225 -9.04785,-7.5728 c -9.98206,-8.3548 -71.75955,-46.6272 -256.66643,-159.0103 -150.42624,-91.4263 -146.83693,-89.3948 -149.71572,-84.7368 -1.23505,1.9983 -3.03731,34.7195 -4.00503,72.7137 -1.55276,60.9639 -2.34094,69.5055 -6.70831,72.699 -3.81723,2.7912 -33.89646,3.6187 -131.5456,3.6187 H 183.37458 v -200 -200.00003 l 123.57143,0.039 c 67.96428,0.0214 126.37534,0.79101 129.80235,1.71012 3.42702,0.91911 7.0755,3.79442 8.10774,6.38954 1.03224,2.59514 2.46001,31.0756 3.17282,63.28988 0.71282,32.21429 1.96348,64.02859 2.77924,70.69839 l 1.4832,12.1269 8.8951,-4.5998 c 20.23083,-10.4618 328.82472,-197.45963 380.04526,-230.29508 24.35314,-15.61182 26.40966,-20.00229 16.42857,-35.07324 -7.01857,-10.59767 -7.27763,-17.72668 -0.71428,-19.65653 7.0976,-2.08695 80.8448,-12.33595 126.28448,-17.55035 21.13501,-2.42534 38.92131,-4.9037 39.52511,-5.50747 0.6038,-0.60377 1.9736,-25.75062 3.044,-55.88189 1.7087,-48.09634 2.5743,-55.24337 7.0911,-58.54607 7.9976,-5.84802 58.5003,-8.09466 144.4103,-6.42417 61.5015,1.19587 78.7373,2.34979 80.6705,5.40079 1.3521,2.13399 2.4781,51.63237 2.5022,109.9964 l 0.044,106.11642 -55.3657,2.07595 c -63.4704,2.37985 -171.7778,0.92869 -175.0519,-2.34544 -1.2135,-1.21357 -3.0966,-19.59667 -4.1846,-40.85132 -1.088,-21.25465 -2.8628,-39.52138 -3.9441,-40.59271 -2.9513,-2.92427 -11.1728,8.5194 -46.38349,64.56249 -17.63997,28.07662 -34.63475,53.36702 -37.76615,56.20089 -5.56094,5.0326 -6.04848,4.77102 -20.95082,-11.24048 l -15.25743,-16.39298 -103.21066,63.04025 c -199.759,122.01124 -236.54031,145.79704 -232.189,150.15244 3.60674,3.6102 237.65323,6.3416 268.13,3.1292 23.3394,-2.4601 29.03103,-7.7428 29.03103,-26.9454 0,-7.7644 1.05774,-14.7708 2.35054,-15.5698 1.29277,-0.799 16.39992,5.0058 33.57143,12.8996 104.34125,47.9656 119.18775,54.249 121.86195,51.5749 1.5458,-1.5459 3.6734,-23.5723 4.7279,-48.9477 1.4967,-36.0157 2.8417,-46.72153 6.1313,-48.80179 2.4187,-1.52957 51.9897,-2.68351 116.3569,-2.70863 l 112.1428,-0.0437 V 1101.129 c 0,100.7999 -0.3617,108.8097 -5,110.7143 -2.75,1.1293 -52.8473,2.0532 -111.3275,2.0532 -97.5335,0 -106.7417,-0.4143 -111.3362,-5.0097 -4.1622,-4.163 -5.3565,-12.8004 -7.0664,-51.1081 -1.1317,-25.3542 -3.2839,-47.3248 -4.7827,-48.8236 -1.7286,-1.7286 -29.01485,9.3526 -74.62408,30.3056 -39.54448,18.1668 -74.07666,33.3918 -76.7382,33.8332 -3.50388,0.5812 -5.08406,-1.5626 -5.7266,-7.7688 -2.1214,-20.4902 -6.28706,-29.8946 -14.21497,-32.0916 -10.03463,-2.7808 -254.92411,-2.51 -272.75474,0.3017 -7.46429,1.177 -13.57143,3.2183 -13.57143,4.5361 0,1.3179 10.60714,9.1404 23.57143,17.3833 79.55865,50.5849 283.43468,174.4873 307.27591,186.742 9.34803,4.8051 9.4696,4.7813 16.19252,-3.1579 3.7256,-4.3996 10.10317,-11.8565 14.1724,-16.5708 l 7.3986,-8.5714 6.40885,7.749 c 3.52486,4.262 20.18869,29.3334 37.03069,55.7143 32.97992,51.6589 43.56242,66.1157 46.36592,63.3405 0.9821,-0.9722 2.7836,-18.6656 4.0032,-39.3186 1.2197,-20.653 3.5308,-38.8641 5.1358,-40.4691 4.5499,-4.5499 81.0876,-6.5881 158.8732,-4.2309 l 70.7143,2.1429 v 109.2207 109.2208 l -73.3206,1.8866 c -81.0034,2.0844 -114.2694,1.9182 -138.6001,-0.6923 z"
       id="path85"
       inkscape:connector-curvature="0"
       transform="matrix(0.26458333,0,0,0.26458333,0,-297)" />
    <path
       style="opacity:1;fill:#ffffff;fill-opacity:1;stroke-width:2.85714293"
       d="m 1046.4217,1578.4308 c -14.257,-1.5402 -15.7165,-2.3768 -17.8796,-10.2486 -1.2955,-4.7143 -3.1916,-30.7765 -4.2136,-57.9161 -1.7711,-47.0337 -2.138,-49.4022 -7.8346,-50.571 -3.287,-0.6744 -36.19075,-4.596 -73.11932,-8.7146 -77.92412,-8.6908 -94.28572,-11.682 -94.28572,-17.2372 0,-2.181 4.17858,-9.8977 9.28572,-17.1482 l 9.28571,-13.1829 -7.63771,-6.5749 c -13.51349,-11.6331 -399.70856,-247.2265 -405.26453,-247.2265 -4.05555,0 -5.26928,14.3929 -6.8649,81.4065 -1.31072,55.0485 -2.10512,63.2803 -6.41057,66.4285 -3.77263,2.7587 -34.32812,3.5936 -131.51123,3.5936 H 183.37458 v -200 -200.00003 l 123.57143,0.039 c 67.96428,0.0214 126.37534,0.79101 129.80235,1.71012 3.42702,0.91911 7.07074,3.79442 8.09718,6.38954 1.02643,2.59514 2.45515,30.43274 3.17493,61.86131 1.49788,65.40296 2.96926,81.42856 7.47629,81.42856 5.25763,0 341.84233,-203.04122 387.67039,-233.85815 21.67349,-14.57425 23.04317,-17.63312 14.719,-32.87121 -3.76169,-6.88613 -6.11234,-14.41505 -5.22366,-16.73094 1.62369,-4.23124 33.09232,-9.29836 130.71209,-21.04742 21.21432,-2.55325 38.87562,-4.92346 39.24752,-5.26714 0.3718,-0.34368 1.6982,-25.41834 2.9476,-55.72147 1.9798,-48.0205 2.928,-55.57665 7.3832,-58.83435 8.0753,-5.90478 53.8331,-7.99663 141.4154,-6.46492 64.942,1.13576 81.527,2.20618 83.5445,5.39207 1.3844,2.18624 2.5368,51.73097 2.5609,110.09941 l 0.044,106.12443 -46.4285,2.02863 c -55.4497,2.42279 -180.759,0.92312 -183.8785,-2.20061 -1.2133,-1.21487 -3.2449,-19.74787 -4.5149,-41.18445 -1.2699,-21.43658 -3.0424,-39.7091 -3.9389,-40.6056 -2.4552,-2.45525 -9.8433,7.95714 -43.36242,61.11254 -16.83554,26.69822 -34.06783,52.4121 -38.29394,57.14195 l -7.68386,8.59974 -15.38957,-16.66805 -15.38957,-16.66805 -118.41703,72.52857 C 593.37849,1043.6479 562.45172,1063.871 567.18289,1068.6404 c 1.30886,1.3194 63.666,2.399 138.57143,2.399 151.2258,0 153.39646,-0.2329 156.08166,-16.7463 0.80206,-4.9324 1.79777,-12.8252 2.21271,-17.5394 0.58409,-6.6359 1.97397,-8.3611 6.15497,-7.64 2.97026,0.5124 31.89883,13.1651 64.28572,28.1171 78.55712,36.2676 85.82072,39.1018 87.69472,34.2182 0.8158,-2.1257 2.4342,-24.0597 3.5964,-48.7422 1.6247,-34.5028 3.077,-45.48689 6.2822,-47.51432 2.3615,-1.49371 52.7907,-2.656 116.3119,-2.6808 l 112.1428,-0.0437 V 1101.129 c 0,100.7999 -0.3617,108.8097 -5,110.7143 -2.75,1.1293 -52.8473,2.0532 -111.3275,2.0532 -97.2398,0 -106.7524,-0.4251 -111.3,-4.9736 -4.095,-4.0957 -5.3812,-13.1552 -7.2875,-51.3292 -1.2732,-25.4956 -3.2596,-47.2776 -4.4142,-48.4043 -2.4094,-2.3512 -18.2036,4.2039 -92.46834,38.3772 -29.27437,13.4707 -55.58525,24.9057 -58.4686,25.4111 -4.3424,0.7611 -5.6376,-1.7511 -7.54394,-14.6322 -3.78777,-25.5938 -1.28088,-24.7431 -78.65686,-26.6918 -73.34451,-1.8472 -216.17031,1.0706 -219.58557,4.4858 -1.15597,1.156 0.37583,3.9441 3.40397,6.1958 18.94289,14.0858 300.4722,186.4486 326.63183,199.9762 l 8.55863,4.4259 13.55972,-15.7062 c 7.45782,-8.6383 14.63748,-15.7061 15.9548,-15.7061 1.31731,0 21.08005,28.4635 43.9172,63.2522 24.86956,37.8848 42.56226,62.2119 44.11576,60.6584 1.4265,-1.4265 3.6951,-18.9951 5.0413,-39.0412 1.3461,-20.0462 3.8802,-37.8803 5.6312,-39.6313 4.4087,-4.4087 96.3884,-6.5049 169.9524,-3.8733 l 59.2857,2.121 v 109.2313 109.2313 l -60.4607,1.883 c -67.5183,2.1027 -130.1949,1.8066 -153.635,-0.7257 z"
       id="path87"
       inkscape:connector-curvature="0"
       transform="matrix(0.26458333,0,0,0.26458333,0,-297)" />
    <path
       style="opacity:1;fill:#ffffff;fill-opacity:1;stroke-width:2.85714293"
       d="m 1043.5647,1578.4674 c -16.2519,-2.1987 -16.8899,-4.4165 -19.2703,-66.9826 -1.7231,-45.2866 -2.1835,-48.2664 -7.804,-50.5063 -3.2851,-1.3092 -36.18725,-5.7717 -73.11582,-9.9166 -81.20312,-9.1144 -94.31437,-11.6358 -94.20623,-18.1164 0.0437,-2.6198 3.90086,-9.8137 8.57143,-15.9865 4.67057,-6.1728 8.49194,-12.2408 8.49194,-13.4844 0,-1.2436 -9.32143,-8.5207 -20.71428,-16.1714 -42.07278,-28.2533 -386.49962,-237.6924 -390.88996,-237.6924 -3.32916,0 -5.11598,22.9563 -6.78211,87.1335 -1.28705,49.5756 -2.13107,57.6072 -6.38026,60.7143 -3.74996,2.742 -34.54995,3.5808 -131.49376,3.5808 H 183.37458 v -200 -200.00003 l 126.42857,0.0437 c 71.09666,0.0246 128.22985,1.18347 130.54433,2.6479 5.46143,3.45559 8.41147,31.5703 8.59467,81.90959 0.16008,43.98844 2.33778,66.82734 6.37201,66.82734 4.34462,0 283.33102,-167.9563 368.39496,-221.78232 18.25543,-11.55152 34.84557,-22.99556 36.86697,-25.43122 3.04683,-3.67121 2.55689,-6.81636 -2.86534,-18.39304 -3.59737,-7.68052 -5.84234,-15.78438 -4.98883,-18.00858 1.47909,-3.85444 50.06506,-11.60699 140.17483,-22.36677 15.45145,-1.84502 28.59235,-4.78959 29.20195,-6.54347 0.6096,-1.75389 2.1614,-26.79415 3.4484,-55.64502 2.0299,-45.50307 3.0202,-52.95341 7.4706,-56.20767 8.4403,-6.17168 43.4119,-7.85574 135.2076,-6.51094 71.4149,1.04623 87.4893,2.00904 89.6147,5.36768 1.4263,2.25392 2.6096,51.71822 2.6337,110.09351 l 0.044,106.00074 -26.1532,1.85641 c -33.5666,2.38262 -174.6699,2.4175 -191.9613,0.0475 -15.2783,-2.09413 -14.4119,0.34096 -18.1629,-51.04819 -1.3459,-18.43864 -3.4749,-31.12813 -5.1511,-30.70167 -1.5715,0.39979 -19.0542,25.88247 -38.85044,56.62816 -19.79628,30.7457 -38.8512,58.70432 -42.34425,62.13025 l -6.351,6.22898 -14.7986,-16.52063 -14.7986,-16.52062 -31.42857,19.13918 c -248.21826,151.15843 -306.6118,188.43313 -302.16335,192.88153 3.84623,3.8463 221.51415,6.4769 255.9754,3.0937 33.10249,-3.2499 36.8312,-5.8428 38.96815,-27.0983 1.26788,-12.6114 2.34468,-14.8309 6.8224,-14.0626 2.92428,0.5018 36.08391,14.9661 73.68805,32.1429 37.60415,17.1768 70.28761,31.2305 72.62991,31.2305 6.0618,0 6.468,-2.2611 9.1469,-50.9219 1.8176,-33.0161 3.4226,-44.41971 6.5285,-46.38482 2.297,-1.45334 53.7135,-2.62509 116.2612,-2.64949 l 112.1428,-0.0437 V 1101.129 c 0,100.7999 -0.3617,108.8097 -5,110.7143 -2.75,1.1293 -52.8473,2.0532 -111.3275,2.0532 -97.1097,0 -106.7572,-0.4298 -111.2842,-4.9577 -4.0351,-4.0359 -5.424,-13.333 -7.4697,-50 -1.3821,-24.7733 -3.6825,-46.2492 -5.112,-47.7243 -3.1161,-3.2154 -16.3534,2.0595 -89.80656,35.7865 -29.85715,13.7093 -56.7306,25.3692 -59.7188,25.9108 -4.53858,0.8226 -5.98455,-1.7314 -8.78252,-15.5121 -1.84217,-9.0732 -4.92463,-18.0732 -6.84988,-20 -3.94738,-3.9505 -233.45412,-6.8412 -271.435,-3.4188 -20.48986,1.8463 -20.92395,2.0435 -15.71429,7.1391 8.5376,8.3507 257.01634,161.6401 318.649,196.5783 l 16.14851,9.1543 14.65275,-16.4781 14.65271,-16.478 7.05406,8.5714 c 3.87971,4.7143 19.84308,28.5 35.47414,52.8572 28.68868,44.7042 44.13138,65.4782 46.72608,62.8571 0.7778,-0.7857 2.61,-17.8568 4.0716,-37.9357 1.5277,-20.9864 4.108,-37.9578 6.0693,-39.9191 4.336,-4.336 115.5548,-6.5411 182.0263,-3.609 l 46.976,2.0721 v 109.2472 109.2472 l -47.5991,1.8772 c -55.3164,2.1816 -150.9943,1.7891 -169.3536,-0.6947 z"
       id="path89"
       inkscape:connector-curvature="0"
       transform="matrix(0.26458333,0,0,0.26458333,0,-297)" />
    <path
       style="opacity:1;fill:#ffffff;fill-opacity:1;stroke-width:2.85714293"
       d="m 1042.1377,1578.4911 c -14.4839,-2.2395 -15.2978,-5.2245 -18.1583,-66.5946 -1.2232,-26.2429 -3.1107,-48.6011 -4.1945,-49.685 -1.0839,-1.0838 -33.18386,-5.575 -71.33332,-9.9805 -81.78852,-9.445 -99.36272,-12.7593 -99.36272,-18.7389 0,-2.3542 3.85715,-9.8865 8.57143,-16.7384 4.71429,-6.852 8.57143,-13.2289 8.57143,-14.1708 0,-2.446 -43.86926,-30.5073 -134.28571,-85.8969 -187.81843,-115.0585 -275.60274,-166.901 -278.20502,-164.2988 -1.48003,1.4801 -3.7114,33.8958 -4.95859,72.035 -1.99416,60.9815 -2.86737,69.7825 -7.24095,72.9806 -3.84903,2.8145 -33.59258,3.6366 -131.5701,3.6366 H 183.37458 v -200 -200.00003 h 126.93877 c 111.58937,0 127.48169,0.54291 131.42857,4.4898 2.46939,2.46937 4.5691,5.36223 4.66602,6.42857 0.0969,1.06632 1.16125,31.8674 2.36519,68.44683 1.20394,36.57943 3.45306,67.77213 4.99804,69.31713 3.12204,3.122 51.23664,-24.6263 208.96678,-120.51407 136.83034,-83.18227 193.41486,-118.62349 197.77077,-123.87206 3.13546,-3.77799 2.68152,-6.77526 -2.79797,-18.47421 -3.59737,-7.68052 -5.83426,-15.80546 -4.97086,-18.05542 1.73795,-4.52902 -0.61117,-4.11712 93.49183,-16.39319 36.92857,-4.81747 69.20968,-9.37576 71.73578,-10.12955 3.8883,-1.16026 4.9905,-9.72883 7.1846,-55.85373 2.2632,-47.57722 3.2511,-54.96539 7.7939,-58.28718 8.4364,-6.16883 42.0979,-7.83207 134.8013,-6.66063 73.1413,0.92425 87.7712,1.79069 90.0097,5.33067 1.5332,2.42468 2.6916,49.49317 2.7167,110.38897 l 0.044,106.16193 -26.4285,1.93489 c -33.7668,2.47213 -200.9773,0.72617 -203.8262,-2.12829 -1.183,-1.18539 -3.2982,-17.89967 -4.7003,-37.14286 -3.0356,-41.66306 -3.5916,-44.03636 -9.221,-39.36437 -2.2596,1.87531 -19.52988,27.47032 -38.37842,56.87779 -18.84857,29.40747 -37.06492,55.98222 -40.48077,59.05499 l -6.21066,5.58685 -14.76023,-16.46935 -14.76026,-16.46935 -115.6168,70.92635 C 597.14561,1042.107 569.25658,1060.0417 569.14986,1065.7071 c -0.0437,2.3159 28.98709,3.8444 101.84489,5.3622 112.22089,2.3378 178.32774,-0.4676 185.74271,-7.8826 2.37649,-2.3765 5.19106,-11.2247 6.2546,-19.6627 1.63552,-12.9759 2.76915,-15.1953 7.35112,-14.3923 2.97954,0.5222 34.96288,14.3667 71.07408,30.7655 36.11123,16.3989 68.62554,30.5613 72.25414,31.472 8.3797,2.1031 8.8276,0.1277 11.9491,-52.6941 1.7969,-30.4058 3.4728,-41.6025 6.5152,-43.5277 2.2686,-1.4356 54.127,-2.61149 116.2389,-2.63572 l 112.1428,-0.0437 V 1101.129 c 0,100.7999 -0.3617,108.8097 -5,110.7143 -2.75,1.1293 -52.8473,2.0532 -111.3275,2.0532 -96.7702,0 -106.7693,-0.4419 -111.2434,-4.9168 -4.7177,-4.7188 -8.7194,-38.3811 -9.435,-79.3689 -0.1234,-7.0714 -1.3628,-14.655 -2.7541,-16.8523 -3.108,-4.9088 -4.2783,-4.4659 -85.40071,32.3156 -32.53737,14.7527 -61.64265,27.2729 -64.67843,27.8227 -4.64911,0.8421 -6.05505,-1.6255 -8.91494,-15.6464 -1.86743,-9.1554 -4.90408,-18.1554 -6.74811,-20 -2.42555,-2.4263 -36.26049,-3.6321 -122.33906,-4.3597 -116.10331,-0.9815 -166.44443,0.6026 -166.44443,5.2377 0,3.8257 79.69123,54.1502 227.14286,143.4392 81.55211,49.3837 104.06443,62.3289 108.39303,62.3289 2.1626,0 9.35831,-6.4811 15.99048,-14.4025 6.63217,-7.9214 13.50189,-13.9416 15.26606,-13.3783 1.76417,0.5634 21.20757,27.9026 43.20757,60.754 22,32.8513 41.28568,59.7644 42.85718,59.8068 1.6035,0.043 4.2138,-15.9468 5.9493,-36.4436 1.7619,-20.8085 4.5872,-38.0158 6.5669,-39.9955 4.2464,-4.2464 132.8981,-6.6123 190.8325,-3.5093 l 38.0798,2.0395 v 109.2612 109.2613 l -43.3114,1.8746 c -51.1989,2.2161 -159.0633,1.801 -175.0683,-0.6736 z"
       id="path91"
       inkscape:connector-curvature="0"
       transform="matrix(0.26458333,0,0,0.26458333,0,-297)" />
    <path
       style="opacity:1;fill:#ffffff;fill-opacity:1;stroke-width:2.85714293"
       d="m 1041.0881,1578.9618 c -6.8253,-0.8419 -10.173,-3.119 -12.1221,-8.2455 -1.481,-3.8954 -3.825,-29.5749 -5.2089,-57.0656 -1.3839,-27.4907 -3.1715,-50.6384 -3.9724,-51.4393 -0.8009,-0.8009 -33.42792,-5.2415 -72.50455,-9.8681 -102.44014,-12.1286 -105.32591,-13.0875 -92.88209,-30.8629 13.53343,-19.3318 13.6992,-18.6956 -8.72185,-33.4667 -33.52855,-22.0887 -170.73232,-106.3455 -281.92969,-173.133 -89.02886,-53.4726 -111.37414,-65.7942 -111.89058,-61.6985 -0.0495,0.3929 -1.2794,32.1907 -2.73304,70.6619 -2.31169,61.1798 -3.2642,70.4018 -7.59888,73.5714 -3.8264,2.798 -33.80842,3.6239 -131.55267,3.6239 H 183.37458 v -200 -200.00003 l 126.42857,0.0437 c 69.66963,0.024 128.24756,1.19509 130.48031,2.60833 5.56204,3.52053 8.34596,26.20159 8.61714,70.20507 0.31017,50.33253 2.8724,75.71433 7.64318,75.71433 5.01816,0 34.98723,-17.4487 172.58574,-100.4835 142.28992,-85.86581 218.38326,-133.2292 227.47117,-141.58668 6.79677,-6.25047 6.83212,-6.53468 2.13252,-17.14286 -2.62835,-5.93284 -4.90929,-14.00129 -5.06875,-17.92986 -0.27057,-6.66938 1.03586,-7.36296 19.71012,-10.46335 11,-1.82627 47.64286,-6.81545 81.42857,-11.08705 33.78571,-4.2716 62.71425,-8.94765 64.28575,-10.39123 1.5714,-1.44357 4.1934,-26.48788 5.8266,-55.65402 2.5606,-45.72611 3.6806,-53.54928 8.1326,-56.80464 8.5629,-6.26135 36.8083,-7.68166 131.5727,-6.6161 76.4747,0.8599 90.8087,1.67623 93.1004,5.30211 1.5793,2.49874 2.727,48.56044 2.7525,110.47051 l 0.044,106.1848 -20.7143,1.89829 c -26.866,2.46205 -206.7416,0.66644 -209.494,-2.09128 -1.1578,-1.16 -3.5337,-18.75195 -5.2797,-39.09322 -1.7461,-20.34127 -4.0595,-37.86904 -5.1411,-38.95059 -1.0815,-1.08155 -19.159,24.22469 -40.17218,56.23609 -21.01314,32.01139 -40.53606,60.11512 -43.38423,62.45271 -4.75968,3.90645 -6.36997,2.93911 -19.91068,-11.9608 l -14.73217,-16.21098 -109.87152,67.20869 c -118.75406,72.64218 -191.02034,118.03756 -211.16451,132.64686 -12.61877,9.1515 -12.66495,9.2472 -5.71429,11.8446 11.53877,4.3119 256.07857,4.1662 270.72586,-0.1611 13.54337,-4.0014 14.33228,-5.1506 17.2906,-25.1885 1.67531,-11.3473 3.00126,-13.6898 7.32028,-12.9321 2.90092,0.5089 36.53446,14.9732 74.7412,32.1429 38.20675,17.1695 70.73784,31.2174 72.29124,31.2174 4.429,0 5.582,-7.2744 7.6991,-48.5714 1.0876,-21.2143 3.0619,-41.4643 4.3875,-45.00003 l 2.4101,-6.42857 h 114.3564 114.3564 v 108.6611 c 0,100.7999 -0.3617,108.8097 -5,110.7143 -2.75,1.1293 -52.8473,2.0532 -111.3275,2.0532 -97.048,0 -106.7594,-0.432 -111.2767,-4.9502 -3.9444,-3.9452 -5.6617,-14.3874 -8.4579,-51.4286 -1.9297,-25.5631 -3.6051,-46.8864 -3.7232,-47.3852 -0.5043,-2.13 -16.7981,4.5564 -78.78609,32.3313 -36.14286,16.1945 -68.17109,29.8919 -71.17383,30.4387 -4.57329,0.8326 -6.10366,-1.864 -9.42737,-16.6118 -2.49512,-11.0711 -5.77109,-18.3886 -8.82617,-19.7149 -6.80835,-2.9556 -219.88435,-5.2268 -256.46186,-2.7337 -18.61843,1.269 -29.7358,3.1793 -29.12726,5.005 1.76983,5.3095 292.06866,184.6284 324.0424,200.1624 l 12.93412,6.2839 13.54634,-15.4455 c 8.46494,-9.6517 14.82928,-14.6526 16.96654,-13.3317 1.88112,1.1626 15.80757,20.9773 30.94769,44.0328 36.44079,55.4922 52.65589,78.2234 54.49109,76.3882 0.8294,-0.8294 3.0864,-17.7007 5.0156,-37.4918 1.9292,-19.7911 5.0158,-37.4931 6.8591,-39.3378 4.0243,-4.0273 146.6609,-6.4633 196.6422,-3.3584 l 32.1428,1.9967 v 109.2791 109.2791 l -34.7343,1.8676 c -36.3062,1.9522 -168.3832,1.8021 -184.695,-0.21 z"
       id="path93"
       inkscape:connector-curvature="0"
       transform="matrix(0.26458333,0,0,0.26458333,0,-297)" />
    <path
       style="opacity:1;fill:#ffffff;fill-opacity:1;stroke-width:2.85714293"
       d="m 1041.0881,1578.9618 c -6.7166,-0.8284 -10.1768,-3.1291 -12.0276,-7.9971 -1.4291,-3.7586 -3.8868,-29.5519 -5.4618,-57.3183 -1.5749,-27.7665 -3.2842,-50.9052 -3.7986,-51.4195 -0.5143,-0.5144 -36.88469,-5.4081 -80.82315,-10.8749 -43.93846,-5.4669 -82.13809,-10.8041 -84.88809,-11.8605 -6.90154,-2.6511 -6.27008,-8.084 2.47569,-21.2998 4.11166,-6.213 6.76251,-13.1551 5.89083,-15.4266 -0.87169,-2.2716 -9.0572,-9.2012 -18.19,-15.3992 -33.90406,-23.0088 -332.60672,-204.9308 -374.3044,-227.9665 -8.16322,-4.5097 -15.56764,-7.474 -16.4543,-6.5874 -0.88665,0.8867 -2.85288,32.9863 -4.36938,71.3324 -2.39608,60.5869 -3.39998,70.1903 -7.66323,73.3077 -3.76158,2.7505 -34.436,3.5873 -131.50272,3.5873 H 183.37458 v -200 -200.00003 h 126.93877 c 111.58937,0 127.48169,0.54291 131.42857,4.4898 2.46939,2.46937 4.56813,4.71937 4.66386,5 0.0957,0.28057 1.2731,30.55186 2.61637,67.26943 1.34327,36.7176 3.6834,68.0003 5.20029,69.5172 3.53072,3.5307 12.57748,-1.1235 79.72825,-41.017 162.71506,-96.66732 325.20017,-197.57712 327.40952,-203.33454 0.79043,-2.05985 -1.15435,-9.73192 -4.32172,-17.04903 -9.79028,-22.61696 -16.42414,-20.23913 98.4134,-35.27515 32.57109,-4.26463 60.70981,-8.67454 62.53051,-9.79981 2.1115,-1.30495 4.5154,-21.42178 6.6375,-55.54426 3.8291,-61.57057 2.9796,-59.86725 31.3747,-62.90811 23.9957,-2.56973 196.4571,-0.51727 200.9514,2.39152 2.7535,1.78214 3.5714,27.0841 3.5714,110.48687 v 108.1754 l -17.8571,1.85699 c -23.451,2.43869 -209.6371,0.6362 -212.3239,-2.05554 -1.143,-1.14508 -3.6329,-18.85106 -5.5333,-39.34663 -1.9003,-20.49557 -4.1839,-37.9935 -5.0747,-38.88429 -1.398,-1.39796 -12.6516,15.06882 -66.76314,97.69068 -5.23051,7.98637 -12.23425,16.98608 -15.56385,19.99934 -6.03866,5.46491 -6.09149,5.43826 -21.02963,-10.61052 l -14.9758,-16.08919 -88.2964,54.0475 c -129.22337,79.09948 -214.92034,132.68877 -231.15357,144.54847 -13.88237,10.1421 -14.08403,10.4933 -7.14286,12.4397 10.55057,2.9586 256.72597,2.8646 269.51206,-0.1028 6.01737,-1.3966 11.71877,-3.3173 12.66983,-4.2684 0.95105,-0.951 3.22574,-9.0991 5.05485,-18.1069 2.72906,-13.4397 4.26683,-16.2055 8.57197,-15.4172 2.88549,0.5284 37.14472,15.2141 76.13163,32.6348 38.98692,17.4208 71.77071,30.7888 72.85281,29.7066 1.0822,-1.0822 3.4062,-22.2288 5.1646,-46.9927 1.7584,-24.7638 4.1702,-46.59974 5.3597,-48.52434 1.6479,-2.66649 29.323,-3.49932 116.2797,-3.49932 h 114.1171 V 1101.129 c 0,100.7999 -0.3617,108.8097 -5,110.7143 -2.75,1.1293 -52.8473,2.0532 -111.3275,2.0532 -96.5241,0 -106.778,-0.4506 -111.2142,-4.8876 -3.7503,-3.7511 -5.464,-13.0527 -7.3694,-40 -4.1227,-58.3042 -4.4616,-59.9747 -11.7121,-57.7274 -3.4287,1.0626 -35.81156,15.1356 -71.96205,31.2732 -36.15049,16.1376 -68.23457,29.7912 -71.29797,30.3414 -4.63857,0.8332 -6.15194,-1.573 -9.05163,-14.3916 -5.9984,-26.5171 5.56303,-24.608 -149.02409,-24.608 -74.97971,0 -138.81074,1.0137 -141.84674,2.2528 -4.72346,1.9276 -2.8682,4.0288 12.85714,14.5615 53.2976,35.6983 292.03718,181.4911 312.17183,190.6363 7.82372,3.5535 8.5102,3.1826 21.60909,-11.6745 8.71183,-9.8812 14.78268,-14.5695 17.05077,-13.1678 1.93717,1.1973 20.4988,27.4351 41.24806,58.3063 20.74928,30.8712 38.62029,57.4002 39.71349,58.9532 3.9905,5.6698 5.9633,-1.7788 9.452,-35.6882 1.9583,-19.0346 5.07,-36.119 6.9148,-37.9654 3.9492,-3.9525 159.7011,-6.5416 202.36,-3.3639 l 26.4285,1.9687 v 109.2992 109.2992 l -30.4444,1.8627 c -31.8944,1.9515 -172.7198,1.7914 -188.9849,-0.2149 z"
       id="path95"
       inkscape:connector-curvature="0"
       transform="matrix(0.26458333,0,0,0.26458333,0,-297)" />
    <g
       id="g100">
      <path
         transform="matrix(0.26458333,0,0,0.26458333,0,-297)"
         inkscape:connector-curvature="0"
         id="path97"
         d="m 1039.6548,1578.9786 c -5.076,-0.7638 -8.9269,-3.6282 -10.5235,-7.8277 -1.385,-3.6427 -3.9102,-28.8999 -5.6115,-56.1271 -1.7013,-27.2271 -4.0371,-50.4383 -5.1907,-51.5804 -1.1536,-1.1421 -37.53966,-6.5999 -80.85801,-12.1285 -43.31834,-5.5285 -80.92548,-10.8826 -83.57143,-11.898 -6.79228,-2.6064 -5.9826,-9.6123 2.5646,-22.1906 4.05646,-5.9696 6.70732,-12.5948 5.8908,-14.7226 -2.06685,-5.3862 -22.297,-18.669 -117.55191,-77.183 -186.97843,-114.8587 -288.81237,-174.9928 -291.60767,-172.1975 -0.5717,0.5717 -2.31621,32.4557 -3.87667,70.8534 -2.4755,60.9134 -3.46913,70.2759 -7.79395,73.4383 -3.8275,2.7988 -33.79795,3.6245 -131.55351,3.6245 H 183.37458 v -200 -200.00003 h 126.59677 c 100.34696,0 127.66621,0.78199 131.75441,3.77134 4.59444,3.35955 5.42417,11.21166 7.59868,71.90975 1.34257,37.47614 3.67343,69.37074 5.17968,70.87704 3.47099,3.471 15.83783,-3.4424 144.58474,-80.82673 185.43846,-111.45922 257.57875,-156.96285 260.36786,-164.23118 0.909,-2.36882 -0.66386,-10.74918 -3.49526,-18.62303 -3.24331,-9.01938 -4.14565,-15.31585 -2.43885,-17.01829 2.51268,-2.50629 18.74183,-5.07103 125.00043,-19.75428 21.68886,-2.99705 40.06326,-6.07828 40.83216,-6.84718 0.7689,-0.76889 3.0366,-25.51035 5.0393,-54.981 4.1317,-60.80111 3.6811,-59.81059 28.6247,-62.92709 20.413,-2.55044 199.5369,-0.45051 203.9268,2.3907 2.7536,1.78215 3.5714,27.08847 3.5714,110.5087 v 108.19721 l -15,1.82509 c -20.944,2.54831 -212.5937,0.52437 -215.3882,-2.27464 -1.2571,-1.25911 -3.7335,-18.30865 -5.5032,-37.88785 -2.9167,-32.26998 -4.887,-41.58311 -8.0722,-38.15618 -0.6086,0.65476 -17.22791,25.65525 -36.93179,55.55665 -19.70392,29.90139 -38.53306,56.81664 -41.84252,59.81167 -5.9842,5.41563 -6.09951,5.36424 -21.0152,-9.36617 -8.24888,-8.14642 -15.79963,-14.81167 -16.77945,-14.81167 -2.46218,0 -215.41323,130.67677 -276.42412,169.62687 -27.3976,17.4909 -50.26748,33.2328 -50.82194,34.9818 -1.8232,5.7515 19.20526,6.7581 139.20723,6.664 107.39771,-0.084 139.79563,-1.5445 144.77668,-6.5255 0.93115,-0.9312 3.21017,-9.1302 5.06449,-18.2201 2.74388,-13.4505 4.33391,-16.3559 8.5416,-15.6076 2.84354,0.5056 37.23288,15.1077 76.42071,32.4491 39.18783,17.3413 71.99651,30.7838 72.90811,29.8722 0.9117,-0.9117 2.9334,-20.6567 4.4927,-43.8777 1.5592,-23.2211 3.9194,-45.1131 5.2446,-48.64879 l 2.4097,-6.42857 h 114.3564 114.3564 v 108.40276 c 0,83.5848 -0.8176,108.9321 -3.5714,110.7143 -4.8918,3.1661 -202.2521,4.6114 -214.0787,1.5678 -5.7591,-1.4821 -10.7868,-5.1876 -12.7828,-9.4211 -1.8096,-3.8379 -4.5374,-25.3916 -6.0619,-47.8971 -1.5245,-22.5054 -3.9405,-42.0877 -5.3691,-43.5163 -1.5582,-1.5582 -32.06878,10.5458 -76.26909,30.2571 -40.51955,18.0699 -74.79866,32.1579 -76.1758,31.3068 -1.37712,-0.8511 -3.39275,-7.4749 -4.47917,-14.7196 -3.48972,-23.2712 -2.18612,-22.8866 -85.87983,-25.3363 -72.07555,-2.1096 -203.31409,-0.061 -206.56355,3.2243 -0.89417,0.9041 1.85252,4.4215 6.10378,7.8163 20.57054,16.4267 319.8114,199.0286 326.16365,199.0306 1.78732,6e-4 9.1166,-6.6523 16.28732,-14.7842 8.38037,-9.5037 14.2958,-14.0077 16.55974,-12.6085 1.93717,1.1973 20.4988,27.4351 41.24806,58.3063 20.74928,30.8712 38.62029,57.4002 39.71349,58.9532 3.7983,5.3966 5.3964,-0.7599 9.1984,-35.4347 2.103,-19.1791 5.3307,-36.3797 7.1729,-38.2235 3.8625,-3.8661 173.3,-6.608 208.0697,-3.3671 l 20.7143,1.9308 v 109.3284 109.3283 l -26.1532,1.8565 c -27.8681,1.9781 -181.2748,1.8171 -194.7094,-0.2043 z"
         style="opacity:1;fill:#ffffff;fill-opacity:1;stroke-width:2.85714293" />
    </g>
  </g>
</svg>
