<?xml version="1.0" encoding="UTF-8" standalone="no"?>
<!-- Created with Inkscape (http://www.inkscape.org/) -->

<svg
   xmlns:dc="http://purl.org/dc/elements/1.1/"
   xmlns:cc="http://creativecommons.org/ns#"
   xmlns:rdf="http://www.w3.org/1999/02/22-rdf-syntax-ns#"
   xmlns:svg="http://www.w3.org/2000/svg"
   xmlns="http://www.w3.org/2000/svg"
   xmlns:sodipodi="http://sodipodi.sourceforge.net/DTD/sodipodi-0.dtd"
   xmlns:inkscape="http://www.inkscape.org/namespaces/inkscape"
   width="297mm"
   height="420mm"
   viewBox="0 0 297 420"
   version="1.1"
   id="svg8"
   inkscape:version="0.92.2 (5c3e80d, 2017-08-06)"
   sodipodi:docname="AWS_DynamoDB.svg">
  <defs
     id="defs2" />
  <sodipodi:namedview
     id="base"
     pagecolor="#ffffff"
     bordercolor="#666666"
     borderopacity="1.0"
     inkscape:pageopacity="0.0"
     inkscape:pageshadow="2"
     inkscape:zoom="0.35"
     inkscape:cx="400"
     inkscape:cy="788.57143"
     inkscape:document-units="mm"
     inkscape:current-layer="layer1"
     showgrid="false"
     inkscape:window-width="1920"
     inkscape:window-height="1001"
     inkscape:window-x="-9"
     inkscape:window-y="-9"
     inkscape:window-maximized="1" />
  <metadata
     id="metadata5">
    <rdf:RDF>
      <cc:Work
         rdf:about="">
        <dc:format>image/svg+xml</dc:format>
        <dc:type
           rdf:resource="http://purl.org/dc/dcmitype/StillImage" />
        <dc:title></dc:title>
      </cc:Work>
    </rdf:RDF>
  </metadata>
  <g
     inkscape:label="Layer 1"
     inkscape:groupmode="layer"
     id="layer1"
     transform="translate(0,123)">
    <g
       id="g21"
       transform="translate(2.2678619,-24.190476)">
      <path
         style="fill:#5092cc;stroke-width:0.82233936"
         d="M 66.388747,215.78937 33.863327,202.34989 19.517429,187.51231 C 11.627185,179.35165 4.479262,171.79533 3.6331557,170.72049 2.2972715,169.02347 2.127172,166.9119 2.3408657,154.6784 l 0.2460851,-14.08783 4.0625374,-0.81179 c 3.8033138,-0.75999 4.0799648,-0.98474 4.3356518,-3.52224 0.25143,-2.49525 -0.08904,-2.92632 -4.2882345,-5.42944 l -4.5613478,-2.719 V 113.87469 99.641283 h 3.0859148 c 5.5509985,0 5.9419465,-0.394276 5.9419465,-5.992489 0,-5.598213 -0.390948,-5.992489 -5.9419465,-5.992489 H 2.1355577 V 73.224878 58.793444 L 6.6999019,56.314171 C 10.962893,53.998584 11.246016,53.653192 10.988136,51.082743 10.728643,48.496228 10.46753,48.281742 6.6494882,47.518808 L 2.5869508,46.70702 2.3412532,32.706615 C 2.1714505,23.030873 2.4242396,18.196635 3.1596173,17.056542 4.5130332,14.958276 31.992604,-13.423567 34.278945,-15.084566 c 0.9411,-0.683698 15.929973,-7.002255 33.308605,-14.041237 l 31.597514,-12.79815 45.346996,-0.0037 45.347,-0.0037 32.74399,13.354531 32.74401,13.354531 18.30063,16.6754989 18.30062,16.6754991 -0.2449,14.351842 -0.24491,14.351842 -5.60502,0.623077 c -4.23111,0.470343 -5.73376,0.959652 -6.13026,1.99621 -1.14964,3.005406 0.43548,4.848448 6.3631,7.398455 l 5.82358,2.505242 v 14.150424 14.150424 h -5.23616 c -2.87989,0 -5.72367,0.404493 -6.3195,0.898873 -1.40658,1.167068 -1.40658,9.020164 0,10.187232 0.59583,0.49438 3.43961,0.898873 6.3195,0.898873 h 5.23616 v 14.248659 14.24866 l -4.22433,2.22282 c -2.32338,1.22254 -4.92364,2.40697 -5.77836,2.63206 -1.72101,0.45321 -2.92336,3.35769 -2.11422,5.10723 0.3359,0.72628 2.49686,1.34513 6.093,1.74492 l 5.57251,0.61948 0.24481,14.32925 0.24481,14.32924 -17.84914,16.27544 -17.84913,16.27545 -33.17264,13.77719 -33.17264,13.77718 h -45.5052 -45.505205 z"
         id="path29"
         inkscape:connector-curvature="0" />
      <path
         style="fill:#2d71b6;stroke-width:0.82233936"
         d="M 67.004126,215.07432 33.920401,201.13907 18.403445,185.09236 2.8864875,169.04567 2.3729847,154.94265 1.859482,140.83965 h 3.3571397 c 5.3947653,0 6.8495833,-1.03774 6.8495833,-4.88586 0,-3.07347 -0.281801,-3.48263 -3.5932045,-5.21708 -1.9762624,-1.03512 -4.0075312,-1.88204 -4.5139305,-1.88204 -0.5940743,0 -0.9207262,-5.14526 -0.9207262,-14.50282 V 99.849028 l 2.2402853,0.355342 c 1.232157,0.19543 3.2634257,0.14227 4.5139305,-0.11815 2.1915104,-0.456375 2.2736454,-0.688921 2.2736454,-6.437426 0,-5.748505 -0.08214,-5.981051 -2.2736454,-6.437424 C 8.5420548,86.950952 6.5107861,86.897791 5.2786291,87.093221 L 3.0383438,87.44856 3.0513509,73.133006 3.0643579,58.817451 7.5652814,56.75775 c 4.3567236,-1.993708 4.5009236,-2.166854 4.5009236,-5.404333 0,-3.750325 -1.464372,-4.895474 -6.2601524,-4.895474 H 3.0383438 V 32.199894 17.941846 L 18.611404,1.8071254 34.184464,-14.327595 65.115774,-26.961369 c 17.012221,-6.948576 31.564808,-13.159403 32.339091,-13.801838 1.237955,-1.027161 6.899585,-1.168064 46.933995,-1.168064 h 45.52621 v 24.318132 c 0,22.5789091 0.1153,24.3693315 1.61214,25.0340094 2.48154,1.1019371 60.30399,16.5652386 61.94295,16.5652386 1.28534,0 1.44551,-1.992088 1.44551,-17.9774675 0,-10.9291465 0.33824,-17.9774675 0.86273,-17.9774675 0.4745,0 8.264,6.725197 17.31001,14.9448823 9.04601,8.2196857 16.78285,14.7728027 17.19299,14.5624847 0.41015,-0.210318 0.74571,6.138776 0.74571,14.109099 v 14.491495 l -2.03127,0.114801 c -7.25707,0.410133 -9.70796,1.076753 -10.22338,2.78068 -1.2591,4.162405 -0.17724,5.869935 5.34906,8.442585 2.90511,1.352408 5.64732,2.271603 6.09381,2.042645 0.47073,-0.241385 0.78184,5.660303 0.74051,14.047353 -0.0392,7.954999 -0.24205,14.126559 -0.45077,13.714575 -0.47475,-0.937083 -9.45742,-0.492987 -10.98848,0.543257 -0.70057,0.474156 -1.12848,2.682493 -1.12848,5.823763 0,3.14127 0.42791,5.349607 1.12848,5.823763 1.53106,1.036243 10.51373,1.480343 10.98848,0.543253 0.20872,-0.41198 0.41157,5.89765 0.45077,14.02139 0.0556,11.52405 -0.17676,14.69305 -1.05721,14.41828 -0.62067,-0.19369 -3.36288,0.76298 -6.09381,2.12595 -5.10793,2.54931 -6.11917,4.08869 -5.0367,7.66722 0.52026,1.7199 2.94913,2.38366 10.22772,2.795 l 2.03127,0.1148 v 14.4915 c 0,7.97032 -0.34401,14.31508 -0.76449,14.09947 -0.42047,-0.21562 -8.16429,6.3375 -17.2085,14.56248 -9.0442,8.22499 -16.82526,14.95451 -17.29123,14.95451 -0.50472,0 -0.84722,-7.41907 -0.84722,-18.35199 0,-14.98742 -0.22544,-18.352 -1.22964,-18.352 -2.69287,0 -62.33074,15.75612 -63.01272,16.64775 -0.40182,0.52535 -0.73682,11.99447 -0.74442,25.48694 l -0.0138,24.53175 -44.91361,-0.10965 -44.91361,-0.10964 z m 157.668204,-66.97151 29.79194,-5.39469 0.24069,-19.66077 0.24069,-19.66076 -2.94905,0.0279 c -7.24785,0.0686 -60.14144,3.55997 -61.05856,4.03027 -1.12252,0.57563 -1.52984,44.70959 -0.42111,45.62952 1.0944,0.90805 4.10945,0.46919 34.1554,-4.9715 z m 30.03265,-83.490517 0.24071,-19.673237 -2.04628,-0.719765 c -3.77243,-1.326932 -60.5777,-12.057729 -61.7886,-11.672182 -1.69991,0.541238 -1.76521,48.725113 -0.0673,49.629087 0.93638,0.498515 55.83397,2.450149 61.61515,2.190442 1.75079,-0.07864 1.81288,-0.678027 2.04628,-19.754345 z"
         id="path27"
         inkscape:connector-curvature="0" />
      <path
         style="fill:#1e5996;stroke-width:0.82233936"
         d="M 65.756817,213.91739 34.13414,200.98477 19.822484,186.0807 C 11.951073,177.88345 4.9545195,170.80238 4.2745861,170.34498 3.3069689,169.69405 3.0383438,166.43269 3.0383438,155.33582 v -14.17751 l 2.9340549,-0.17729 c 1.6137301,-0.0975 3.6167645,-0.35301 4.4511873,-0.56781 1.744788,-0.44913 2.952912,-4.06976 2.101065,-6.29667 -0.643571,-1.68245 -8.0290427,-6.22131 -8.9200844,-5.48199 -0.3114225,0.25839 -0.5662228,-6.08403 -0.5662228,-14.09426 V 99.976226 l 3.768633,0.298204 c 4.8581192,0.3844 6.1620142,-1.017595 6.1620142,-6.625636 0,-5.608041 -1.303895,-7.010036 -6.1620142,-6.625633 l -3.768633,0.298201 0.02329,-14.251951 0.02329,-14.25196 3.6284748,-1.388647 C 11.487913,55.601552 13.342979,53.21577 12.587455,49.874238 11.976317,47.171304 10.945775,46.617066 5.9723987,46.316565 L 3.0383438,46.139277 V 31.754342 c 0,-7.911717 0.3273864,-14.497299 0.7275252,-14.634627 0.4001389,-0.137328 7.35181,-7.111726 15.448158,-15.4986616 L 33.93466,-13.627921 65.655165,-26.656004 c 17.446277,-7.165447 32.229183,-13.028084 32.850896,-13.028084 0.881417,0 1.130396,5.197183 1.130396,23.595426 V 7.5067638 h 44.121673 44.12167 l 9.8198,2.6701442 c 5.40088,1.46858 21.07415,5.669813 34.82946,9.336072 l 25.00967,6.665926 15.61571,9.041329 c 8.58864,4.972725 15.61571,9.451242 15.61571,9.952251 0,0.544126 -1.62874,1.007068 -4.04483,1.149689 -5.19619,0.306733 -6.33721,1.15691 -6.33721,4.721849 0,1.597493 -0.39625,2.90453 -0.88056,2.90453 -1.06461,0 -17.54704,-7.184575 -20.95593,-9.134538 -1.41358,-0.808604 -15.15102,-3.885021 -32.90711,-7.369346 l -30.48053,-5.981274 -46.53807,0.193928 -46.53806,0.193927 -0.238074,25.042993 c -0.185721,19.536488 0.01282,25.175121 0.902784,25.643876 0.62748,0.330486 19.42228,0.610552 41.76624,0.622372 22.34395,0.01184 50.78172,0.349288 63.19502,0.749938 12.41331,0.400643 32.64863,0.890244 44.96738,1.087996 12.31875,0.197752 23.69385,0.561302 25.27801,0.807885 l 2.88029,0.448336 v 7.408177 c 0,6.832886 -0.14307,7.437966 -1.84244,7.791856 -1.01334,0.21102 -10.56031,0.73467 -21.21548,1.16365 -10.65517,0.42898 -29.93563,1.51876 -42.84547,2.42173 -19.1434,1.33898 -31.75823,1.68579 -68.39888,1.88048 l -44.926448,0.23871 0.238534,23.39448 0.238534,23.39449 46.00802,0.37453 46.00803,0.37453 30.1545,-5.39918 30.1545,-5.39917 11.65699,-4.90042 c 6.41134,-2.69522 12.25577,-4.90041 12.98761,-4.90041 0.90965,0 1.33061,0.8004 1.33061,2.52999 0,3.18444 1.25809,4.0475 6.33721,4.34732 2.40006,0.14167 4.04483,0.6067 4.04483,1.14358 0,0.85542 -31.45106,18.94531 -32.93829,18.94531 -0.38501,0 -15.74614,3.87317 -34.13583,8.60704 l -33.43581,8.60704 -44.08618,0.19443 -44.08619,0.19442 -0.2382,24.15722 c -0.183591,18.61884 -0.494059,24.14213 -1.354179,24.09139 -0.613786,-0.0362 -15.346183,-5.88551 -32.738654,-12.99845 z"
         id="path25"
         inkscape:connector-curvature="0" />
      <path
         style="fill:#18476e;stroke-width:0.82233936"
         d="M 18.800859,184.34128 C 10.909398,176.13245 4.1345073,169.57934 3.7455461,169.77879 3.3565848,169.97825 3.0396321,163.63281 3.0412066,155.67781 l 0.00286,-14.46363 3.382585,-0.0324 c 5.9888354,-0.0574 6.6715434,-0.58917 6.3641684,-4.95698 -0.257031,-3.65245 -0.514005,-4.02386 -4.3357615,-6.26665 -2.707428,-1.58885 -4.2837778,-2.10804 -4.7258028,-1.5565 -0.364796,0.45517 -0.6374137,-5.91396 -0.6058171,-14.15363 0.031597,-8.23968 0.2623572,-14.559881 0.5128011,-14.0449 0.551559,1.13415 5.1740161,1.2322 7.5865273,0.16091 2.610217,-1.15908 2.610217,-12.271312 0,-13.430394 -2.4125112,-1.071285 -7.0349683,-0.97324 -7.5865273,0.160913 -0.2504439,0.51498 -0.4874253,-5.740849 -0.5266252,-13.90184 -0.0392,-8.160992 0.2755533,-14.66031 0.6994515,-14.44294 0.4238983,0.217377 2.6582939,-0.597998 4.9653236,-1.811949 4.0866374,-2.15036 4.1945994,-2.304599 4.1945994,-5.992482 0,-4.231791 -0.734212,-4.773774 -6.5423364,-4.829459 l -3.382585,-0.03243 -0.00286,-14.419427 C 3.0396321,23.733301 3.3722495,17.328828 3.7803565,17.431824 4.1884635,17.53482 10.924519,10.961808 18.749368,2.8251317 26.574217,-5.3115449 33.349752,-11.968826 33.806112,-11.968826 c 0.482343,0 0.829746,7.8405183 0.829746,18.7265286 0,13.2092134 0.294902,18.7265284 1.000939,18.7265284 0.550517,0 14.613421,-3.707853 31.2509,-8.239673 L 97.137654,9.004886 h 46.473006 46.47301 l 32.6417,8.709489 32.64169,8.709488 15.61412,9.020094 c 8.58776,4.961055 15.80663,9.278553 16.04192,9.59444 0.23529,0.315886 -1.41949,0.804192 -3.67731,1.08512 -4.27697,0.532163 -5.86047,1.845244 -5.86047,4.859691 0,2.005948 0.0127,2.009686 -12.87021,-3.781141 -9.83252,-4.419685 -10.51005,-4.597025 -40.76949,-10.671656 l -30.7708,-6.177283 -45.81696,-0.213369 c -27.76434,-0.129298 -46.44886,0.06722 -47.420677,0.498768 -0.88205,0.391677 -15.541468,3.434941 -32.576487,6.762802 -17.035019,3.327869 -31.344479,6.241282 -31.7988,6.474255 -0.466256,0.239093 -0.826038,9.160853 -0.826038,20.483766 v 20.060179 l 67.934652,-0.349242 c 52.85613,-0.271729 78.25418,-0.06277 114.42814,0.94154 25.57142,0.70993 49.70101,1.511089 53.62133,1.780361 l 7.12784,0.489586 -0.003,6.19759 c -9e-4,3.40867 -0.16187,6.325716 -0.35694,6.482315 -0.38938,0.312601 -11.50424,1.028591 -59.03576,3.802971 -27.56323,1.60885 -37.87948,1.84748 -80.79936,1.86904 -40.879735,0.0205 -53.248374,-0.22917 -73.125675,-1.47628 -13.158108,-0.82554 -25.244157,-1.50524 -26.857887,-1.51044 l -2.93363,-0.009 v 20.21038 20.21038 l 2.031268,0.40792 c 1.117198,0.22435 15.64077,2.98925 32.274604,6.14423 l 30.243334,5.73632 45.568606,0.25078 45.56861,0.25078 32.071,-5.72983 32.07099,-5.72983 11.51053,-4.77611 c 10.86049,-4.50639 11.5113,-4.68063 11.52434,-3.08537 0.0226,2.75971 1.46639,3.87962 6.04167,4.68629 l 4.32655,0.76282 -15.79876,8.95204 -15.79875,8.95204 -32.68544,8.42766 -32.68543,8.42767 -47.36161,0.0917 -47.361608,0.0917 -29.381805,-7.55291 c -16.15999,-4.1541 -30.006468,-7.5529 -30.76995,-7.5529 -1.211992,0 -1.388149,2.37642 -1.388149,18.72653 0,10.29959 -0.33455,18.72652 -0.743444,18.72652 -0.408894,0 -7.200094,-6.71631 -15.091555,-14.92513 z"
         id="path23"
         inkscape:connector-curvature="0" />
    </g>
  </g>
</svg>
