<?xml version="1.0" encoding="UTF-8" standalone="no"?>
<!-- Created with Inkscape (http://www.inkscape.org/) -->

<svg
   xmlns:dc="http://purl.org/dc/elements/1.1/"
   xmlns:cc="http://creativecommons.org/ns#"
   xmlns:rdf="http://www.w3.org/1999/02/22-rdf-syntax-ns#"
   xmlns:svg="http://www.w3.org/2000/svg"
   xmlns="http://www.w3.org/2000/svg"
   xmlns:sodipodi="http://sodipodi.sourceforge.net/DTD/sodipodi-0.dtd"
   xmlns:inkscape="http://www.inkscape.org/namespaces/inkscape"
   version="1.1"
   id="svg2"
   width="148mm"
   height="210mm"
   viewBox="0 0 559.37008 793.70079"
   sodipodi:docname="AWS_ElasticCache_Redis.svg"
   inkscape:version="0.92.2 (5c3e80d, 2017-08-06)">
  <metadata
     id="metadata8">
    <rdf:RDF>
      <cc:Work
         rdf:about="">
        <dc:format>image/svg+xml</dc:format>
        <dc:type
           rdf:resource="http://purl.org/dc/dcmitype/StillImage" />
        <dc:title></dc:title>
      </cc:Work>
    </rdf:RDF>
  </metadata>
  <defs
     id="defs6" />
  <sodipodi:namedview
     pagecolor="#ffffff"
     bordercolor="#666666"
     borderopacity="1"
     objecttolerance="10"
     gridtolerance="10"
     guidetolerance="10"
     inkscape:pageopacity="0"
     inkscape:pageshadow="2"
     inkscape:window-width="1920"
     inkscape:window-height="1001"
     id="namedview4"
     showgrid="false"
     units="mm"
     inkscape:zoom="0.84892086"
     inkscape:cx="447.51695"
     inkscape:cy="396.97458"
     inkscape:window-x="-9"
     inkscape:window-y="-9"
     inkscape:window-maximized="1"
     inkscape:current-layer="svg2" />
  <g
     id="g23">
    <path
       inkscape:connector-curvature="0"
       id="path18"
       d="m 82.406187,659.71202 c -16.82481,-4.16711 -27.21978,-10.22974 -41.40367,-24.14774 -14.30144,-14.03333 -23.9139,-31.92933 -26.55556,-49.43979 -0.94752,-6.28072 -1.24955,-105.78601 -0.67116,-221.12287 l 1.05161,-209.70339 6.2709,-13.49575 c 12.78603,-27.51712 39.20043,-48.592985 67.66017,-53.985562 14.801123,-2.80453 371.707343,-2.80453 386.508543,0 28.4597,5.392577 54.8741,26.468442 67.6601,53.985562 l 6.2709,13.49575 1.0516,209.70339 c 0.5784,115.33686 0.2764,214.84215 -0.6711,221.12287 -2.6417,17.51046 -12.2541,35.40646 -26.5556,49.43979 -14.4775,14.2061 -24.509,19.95129 -42.3351,24.24599 -18.3664,4.42489 -380.38,4.33559 -398.281633,-0.0982 z m 98.015163,-124.45617 1.01592,-24.91526 h 9.14322 9.14322 l 1.01592,24.91526 1.01591,24.91525 h 19.30236 19.30237 l 1.01591,-24.91525 1.01591,-24.91526 h 9.14323 9.14322 l 1.01591,24.91526 1.01592,24.91525 h 19.30235 19.3024 l 1.0159,-24.91525 1.0159,-24.91526 h 9.1432 9.1432 l 1.016,24.91526 1.0159,24.91525 h 19.3023 19.3024 l 1.0159,-24.91525 1.0159,-24.91526 h 9.1432 9.1433 l 1.0159,24.91526 1.0159,24.91525 h 19.3024 19.3023 l 1.0159,-24.91525 1.0159,-24.91526 24.382,-1.03813 24.3819,-1.03814 v -19.72457 -19.72458 l -24.3819,-1.03813 -24.382,-1.03814 v -9.34322 -9.34322 l 24.382,-1.03813 24.3819,-1.03814 v -19.72458 -19.72457 l -24.3819,-1.03814 -24.382,-1.03813 v -9.34322 -9.34322 l 24.382,-1.03814 24.3819,-1.03813 V 363.96348 344.2389 l -24.3819,-1.03813 -24.382,-1.03814 v -9.34322 -9.34322 l 24.382,-1.03813 24.3819,-1.03814 v -19.72457 -19.72458 l -24.3819,-1.03813 -24.382,-1.03814 v -9.34322 -9.34322 l 24.382,-1.03814 24.3819,-1.03813 v -19.72458 -19.72457 l -24.3819,-1.03814 -24.382,-1.03813 -1.0159,-24.91526 -1.0159,-24.91525 h -19.3023 -19.3024 l -1.0159,24.91525 -1.0159,24.91526 h -9.1433 -9.1432 l -1.0159,-24.91526 -1.0159,-24.91525 h -19.3024 -19.3023 l -1.0159,24.91525 -1.016,24.91526 h -9.1432 -9.1432 l -1.0159,-24.91526 -1.0159,-24.91525 h -19.3024 -19.30235 l -1.01592,24.91525 -1.01591,24.91526 h -9.14322 -9.14323 l -1.01591,-24.91526 -1.01591,-24.91525 H 221.0579 201.75554 l -1.01591,24.91525 -1.01592,24.91526 h -9.14322 -9.14322 l -1.01592,-24.91526 -1.01591,-24.91525 h -19.30236 -19.30237 l -1.01591,24.91525 -1.01591,24.91526 -24.38193,1.03813 -24.381933,1.03814 v 19.72457 19.72458 l 24.381933,1.03813 24.38193,1.03814 v 9.34322 9.34322 l -24.38193,1.03814 -24.381933,1.03813 v 19.72458 19.72457 l 24.381933,1.03814 24.38193,1.03813 v 9.34322 9.34322 l -24.38193,1.03814 -24.381933,1.03813 v 19.72458 19.72458 l 24.381933,1.03813 24.38193,1.03814 v 9.34322 9.34322 l -24.38193,1.03813 -24.381933,1.03814 v 19.72457 19.72458 l 24.381933,1.03814 24.38193,1.03813 v 9.34322 9.34322 l -24.38193,1.03814 -24.381933,1.03813 v 19.72458 19.72457 l 24.381933,1.03814 24.38193,1.03813 0.53697,22.83899 c 0.29534,12.56144 0.96563,24.04216 1.48954,25.5127 0.70516,1.97931 5.84271,2.51856 19.7813,2.07627 l 18.82874,-0.59745 z m 21.27766,-80.37713 c -0.55208,-1.47054 -0.7652,-43.31672 -0.47362,-92.99151 l 0.53015,-90.31779 54.74089,-0.55374 c 46.27899,-0.46813 56.28889,-0.0283 64.75499,2.84519 34.7759,11.80334 42.7596,62.341 13.5793,85.95775 l -8.2905,6.70984 7.9745,6.97517 c 10.2927,9.00288 14.1456,19.2302 16.6538,44.20623 1.1191,11.14367 2.9318,23.45771 4.0283,27.36448 3.4792,12.39696 3.5795,12.32134 -16.3432,12.32134 -21.8243,0 -20.8658,1.23248 -24.0142,-30.87976 -3.6153,-36.87457 -9.7696,-42.16271 -48.0654,-41.30052 l -24.38193,0.54893 -1.01591,35.29661 -1.01591,35.29661 -18.82875,0.59744 c -13.91909,0.44167 -19.09047,-0.0997 -19.83251,-2.07627 z m 99.54641,-104.24743 c 18.8884,-8.06474 17.2204,-41.02347 -2.373,-46.88613 -4.4036,-1.31764 -18.1841,-2.03474 -32.0984,-1.6703 l -24.38193,0.63862 -0.58053,22.70554 c -0.31928,12.48807 -0.11947,23.93351 0.4442,25.43432 1.49528,3.98192 49.56736,3.80093 58.98966,-0.22205 z"
       style="fill:#2d71b6;stroke-width:2.05392909" />
  </g>
  <path
     style="opacity:1;fill:#ffffff;fill-opacity:0;stroke-width:1.17796612"
     d="m 141.67608,558.55761 c -0.48769,-0.78909 -1.27373,-11.5233 -1.74676,-23.85381 -0.47303,-12.33052 -0.90043,-23.08172 -0.94978,-23.89157 -0.0616,-1.01084 -2.39779,-1.47381 -7.452,-1.47677 -4.04926,-0.002 -14.91599,-0.34987 -24.1483,-0.77222 l -16.78602,-0.7679 v -19.07682 -19.07681 l 10.78266,-0.76538 c 5.93046,-0.42096 14.33783,-0.76537 18.68305,-0.76537 4.34521,0 10.37998,-0.33987 13.4106,-0.75526 l 5.51021,-0.75526 -0.33945,-9.55194 -0.33944,-9.55195 -16.49153,-0.73975 c -9.07034,-0.40686 -19.80455,-0.80442 -23.853812,-0.88348 L 90.59322,445.7296 v -19.25646 -19.25646 l 13.25212,-0.7636 c 7.28866,-0.41999 16.96271,-0.77327 21.49788,-0.78506 13.67771,-0.0356 13.54661,0.0668 13.54661,-10.5811 v -9.1391 l -3.68114,-0.73623 c -2.02463,-0.40492 -7.72304,-0.73897 -12.66314,-0.74232 -4.94009,-0.004 -14.15032,-0.34834 -20.46716,-0.76665 l -11.48517,-0.76056 v -19.07698 -19.077 l 15.01907,-0.76598 c 8.26049,-0.4213 19.12722,-0.76814 24.1483,-0.77077 l 9.12924,-0.005 v -9.84863 -9.84864 l -6.18432,-0.74282 c -3.40138,-0.40856 -10.2125,-0.74743 -15.13583,-0.75306 -4.92333,-0.006 -13.00712,-0.35306 -17.963985,-0.77208 l -9.012475,-0.7616 v -19.13401 -19.13401 l 24.14831,-0.86234 24.1483,-0.86234 v -9.69609 -9.69609 l -9.01247,-0.76183 c -4.95686,-0.41901 -12.56533,-0.76183 -16.90771,-0.76183 -4.34239,0 -11.15351,-0.34056 -15.135836,-0.75679 l -7.240594,-0.7568 v -19.09781 -19.09781 l 23.84972,-0.85387 c 13.11734,-0.46963 24.06819,-1.07234 24.33522,-1.33937 0.43347,-0.43348 2.21658,-34.32993 2.39675,-45.56154 l 0.0708,-4.41737 h 18.6698 18.66979 l 0.76055,11.48517 c 0.41831,6.31684 0.76913,15.72585 0.77961,20.9089 0.0105,5.18305 0.34763,11.41155 0.74921,13.8411 l 0.73015,4.41737 h 9.095 9.09501 l 0.75652,-9.71822 c 0.41608,-5.34502 0.7643,-13.9589 0.77381,-19.14195 0.01,-5.18305 0.35157,-12.20667 0.76013,-15.60805 l 0.74282,-6.18432 h 18.68338 18.68338 l 0.13915,9.12924 c 0.0766,5.02108 0.47411,16.28538 0.88347,25.03178 l 0.74432,15.90254 9.71822,0.34213 9.71823,0.34213 0.14802,-7.99891 c 0.0814,-4.3994 0.47897,-15.68514 0.88347,-25.07942 l 0.73545,-17.08051 h 18.84746 18.84746 l 0.73545,17.08051 c 0.4045,9.39428 0.80207,20.68002 0.88348,25.07942 l 0.14802,7.99891 9.71822,-0.34213 9.71822,-0.34213 0.74432,-15.90254 c 0.40937,-8.7464 0.80693,-20.0107 0.88348,-25.03178 l 0.13915,-9.12924 h 18.68338 18.68338 l 0.74282,6.18432 c 0.40856,3.40138 0.7506,10.425 0.76012,15.60805 0.009,5.18305 0.35774,13.79693 0.77382,19.14195 l 0.75651,9.71822 h 9.09501 9.09501 l 0.73014,-4.41737 c 0.40158,-2.42955 0.73873,-8.65805 0.74921,-13.8411 0.0106,-5.18305 0.36131,-14.59206 0.77962,-20.9089 l 0.76055,-11.48517 h 18.66978 18.6698 l 0.0656,5.00636 c 0.13863,10.58368 1.95835,44.52886 2.41138,44.98189 0.26189,0.26189 11.20853,0.8604 24.32587,1.33003 l 23.84968,0.85387 v 19.09781 19.09781 l -7.24059,0.7568 c -3.98233,0.41623 -10.79346,0.75679 -15.13583,0.75679 -4.34238,0 -11.95085,0.34282 -16.90771,0.76183 l -9.01248,0.76183 v 9.69609 9.69609 l 24.14831,0.86234 24.1483,0.86234 v 19.13401 19.13401 l -9.01247,0.76182 c -4.95686,0.41902 -13.04065,0.76645 -17.96399,0.77208 -4.92332,0.006 -11.73445,0.3445 -15.13582,0.75306 l -6.18433,0.74282 v 9.84864 9.84863 l 9.12924,0.005 c 5.02108,0.002 15.88782,0.34947 24.14831,0.77077 l 15.01906,0.76598 v 19.077 19.07698 l -11.48517,0.76056 c -6.31684,0.4183 -15.52706,0.7633 -20.46716,0.76665 -4.94009,0.004 -10.6385,0.3374 -12.66313,0.74232 l -3.68115,0.73623 v 9.1391 c 0,10.64794 -0.13109,10.54554 13.54661,10.5811 4.53517,0.0118 14.20922,0.36507 21.49788,0.78506 l 13.25212,0.7636 v 19.25646 19.25646 l -7.36228,0.14372 c -4.04926,0.079 -14.78348,0.47662 -23.85382,0.88348 l -16.49152,0.73975 -0.33945,9.55195 -0.33944,9.55194 5.51021,0.75526 c 3.03061,0.41539 9.06538,0.75526 13.4106,0.75526 4.34521,0 12.75258,0.34441 18.68305,0.76537 l 10.78265,0.76538 v 19.07681 19.07682 l -16.78601,0.7679 c -9.23231,0.42235 -20.02969,0.76985 -23.99418,0.77222 l -7.20817,0.005 -0.73014,4.41737 c -0.40158,2.42956 -0.73872,8.65805 -0.74921,13.8411 -0.0106,5.18306 -0.3613,14.59206 -0.77961,20.9089 l -0.76055,11.48484 H 403.9322 385.44008 l -0.76055,-11.48517 c -0.41831,-6.31684 -0.7633,-15.25429 -0.76666,-19.86101 -0.004,-4.60671 -0.34319,-10.8352 -0.75518,-13.8411 l -0.74911,-5.46526 h -9.08902 -9.08902 l -0.75651,9.71822 c -0.41608,5.34502 -0.7643,13.9589 -0.77382,19.14195 -0.009,5.18305 -0.35156,12.20667 -0.76012,15.60805 l -0.74282,6.18432 h -18.68338 -18.68338 l -0.13915,-9.12923 c -0.0766,-5.02108 -0.47411,-16.28539 -0.88348,-25.03178 l -0.74432,-15.90255 -9.14707,-0.34436 c -6.66632,-0.25097 -9.29264,0.0686 -9.68381,1.17796 -0.29523,0.83729 -0.9498,12.12403 -1.45464,25.08166 l -0.91787,23.55932 h -18.84746 -18.84746 l -0.91787,-23.55932 c -0.50484,-12.95763 -1.15941,-24.24437 -1.45463,-25.08166 -0.39118,-1.10945 -3.01749,-1.42893 -9.68381,-1.17796 l -9.14708,0.34436 -0.74432,15.90255 c -0.40936,8.74639 -0.80693,20.0107 -0.88347,25.03178 l -0.13915,9.12923 h -18.68338 -18.68338 l -0.74282,-6.18432 c -0.40856,-3.40138 -0.75061,-10.425 -0.76013,-15.60805 -0.01,-5.18305 -0.35773,-13.79693 -0.77381,-19.14195 l -0.75652,-9.71822 h -9.09501 -9.095 l -0.73015,4.41737 c -0.40158,2.42956 -0.73872,8.65805 -0.74921,13.84111 -0.0105,5.18305 -0.3613,14.59205 -0.77961,20.90889 l -0.76055,11.48517 h -18.01129 c -12.88557,0 -18.26363,-0.40829 -18.89798,-1.4347 z M 238.72246,456.7668 c 2.49171,-0.66775 2.65042,-1.32552 2.65042,-10.98465 0,-5.65092 0.35094,-21.54304 0.77987,-35.31587 l 0.77986,-25.04149 24.84091,0.41244 c 23.29749,0.38681 25.19336,0.58576 30.51395,3.20189 10.19403,5.01242 13.42085,13.26224 16.66795,42.61408 2.07064,18.71728 3.24498,22.70359 7.2222,24.51573 1.69268,0.77123 9.13439,1.34033 17.52671,1.34033 18.30099,0 18.82292,-0.3418 16.39758,-10.73827 -0.92859,-3.98054 -2.74956,-15.78235 -4.04659,-26.22623 -3.67047,-29.55517 -7.61077,-39.62929 -19.31259,-49.37627 l -5.36905,-4.47212 6.85876,-5.70793 c 7.61663,-6.33861 13.13586,-14.22114 16.02345,-22.88458 8.26084,-24.7843 -2.6663,-52.67355 -24.56596,-62.69955 -10.5151,-4.81397 -22.38541,-5.57166 -75.33364,-4.80858 -26.48138,0.38164 -48.33764,0.88359 -48.56949,1.11543 -0.23184,0.23185 -0.56378,41.61969 -0.73764,91.97301 -0.27736,80.32827 -0.0995,91.68861 1.45084,92.67024 1.92783,1.22064 31.93182,1.56224 36.22246,0.41239 z"
     id="path20"
     inkscape:connector-curvature="0" />
</svg>
