<?xml version="1.0" encoding="UTF-8" standalone="no"?>
<!-- Created with Inkscape (http://www.inkscape.org/) -->

<svg
   xmlns:dc="http://purl.org/dc/elements/1.1/"
   xmlns:cc="http://creativecommons.org/ns#"
   xmlns:rdf="http://www.w3.org/1999/02/22-rdf-syntax-ns#"
   xmlns:svg="http://www.w3.org/2000/svg"
   xmlns="http://www.w3.org/2000/svg"
   xmlns:sodipodi="http://sodipodi.sourceforge.net/DTD/sodipodi-0.dtd"
   xmlns:inkscape="http://www.inkscape.org/namespaces/inkscape"
   width="48cm"
   height="48cm"
   viewBox="0 0 480 479.99999"
   version="1.1"
   id="svg8"
   inkscape:version="0.92.1 r15371"
   sodipodi:docname="EC2_Security_Group.svg">
  <defs
     id="defs2" />
  <sodipodi:namedview
     id="base"
     pagecolor="#ffffff"
     bordercolor="#666666"
     borderopacity="1.0"
     inkscape:pageopacity="0.0"
     inkscape:pageshadow="2"
     inkscape:zoom="0.35"
     inkscape:cx="1268.3465"
     inkscape:cy="788.57143"
     inkscape:document-units="mm"
     inkscape:current-layer="layer1"
     showgrid="false"
     units="cm"
     inkscape:window-width="1920"
     inkscape:window-height="1001"
     inkscape:window-x="-9"
     inkscape:window-y="-9"
     inkscape:window-maximized="1" />
  <metadata
     id="metadata5">
    <rdf:RDF>
      <cc:Work
         rdf:about="">
        <dc:format>image/svg+xml</dc:format>
        <dc:type
           rdf:resource="http://purl.org/dc/dcmitype/StillImage" />
        <dc:title></dc:title>
      </cc:Work>
    </rdf:RDF>
  </metadata>
  <g
     inkscape:label="Layer 1"
     inkscape:groupmode="layer"
     id="layer1"
     transform="translate(0,182.99998)">
    <g
       id="g110"
       transform="translate(0.75594905,-6.8035715)">
      <path
         style="fill:#fd0000;stroke-width:0.67869091"
         d="m 404.15659,203.15964 -18.59521,-5.2043 -6.8e-4,-9.01071 -6.6e-4,-9.01072 1.92371,0.46731 c 1.05804,0.25702 9.41038,2.55417 18.56074,5.10478 9.15037,2.55061 16.95128,4.63748 17.33536,4.63748 0.38407,0 8.92785,-3.03046 18.98617,-6.73436 10.05832,-3.7039 18.52208,-6.73437 18.80835,-6.73437 0.28628,0 0.41502,4.0226 0.28609,8.93911 l -0.23442,8.93911 -18.80963,6.94866 c -10.34529,3.82177 -19.002,6.92924 -19.23712,6.90549 -0.23512,-0.0238 -8.79534,-2.38511 -19.0227,-5.24748 z m -62.39568,-17.24363 -38.24174,-10.58813 -0.0187,-9.02405 c -0.0103,-4.96323 0.1083,-9.02405 0.26358,-9.02405 0.15529,0 17.75726,4.83039 39.11548,10.7342 l 38.83314,10.7342 0.23442,8.93014 c 0.18306,6.97371 -0.004,8.91872 -0.85498,8.87799 -0.59918,-0.0287 -18.29819,-4.81683 -39.33115,-10.6403 z m 41.66167,-8.11942 -38.47424,-10.66723 -0.23442,-8.96541 c -0.12893,-4.93097 0.0132,-8.9654 0.31588,-8.9654 0.30266,0 18.14222,4.8579 39.64346,10.79533 l 39.09317,10.79533 8.47001,-3.15949 c 4.6585,-1.73771 13.1831,-4.88977 18.94355,-7.00457 l 10.47354,-3.84511 v 9.07732 9.07732 l -18.49959,6.79628 c -10.17477,3.73795 -19.12003,6.78201 -19.87836,6.76457 -0.75832,-0.0174 -18.69217,-4.83196 -39.853,-10.69894 z m -123.11756,-14.47796 -38.47424,-10.64448 -0.23441,-9.01092 c -0.12894,-4.956 -0.071,-9.01091 0.12883,-9.01091 0.19979,0 17.81105,4.81658 39.13614,10.70351 l 38.7729,10.70351 0.23442,8.96083 c 0.12893,4.92846 -0.0634,8.95681 -0.42749,8.95189 -0.36405,-0.005 -17.97532,-4.79897 -39.13615,-10.65343 z m 143.8509,0.59793 -18.59588,-5.15857 v -9.05169 -9.05168 l 14.32096,3.9454 c 7.87654,2.16997 16.42778,4.53113 19.00279,5.24702 l 4.68182,1.30161 18.66786,-6.90129 c 10.26732,-3.79571 18.8464,-6.90129 19.06463,-6.90129 0.21822,0 0.29129,4.05083 0.16236,9.00184 l -0.23442,9.00185 -18.64969,6.89125 c -10.25731,3.79019 -18.91402,6.8784 -19.23712,6.86269 -0.32309,-0.0157 -8.95558,-2.34992 -19.18331,-5.18714 z m -102.81171,-8.77644 -38.47424,-10.67487 -0.23472,-8.98913 c -0.1935,-7.41042 -0.0281,-8.95809 0.94171,-8.8124 0.64705,0.0972 18.34318,4.90426 39.32474,10.68235 l 38.1483,10.5056 0.0255,9.02405 c 0.014,4.96323 -0.2631,9.00498 -0.61578,8.98167 -0.35268,-0.0233 -17.95464,-4.84608 -39.11548,-10.71727 z m 41.25293,-8.19263 -39.11547,-10.82595 v -9.05036 -9.05037 l 15.17594,4.18575 c 8.34678,2.30217 26.04493,7.18568 39.32922,10.85225 l 24.15328,6.66648 v 9.04663 c 0,4.97564 -0.0962,9.03646 -0.21375,9.02406 -0.11756,-0.0124 -17.81571,-4.89423 -39.32922,-10.84849 z M 177.58541,140.4825 138.46994,129.65655 v -8.81585 c 0,-6.70741 0.25559,-8.80961 1.06873,-8.78977 0.5878,0.0143 18.38213,4.821 39.54296,10.6815 l 38.47424,10.65542 0.23442,8.98285 c 0.12893,4.94056 -0.0634,8.97269 -0.42749,8.96029 -0.36405,-0.0124 -18.26388,-4.89423 -39.77739,-10.84849 z m 206.05774,-1.71027 -39.10864,-10.85427 -0.007,-9.08169 c -0.005,-7.05923 0.23117,-9.01832 1.0619,-8.79714 0.5878,0.1565 17.80502,4.93355 38.26049,10.61566 20.45547,5.68211 37.81884,10.4494 38.58526,10.59398 0.80193,0.15128 9.20997,-2.61549 19.80602,-6.5174 10.1269,-3.72915 18.64676,-6.78027 18.93303,-6.78027 0.28628,0 0.41502,4.03323 0.28609,8.96274 l -0.23442,8.96274 -18.80963,6.92532 c -10.34529,3.80893 -19.002,6.90267 -19.23712,6.87497 -0.23512,-0.0277 -18.02638,-4.93479 -39.53614,-10.90464 z m -163.94982,-6.19662 c -20.92571,-5.82327 -38.52768,-10.78302 -39.11548,-11.02168 -0.78149,-0.3173 -1.06873,-2.74216 -1.06873,-9.02212 0,-6.50771 0.2589,-8.58986 1.06873,-8.59509 0.5878,-0.004 18.47128,4.78434 39.74105,10.6403 l 38.67233,10.64719 0.0157,9.02405 c 0.009,4.96322 -0.2729,8.99954 -0.62558,8.96958 -0.35268,-0.0299 -17.76227,-4.81895 -38.68798,-10.64223 z m 40.82544,-8.29597 -39.11548,-10.84544 v -9.04849 -9.04849 l 4.48866,1.244576 c 2.46877,0.684518 20.16692,5.568824 39.32922,10.854014 l 34.84056,9.60943 v 9.07292 c 0,4.9901 -0.0962,9.05806 -0.21374,9.03992 -0.11756,-0.0182 -17.81571,-4.91345 -39.32922,-10.87844 z m 143.4234,0.48607 -17.95464,-5.00646 -0.23471,-9.02581 c -0.22366,-8.60096 -0.15958,-9.01079 1.36139,-8.7066 0.87785,0.17556 9.41589,2.49967 18.97342,5.16468 l 17.37734,4.84547 17.17057,-6.2884 c 9.44381,-3.45862 18.03624,-6.640912 19.09428,-7.071766 l 1.92371,-0.783368 v 9.116284 9.11629 l -18.04036,6.65444 c -9.92219,3.65993 -18.86746,6.73031 -19.87835,6.82306 -1.0109,0.0927 -9.91759,-2.08427 -19.79265,-4.83782 z M 95.50704,117.81465 56.391565,106.96921 v -9.039884 -9.039882 l 5.343644,1.454003 c 2.939004,0.799703 20.733339,5.715757 39.542971,10.924573 l 34.19932,9.47057 0.23442,8.99375 c 0.12893,4.94655 -0.0634,8.97889 -0.4275,8.96075 -0.36405,-0.0182 -18.26387,-4.91345 -39.77738,-10.87844 z m 205.21536,-1.93268 -38.24106,-10.59148 -0.0194,-9.024046 c -0.0107,-4.963226 0.10611,-9.024048 0.25955,-9.024048 0.15343,0 17.7554,4.832634 39.11547,10.739183 l 38.83648,10.739181 0.23442,8.92516 c 0.18301,6.96832 -0.004,8.91446 -0.85499,8.87634 -0.59917,-0.0268 -18.29787,-4.81498 -39.33046,-10.64029 z M 138.85132,110.2035 c -20.71595,-5.73039 -38.51028,-10.703834 -39.542963,-11.052087 -1.817361,-0.612881 -1.877606,-0.919251 -1.877606,-9.548498 0,-5.149908 0.329728,-8.839451 0.780695,-8.735715 0.429382,0.09877 18.319904,5.028 39.756714,10.953847 l 38.97601,10.774263 v 9.02477 c 0,4.96362 -0.0962,9.01971 -0.21374,9.01353 -0.11756,-0.006 -17.16316,-4.69972 -37.87911,-10.43011 z m 203.53207,-2.43739 -38.47423,-10.658727 -0.23442,-8.973109 c -0.12893,-4.935211 0.0634,-8.966127 0.42749,-8.957588 0.36405,0.0086 17.97532,4.809505 39.13615,10.668817 l 38.47423,10.653287 0.23442,8.99553 c 0.12893,4.94754 -0.0634,8.9809 -0.42749,8.96302 -0.36405,-0.0179 -17.97532,-4.82893 -39.13615,-10.69123 z m -164.15674,-6.21772 -39.32922,-10.923328 -0.23442,-8.964446 c -0.12893,-4.930444 0.0217,-8.964446 0.33477,-8.964446 0.31305,0 18.21287,4.882177 39.77738,10.849276 l 39.2082,10.849276 v 9.084438 c 0,4.99645 -0.0962,9.06377 -0.21374,9.0385 -0.11757,-0.0253 -17.9119,-4.96144 -39.54297,-10.96927 z M 383.97967,99.661873 C 362.655,93.760544 345.04349,88.828808 344.84298,88.702455 c -0.20052,-0.126348 -0.25883,-4.213557 -0.1296,-9.082691 l 0.23496,-8.852973 39.32922,10.870303 c 21.63107,5.978666 39.52159,10.803299 39.75671,10.721409 0.23513,-0.08189 8.0268,-2.955259 17.31483,-6.385265 9.28803,-3.430006 17.65618,-6.495655 18.59588,-6.812558 1.67674,-0.565455 1.70833,-0.407817 1.69676,8.466825 l -0.0118,9.043001 -18.73784,6.869054 c -10.30581,3.77798 -19.05339,6.86521 -19.43908,6.86053 -0.38568,-0.005 -18.1487,-4.83689 -39.47337,-10.738217 z M 33.94826,100.88291 15.352379,95.724339 v -9.051686 -9.051686 l 14.320966,3.943272 c 7.876531,2.168805 16.533235,4.56272 19.237119,5.319819 l 4.916152,1.376542 v 8.919008 c 0,4.905452 -0.288557,8.906152 -0.641237,8.890442 -0.352681,-0.0157 -9.009384,-2.34992 -19.237119,-5.18714 z M 231.2356,96.653708 C 217.12838,92.707123 199.71879,87.858903 192.54762,85.879889 l -13.0385,-3.598214 v -8.833374 c 0,-4.986651 0.34089,-8.833368 0.78279,-8.833368 0.43054,0 18.22487,4.820824 39.54297,10.712946 l 38.76018,10.712951 0.23441,8.951392 c 0.18313,6.992948 -0.004,8.938888 -0.85498,8.894238 -0.59917,-0.0314 -12.63167,-3.28617 -26.73889,-7.232752 z M 53.826616,86.767748 15.779871,76.173456 15.545001,67.098949 c -0.205705,-7.947676 -0.07305,-9.035372 1.068298,-8.759393 5.171937,1.250593 76.339367,21.06862 77.183774,21.493402 0.774285,0.38951 1.068729,2.894338 1.068729,9.09165 0,7.809729 -0.130187,8.548947 -1.49622,8.495724 C 92.546661,97.388276 74.752326,92.594605 53.826616,86.767748 Z M 260.30502,85.102738 221.83078,74.42786 221.59607,65.438729 c -0.1935,-7.410414 -0.0281,-8.958089 0.94171,-8.812395 0.64704,0.09721 18.34317,4.90426 39.32474,10.682345 l 38.14829,10.505608 0.0255,9.024047 c 0.014,4.963227 -0.2631,9.004977 -0.61578,8.981665 -0.35268,-0.02333 -17.95464,-4.846075 -39.11547,-10.717261 z m 143.8509,0.652985 -18.59588,-5.168484 v -9.043216 -9.043217 l 6.62612,1.797666 c 3.64436,0.988712 11.98298,3.282668 18.53026,5.097682 6.54727,1.815008 12.25946,3.300016 12.69375,3.300016 0.4343,0 8.99465,-3.030464 19.02301,-6.734364 10.02836,-3.7039 18.46475,-6.734364 18.74753,-6.734364 0.28279,0 0.40868,4.030021 0.27975,8.955599 l -0.23442,8.955606 -18.78891,6.937494 c -10.3339,3.815626 -18.9906,6.917377 -19.23712,6.892783 -0.24652,-0.02457 -8.81636,-2.370534 -19.04409,-5.213201 z M 95.293294,78.637748 56.819057,67.962871 56.584638,59.015789 c -0.128929,-4.920897 0.07248,-8.947082 0.447579,-8.947082 0.61273,0 13.313358,3.479699 63.269333,17.33443 l 15.60344,4.327438 v 8.833406 c 0,6.730168 -0.25447,8.823321 -1.06873,8.791028 -0.5878,-0.02333 -18.38214,-4.846075 -39.542966,-10.717261 z M 301.55795,76.904172 262.44248,66.062336 v -9.067519 -9.06752 l 4.91615,1.375233 c 2.70389,0.756377 20.40203,5.653665 39.32922,10.882867 l 34.41307,9.507634 v 9.044057 c 0,4.974233 -0.0962,9.036154 -0.21375,9.026489 -0.11756,-0.0096 -17.81571,-4.896389 -39.32922,-10.859405 z M 136.54623,70.446601 97.430751,59.614797 v -8.813666 c 0,-6.705665 0.255612,-8.807428 1.068729,-8.787591 0.587801,0.01433 18.38214,4.821007 39.54297,10.681498 l 38.47423,10.655429 0.23442,8.982845 c 0.12893,4.940566 -0.0634,8.974353 -0.42749,8.963972 -0.36405,-0.0104 -18.26387,-4.893189 -39.77738,-10.850683 z m 206.05999,-1.766908 -39.10639,-10.799124 -0.009,-9.081689 c -0.007,-7.055841 0.22932,-9.019819 1.05965,-8.804346 5.0539,1.311526 76.99122,21.369948 77.26924,21.545133 0.1996,0.125776 0.25718,4.213535 0.12795,9.083913 l -0.235,8.855231 z M 178.65414,62.537441 c -20.92571,-5.829346 -38.52767,-10.79142 -39.11547,-11.026821 -1.2373,-0.495514 -1.58265,-18.361152 -0.34897,-18.053343 0.39585,0.09877 18.27933,5.028323 39.74104,10.954564 l 39.0213,10.774982 0.0156,9.024048 c 0.009,4.963226 -0.27289,9.001852 -0.62557,8.97472 -0.35269,-0.02715 -17.76228,-4.818798 -38.68799,-10.64815 z m 205.62342,-1.911245 -39.32922,-10.882749 -0.23487,-9.058856 c -0.22001,-8.486053 -0.13893,-9.035895 1.28248,-8.695777 0.83454,0.199693 18.64925,5.091669 39.58825,10.871063 l 38.07091,10.507994 18.99921,-7.000554 18.99921,-7.000549 V 48.436884 57.507 l -16.45842,6.042799 c -9.05214,3.323538 -17.61266,6.473976 -19.02338,7.000975 l -2.56495,0.958176 z M 33.734514,61.63739 15.779871,56.596924 15.545452,47.675949 c -0.12893,-4.906534 0.0964,-8.920974 0.500741,-8.920974 0.404338,0 8.974159,2.289511 19.044046,5.087807 l 18.308886,5.087801 0.234418,8.919676 c 0.182988,6.96274 -0.0046,8.909569 -0.854983,8.873634 -0.599171,-0.02532 -9.168991,-2.31425 -19.044046,-5.086503 z M 219.26584,54.184922 179.93662,43.278458 179.70174,34.219602 c -0.22002,-8.486366 -0.13897,-9.035842 1.28248,-8.694776 0.83454,0.200243 18.73457,5.12025 39.77784,10.933354 l 38.26049,10.569272 v 9.063117 c 0,4.984712 -0.0962,9.049095 -0.21375,9.031963 -0.11756,-0.01713 -17.91189,-4.939053 -39.54296,-10.93761 z M 54.467853,47.777261 15.352379,36.931821 v -9.039882 -9.039882 l 5.028427,1.374166 c 2.765635,0.75579 20.55997,5.665615 39.542966,10.910726 l 34.514539,9.536565 0.234418,9.007589 c 0.12893,4.954176 -0.06344,8.992742 -0.427491,8.974597 -0.36405,-0.01815 -18.263874,-4.913446 -39.777385,-10.878439 z m 205.215357,-1.932682 -38.24106,-10.591473 -0.0194,-9.024048 c -0.0107,-4.963227 0.10612,-9.024048 0.25955,-9.024048 0.15344,0 17.7554,4.832633 39.11548,10.739182 l 38.83647,10.739183 0.23442,8.925161 c 0.18302,6.968315 -0.004,8.914455 -0.85498,8.876339 -0.59917,-0.02683 -18.29788,-4.814985 -39.33047,-10.640296 z m 144.79682,0.738232 c -10.04947,-2.796636 -18.42717,-5.182718 -18.61711,-5.302396 -0.18993,-0.119683 -0.23959,-4.206386 -0.11036,-9.081565 l 0.23497,-8.863953 18.77379,5.209688 18.77378,5.209693 7.3032,-2.699219 c 4.01676,-1.484566 12.42725,-4.60206 18.68998,-6.927759 6.26273,-2.325699 11.56224,-4.228545 11.77669,-4.228545 0.21445,0 0.28442,4.054664 0.15549,9.010359 l -0.23442,9.010358 -18.38214,6.852582 c -10.11017,3.768922 -18.76688,6.862252 -19.23712,6.874067 -0.47024,0.0118 -9.07727,-2.266674 -19.12675,-5.06331 z M 95.953002,39.672524 56.428507,28.788116 56.41004,19.706427 c -0.01435,-7.052678 0.220301,-9.021839 1.050257,-8.813811 8.083958,2.026219 76.600853,21.188103 77.397923,21.645603 0.81781,0.469412 1.03171,2.801727 0.85498,9.322375 l -0.2357,8.696338 z M 301.34421,37.729531 262.86997,27.06295 262.63555,18.093364 c -0.12893,-4.933277 0.0634,-8.9626036 0.42749,-8.9540644 0.36405,0.00857 17.97532,4.8095054 39.13615,10.6688164 l 38.47424,10.653285 0.23442,8.995532 c 0.12893,4.947538 -0.0634,8.982849 -0.42749,8.967355 -0.36406,-0.01552 -17.97532,-4.828135 -39.13615,-10.694757 z M 136.33248,31.263733 97.858243,20.605007 97.623825,11.631898 c -0.12893,-4.9352116 0.0062,-8.9731147 0.300246,-8.9731147 0.294065,0 18.193889,4.8804798 39.777379,10.8455097 l 39.24272,10.845505 v 8.818839 c 0,6.713239 -0.25517,8.811069 -1.06872,8.786324 -0.5878,-0.01789 -18.38214,-4.828932 -39.54297,-10.691228 z m 206.18259,-1.687282 c -21.08841,-5.87347 -38.50756,-10.783004 -38.7092,-10.910073 -0.20166,-0.12707 -0.26091,-4.215626 -0.13168,-9.0856867 l 0.23497,-8.85464896 39.10965,10.79854166 39.10964,10.798542 0.006,9.024048 c 0.003,4.963227 -0.28274,8.99801 -0.63542,8.966187 -0.35268,-0.03184 -17.89539,-4.863434 -38.9838,-10.73691 z M 185.9215,25.369095 C 168.99283,20.684068 151.39087,15.813184 146.80602,14.544909 l -8.33608,-2.305954 V 3.408248 c 0,-4.8788098 0.34462,-8.8307016 0.77006,-8.8307016 0.42355,0 18.21788,4.8165788 39.54297,10.7035121 l 38.7729,10.7035125 0.23442,8.960831 c 0.12893,4.928455 -0.0634,8.95658 -0.42749,8.951381 -0.36405,-0.0054 -14.51264,-3.84266 -31.4413,-8.527688 z m 197.69547,-4.018917 -39.13484,-10.853376 0.23311,-9.1538757 0.2331,-9.1538703 18.74576,-6.930436 c 15.33165,-5.668218 19.06883,-6.841743 20.5196,-6.443429 0.97561,0.26786 18.80744,5.183941 39.6263,10.924631 l 37.85246,10.43761211 -0.23321,9.12147529 -0.23321,9.1214756 -18.7632,6.9348 c -10.31976,3.814139 -18.97646,6.915351 -19.23712,6.891587 -0.26065,-0.02376 -18.0846,-4.927238 -39.60875,-10.896594 z M 33.119107,22.398756 15.404039,17.474384 15.378209,8.3926956 c -0.02006,-7.0525062 0.212963,-9.02252857 1.042899,-8.81692574 5.332621,1.32108828 35.512222,9.81284664 36.336779,10.22423004 0.77458,0.3864501 1.068729,2.8875501 1.068729,9.0872221 0,7.810019 -0.130136,8.548887 -1.49622,8.494963 -0.822921,-0.03249 -9.468001,-2.275029 -19.211289,-4.983429 z M 220.12082,15.310148 C 199.43023,9.5730303 181.82827,4.6198571 181.00534,4.3030887 c -1.32448,-0.5098344 -1.49622,-1.5647645 -1.49622,-9.1913564 0,-6.3873123 0.2679,-8.6154233 1.03585,-8.6154233 0.56972,0 18.44796,4.7881333 39.72944,10.6402957 L 258.968,7.7769 l 0.0273,9.024048 c 0.015,4.963226 -0.26128,9.005208 -0.61396,8.982187 -0.35268,-0.02301 -17.5699,-4.735869 -38.26049,-10.472987 z M 54.254108,8.6003619 15.779871,-2.0745157 15.545452,-11.021598 c -0.12893,-4.920897 0.06344,-8.945784 0.427492,-8.944194 0.36405,0.0016 18.167687,4.8419 39.563638,10.7562337 l 38.901729,10.7533464 0.234418,8.9081089 c 0.18294,6.951895 -0.0048,8.8988 -0.854983,8.865726 C 93.218576,19.294317 75.414938,14.471548 54.254108,8.6003619 Z M 260.51877,6.872712 221.40329,-3.9532309 v -9.0503661 -9.050371 l 15.17595,4.185758 c 8.34677,2.302172 26.04492,7.185679 39.32922,10.8522496 l 24.15327,6.6664817 v 9.0466215 c 0,4.9756392 -0.0962,9.0364662 -0.21374,9.0240642 -0.11756,-0.01239 -17.81571,-4.894229 -39.32922,-10.848495 z M 95.50704,0.40921476 56.391565,-10.42259 v -9.045366 -9.045366 l 13.465983,3.71133 c 7.406291,2.041234 25.200625,6.952692 39.542962,10.914357 l 26.07699,7.2030215 0.23442,8.9816914 c 0.12893,4.9399308 -0.0634,8.9732011 -0.4275,8.9628191 -0.36405,-0.0104 -18.26387,-4.893189 -39.77738,-10.85068224 z m 206.05449,-1.77780746 -39.1119,-10.7882253 -0.004,-9.161267 -0.004,-9.161267 18.64939,-6.86652 c 10.25718,-3.776582 18.9492,-6.866519 19.31561,-6.866519 0.94844,0 76.8948,21.008512 77.68147,21.488489 0.35818,0.218538 -7.80874,3.508711 -18.14874,7.311488 l -18.79998,6.9141446 -0.2334,8.95895086 -0.2334,8.95894544 z M 136.55205,-7.7630923 97.442401,-18.621807 l -0.0058,-9.010714 -0.0058,-9.010714 1.923712,0.46945 c 3.562207,0.869293 72.771297,20.050179 75.192867,20.839247 l 2.39684,0.781019 v 8.8755259 c 0,4.88154118 -0.28855,8.8525964 -0.64123,8.8245706 -0.35268,-0.028015 -18.24058,-4.9373771 -39.75089,-10.9096698 z m 41.6746,-8.0893717 -39.32922,-10.906465 -0.23487,-9.058856 c -0.22004,-8.487071 -0.1391,-9.035733 1.28247,-8.692556 0.83454,0.20146 18.73457,5.1167 39.77784,10.922756 l 38.26049,10.556461 v 9.07371 c 0,4.9905406 -0.0962,9.0596913 -0.21374,9.042559 -0.11757,-0.017132 -17.9119,-4.9390526 -39.54297,-10.937609 z m -143.944009,-0.59931 c -10.043826,-2.789002 -18.421522,-5.171749 -18.617104,-5.294988 -0.195581,-0.123245 -0.249867,-4.215206 -0.120635,-9.093256 l 0.234969,-8.869174 18.809627,5.217371 18.809627,5.217365 0.234418,8.962884 c 0.12893,4.929581 -0.06344,8.955643 -0.427492,8.946796 -0.36405,-0.0088 -8.879585,-2.297991 -18.92341,-5.086998 z m 184.128209,-7.837313 -38.47423,-10.692856 v -9.045565 -9.04556 l 18.38213,-6.853236 c 10.11018,-3.769281 18.90669,-6.866808 19.54782,-6.883394 1.23845,-0.03204 77.09245,20.774455 78.06574,21.413169 0.31514,0.20681 -7.76445,3.440468 -17.95464,7.185917 l -18.52763,6.809902 -0.23442,8.94851 c -0.17437,6.656434 -0.50287,8.936657 -1.28248,8.902242 -0.57642,-0.02545 -18.36146,-4.858057 -39.52229,-10.739129 z m -164.779496,-6.36683 -38.242007,-10.593354 -0.01848,-9.081688 c -0.01436,-7.053794 0.220158,-9.021399 1.050245,-8.811693 6.30144,1.591948 76.578311,21.164607 77.375965,21.549818 0.775719,0.374614 1.068729,2.86135 1.068729,9.070132 0,7.805403 -0.130944,8.549911 -1.49622,8.507081 -0.822921,-0.02581 -18.705123,-4.813955 -39.738228,-10.640296 z m 41.66194,-8.105798 -38.474237,-10.656754 -0.234419,-8.980064 c -0.128929,-4.93904 0.0031,-8.98007 0.293472,-8.98007 0.29034,0 18.190163,4.882261 39.777385,10.84947 l 39.249495,10.84947 v 8.814873 c 0,6.70741 -0.25551,8.808295 -1.06873,8.787354 -0.5878,-0.01514 -18.38214,-4.82306 -39.542966,-10.684279 z m 57.711356,-3.583555 c -11.99114,-3.353621 -29.40073,-8.199416 -38.68798,-10.768436 L 97.430751,-57.78465 v -8.986969 -8.986967 l 19.164709,-7.074619 19.16471,-7.074619 39.37212,10.860549 c 31.48023,8.683625 39.11596,10.982744 38.09421,11.470179 -0.70284,0.335298 -9.1448,3.48698 -18.7599,7.003739 l -17.48201,6.394107 -0.0202,9.024048 c -0.0154,6.885009 -0.27354,9.010224 -1.08894,8.965734 -0.5878,-0.03206 -10.87966,-2.802185 -22.87079,-6.155802 z m -119.270136,-13.416841 -17.954643,-4.997673 -0.23471,-9.006773 c -0.226504,-8.691898 -0.17692,-8.995216 1.418318,-8.676176 0.909165,0.181828 9.479116,2.492775 19.044336,5.135438 l 17.39131,4.804841 0.234418,8.912537 c 0.182956,6.955945 -0.0047,8.902979 -0.854983,8.869006 -0.599171,-0.02394 -9.168991,-2.29248 -19.044046,-5.0412 z m 20.713702,-13.871485 -39.135111,-10.837234 0.233383,-9.129153 0.233383,-9.129153 18.845131,-6.949184 18.845131,-6.94918 37.156259,10.27584 c 20.435948,5.651711 38.244148,10.560412 39.573788,10.908225 2.36319,0.61817 1.99322,0.789204 -16.45842,7.60847 l -18.875958,6.976083 v 9.050133 c 0,4.977572 -0.288557,9.041639 -0.641237,9.031259 -0.352681,-0.01038 -18.252037,-4.895629 -39.776349,-10.856106 z"
         id="path116"
         inkscape:connector-curvature="0" />
      <path
         style="fill:#cb0000;stroke-width:0.67869091"
         d="m 404.15659,203.15964 -18.59521,-5.2043 -6.8e-4,-9.01071 -6.6e-4,-9.01072 1.92371,0.46731 c 1.05804,0.25702 9.41038,2.55417 18.56074,5.10478 9.15037,2.55061 16.95128,4.63748 17.33536,4.63748 0.38407,0 8.92785,-3.03046 18.98617,-6.73436 10.05832,-3.7039 18.52208,-6.73437 18.80835,-6.73437 0.28628,0 0.41502,4.0226 0.28609,8.93911 l -0.23442,8.93911 -18.80963,6.94866 c -10.34529,3.82177 -19.002,6.92924 -19.23712,6.90549 -0.23512,-0.0238 -8.79534,-2.38511 -19.0227,-5.24748 z m -62.39568,-17.24363 -38.24174,-10.58813 -0.0187,-9.02405 c -0.0103,-4.96323 0.1083,-9.02405 0.26358,-9.02405 0.15529,0 17.75726,4.83039 39.11548,10.7342 l 38.83314,10.7342 0.23442,8.93014 c 0.18306,6.97371 -0.004,8.91872 -0.85498,8.87799 -0.59918,-0.0287 -18.29819,-4.81683 -39.33115,-10.6403 z m 41.66167,-8.11942 -38.47424,-10.66723 -0.23442,-8.96541 c -0.12893,-4.93097 0.0132,-8.9654 0.31588,-8.9654 0.30266,0 18.14222,4.8579 39.64346,10.79533 l 39.09317,10.79533 8.47001,-3.15949 c 4.6585,-1.73771 13.1831,-4.88977 18.94355,-7.00457 l 10.47354,-3.84511 v 9.07732 9.07732 l -18.49959,6.79628 c -10.17477,3.73795 -19.12003,6.78201 -19.87836,6.76457 -0.75832,-0.0174 -18.69217,-4.83196 -39.853,-10.69894 z m -123.11756,-14.47796 -38.47424,-10.64448 -0.23441,-9.01092 c -0.12894,-4.956 -0.071,-9.01091 0.12883,-9.01091 0.19979,0 17.81105,4.81658 39.13614,10.70351 l 38.7729,10.70351 0.23442,8.96083 c 0.12893,4.92846 -0.0634,8.95681 -0.42749,8.95189 -0.36405,-0.005 -17.97532,-4.79897 -39.13615,-10.65343 z m 143.8509,0.59793 -18.59588,-5.15857 v -9.05169 -9.05168 l 14.32096,3.9454 c 7.87654,2.16997 16.42778,4.53113 19.00279,5.24702 l 4.68182,1.30161 18.66786,-6.90129 c 10.26732,-3.79571 18.8464,-6.90129 19.06463,-6.90129 0.21822,0 0.29129,4.05083 0.16236,9.00184 l -0.23442,9.00185 -18.64969,6.89125 c -10.25731,3.79019 -18.91402,6.8784 -19.23712,6.86269 -0.32309,-0.0157 -8.95558,-2.34992 -19.18331,-5.18714 z m -102.81171,-8.77644 -38.47424,-10.67487 -0.23472,-8.98913 c -0.1935,-7.41042 -0.0281,-8.95809 0.94171,-8.8124 0.64705,0.0972 18.34318,4.90426 39.32474,10.68235 l 38.1483,10.5056 0.0255,9.02405 c 0.014,4.96323 -0.2631,9.00498 -0.61578,8.98167 -0.35268,-0.0233 -17.95464,-4.84608 -39.11548,-10.71727 z m 41.25293,-8.19263 -39.11547,-10.82595 v -9.05036 -9.05037 l 15.17594,4.18575 c 8.34678,2.30217 26.04493,7.18568 39.32922,10.85225 l 24.15328,6.66648 v 9.04663 c 0,4.97564 -0.0962,9.03646 -0.21375,9.02406 -0.11756,-0.0124 -17.81571,-4.89423 -39.32922,-10.84849 z M 177.58541,140.4825 138.46994,129.65655 v -8.81585 c 0,-6.70741 0.25559,-8.80961 1.06873,-8.78977 0.5878,0.0143 18.38213,4.821 39.54296,10.6815 l 38.47424,10.65542 0.23442,8.98285 c 0.12893,4.94056 -0.0634,8.97269 -0.42749,8.96029 -0.36405,-0.0124 -18.26388,-4.89423 -39.77739,-10.84849 z m 206.05774,-1.71027 -39.10864,-10.85427 -0.007,-9.08169 c -0.005,-7.05923 0.23117,-9.01832 1.0619,-8.79714 0.5878,0.1565 17.80502,4.93355 38.26049,10.61566 20.45547,5.68211 37.81884,10.4494 38.58526,10.59398 0.80193,0.15128 9.20997,-2.61549 19.80602,-6.5174 10.1269,-3.72915 18.64676,-6.78027 18.93303,-6.78027 0.28628,0 0.41502,4.03323 0.28609,8.96274 l -0.23442,8.96274 -18.80963,6.92532 c -10.34529,3.80893 -19.002,6.90267 -19.23712,6.87497 -0.23512,-0.0277 -18.02638,-4.93479 -39.53614,-10.90464 z m -163.94982,-6.19662 c -20.92571,-5.82327 -38.52768,-10.78302 -39.11548,-11.02168 -0.78149,-0.3173 -1.06873,-2.74216 -1.06873,-9.02212 0,-6.50771 0.2589,-8.58986 1.06873,-8.59509 0.5878,-0.004 18.47128,4.78434 39.74105,10.6403 l 38.67233,10.64719 0.0157,9.02405 c 0.009,4.96322 -0.2729,8.99954 -0.62558,8.96958 -0.35268,-0.0299 -17.76227,-4.81895 -38.68798,-10.64223 z m 40.82544,-8.29597 -39.11548,-10.84544 v -9.04849 -9.04849 l 4.48866,1.244576 c 2.46877,0.684518 20.16692,5.568824 39.32922,10.854014 l 34.84056,9.60943 v 9.07292 c 0,4.9901 -0.0962,9.05806 -0.21374,9.03992 -0.11756,-0.0182 -17.81571,-4.91345 -39.32922,-10.87844 z m 143.4234,0.48607 -17.95464,-5.00646 -0.23471,-9.02581 c -0.22366,-8.60096 -0.15958,-9.01079 1.36139,-8.7066 0.87785,0.17556 9.41589,2.49967 18.97342,5.16468 l 17.37734,4.84547 17.17057,-6.2884 c 9.44381,-3.45862 18.03624,-6.640912 19.09428,-7.071766 l 1.92371,-0.783368 v 9.116284 9.11629 l -18.04036,6.65444 c -9.92219,3.65993 -18.86746,6.73031 -19.87835,6.82306 -1.0109,0.0927 -9.91759,-2.08427 -19.79265,-4.83782 z M 95.50704,117.81465 56.391565,106.96921 v -9.039884 -9.039882 l 5.343644,1.454003 c 2.939004,0.799703 20.733339,5.715757 39.542971,10.924573 l 34.19932,9.47057 0.23442,8.99375 c 0.12893,4.94655 -0.0634,8.97889 -0.4275,8.96075 -0.36405,-0.0182 -18.26387,-4.91345 -39.77738,-10.87844 z m 205.21536,-1.93268 -38.24106,-10.59148 -0.0194,-9.024046 c -0.0107,-4.963226 0.10611,-9.024048 0.25955,-9.024048 0.15343,0 17.7554,4.832634 39.11547,10.739183 l 38.83648,10.739181 0.23442,8.92516 c 0.18301,6.96832 -0.004,8.91446 -0.85499,8.87634 -0.59917,-0.0268 -18.29787,-4.81498 -39.33046,-10.64029 z M 138.85132,110.2035 c -20.71595,-5.73039 -38.51028,-10.703834 -39.542963,-11.052087 -1.817361,-0.612881 -1.877606,-0.919251 -1.877606,-9.548498 0,-5.149908 0.329728,-8.839451 0.780695,-8.735715 0.429382,0.09877 18.319904,5.028 39.756714,10.953847 l 38.97601,10.774263 v 9.02477 c 0,4.96362 -0.0962,9.01971 -0.21374,9.01353 -0.11756,-0.006 -17.16316,-4.69972 -37.87911,-10.43011 z m 203.53207,-2.43739 -38.47423,-10.658727 -0.23442,-8.973109 c -0.12893,-4.935211 0.0634,-8.966127 0.42749,-8.957588 0.36405,0.0086 17.97532,4.809505 39.13615,10.668817 l 38.47423,10.653287 0.23442,8.99553 c 0.12893,4.94754 -0.0634,8.9809 -0.42749,8.96302 -0.36405,-0.0179 -17.97532,-4.82893 -39.13615,-10.69123 z m -164.15674,-6.21772 -39.32922,-10.923328 -0.23442,-8.964446 c -0.12893,-4.930444 0.0217,-8.964446 0.33477,-8.964446 0.31305,0 18.21287,4.882177 39.77738,10.849276 l 39.2082,10.849276 v 9.084438 c 0,4.99645 -0.0962,9.06377 -0.21374,9.0385 -0.11757,-0.0253 -17.9119,-4.96144 -39.54297,-10.96927 z M 383.97967,99.661873 C 362.655,93.760544 345.04349,88.828808 344.84298,88.702455 c -0.20052,-0.126348 -0.25883,-4.213557 -0.1296,-9.082691 l 0.23496,-8.852973 39.32922,10.870303 c 21.63107,5.978666 39.52159,10.803299 39.75671,10.721409 0.23513,-0.08189 8.0268,-2.955259 17.31483,-6.385265 9.28803,-3.430006 17.65618,-6.495655 18.59588,-6.812558 1.67674,-0.565455 1.70833,-0.407817 1.69676,8.466825 l -0.0118,9.043001 -18.73784,6.869054 c -10.30581,3.77798 -19.05339,6.86521 -19.43908,6.86053 -0.38568,-0.005 -18.1487,-4.83689 -39.47337,-10.738217 z M 33.94826,100.88291 15.352379,95.724339 v -9.051686 -9.051686 l 14.320966,3.943272 c 7.876531,2.168805 16.533235,4.56272 19.237119,5.319819 l 4.916152,1.376542 v 8.919008 c 0,4.905452 -0.288557,8.906152 -0.641237,8.890442 -0.352681,-0.0157 -9.009384,-2.34992 -19.237119,-5.18714 z M 231.2356,96.653708 C 217.12838,92.707123 199.71879,87.858903 192.54762,85.879889 l -13.0385,-3.598214 v -8.833374 c 0,-4.986651 0.34089,-8.833368 0.78279,-8.833368 0.43054,0 18.22487,4.820824 39.54297,10.712946 l 38.76018,10.712951 0.23441,8.951392 c 0.18313,6.992948 -0.004,8.938888 -0.85498,8.894238 -0.59917,-0.0314 -12.63167,-3.28617 -26.73889,-7.232752 z M 53.826616,86.767748 15.779871,76.173456 15.545001,67.098949 c -0.205705,-7.947676 -0.07305,-9.035372 1.068298,-8.759393 5.171937,1.250593 76.339367,21.06862 77.183774,21.493402 0.774285,0.38951 1.068729,2.894338 1.068729,9.09165 0,7.809729 -0.130187,8.548947 -1.49622,8.495724 C 92.546661,97.388276 74.752326,92.594605 53.826616,86.767748 Z M 260.30502,85.102738 221.83078,74.42786 221.59607,65.438729 c -0.1935,-7.410414 -0.0281,-8.958089 0.94171,-8.812395 0.64704,0.09721 18.34317,4.90426 39.32474,10.682345 l 38.14829,10.505608 0.0255,9.024047 c 0.014,4.963227 -0.2631,9.004977 -0.61578,8.981665 -0.35268,-0.02333 -17.95464,-4.846075 -39.11547,-10.717261 z m 143.8509,0.652985 -18.59588,-5.168484 v -9.043216 -9.043217 l 6.62612,1.797666 c 3.64436,0.988712 11.98298,3.282668 18.53026,5.097682 6.54727,1.815008 12.25946,3.300016 12.69375,3.300016 0.4343,0 8.99465,-3.030464 19.02301,-6.734364 10.02836,-3.7039 18.46475,-6.734364 18.74753,-6.734364 0.28279,0 0.40868,4.030021 0.27975,8.955599 l -0.23442,8.955606 -18.78891,6.937494 c -10.3339,3.815626 -18.9906,6.917377 -19.23712,6.892783 -0.24652,-0.02457 -8.81636,-2.370534 -19.04409,-5.213201 z M 95.293294,78.637748 56.819057,67.962871 56.584638,59.015789 c -0.128929,-4.920897 0.07248,-8.947082 0.447579,-8.947082 0.61273,0 13.313358,3.479699 63.269333,17.33443 l 15.60344,4.327438 v 8.833406 c 0,6.730168 -0.25447,8.823321 -1.06873,8.791028 -0.5878,-0.02333 -18.38214,-4.846075 -39.542966,-10.717261 z M 301.55795,76.904172 262.44248,66.062336 v -9.067519 -9.06752 l 4.91615,1.375233 c 2.70389,0.756377 20.40203,5.653665 39.32922,10.882867 l 34.41307,9.507634 v 9.044057 c 0,4.974233 -0.0962,9.036154 -0.21375,9.026489 -0.11756,-0.0096 -17.81571,-4.896389 -39.32922,-10.859405 z M 136.54623,70.446601 97.430751,59.614797 v -8.813666 c 0,-6.705665 0.255612,-8.807428 1.068729,-8.787591 0.587801,0.01433 18.38214,4.821007 39.54297,10.681498 l 38.47423,10.655429 0.23442,8.982845 c 0.12893,4.940566 -0.0634,8.974353 -0.42749,8.963972 -0.36405,-0.0104 -18.26387,-4.893189 -39.77738,-10.850683 z m 206.05999,-1.766908 -39.10639,-10.799124 -0.009,-9.081689 c -0.007,-7.055841 0.22932,-9.019819 1.05965,-8.804346 5.0539,1.311526 76.99122,21.369948 77.26924,21.545133 0.1996,0.125776 0.25718,4.213535 0.12795,9.083913 l -0.235,8.855231 z M 178.65414,62.537441 c -20.92571,-5.829346 -38.52767,-10.79142 -39.11547,-11.026821 -1.2373,-0.495514 -1.58265,-18.361152 -0.34897,-18.053343 0.39585,0.09877 18.27933,5.028323 39.74104,10.954564 l 39.0213,10.774982 0.0156,9.024048 c 0.009,4.963226 -0.27289,9.001852 -0.62557,8.97472 -0.35269,-0.02715 -17.76228,-4.818798 -38.68799,-10.64815 z m 205.62342,-1.911245 -39.32922,-10.882749 -0.23487,-9.058856 c -0.22001,-8.486053 -0.13893,-9.035895 1.28248,-8.695777 0.83454,0.199693 18.64925,5.091669 39.58825,10.871063 l 38.07091,10.507994 18.99921,-7.000554 18.99921,-7.000549 V 48.436884 57.507 l -16.45842,6.042799 c -9.05214,3.323538 -17.61266,6.473976 -19.02338,7.000975 l -2.56495,0.958176 z M 33.734514,61.63739 15.779871,56.596924 15.545452,47.675949 c -0.12893,-4.906534 0.0964,-8.920974 0.500741,-8.920974 0.404338,0 8.974159,2.289511 19.044046,5.087807 l 18.308886,5.087801 0.234418,8.919676 c 0.182988,6.96274 -0.0046,8.909569 -0.854983,8.873634 -0.599171,-0.02532 -9.168991,-2.31425 -19.044046,-5.086503 z M 219.26584,54.184922 179.93662,43.278458 179.70174,34.219602 c -0.22002,-8.486366 -0.13897,-9.035842 1.28248,-8.694776 0.83454,0.200243 18.73457,5.12025 39.77784,10.933354 l 38.26049,10.569272 v 9.063117 c 0,4.984712 -0.0962,9.049095 -0.21375,9.031963 -0.11756,-0.01713 -17.91189,-4.939053 -39.54296,-10.93761 z M 54.467853,47.777261 15.352379,36.931821 v -9.039882 -9.039882 l 5.028427,1.374166 c 2.765635,0.75579 20.55997,5.665615 39.542966,10.910726 l 34.514539,9.536565 0.234418,9.007589 c 0.12893,4.954176 -0.06344,8.992742 -0.427491,8.974597 -0.36405,-0.01815 -18.263874,-4.913446 -39.777385,-10.878439 z m 205.215357,-1.932682 -38.24106,-10.591473 -0.0194,-9.024048 c -0.0107,-4.963227 0.10612,-9.024048 0.25955,-9.024048 0.15344,0 17.7554,4.832633 39.11548,10.739182 l 38.83647,10.739183 0.23442,8.925161 c 0.18302,6.968315 -0.004,8.914455 -0.85498,8.876339 -0.59917,-0.02683 -18.29788,-4.814985 -39.33047,-10.640296 z m 144.79682,0.738232 c -10.04947,-2.796636 -18.42717,-5.182718 -18.61711,-5.302396 -0.18993,-0.119683 -0.23959,-4.206386 -0.11036,-9.081565 l 0.23497,-8.863953 18.77379,5.209688 18.77378,5.209693 7.3032,-2.699219 c 4.01676,-1.484566 12.42725,-4.60206 18.68998,-6.927759 6.26273,-2.325699 11.56224,-4.228545 11.77669,-4.228545 0.21445,0 0.28442,4.054664 0.15549,9.010359 l -0.23442,9.010358 -18.38214,6.852582 c -10.11017,3.768922 -18.76688,6.862252 -19.23712,6.874067 -0.47024,0.0118 -9.07727,-2.266674 -19.12675,-5.06331 z M 95.953002,39.672524 56.428507,28.788116 56.41004,19.706427 c -0.01435,-7.052678 0.220301,-9.021839 1.050257,-8.813811 8.083958,2.026219 76.600853,21.188103 77.397923,21.645603 0.81781,0.469412 1.03171,2.801727 0.85498,9.322375 l -0.2357,8.696338 z M 301.34421,37.729531 262.86997,27.06295 262.63555,18.093364 c -0.12893,-4.933277 0.0634,-8.9626036 0.42749,-8.9540644 0.36405,0.00857 17.97532,4.8095054 39.13615,10.6688164 l 38.47424,10.653285 0.23442,8.995532 c 0.12893,4.947538 -0.0634,8.982849 -0.42749,8.967355 -0.36406,-0.01552 -17.97532,-4.828135 -39.13615,-10.694757 z M 136.33248,31.263733 97.858243,20.605007 97.623825,11.631898 c -0.12893,-4.9352116 0.0062,-8.9731147 0.300246,-8.9731147 0.294065,0 18.193889,4.8804798 39.777379,10.8455097 l 39.24272,10.845505 v 8.818839 c 0,6.713239 -0.25517,8.811069 -1.06872,8.786324 -0.5878,-0.01789 -18.38214,-4.828932 -39.54297,-10.691228 z m 206.18259,-1.687282 c -21.08841,-5.87347 -38.50756,-10.783004 -38.7092,-10.910073 -0.20166,-0.12707 -0.26091,-4.215626 -0.13168,-9.0856867 l 0.23497,-8.85464896 39.10965,10.79854166 39.10964,10.798542 0.006,9.024048 c 0.003,4.963227 -0.28274,8.99801 -0.63542,8.966187 -0.35268,-0.03184 -17.89539,-4.863434 -38.9838,-10.73691 z M 185.9215,25.369095 C 168.99283,20.684068 151.39087,15.813184 146.80602,14.544909 l -8.33608,-2.305954 V 3.408248 c 0,-4.8788098 0.34462,-8.8307016 0.77006,-8.8307016 0.42355,0 18.21788,4.8165788 39.54297,10.7035121 l 38.7729,10.7035125 0.23442,8.960831 c 0.12893,4.928455 -0.0634,8.95658 -0.42749,8.951381 -0.36405,-0.0054 -14.51264,-3.84266 -31.4413,-8.527688 z M 383.63633,21.355522 344.52085,10.507491 V 1.433226 c 0,-4.990848 0.28856,-8.9630669 0.64124,-8.8271566 1.98258,0.7640163 77.23703,21.3664456 78.04517,21.3664456 0.53443,0 9.20122,-3.030464 19.25954,-6.7343641 10.05832,-3.7039003 18.49941,-6.73436412 18.75796,-6.73436412 0.25857,0 0.36463,4.03124962 0.2357,8.95833122 l -0.23442,8.958326 -18.7632,6.934773 c -10.31976,3.814123 -18.97646,6.915319 -19.23712,6.891555 -0.26065,-0.02376 -18.07588,-4.924829 -39.58939,-10.89125 z M 33.119107,22.398756 15.404039,17.474384 15.378209,8.3926956 c -0.02006,-7.0525062 0.212963,-9.02252857 1.042899,-8.81692574 5.332621,1.32108828 35.512222,9.81284664 36.336779,10.22423004 0.77458,0.3864501 1.068729,2.8875501 1.068729,9.0872221 0,7.810019 -0.130136,8.548887 -1.49622,8.494963 -0.822921,-0.03249 -9.468001,-2.275029 -19.211289,-4.983429 z M 220.12082,15.310148 C 199.43023,9.5730303 181.82827,4.6198571 181.00534,4.3030887 c -1.32448,-0.5098344 -1.49622,-1.5647645 -1.49622,-9.1913564 0,-6.3873123 0.2679,-8.6154233 1.03585,-8.6154233 0.56972,0 18.44796,4.7881333 39.72944,10.6402957 L 258.968,7.7769 l 0.0273,9.024048 c 0.015,4.963226 -0.26128,9.005208 -0.61396,8.982187 -0.35268,-0.02301 -17.5699,-4.735869 -38.26049,-10.472987 z M 54.254108,8.6003619 15.779871,-2.0745157 15.545452,-11.021598 c -0.12893,-4.920897 0.06344,-8.945784 0.427492,-8.944194 0.36405,0.0016 18.167687,4.8419 39.563638,10.7562337 l 38.901729,10.7533464 0.234418,8.9081089 c 0.18294,6.951895 -0.0048,8.8988 -0.854983,8.865726 C 93.218576,19.294317 75.414938,14.471548 54.254108,8.6003619 Z M 260.51877,6.872712 221.40329,-3.9532309 v -9.0503661 -9.050371 l 15.17595,4.185758 c 8.34677,2.302172 26.04492,7.185679 39.32922,10.8522496 l 24.15327,6.6664817 v 9.0466215 c 0,4.9756392 -0.0962,9.0364662 -0.21374,9.0240642 -0.11756,-0.01239 -17.81571,-4.894229 -39.32922,-10.848495 z M 95.50704,0.40921476 56.391565,-10.42259 v -9.045366 -9.045366 l 13.465983,3.71133 c 7.406291,2.041234 25.200625,6.952692 39.542962,10.914357 l 26.07699,7.2030215 0.23442,8.9816914 c 0.12893,4.9399308 -0.0634,8.9732011 -0.4275,8.9628191 -0.36405,-0.0104 -18.26387,-4.893189 -39.77738,-10.85068224 z m 206.05449,-1.71202616 -39.1119,-10.8540066 -0.003,-9.017254 -0.003,-9.017254 4.48866,1.247926 c 2.46876,0.686361 20.16691,5.576581 39.32922,10.867162 l 34.84056,9.6192314 v 9.05976698 c 0,4.98286912 -0.0962,9.03471512 -0.21375,9.00409802 -0.11756,-0.030601 -17.8141,-4.9399632 -39.32564,-10.9096698 z M 136.55205,-7.7630923 97.442401,-18.621807 l -0.0058,-9.010714 -0.0058,-9.010714 1.923712,0.46945 c 3.562207,0.869293 72.771297,20.050179 75.192867,20.839247 l 2.39684,0.781019 v 8.8755259 c 0,4.88154118 -0.28855,8.8525964 -0.64123,8.8245706 -0.35268,-0.028015 -18.24058,-4.9373771 -39.75089,-10.9096698 z m 41.6746,-8.0893717 -39.32922,-10.906465 -0.23487,-9.058856 c -0.22004,-8.487071 -0.1391,-9.035733 1.28247,-8.692556 0.83454,0.20146 18.73457,5.1167 39.77784,10.922756 l 38.26049,10.556461 v 9.07371 c 0,4.9905406 -0.0962,9.0596913 -0.21374,9.042559 -0.11757,-0.017132 -17.9119,-4.9390526 -39.54297,-10.937609 z m -143.944009,-0.59931 c -10.043826,-2.789002 -18.421522,-5.171749 -18.617104,-5.294988 -0.195581,-0.123245 -0.249867,-4.215206 -0.120635,-9.093256 l 0.234969,-8.869174 18.809627,5.217371 18.809627,5.217365 0.234418,8.962884 c 0.12893,4.929581 -0.06344,8.955643 -0.427492,8.946796 -0.36405,-0.0088 -8.879585,-2.297991 -18.92341,-5.086998 z m 184.128209,-7.836731 -38.47423,-10.692279 -0.23488,-8.988545 c -0.21996,-8.418122 -0.13857,-8.96562 1.28248,-8.627329 0.83454,0.198664 18.73457,5.110531 39.77784,10.915257 l 38.26049,10.554041 v 8.811835 c 0,6.71498 -0.25432,8.800822 -1.06873,8.765567 -0.5878,-0.02543 -18.38214,-4.857793 -39.54297,-10.738547 z m -164.779496,-6.367412 -38.242007,-10.593354 -0.01848,-9.081688 c -0.01436,-7.053794 0.220158,-9.021399 1.050245,-8.811693 6.30144,1.591948 76.578311,21.164607 77.375965,21.549818 0.775719,0.374614 1.068729,2.86135 1.068729,9.070132 0,7.805403 -0.130944,8.549911 -1.49622,8.507081 -0.822921,-0.02581 -18.705123,-4.813955 -39.738228,-10.640296 z m 41.66194,-8.105798 -38.474237,-10.656754 -0.234419,-8.980064 c -0.128929,-4.93904 0.0031,-8.98007 0.293472,-8.98007 0.29034,0 18.190163,4.882261 39.777385,10.84947 l 39.249495,10.84947 v 8.814873 c 0,6.70741 -0.25551,8.808295 -1.06873,8.787354 -0.5878,-0.01514 -18.38214,-4.82306 -39.542966,-10.684279 z m 57.711356,-3.583555 c -11.99114,-3.353621 -29.40073,-8.199416 -38.68798,-10.768436 L 97.430751,-57.78465 v -8.837596 c 0,-4.860677 0.250783,-8.837594 0.557295,-8.837594 0.521217,0 70.108054,19.110875 76.177434,20.920873 l 2.77869,0.828655 v 8.789579 c 0,6.703596 -0.25363,8.775739 -1.06872,8.731265 -0.5878,-0.03206 -10.87966,-2.802185 -22.8708,-6.155802 z m -119.270136,-13.416841 -17.954643,-4.997673 -0.23471,-9.006773 c -0.226504,-8.691898 -0.17692,-8.995216 1.418318,-8.676176 0.909165,0.181828 9.479116,2.492775 19.044336,5.135438 l 17.39131,4.804841 0.234418,8.912537 c 0.182956,6.955945 -0.0047,8.902979 -0.854983,8.869006 -0.599171,-0.02394 -9.168991,-2.29248 -19.044046,-5.0412 z M 54.467853,-69.62817 15.352379,-80.459977 v -8.813663 c 0,-4.847515 0.317909,-8.813664 0.706465,-8.813664 0.388555,0 18.18289,4.832633 39.542966,10.739184 l 38.836501,10.739184 0.234418,8.925159 c 0.12893,4.908838 -0.06344,8.916667 -0.427491,8.906287 -0.36405,-0.01038 -18.263874,-4.893186 -39.777385,-10.85068 z"
         id="path114"
         inkscape:connector-curvature="0" />
      <path
         style="fill:#8f0202;stroke-width:0.67869091"
         d="m 424.03427,199.08102 v -8.8412 l 18.43607,-6.78253 c 10.13985,-3.7304 18.60418,-6.78254 18.80963,-6.78254 0.20546,0 0.37356,3.96985 0.37356,8.82188 v 8.82189 l -18.45088,6.80184 c -10.14798,3.74101 -18.61231,6.80184 -18.80962,6.80184 -0.19732,0 -0.35876,-3.97853 -0.35876,-8.84118 z m 0.19264,-19.44496 0.23486,-9.0133 17.95464,-6.66402 c 9.87505,-3.66521 18.2432,-6.66738 18.59588,-6.67149 0.35268,-0.004 0.64124,3.94211 0.64124,8.76937 v 8.77683 l -16.03093,5.88128 c -8.81702,3.23471 -17.29085,6.34328 -18.83074,6.90796 l -2.79981,1.02667 z m -0.19264,-19.8119 v -8.76935 l 18.16839,-6.67243 c 9.99262,-3.66983 18.46638,-6.77228 18.8306,-6.89433 0.3642,-0.12205 0.55657,3.82376 0.42749,8.76846 l -0.23471,8.99036 -17.95465,6.66118 c -9.87505,3.66365 -18.2432,6.66664 -18.59588,6.67332 -0.35268,0.007 -0.64124,-3.93406 -0.64124,-8.75721 z m 0,-19.4668 v -8.84119 l 18.43607,-6.78253 c 10.13985,-3.7304 18.60418,-6.78254 18.80963,-6.78254 0.20546,0 0.37356,3.9719 0.37356,8.82646 v 8.82647 l -18.42975,6.79726 c -10.13636,3.73849 -18.6007,6.79726 -18.80963,6.79726 -0.20893,0 -0.37988,-3.97854 -0.37988,-8.84119 z m 0.19291,-19.51881 0.23459,-9.01321 18.59588,-6.8724 18.59588,-6.872404 -0.007,8.992464 -0.007,8.99247 -16.78936,6.19562 c -9.23414,3.40759 -17.70477,6.5095 -18.8236,6.89314 l -2.03424,0.69752 0.23459,-9.0132 z m -0.17835,-19.47726 0.0145,-9.000777 15.16141,-5.524862 c 8.33877,-3.038674 16.79655,-6.143485 18.79507,-6.899587 l 3.63368,-1.374726 -0.018,9.054584 -0.018,9.054584 -7.8906,2.826143 c -4.33983,1.554381 -12.79606,4.634981 -18.79163,6.845781 l -10.90103,4.01964 0.0145,-9.00078 z m -0.0146,-19.708281 v -8.821882 l 18.45088,-6.801843 c 10.14798,-3.741015 18.61232,-6.801842 18.80963,-6.801842 0.19731,0 0.35875,3.978533 0.35875,8.841185 v 8.841191 l -18.43607,6.782534 c -10.13984,3.730396 -18.60417,6.782539 -18.80963,6.782539 -0.20546,0 -0.37356,-3.969848 -0.37356,-8.821882 z m 0.19279,-19.492477 0.23471,-8.999309 17.95464,-6.642927 c 9.87505,-3.653614 18.2432,-6.652582 18.59588,-6.664375 0.35268,-0.0118 0.64124,3.925832 0.64124,8.750282 v 8.771736 l -18.16839,6.675328 c -9.99262,3.67143 -18.46638,6.772809 -18.83059,6.891948 -0.36421,0.119144 -0.55658,-3.833065 -0.42749,-8.782683 z m -0.19279,-19.545581 v -8.992327 l 13.86065,-5.110999 c 7.62335,-2.811053 16.09711,-5.916306 18.83057,-6.900574 l 4.96994,-1.789574 -0.2347,8.998264 -0.23469,8.998258 -18.59588,6.894641 -18.59589,6.894642 z m 0,-19.621551 v -8.757835 l 16.03094,-5.9026382 c 8.81701,-3.2464484 17.28134,-6.3600466 18.80962,-6.9191012 l 2.7787,-1.01646871 V 9.2822351 18.167113 l -18.34348,6.792059 c -10.08892,3.735638 -18.55325,6.792064 -18.80963,6.792064 -0.25638,0 -0.46615,-3.941025 -0.46615,-8.757836 z"
         id="path112"
         inkscape:connector-curvature="0" />
    </g>
  </g>
</svg>
