<?xml version="1.0" encoding="UTF-8" standalone="no"?>
<!-- Created with Inkscape (http://www.inkscape.org/) -->

<svg
   xmlns:dc="http://purl.org/dc/elements/1.1/"
   xmlns:cc="http://creativecommons.org/ns#"
   xmlns:rdf="http://www.w3.org/1999/02/22-rdf-syntax-ns#"
   xmlns:svg="http://www.w3.org/2000/svg"
   xmlns="http://www.w3.org/2000/svg"
   xmlns:sodipodi="http://sodipodi.sourceforge.net/DTD/sodipodi-0.dtd"
   xmlns:inkscape="http://www.inkscape.org/namespaces/inkscape"
   version="1.1"
   id="svg2"
   width="148mm"
   height="210mm"
   viewBox="0 0 559.37009 793.7008"
   sodipodi:docname="General_officebuilding.svg"
   inkscape:version="0.92.2 (5c3e80d, 2017-08-06)">
  <metadata
     id="metadata8">
    <rdf:RDF>
      <cc:Work
         rdf:about="">
        <dc:format>image/svg+xml</dc:format>
        <dc:type
           rdf:resource="http://purl.org/dc/dcmitype/StillImage" />
        <dc:title></dc:title>
      </cc:Work>
    </rdf:RDF>
  </metadata>
  <defs
     id="defs6" />
  <sodipodi:namedview
     pagecolor="#ffffff"
     bordercolor="#666666"
     borderopacity="1"
     objecttolerance="10"
     gridtolerance="10"
     guidetolerance="10"
     inkscape:pageopacity="0"
     inkscape:pageshadow="2"
     inkscape:window-width="1920"
     inkscape:window-height="1001"
     id="namedview4"
     showgrid="false"
     units="mm"
     inkscape:zoom="0.65921788"
     inkscape:cx="390.52542"
     inkscape:cy="364.0678"
     inkscape:window-x="-9"
     inkscape:window-y="-9"
     inkscape:window-maximized="1"
     inkscape:current-layer="svg2" />
  <g
     id="g12"
     transform="translate(18.203394)">
    <path
       style="fill:#989797;stroke-width:2.02226448"
       d="M 118.66468,523.46986 V 256.27284 h 10.78571 c 5.93214,0 11.78989,-1.18755 13.01723,-2.63899 1.68278,-1.99003 2.23153,-33.08502 2.23153,-126.45126 V 3.370306 H 256.27541 367.85168 V 127.18259 c 0,93.36624 0.54875,124.46123 2.23153,126.45126 1.22734,1.45144 7.08509,2.63899 13.01723,2.63899 h 10.78571 V 523.46986 790.66688 H 256.27541 118.66468 Z m 74.01226,191.986 c 3.21461,-3.80156 2.909,-29.14484 -0.39049,-32.38318 -1.60307,-1.57334 -7.56511,-2.31896 -15.34174,-1.91862 l -12.71972,0.65477 -0.55625,15.17589 c -0.30595,8.34673 -0.123,16.51108 0.40653,18.14301 1.25067,3.85425 25.38583,4.13117 28.60167,0.32813 z m 51.51105,-16.05381 v -17.59322 h -13.94704 -13.94703 l -0.55626,15.17589 c -0.79054,21.56768 -0.90041,21.41579 14.9413,20.65732 l 13.50903,-0.64677 z m 52.06892,0 v -17.59322 h -13.94703 -13.94704 l -0.55625,15.17589 c -0.79055,21.56768 -0.90042,21.41579 14.9413,20.65732 l 13.50902,-0.64677 z m 52.06893,0 v -17.59322 l -12.71972,-0.65477 c -7.77664,-0.40034 -13.73868,0.34528 -15.34173,1.91862 -3.35332,3.29117 -3.60105,28.58641 -0.318,32.46893 1.50961,1.78525 6.79926,2.50558 15.34174,2.08919 l 13.03771,-0.63553 z M 193.77971,650.84083 c 0.62082,-1.91322 1.12876,-8.76987 1.12876,-15.23698 0,-15.35314 -2.80476,-18.67002 -15.78738,-18.67002 -15.52107,0 -15.8259,0.35752 -15.8259,18.56155 0,8.74051 0.55788,16.5516 1.23974,17.35794 0.68185,0.80636 7.2869,1.46611 14.67788,1.46611 10.53836,0 13.68171,-0.75064 14.5669,-3.4786 z m 50.96072,-13.92086 c 0.64268,-18.96221 -0.0125,-19.90387 -13.88248,-19.95247 -15.14044,-0.053 -15.49383,0.36955 -15.49383,18.52788 0,8.74051 0.59105,16.59083 1.31346,17.44513 0.7224,0.85431 7.20777,1.26665 14.41193,0.91632 l 13.09848,-0.63698 z m 52.06893,0 c 0.64268,-18.96221 -0.0125,-19.90387 -13.88249,-19.95247 -15.14043,-0.053 -15.49383,0.36955 -15.49383,18.52788 0,8.74051 0.59106,16.59083 1.31346,17.44513 0.72241,0.85431 7.20778,1.26665 14.41194,0.91632 l 13.09847,-0.63698 z m 52.06893,0 c 0.64863,-19.13805 0.0787,-19.90492 -14.83156,-19.95247 -13.65742,-0.0435 -16.40437,3.07717 -16.40437,18.63635 0,18.7653 0.19944,18.98596 16.49895,18.25345 l 14.18453,-0.63745 z M 193.77971,587.06541 c 1.65053,-5.08658 1.32488,-25.73816 -0.45828,-29.06244 -1.08457,-2.02192 -5.54328,-2.66225 -15.31326,-2.19915 l -13.78318,0.65332 -0.56062,14.06286 c -0.30834,7.73457 -0.12539,15.40411 0.40654,17.04343 1.49939,4.62079 28.19301,4.17331 29.7088,-0.49802 z m 51.33808,-14.20712 v -17.68574 l -14.41194,0.64231 -14.41193,0.64228 -0.56062,14.06286 c -0.30834,7.73457 -0.12539,15.40411 0.40654,17.04343 0.69534,2.14292 4.90322,2.98057 14.97255,2.98057 h 14.0054 z m 51.13912,0.0925 v -16.49365 l -14.41193,-0.64228 -14.41194,-0.64231 v 17.77824 17.77823 l 14.41194,-0.64231 14.41193,-0.64228 z m 52.06893,0 v -16.49365 l -13.78319,-0.65332 c -16.03446,-0.76003 -16.83072,0.0154 -16.87182,16.41731 -0.0459,18.31441 0.20967,18.5915 16.47048,17.86074 l 14.18453,-0.63744 z M 191.98623,525.51192 c 3.16519,-3.74313 4.11914,-26.09439 1.3352,-31.28437 -1.08457,-2.02192 -5.54328,-2.66225 -15.31326,-2.19915 l -13.78318,0.65332 -0.55244,16.29988 c -0.39159,11.55388 0.14986,16.82672 1.8596,18.10931 4.38865,3.29227 23.28889,2.16415 26.45408,-1.57899 z m 50.8946,1.57899 c 1.70974,-1.28259 2.25119,-6.55543 1.8596,-18.10931 l -0.55244,-16.29988 h -13.94704 -13.94703 l -0.55245,16.29988 c -0.64685,19.08525 -0.0401,19.91878 14.49948,19.91878 5.62531,0 11.31325,-0.81426 12.63988,-1.80947 z m 52.06892,0 c 1.70974,-1.28259 2.2512,-6.55543 1.85961,-18.10931 l -0.55245,-16.29988 h -13.94703 -13.94704 l -0.55244,16.29988 c -0.64685,19.08525 -0.0401,19.91878 14.49948,19.91878 5.6253,0 11.31325,-0.81426 12.63987,-1.80947 z m 52.06893,0 c 1.70974,-1.28259 2.2512,-6.55543 1.85961,-18.10931 l -0.55245,-16.29988 -13.78319,-0.65332 c -16.18315,-0.76707 -16.83161,-0.093 -16.87182,17.53967 -0.0374,16.35962 2.54219,19.41011 16.3759,19.366 5.80794,-0.0176 11.64531,-0.84795 12.97195,-1.84316 z M 192.67694,462.55333 c 3.21461,-3.80156 2.909,-29.14484 -0.39049,-32.38318 -1.60307,-1.57334 -7.56511,-2.31896 -15.34174,-1.91862 l -12.71972,0.65477 -0.55625,15.17589 c -0.30595,8.34673 -0.123,16.51108 0.40653,18.14301 1.25067,3.85425 25.38583,4.13117 28.60167,0.32813 z m 51.51105,-16.05381 V 428.9063 h -13.94704 -13.94703 l -0.55626,15.17589 c -0.79054,21.56768 -0.90041,21.41579 14.9413,20.65732 l 13.50903,-0.64677 z m 52.06892,0 V 428.9063 h -13.94703 -13.94704 l -0.55625,15.17589 c -0.79055,21.56768 -0.90042,21.41579 14.9413,20.65732 l 13.50902,-0.64677 z m 52.06893,0 V 428.9063 l -12.71972,-0.65477 c -7.77664,-0.40034 -13.73868,0.34528 -15.34173,1.91862 -3.35332,3.29117 -3.60105,28.58641 -0.318,32.46893 1.50961,1.78525 6.79926,2.50558 15.34174,2.08919 l 13.03771,-0.63553 z M 193.77971,397.9383 c 0.62082,-1.91322 1.12876,-8.76987 1.12876,-15.23698 0,-15.35314 -2.80476,-18.67002 -15.78738,-18.67002 -15.52107,0 -15.8259,0.35752 -15.8259,18.56155 0,8.74051 0.55788,16.5516 1.23974,17.35794 0.68185,0.80636 7.2869,1.46611 14.67788,1.46611 10.53836,0 13.68171,-0.75064 14.5669,-3.4786 z m 50.96072,-13.92086 c 0.64268,-18.96221 -0.0125,-19.90387 -13.88248,-19.95247 -15.14044,-0.053 -15.49383,0.36955 -15.49383,18.52788 0,8.74051 0.59105,16.59083 1.31346,17.44513 0.7224,0.85431 7.20777,1.26665 14.41193,0.91632 l 13.09848,-0.63698 z m 52.06893,0 c 0.64268,-18.96221 -0.0125,-19.90387 -13.88249,-19.95247 -15.14043,-0.053 -15.49383,0.36955 -15.49383,18.52788 0,8.74051 0.59106,16.59083 1.31346,17.44513 0.72241,0.85431 7.20778,1.26665 14.41194,0.91632 l 13.09847,-0.63698 z m 52.06893,0 c 0.64863,-19.13805 0.0787,-19.90492 -14.83156,-19.95247 -13.65742,-0.0435 -16.40437,3.07717 -16.40437,18.63635 0,18.7653 0.19944,18.98596 16.49895,18.25345 l 14.18453,-0.63745 z M 193.77971,334.16288 c 1.65053,-5.08658 1.32488,-25.73816 -0.45828,-29.06244 -1.08457,-2.02192 -5.54328,-2.66225 -15.31326,-2.19915 l -13.78318,0.65332 -0.56062,14.06286 c -0.30834,7.73457 -0.12539,15.40411 0.40654,17.04343 1.49939,4.62079 28.19301,4.17331 29.7088,-0.49802 z m 51.33808,-14.20712 v -17.68574 l -14.41194,0.64231 -14.41193,0.64228 -0.56062,14.06286 c -0.30834,7.73457 -0.12539,15.40411 0.40654,17.04343 0.69534,2.14292 4.90322,2.98058 14.97255,2.98058 h 14.0054 z m 51.13912,0.0925 v -16.49365 l -14.41193,-0.64228 -14.41194,-0.64231 v 17.77824 17.77823 l 14.41194,-0.64231 14.41193,-0.64228 z m 52.06893,0 v -16.49365 l -13.78319,-0.65332 c -16.03446,-0.76003 -16.83072,0.0154 -16.87182,16.41731 -0.0459,18.31441 0.20967,18.5915 16.47048,17.86075 l 14.18453,-0.63745 z M 219.81417,215.40865 c 2.33548,-7.19745 1.1725,-26.94365 -1.79348,-30.45119 -1.92785,-2.27986 -6.3056,-3.45581 -12.86513,-3.45581 -15.52107,0 -15.82591,0.35753 -15.82591,18.56156 0,8.74051 0.55789,16.55158 1.23974,17.35793 0.68185,0.80636 7.2869,1.4661 14.67788,1.4661 10.53836,0 13.68171,-0.75063 14.5669,-3.47859 z m 50.96072,-13.92085 c 0.64268,-18.96221 -0.0125,-19.90387 -13.88248,-19.95247 -15.14044,-0.053 -15.49383,0.36954 -15.49383,18.52788 0,8.74051 0.59106,16.59081 1.31346,17.44512 0.7224,0.85431 7.20778,1.26665 14.41193,0.91631 l 13.09848,-0.63697 z m 52.06893,0 c 0.64863,-19.13807 0.0787,-19.90492 -14.83155,-19.95247 -13.65741,-0.0436 -16.40437,3.07715 -16.40437,18.63634 0,18.7653 0.19944,18.98595 16.49895,18.25345 l 14.18452,-0.63745 z M 219.81417,151.63323 c 1.65053,-5.08658 1.32489,-25.73816 -0.45827,-29.06243 -1.08458,-2.02193 -5.54328,-2.66225 -15.31326,-2.19916 l -13.78318,0.65332 -0.56062,14.06286 c -0.30835,7.73457 -0.1254,15.40412 0.40654,17.04343 1.49938,4.62079 28.193,4.17331 29.70879,-0.49802 z m 51.33808,-14.11463 v -17.59322 h -14.87684 -14.87683 v 17.59322 17.59322 h 14.87683 14.87684 z m 51.13912,0 v -16.49364 l -13.78318,-0.65332 c -16.03445,-0.76002 -16.83072,0.0147 -16.87181,16.41731 -0.0459,18.3144 0.20965,18.59151 16.47047,17.86075 l 14.18452,-0.63745 z M 218.02069,90.079744 c 3.1652,-3.743129 4.11914,-26.094395 1.33521,-31.284369 -1.08458,-2.021927 -5.54328,-2.662245 -15.31326,-2.199152 l -13.78318,0.653318 -0.55245,16.299871 c -0.39159,11.553896 0.14987,16.826725 1.85961,18.109332 4.38864,3.292254 23.28888,2.164131 26.45407,-1.579 z m 50.8946,1.579 c 1.70974,-1.282607 2.2512,-6.555436 1.8596,-18.109332 l -0.55244,-16.299871 h -13.94704 -13.94703 l -0.55244,16.299871 c -0.64685,19.085259 -0.0401,19.918792 14.49947,19.918792 5.62531,0 11.31325,-0.814256 12.63988,-1.80946 z m 52.06893,0 c 1.70974,-1.282607 2.2512,-6.555436 1.8596,-18.109332 l -0.55245,-16.299871 -13.78318,-0.653318 c -9.76998,-0.463093 -14.22868,0.17723 -15.31326,2.199152 -2.78393,5.189974 -1.82999,27.54124 1.33521,31.284369 3.16519,3.743131 22.06543,4.871254 26.45408,1.579 z"
       id="path16"
       inkscape:connector-curvature="0" />
    <g
       id="g97">
      <g
         id="g93">
        <path
           style="fill:#797878;stroke-width:2.02226448"
           d="m 118.8115,522.92007 c 0.0807,-147.26075 0.49832,-266.75719 0.92795,-265.54766 0.46765,1.31657 5.81956,1.75785 13.33532,1.09958 l 12.55418,-1.09958 0.9298,-124.80256 c 0.61214,-82.164076 0.29447,-125.1186908 -0.9298,-125.7278615 -1.02278,-0.5089124 48.76813,-0.9252956 110.64646,-0.9252956 61.87834,0 111.66925,0.4163832 110.64647,0.9252956 -1.22427,0.6091707 -1.54195,43.5637855 -0.9298,125.7278615 l 0.9298,124.80256 12.55417,1.09958 c 7.51576,0.65827 12.86768,0.21705 13.33534,-1.09958 0.42962,-1.20953 0.8472,118.28691 0.92794,265.54766 l 0.14682,267.74681 H 256.27541 118.66468 Z m 74.35962,197.29656 c 3.11949,-1.97435 3.59695,-4.7373 3.59695,-20.81458 0,-16.07728 -0.47746,-18.84023 -3.59695,-20.81458 -4.54741,-2.87805 -22.53418,-2.9603 -28.82507,-0.13173 -4.60743,2.0716 -4.77007,2.78633 -4.77007,20.9628 0,17.45967 0.30204,18.96167 4.18411,20.807 5.79896,2.75648 25.05088,2.7507 29.41103,-0.009 z m 52.06892,0 c 3.11949,-1.97435 3.59696,-4.7373 3.59696,-20.81458 0,-16.07728 -0.47747,-18.84023 -3.59696,-20.81458 -4.54741,-2.87805 -22.53417,-2.9603 -28.82506,-0.13173 -4.60743,2.0716 -4.77007,2.78633 -4.77007,20.9628 0,17.45967 0.30204,18.96167 4.18411,20.807 5.79895,2.75648 25.05087,2.7507 29.41102,-0.009 z m 50.89581,0.13173 c 4.60698,-2.07131 4.77007,-2.78747 4.77007,-20.94631 0,-18.15884 -0.16309,-18.875 -4.77007,-20.94638 -6.29089,-2.8285 -24.27765,-2.74625 -28.82506,0.13173 -3.11874,1.97394 -3.59696,4.737 -3.59696,20.78274 0,15.30489 0.56295,18.89391 3.25431,20.74771 4.17286,2.87424 22.95765,3.02275 29.16771,0.23058 z m 52.06893,0 c 4.60698,-2.07131 4.77007,-2.78747 4.77007,-20.94631 0,-18.15884 -0.16309,-18.875 -4.77007,-20.94638 -6.2909,-2.8285 -24.27766,-2.74625 -28.82506,0.13173 -3.11875,1.97387 -3.59696,4.73693 -3.59696,20.78267 0,15.3049 0.56294,18.89391 3.25431,20.74771 4.17286,2.87425 22.95765,3.02276 29.16771,0.23058 z M 194.52045,656.84871 c 1.73946,-1.30506 2.25206,-7.20607 1.85961,-21.40806 l -0.54179,-19.60639 -16.57917,-0.64073 c -12.00922,-0.46408 -16.99912,0.14207 -18.10267,2.19916 -2.41203,4.49614 -1.88714,35.68439 0.65108,38.68606 2.53822,3.00166 28.911,3.6224 32.71294,0.76996 z m 52.30736,-1.21657 c 1.37334,-1.95691 1.96679,-9.80008 1.6224,-21.44173 l -0.54302,-18.35615 -16.57917,-0.64073 c -12.00921,-0.46408 -16.99912,0.14207 -18.10267,2.19916 -2.41203,4.49614 -1.88714,35.68439 0.65108,38.68606 3.28048,3.87946 30.17118,3.51501 32.95138,-0.44661 z m 51.84659,0.44661 c 2.53822,-3.00167 3.06311,-34.18992 0.65108,-38.68606 -1.10355,-2.05707 -6.09346,-2.66324 -18.10267,-2.19916 l -16.57917,0.64073 -0.54302,18.35615 c -0.34439,11.64165 0.24906,19.48482 1.6224,21.44173 2.7802,3.96162 29.6709,4.32607 32.95138,0.44661 z m 52.06892,0 c 2.53821,-3.00167 3.06311,-34.18992 0.65109,-38.68606 -1.10357,-2.05707 -6.09346,-2.66324 -18.10268,-2.19916 l -16.57917,0.64073 -0.5418,19.60639 c -0.39243,14.20199 0.12013,20.103 1.85961,21.40806 3.80194,2.85244 30.17474,2.2317 32.71295,-0.76996 z M 195.83827,572.95079 v -20.89195 l -15.52197,-0.64218 c -9.8442,-0.40726 -16.47638,0.29456 -18.13114,1.91865 -3.4007,3.33766 -3.65415,35.09326 -0.31164,39.04609 1.55598,1.84007 7.40804,2.5144 18.13114,2.08919 l 15.83361,-0.62786 z m 52.06892,0 v -20.89195 l -15.52196,-0.64218 c -9.8442,-0.40726 -16.47638,0.29456 -18.13115,1.91865 -3.4007,3.33766 -3.65415,35.09326 -0.31163,39.04609 1.55597,1.84007 7.40804,2.5144 18.13114,2.08919 l 15.8336,-0.62786 z m 50.76721,19.35254 c 3.28048,-3.87946 2.97229,-35.68017 -0.37765,-38.96802 -1.65477,-1.62409 -8.28695,-2.32591 -18.13115,-1.91865 l -15.52196,0.64218 -0.54511,18.50897 c -0.29981,10.17994 -0.11686,19.82872 0.40653,21.44173 1.25796,3.87676 30.92389,4.13184 34.16934,0.29379 z m 52.06892,0 c 3.28047,-3.87946 2.9723,-35.68017 -0.37765,-38.96802 -1.65477,-1.62409 -8.28695,-2.32591 -18.13114,-1.91865 l -15.52197,0.64218 -0.54511,18.50897 c -0.2998,10.17994 -0.11678,19.82872 0.40653,21.44173 1.25797,3.87676 30.92389,4.13184 34.16934,0.29379 z M 196.38006,510.46092 c 0.39245,-14.20199 -0.12015,-20.103 -1.85961,-21.40806 -3.80194,-2.85244 -30.17472,-2.2317 -32.71294,0.76996 -2.33717,2.76392 -3.15414,31.54359 -1.07713,37.94449 0.96857,2.98493 3.88716,3.45638 18.13114,2.92881 l 16.97675,-0.62881 z m 52.07015,1.25024 c 0.34439,-11.64165 -0.24906,-19.48482 -1.6224,-21.44173 -2.7802,-3.96162 -29.6709,-4.32607 -32.95138,-0.44661 -2.33717,2.76392 -3.15414,31.54359 -1.07712,37.94449 0.96857,2.98493 3.88715,3.45638 18.13114,2.92881 l 16.97674,-0.62881 z m 51.32695,15.97713 c 2.05717,-6.33974 1.21901,-35.11976 -1.10276,-37.86547 -1.34414,-1.58957 -7.85167,-2.63898 -16.36452,-2.63898 -8.51286,0 -15.02039,1.04941 -16.36452,2.63898 -2.36594,2.79794 -3.22254,37.2399 -0.99179,39.87796 0.68185,0.80636 8.54213,1.46611 17.46729,1.46611 13.08193,0 16.44635,-0.6743 17.3563,-3.4786 z m 52.06893,0 c 2.05716,-6.33974 1.219,-35.11976 -1.10277,-37.86547 -2.32177,-2.7457 -26.65817,-3.73691 -32.01906,-1.30412 -2.37131,1.07612 -2.9415,5.05484 -2.9415,20.52542 0,10.55481 0.55788,19.85032 1.23974,20.65666 0.68184,0.80636 8.54213,1.46611 17.46728,1.46611 13.08193,0 16.44635,-0.6743 17.35631,-3.4786 z M 193.17112,467.3141 c 3.11949,-1.97435 3.59695,-4.7373 3.59695,-20.81458 0,-16.07728 -0.47746,-18.84023 -3.59695,-20.81458 -4.54741,-2.87805 -22.53418,-2.9603 -28.82507,-0.13173 -4.60743,2.0716 -4.77007,2.78633 -4.77007,20.9628 0,17.45967 0.30204,18.96167 4.18411,20.807 5.79896,2.75648 25.05088,2.7507 29.41103,-0.009 z m 52.06892,0 c 3.11949,-1.97435 3.59696,-4.7373 3.59696,-20.81458 0,-16.07728 -0.47747,-18.84023 -3.59696,-20.81458 -4.54741,-2.87805 -22.53417,-2.9603 -28.82506,-0.13173 -4.60743,2.0716 -4.77007,2.78633 -4.77007,20.9628 0,17.45967 0.30204,18.96167 4.18411,20.807 5.79895,2.75648 25.05087,2.7507 29.41102,-0.009 z m 50.89581,0.13173 c 4.60698,-2.07131 4.77007,-2.78747 4.77007,-20.94631 0,-18.15884 -0.16309,-18.87499 -4.77007,-20.94638 -6.29089,-2.8285 -24.27765,-2.74625 -28.82506,0.13173 -3.11874,1.97394 -3.59696,4.737 -3.59696,20.78274 0,15.30489 0.56295,18.89391 3.25431,20.74771 4.17286,2.87424 22.95765,3.02275 29.16771,0.23058 z m 52.06893,0 c 4.60698,-2.07131 4.77007,-2.78747 4.77007,-20.94631 0,-18.15884 -0.16309,-18.87499 -4.77007,-20.94638 -6.2909,-2.8285 -24.27766,-2.74625 -28.82506,0.13173 -3.11875,1.97387 -3.59696,4.73693 -3.59696,20.78268 0,15.30489 0.56294,18.8939 3.25431,20.7477 4.17286,2.87425 22.95765,3.02276 29.16771,0.23058 z M 194.52045,403.94619 c 1.73946,-1.30507 2.25206,-7.20608 1.85961,-21.40807 l -0.54179,-19.60639 -16.57917,-0.64072 c -12.00922,-0.46409 -16.99912,0.14206 -18.10267,2.19915 -2.41203,4.49614 -1.88714,35.68439 0.65108,38.68606 2.53822,3.00166 28.911,3.6224 32.71294,0.76997 z m 52.30736,-1.21658 c 1.37334,-1.95691 1.96679,-9.80008 1.6224,-21.44173 l -0.54302,-18.35615 -16.57917,-0.64072 c -12.00921,-0.46409 -16.99912,0.14206 -18.10267,2.19915 -2.41203,4.49614 -1.88714,35.68439 0.65108,38.68606 3.28048,3.87946 30.17118,3.51501 32.95138,-0.44661 z m 51.84659,0.44661 c 2.53822,-3.00167 3.06311,-34.18992 0.65108,-38.68606 -1.10355,-2.05707 -6.09346,-2.66324 -18.10267,-2.19915 l -16.57917,0.64072 -0.54302,18.35615 c -0.34439,11.64165 0.24906,19.48482 1.6224,21.44173 2.7802,3.96162 29.6709,4.32607 32.95138,0.44661 z m 52.06892,0 c 2.53821,-3.00167 3.06311,-34.18992 0.65109,-38.68606 -1.10357,-2.05707 -6.09346,-2.66324 -18.10268,-2.19915 l -16.57917,0.64072 -0.5418,19.60639 c -0.39243,14.20199 0.12013,20.103 1.85961,21.40807 3.80194,2.85243 30.17474,2.23169 32.71295,-0.76997 z M 195.83827,320.04826 v -20.89195 l -15.52197,-0.64218 c -9.8442,-0.40726 -16.47638,0.29456 -18.13114,1.91865 -3.4007,3.33766 -3.65415,35.09326 -0.31164,39.04609 1.55598,1.84007 7.40804,2.5144 18.13114,2.08919 l 15.83361,-0.62786 z m 52.06892,0 v -20.89195 l -15.52196,-0.64218 c -9.8442,-0.40726 -16.47638,0.29456 -18.13115,1.91865 -3.4007,3.33766 -3.65415,35.09326 -0.31163,39.04609 1.55597,1.84007 7.40804,2.5144 18.13114,2.08919 l 15.8336,-0.62786 z m 50.76721,19.35254 c 3.28048,-3.87946 2.97229,-35.68017 -0.37765,-38.96802 -1.65477,-1.62409 -8.28695,-2.32591 -18.13115,-1.91865 l -15.52196,0.64218 -0.54511,18.50897 c -0.29981,10.17994 -0.11686,19.82872 0.40653,21.44173 1.25796,3.87676 30.92389,4.13184 34.16934,0.29379 z m 52.06892,0 c 3.28047,-3.87946 2.9723,-35.68017 -0.37765,-38.96802 -1.65477,-1.62409 -8.28695,-2.32591 -18.13114,-1.91865 l -15.52197,0.64218 -0.54511,18.50897 c -0.2998,10.17994 -0.11678,19.82872 0.40653,21.44173 1.25797,3.87676 30.92389,4.13184 34.16934,0.29379 z M 220.55492,221.41653 c 1.73946,-1.30505 2.25205,-7.20607 1.8596,-21.40806 l -0.54179,-19.60639 -16.57917,-0.64072 c -12.00922,-0.4641 -16.99912,0.14209 -18.10267,2.19915 -2.41203,4.49615 -1.88714,35.68438 0.65108,38.68606 2.53822,3.00166 28.91101,3.6224 32.71295,0.76996 z m 52.30736,-1.21657 c 1.37333,-1.95691 1.96679,-9.80007 1.6224,-21.44173 l -0.54302,-18.35615 h -17.66625 -17.66624 l -0.54302,18.35615 c -0.34439,11.64166 0.24907,19.48482 1.6224,21.44173 1.5177,2.16262 6.47918,3.08559 16.58686,3.08559 10.10769,0 15.06917,-0.92297 16.58687,-3.08559 z m 51.84658,0.44661 c 2.53821,-3.00168 3.0631,-34.18991 0.65108,-38.68606 -1.10356,-2.05707 -6.09345,-2.66325 -18.10267,-2.19915 l -16.57917,0.64072 -0.54179,19.60639 c -0.39245,14.20199 0.12015,20.10301 1.8596,21.40806 3.80194,2.85244 30.17474,2.2317 32.71295,-0.76996 z M 221.87273,137.5186 v -20.89194 l -15.52197,-0.64217 c -9.84419,-0.40728 -16.47638,0.29454 -18.13114,1.91863 -3.4007,3.33767 -3.65415,35.09326 -0.31164,39.04609 1.55598,1.84009 7.40805,2.5144 18.13115,2.0892 l 15.8336,-0.62786 z m 52.06893,0 v -20.89194 h -17.66625 -17.66624 l -0.54511,18.50897 c -0.2998,10.17993 -0.10475,19.86607 0.43348,21.52475 0.75298,2.32052 4.95146,2.86989 18.21135,2.38298 l 17.23277,-0.63281 z m 50.7672,19.35255 c 3.28047,-3.87947 2.9723,-35.68018 -0.37765,-38.96803 -1.65477,-1.62409 -8.28695,-2.32591 -18.13114,-1.91863 l -15.52197,0.64217 -0.54511,18.50897 c -0.29981,10.17993 -0.11686,19.82871 0.40654,21.44173 1.25796,3.87676 30.92387,4.13182 34.16933,0.29379 z M 222.41452,75.028742 c 0.39245,-14.201994 -0.12015,-20.103011 -1.8596,-21.40806 -3.80194,-2.852451 -30.17473,-2.231716 -32.71295,0.76996 -2.33717,2.763919 -3.15414,31.543587 -1.07713,37.944484 0.96857,2.984932 3.88716,3.456384 18.13115,2.928805 l 16.97674,-0.628799 z m 52.07016,1.25024 c 0.34439,-11.641662 -0.24907,-19.484824 -1.6224,-21.441736 -2.78021,-3.96161 -29.6709,-4.326071 -32.95138,-0.446604 -2.40604,2.845361 -3.2045,37.26123 -0.92697,39.954624 0.71751,0.848519 8.87652,1.26086 18.13114,0.916314 l 16.82659,-0.626448 z m 51.32694,15.977135 c 2.05717,-6.339751 1.21901,-35.119771 -1.10276,-37.865475 -2.32177,-2.745703 -26.65817,-3.736912 -32.01907,-1.304121 -2.3713,1.076104 -2.94149,5.054837 -2.94149,20.525422 0,10.55481 0.55788,19.850308 1.23973,20.656663 0.68186,0.806356 8.54213,1.466102 17.46729,1.466102 13.08193,0 16.44634,-0.674304 17.3563,-3.478591 z"
           id="path14"
           inkscape:connector-curvature="0" />
      </g>
    </g>
  </g>
  <path
     style="opacity:1;fill:#000000;fill-opacity:0;stroke-width:1.51694918"
     d="m 210.31186,90.44316 c -1.18017,-1.180177 -1.82033,-7.315065 -1.82033,-17.444915 V 57.373669 h 13.69008 c 13.29962,0 13.73229,0.110983 15.1695,3.891126 2.95178,7.763793 0.77877,27.068363 -3.34098,29.680439 -3.09938,1.965121 -21.62352,1.572668 -23.69827,-0.502074 z"
     id="path18"
     inkscape:connector-curvature="0" />
  <path
     style="opacity:1;fill:#000000;fill-opacity:0;stroke-width:1.51694918"
     d="m 261.5472,88.372373 c -1.70305,-4.479354 -1.90384,-13.826112 -0.51474,-23.96071 l 0.96467,-7.037994 h 12.48168 12.48169 l 0.96467,7.037994 c 1.3891,10.134598 1.1883,19.481356 -0.51474,23.96071 -1.40774,3.702618 -2.03421,3.891126 -12.93162,3.891126 -10.8974,0 -11.52388,-0.188508 -12.93161,-3.891126 z"
     id="path20"
     inkscape:connector-curvature="0" />
  <path
     style="opacity:1;fill:#000000;fill-opacity:0;stroke-width:1.51694918"
     d="m 314.9475,90.945234 c -4.11975,-2.612076 -6.29277,-21.916646 -3.34098,-29.680439 1.43721,-3.780143 1.86988,-3.891126 15.16949,-3.891126 h 13.69009 v 15.624576 c 0,10.12985 -0.64016,16.264738 -1.82034,17.444915 -2.07474,2.074742 -20.59888,2.467195 -23.69826,0.502074 z"
     id="path22"
     inkscape:connector-curvature="0" />
  <path
     style="opacity:1;fill:#000000;fill-opacity:0;stroke-width:1.51694918"
     d="m 210.38771,153.45377 c -1.34723,-0.54362 -1.89618,-5.35619 -1.89618,-16.62361 v -15.85848 l 14.03178,0.43617 14.03177,0.43616 1.34648,8.47893 c 1.92825,12.14249 0.1889,22.05546 -4.07026,23.19744 -3.98574,1.06867 -20.7481,1.02104 -23.44359,-0.0666 z"
     id="path24"
     inkscape:connector-curvature="0" />
  <path
     style="opacity:1;fill:#000000;fill-opacity:0;stroke-width:1.51694918"
     d="m 260.0678,137.77197 v -16.68644 h 14.41101 14.41102 v 16.68644 16.68644 H 274.47881 260.0678 Z"
     id="path26"
     inkscape:connector-curvature="0" />
  <path
     style="opacity:1;fill:#000000;fill-opacity:0;stroke-width:1.51694918"
     d="m 313.19433,152.99416 c -2.81501,-1.78008 -4.0465,-21.6881 -1.71578,-27.73702 1.58901,-4.12395 1.76379,-4.17161 15.29746,-4.17161 h 13.69009 v 15.73835 15.73835 l -4.74046,0.94809 c -7.01864,1.40373 -19.96418,1.10716 -22.53131,-0.51616 z"
     id="path28"
     inkscape:connector-curvature="0" />
  <path
     style="opacity:1;fill:#000000;fill-opacity:0;stroke-width:1.51694918"
     d="m 209.50282,217.15898 c -1.56385,-1.56386 -1.14836,-29.79639 0.47626,-32.36158 2.20148,-3.47602 21.78678,-3.16393 25.35473,0.40403 3.63006,3.63006 4.00643,29.22991 0.4628,31.47852 -2.571,1.63143 -24.73755,2.03526 -26.29379,0.47903 z"
     id="path30"
     inkscape:connector-curvature="0" />
  <path
     style="opacity:1;fill:#000000;fill-opacity:0;stroke-width:1.51694918"
     d="m 261.72311,215.39492 c -0.91042,-1.70114 -1.65531,-8.59888 -1.65531,-15.32831 0,-15.63021 2.10451,-18.30311 14.41101,-18.30311 6.50137,0 9.05954,0.71632 11.588,3.24478 2.98515,2.98515 3.17424,4.33348 2.36324,16.85145 -0.48485,7.48367 -1.30831,14.03344 -1.82992,14.55505 -0.52161,0.52161 -5.95987,1.20145 -12.08504,1.51075 -9.97076,0.5035 -11.30996,0.23857 -12.79198,-2.53061 z"
     id="path32"
     inkscape:connector-curvature="0" />
  <path
     style="opacity:1;fill:#000000;fill-opacity:0;stroke-width:1.51694918"
     d="m 313.16102,216.68283 c -3.57722,-2.26539 -3.23106,-27.7903 0.42645,-31.44623 3.60237,-3.60081 23.17431,-3.93935 25.39107,-0.4392 0.79261,1.25148 1.45156,8.84571 1.46433,16.87606 l 0.0232,14.60063 -4.74046,0.9481 c -7.06001,1.412 -19.97059,1.1034 -22.56462,-0.53936 z"
     id="path34"
     inkscape:connector-curvature="0" />
  <path
     style="opacity:1;fill:#000000;fill-opacity:0;stroke-width:1.51694918"
     d="m 190.28814,336.49321 -6.82628,-0.75937 -0.43009,-15.34894 -0.4301,-15.34894 4.79132,-0.95826 c 6.87014,-1.37403 19.98083,-1.1394 22.41246,0.4011 1.48339,0.93977 2.11472,5.22401 2.22132,15.07395 0.0819,7.56857 -0.33215,14.24212 -0.92014,14.83011 -1.73926,1.73926 -13.46726,2.92811 -20.81849,2.11035 z"
     id="path36"
     inkscape:connector-curvature="0" />
  <path
     style="opacity:1;fill:#000000;fill-opacity:0;stroke-width:1.51694918"
     d="m 247.51913,336.91443 c 2.69294,-0.33511 7.47133,-0.34062 10.61865,-0.0122 3.14731,0.32838 0.944,0.60256 -4.89625,0.60929 -5.84026,0.007 -8.41534,-0.26195 -5.7224,-0.59706 z"
     id="path38"
     inkscape:connector-curvature="0" />
  <path
     style="opacity:1;fill:#000000;fill-opacity:0;stroke-width:1.51694918"
     d="m 285.85593,319.80587 v -16.68644 l 10.23941,0.0207 c 17.7178,0.0359 17.06568,-0.63674 17.06568,17.60113 v 15.75104 h -13.65255 -13.65254 z"
     id="path40"
     inkscape:connector-curvature="0" />
  <path
     style="opacity:1;fill:#000000;fill-opacity:0;stroke-width:1.51694918"
     d="m 337.76383,333.83765 c -1.97388,-4.80688 -1.24582,-25.51533 0.99183,-28.21055 2.19504,-2.64391 13.47237,-3.41672 22.75811,-1.55958 l 4.74047,0.9481 v 15.73835 15.73834 h -13.70015 c -11.62119,0 -13.86558,-0.40284 -14.79026,-2.65466 z"
     id="path42"
     inkscape:connector-curvature="0" />
  <path
     style="opacity:1;fill:#000000;fill-opacity:0;stroke-width:1.51694918"
     d="m 182.70339,384.5796 c 0,-10.12985 0.64016,-16.26474 1.82034,-17.44491 1.05056,-1.05057 6.08297,-1.82034 11.90048,-1.82034 14.10963,0 15.91538,2.17705 15.6939,18.92101 -0.0912,6.89365 -0.64345,13.30676 -1.22724,14.25136 -0.66219,1.07144 -6.16315,1.71746 -14.62446,1.71746 h -13.56302 z"
     id="path44"
     inkscape:connector-curvature="0" />
  <path
     style="opacity:1;fill:#000000;fill-opacity:0;stroke-width:1.51694918"
     d="m 235.29096,399.19288 c -0.55621,-0.55622 -1.0113,-7.64022 -1.0113,-15.74223 0,-10.81328 0.56783,-15.20217 2.13511,-16.5029 1.32105,-1.09637 6.34204,-1.60097 13.16905,-1.32346 10.83636,0.4405 11.05573,0.53002 12.25102,4.99938 0.6694,2.50296 0.78626,10.18252 0.25971,17.06568 l -0.95739,12.51483 h -12.41745 c -6.8296,0 -12.87253,-0.45509 -13.42875,-1.0113 z"
     id="path46"
     inkscape:connector-curvature="0" />
  <path
     style="opacity:1;fill:#000000;fill-opacity:0;stroke-width:1.51694918"
     d="m 286.81525,395.51984 c -1.44348,-7.2174 -1.15302,-21.91378 0.52009,-26.31437 1.40629,-3.69882 2.04088,-3.89112 12.84069,-3.89112 14.18391,0 14.77847,0.84305 14.17954,20.10605 l -0.43608,14.0253 -13.07246,0.43537 -13.07246,0.43537 z"
     id="path48"
     inkscape:connector-curvature="0" />
  <path
     style="opacity:1;fill:#000000;fill-opacity:0;stroke-width:1.51694918"
     d="m 337.76383,397.54952 c -0.59956,-1.46007 -1.05804,-7.90879 -1.01885,-14.33049 0.096,-15.73954 2.00528,-17.90468 15.78843,-17.90468 5.81752,0 10.84992,0.76977 11.90049,1.82034 1.18018,1.18017 1.82034,7.31506 1.82034,17.44491 v 15.62458 h -13.70015 c -11.62119,0 -13.86558,-0.40284 -14.79026,-2.65466 z"
     id="path50"
     inkscape:connector-curvature="0" />
  <path
     style="opacity:1;fill:#000000;fill-opacity:0;stroke-width:1.51694918"
     d="m 183.71469,462.90474 c -0.55622,-0.55621 -1.0113,-8.40642 -1.0113,-17.44491 v -16.43362 h 12.70832 c 16.02536,0 16.66661,0.66243 16.78397,17.33841 0.11699,16.62226 -0.718,17.55142 -15.77267,17.55142 -6.43336,0 -12.15211,-0.45508 -12.70832,-1.0113 z"
     id="path52"
     inkscape:connector-curvature="0" />
  <path
     style="opacity:1;fill:#000000;fill-opacity:0;stroke-width:1.51694918"
     d="m 235.00018,460.50291 c -0.46983,-1.87723 -0.65349,-9.55678 -0.40814,-17.06568 l 0.4461,-13.65254 13.2733,-0.4383 13.27331,-0.4383 v 17.50398 17.50397 h -12.86517 c -12.07725,0 -12.91748,-0.20903 -13.7194,-3.41313 z"
     id="path54"
     inkscape:connector-curvature="0" />
  <path
     style="opacity:1;fill:#000000;fill-opacity:0;stroke-width:1.51694918"
     d="m 287.24729,459.79335 c -0.95857,-2.52125 -1.16261,-9.29764 -0.52526,-17.44492 l 1.04218,-13.32222 h 12.6984 12.69841 v 17.44492 17.44491 h -12.17314 c -11.84898,0 -12.21488,-0.10978 -13.74059,-4.12269 z"
     id="path56"
     inkscape:connector-curvature="0" />
  <path
     style="opacity:1;fill:#000000;fill-opacity:0;stroke-width:1.51694918"
     d="m 338.75566,461.40726 c -2.78352,-3.35422 -2.71512,-26.60097 0.0882,-29.97877 1.52866,-1.84192 4.9581,-2.40228 14.70204,-2.40228 h 12.70833 v 17.44492 17.44491 H 353.5459 c -9.97113,0 -13.15674,-0.54036 -14.79025,-2.50878 z"
     id="path58"
     inkscape:connector-curvature="0" />
  <path
     style="opacity:1;fill:#000000;fill-opacity:0;stroke-width:1.51694918"
     d="m 188.77119,527.66221 -5.30933,-0.79278 -0.42945,-17.12327 -0.42946,-17.12326 13.97643,0.43682 13.97643,0.43683 1.28848,4.55085 c 1.37439,4.85425 0.18129,23.28287 -1.70497,26.33489 -1.43745,2.32584 -14.41602,4.318 -21.36813,3.27992 z"
     id="path60"
     inkscape:connector-curvature="0" />
  <path
     style="opacity:1;fill:#000000;fill-opacity:0;stroke-width:1.51694918"
     d="m 235.82646,524.64978 c -0.96333,-1.79999 -1.47739,-8.99116 -1.2244,-17.12793 l 0.43608,-14.0253 13.05271,-0.43508 13.05272,-0.43508 0.82353,12.01512 c 0.45295,6.60831 0.35553,14.313 -0.21648,17.12152 l -1.04001,5.1064 -11.61184,0.44149 c -10.39252,0.39512 -11.7862,0.11569 -13.27231,-2.66114 z"
     id="path62"
     inkscape:connector-curvature="0" />
  <path
     style="opacity:1;fill:#000000;fill-opacity:0;stroke-width:1.51694918"
     d="m 288.08375,525.35248 c -0.39098,-1.25148 -1.05192,-3.35452 -1.46877,-4.67342 -0.41685,-1.3189 -0.31614,-8.14518 0.22379,-15.16949 l 0.98169,-12.77149 h 12.50798 c 14.71502,0 14.34953,-0.43072 14.34953,16.91023 0,17.18781 -0.63908,17.9796 -14.512,17.9796 -8.78063,0 -11.53331,-0.51841 -12.08222,-2.27543 z"
     id="path64"
     inkscape:connector-curvature="0" />
  <path
     style="opacity:1;fill:#000000;fill-opacity:0;stroke-width:1.51694918"
     d="m 340.02451,525.45266 c -4.62917,-4.62917 -5.01715,-28.61706 -0.51034,-31.55364 0.94072,-0.61297 7.36444,-1.12494 14.27492,-1.13772 l 12.56451,-0.0232 -0.42892,17.06567 -0.42892,17.06568 -11.58723,0.44 c -8.77234,0.33312 -12.1452,-0.11795 -13.88402,-1.85677 z"
     id="path66"
     inkscape:connector-curvature="0" />
  <path
     style="opacity:1;fill:#000000;fill-opacity:0;stroke-width:1.51694918"
     d="m 184.59958,588.89345 c -1.34181,-0.5947 -1.89619,-5.46022 -1.89619,-16.64196 v -15.80155 h 13.56302 c 8.24334,0 13.96827,0.65572 14.59626,1.67183 1.41,2.28143 1.43823,28.39733 0.0322,29.80334 -1.34952,1.34952 -23.58753,2.16844 -26.29531,0.96834 z"
     id="path68"
     inkscape:connector-curvature="0" />
  <path
     style="opacity:1;fill:#000000;fill-opacity:0;stroke-width:1.51694918"
     d="m 235.92341,587.70018 c -1.13697,-1.36997 -1.60626,-7.15244 -1.32346,-16.30721 l 0.43819,-14.18456 14.03178,-0.43616 14.03177,-0.43616 v 16.74337 16.74336 h -12.70832 c -9.03915,0 -13.21695,-0.61285 -14.46996,-2.12264 z"
     id="path70"
     inkscape:connector-curvature="0" />
  <path
     style="opacity:1;fill:#000000;fill-opacity:0;stroke-width:1.51694918"
     d="m 285.85593,573.13638 v -16.68644 h 13.65254 13.65255 v 15.75104 c 0,18.23787 0.65212,17.56529 -17.06568,17.60113 l -10.23941,0.0207 z"
     id="path72"
     inkscape:connector-curvature="0" />
  <path
     style="opacity:1;fill:#000000;fill-opacity:0;stroke-width:1.51694918"
     d="m 338.75566,587.31206 c -3.0301,-3.65423 -2.85459,-27.44967 0.21678,-29.39167 1.23868,-0.78319 7.88381,-1.43445 14.76697,-1.44722 l 12.51483,-0.0232 v 15.75104 c 0,18.13933 0.52694,17.56403 -16.12146,17.60113 -6.81839,0.0152 -9.84995,-0.64831 -11.37712,-2.49005 z"
     id="path74"
     inkscape:connector-curvature="0" />
  <path
     style="opacity:1;fill:#000000;fill-opacity:0;stroke-width:1.51694918"
     d="m 183.35605,651.53052 c -0.42299,-1.10229 -0.57222,-8.78184 -0.33163,-17.06567 l 0.43744,-15.06152 5.65772,-1.39771 c 3.45005,-0.85232 8.48137,-0.85232 12.89407,0 6.40891,1.23789 7.4528,2.0048 9.12935,6.70703 2.23285,6.26253 1.06503,25.92863 -1.64197,27.65081 -3.25117,2.06836 -25.30121,1.36588 -26.14498,-0.83294 z"
     id="path76"
     inkscape:connector-curvature="0" />
  <path
     style="opacity:1;fill:#000000;fill-opacity:0;stroke-width:1.51694918"
     d="m 235.20043,651.1352 c -1.46797,-3.82547 -1.01917,-28.46881 0.56408,-30.9734 1.88457,-2.98124 21.69119,-3.22133 24.60668,-0.29826 2.64882,2.6557 2.05488,30.68228 -0.68713,32.42346 -1.04043,0.66067 -6.7677,1.21168 -12.72727,1.22446 -8.49595,0.0182 -11.0344,-0.49488 -11.75636,-2.37626 z"
     id="path78"
     inkscape:connector-curvature="0" />
  <path
     style="opacity:1;fill:#000000;fill-opacity:0;stroke-width:1.51694918"
     d="m 287.70451,650.88002 c -0.59956,-1.46006 -1.0901,-8.68267 -1.0901,-16.05024 0,-16.49466 1.48583,-18.25327 14.66261,-17.35451 12.56742,0.8572 13.40095,2.00769 13.40095,18.49685 0,8.80554 -0.66899,14.59087 -1.82034,15.74223 -1.08476,1.08476 -6.31435,1.82034 -12.94168,1.82034 -9.16517,0 -11.31308,-0.46694 -12.21144,-2.65467 z"
     id="path80"
     inkscape:connector-curvature="0" />
  <path
     style="opacity:1;fill:#000000;fill-opacity:0;stroke-width:1.51694918"
     d="m 339.29653,652.26453 c -2.94531,-1.86934 -4.02455,-19.63862 -1.62191,-26.70412 1.66684,-4.90172 2.98928,-6.22621 7.34233,-7.35377 6.77614,-1.7552 18.1869,-0.51041 19.88473,2.16921 0.71835,1.13376 1.31655,8.64396 1.32933,16.68934 0.019,11.9538 -0.41543,14.79628 -2.37626,15.54872 -3.51178,1.3476 -22.30576,1.08022 -24.55822,-0.34938 z"
     id="path82"
     inkscape:connector-curvature="0" />
  <path
     style="opacity:1;fill:#000000;fill-opacity:0;stroke-width:1.51694918"
     d="m 184.59958,716.2419 c -1.35443,-0.54652 -1.89619,-5.4965 -1.89619,-17.32515 v -16.56003 h 13.62364 c 13.57495,0 13.62771,0.0149 14.76177,4.17161 0.62598,2.29439 1.12209,9.19679 1.10249,15.33867 -0.0445,13.92978 -1.59265,15.43015 -15.74606,15.25979 -5.4722,-0.0659 -10.80275,-0.46407 -11.84565,-0.88489 z"
     id="path84"
     inkscape:connector-curvature="0" />
  <path
     style="opacity:1;fill:#000000;fill-opacity:0;stroke-width:1.51694918"
     d="m 235.33123,720.80625 c -4.08128,-1.16363 -5.60242,-6.86666 -5.60242,-21.00462 0,-16.90441 1.27068,-19.88547 9.41434,-22.08638 7.36276,-1.98986 21.54934,-1.02137 24.82179,1.69452 1.65785,1.37589 2.16516,5.96849 2.14742,19.4399 -0.0128,9.70112 -0.67042,18.66235 -1.46144,19.91383 -1.06384,1.68312 -4.71032,2.34685 -14.00855,2.5498 -6.91369,0.15091 -13.8037,-0.0773 -15.31114,-0.50705 z m 20.73247,-3.00742 7.03799,-0.96466 v -17.9972 -17.9972 h -14.19971 -14.19972 l -0.95659,7.96398 c -1.62241,13.50722 -1.12988,23.00713 1.37848,26.58832 2.54953,3.63996 7.65834,4.22716 20.93955,2.40676 z"
     id="path86"
     inkscape:connector-curvature="0" />
  <path
     style="opacity:1;fill:#000000;fill-opacity:0;stroke-width:1.51694918"
     d="m 287.27164,713.18791 c -0.98548,-2.59202 -1.19483,-9.26117 -0.54961,-17.50897 l 1.04218,-13.32222 h 12.74808 12.74809 l -0.42892,17.06568 -0.42892,17.06568 -11.76955,0.44328 c -11.61943,0.43763 -11.78985,0.38988 -13.36135,-3.74345 z"
     id="path88"
     inkscape:connector-curvature="0" />
  <path
     style="opacity:1;fill:#000000;fill-opacity:0;stroke-width:1.51694918"
     d="m 339.79469,715.22237 c -2.4123,-1.76392 -2.94183,-4.09914 -3.0228,-13.33049 -0.054,-6.15557 0.42681,-13.06916 1.06845,-15.36355 1.16226,-4.15602 1.2177,-4.17161 14.83994,-4.17161 h 13.67332 l -0.42892,17.06568 -0.42892,17.06568 -11.38822,0.43642 c -7.98809,0.30611 -12.26141,-0.20208 -14.31285,-1.70213 z"
     id="path90"
     inkscape:connector-curvature="0" />
</svg>
