<?xml version="1.0" encoding="UTF-8" standalone="no"?>
<!-- Created with Inkscape (http://www.inkscape.org/) -->

<svg
   xmlns:dc="http://purl.org/dc/elements/1.1/"
   xmlns:cc="http://creativecommons.org/ns#"
   xmlns:rdf="http://www.w3.org/1999/02/22-rdf-syntax-ns#"
   xmlns:svg="http://www.w3.org/2000/svg"
   xmlns="http://www.w3.org/2000/svg"
   xmlns:sodipodi="http://sodipodi.sourceforge.net/DTD/sodipodi-0.dtd"
   xmlns:inkscape="http://www.inkscape.org/namespaces/inkscape"
   version="1.1"
   id="svg2"
   width="105mm"
   height="148mm"
   viewBox="0 0 396.85038 559.37007"
   sodipodi:docname="General_traditionalserver_LARGE.png"
   inkscape:version="0.92.2 (5c3e80d, 2017-08-06)">
  <metadata
     id="metadata8">
    <rdf:RDF>
      <cc:Work
         rdf:about="">
        <dc:format>image/svg+xml</dc:format>
        <dc:type
           rdf:resource="http://purl.org/dc/dcmitype/StillImage" />
        <dc:title></dc:title>
      </cc:Work>
    </rdf:RDF>
  </metadata>
  <defs
     id="defs6" />
  <sodipodi:namedview
     pagecolor="#ffffff"
     bordercolor="#666666"
     borderopacity="1"
     objecttolerance="10"
     gridtolerance="10"
     guidetolerance="10"
     inkscape:pageopacity="0"
     inkscape:pageshadow="2"
     inkscape:window-width="1920"
     inkscape:window-height="1001"
     id="namedview4"
     showgrid="false"
     units="mm"
     inkscape:zoom="0.83687943"
     inkscape:cx="103"
     inkscape:cy="236.59322"
     inkscape:window-x="-9"
     inkscape:window-y="-9"
     inkscape:window-maximized="1"
     inkscape:current-layer="svg2" />
  <g
     id="g3701"
     transform="translate(14.338981,-1.1949149)">
    <path
       style="fill:#9a9999;stroke-width:1.59986651"
       d="m 33.908755,500.02588 c -2.568809,-0.95083 -5.954419,-2.91194 -7.523579,-4.35801 -7.497972,-6.90977 -7.266531,0.26127 -7.266531,-225.14885 0,-210.060402 0.01979,-211.40807 3.207287,-218.36141 2.328595,-5.079703 5.022423,-7.924437 9.832659,-10.383479 6.539965,-3.343298 8.43897,-3.386958 147.315979,-3.386958 138.87701,0 140.77602,0.04366 147.31598,3.386958 4.81023,2.459042 7.50407,5.303776 9.83266,10.383479 3.1875,6.95334 3.20729,8.301008 3.20729,218.36141 0,225.40957 0.23044,218.26972 -7.26654,225.13058 -1.56915,1.43601 -5.23445,3.45552 -8.1451,4.48782 -7.13804,2.53153 -283.656327,2.42539 -290.510105,-0.11154 z M 288.45432,212.65836 V 199.50581 H 179.47457 70.494815 v 13.15255 13.15254 H 179.47457 288.45432 Z m 0,-46.0339 V 153.47192 H 179.47457 70.494815 V 166.62446 179.777 H 179.47457 288.45432 Z m -0.32373,-48.91102 -0.45469,-12.74152 H 179.47457 71.273242 l -0.454701,12.74152 -0.454702,12.74153 H 179.47457 288.5853 Z"
       id="path3705"
       inkscape:connector-curvature="0" />
    <path
       style="fill:#797878;stroke-width:1.59986651"
       d="m 38.226374,500.85903 c -1.906657,-0.3891 -6.760242,-3.85639 -10.785743,-7.70507 l -7.319094,-6.99761 -0.111743,-11.38884 C 19.447243,417.43227 20.91651,54.534341 21.707811,55.36997 c 0.567772,0.599579 2.317623,-1.141779 3.888558,-3.869684 1.570935,-2.727904 4.587347,-5.792754 6.703137,-6.810777 2.115791,-1.018022 3.477222,-2.482596 3.025403,-3.254609 -0.451819,-0.772013 64.415528,-1.403659 144.149661,-1.403659 79.73413,0 144.60148,0.631646 144.14965,1.403659 -0.45181,0.772013 0.90963,2.236587 3.02541,3.254609 2.11579,1.018023 5.13221,4.082873 6.70314,6.810777 1.57094,2.727905 3.32078,4.469263 3.88855,3.869684 0.7913,-0.835629 2.26057,362.0623 1.69803,419.39754 l -0.11178,11.38884 -7.20025,6.88399 c -3.96013,3.78619 -9.42673,7.35422 -12.14798,7.92896 -5.41339,1.14333 -275.629402,1.03739 -281.252997,-0.11032 z M 289.68634,227.70177 c 1.45627,-0.97565 1.8854,-5.3872 1.55685,-16.00449 l -0.45358,-14.65757 H 179.47457 68.159535 l -0.453583,14.65757 c -0.328556,10.61729 0.100588,15.02884 1.556853,16.00449 1.10574,0.7408 50.701035,1.34691 110.211765,1.34691 59.51073,0 109.10603,-0.60611 110.21177,-1.34691 z m 0,-46.0339 c 1.45627,-0.97564 1.8854,-5.38719 1.55685,-16.00448 l -0.45358,-14.65758 H 179.47457 68.159535 l -0.453583,14.65758 c -0.328556,10.61729 0.100588,15.02884 1.556853,16.00448 1.10574,0.7408 50.701035,1.34692 110.211765,1.34692 59.51073,0 109.10603,-0.60612 110.21177,-1.34692 z m 1.55332,-63.14866 c 0.44335,-14.18744 0.38968,-14.42609 -3.60427,-16.02966 -5.44964,-2.18802 -210.814227,-2.21121 -216.260797,-0.0244 -3.847105,1.54461 -3.993485,2.10706 -3.993485,15.34464 0,7.55769 0.471689,14.23937 1.048198,14.84817 0.576511,0.60881 50.843424,0.91707 111.704254,0.68503 l 110.65605,-0.42189 z"
       id="path3703"
       inkscape:connector-curvature="0" />
  </g>
  <path
     style="opacity:1;fill:#ffffff;fill-opacity:0;stroke-width:1.19491529"
     d="m 85.084766,124.83915 c 0.0047,-2.13591 0.351284,-7.51303 0.770248,-11.94916 l 0.761753,-8.06567 H 193.81356 301.01035 l 0.76176,8.06567 c 0.41896,4.43613 0.76557,9.81325 0.77024,11.94916 l 0.009,3.88347 H 193.81356 85.076271 Z"
     id="path3707"
     inkscape:connector-curvature="0" />
  <path
     style="opacity:1;fill:#ffffff;fill-opacity:0;stroke-width:1.19491529"
     d="M 85.076271,165.16754 V 152.62093 H 193.81356 302.55085 v 12.54661 12.54661 H 193.81356 85.076271 Z"
     id="path3709"
     inkscape:connector-curvature="0" />
  <g
     id="g3714">
    <path
       inkscape:connector-curvature="0"
       id="path3711"
       d="M 85.076271,211.76923 V 199.22262 H 193.81356 302.55085 v 12.54661 12.54661 H 193.81356 85.076271 Z"
       style="opacity:1;fill:#ffffff;fill-opacity:0;stroke-width:1.19491529" />
  </g>
</svg>
