<?xml version="1.0" encoding="UTF-8" standalone="no"?>
<!-- Created with Inkscape (http://www.inkscape.org/) -->

<svg
   xmlns:dc="http://purl.org/dc/elements/1.1/"
   xmlns:cc="http://creativecommons.org/ns#"
   xmlns:rdf="http://www.w3.org/1999/02/22-rdf-syntax-ns#"
   xmlns:svg="http://www.w3.org/2000/svg"
   xmlns="http://www.w3.org/2000/svg"
   xmlns:sodipodi="http://sodipodi.sourceforge.net/DTD/sodipodi-0.dtd"
   xmlns:inkscape="http://www.inkscape.org/namespaces/inkscape"
   version="1.1"
   id="svg2"
   width="210mm"
   height="148mm"
   viewBox="0 0 793.7008 559.37009"
   sodipodi:docname="General_Internet.svg"
   inkscape:version="0.92.2 (5c3e80d, 2017-08-06)">
  <metadata
     id="metadata8">
    <rdf:RDF>
      <cc:Work
         rdf:about="">
        <dc:format>image/svg+xml</dc:format>
        <dc:type
           rdf:resource="http://purl.org/dc/dcmitype/StillImage" />
        <dc:title></dc:title>
      </cc:Work>
    </rdf:RDF>
  </metadata>
  <defs
     id="defs6" />
  <sodipodi:namedview
     pagecolor="#ffffff"
     bordercolor="#666666"
     borderopacity="1"
     objecttolerance="10"
     gridtolerance="10"
     guidetolerance="10"
     inkscape:pageopacity="0"
     inkscape:pageshadow="2"
     inkscape:window-width="1920"
     inkscape:window-height="1001"
     id="namedview4"
     showgrid="false"
     units="mm"
     inkscape:zoom="0.95762712"
     inkscape:cx="412.74479"
     inkscape:cy="283.07965"
     inkscape:window-x="-9"
     inkscape:window-y="-9"
     inkscape:window-maximized="1"
     inkscape:current-layer="svg2" />
  <g
     id="g12"
     transform="translate(6.2654819,-1.0442479)">
    <path
       style="fill:#d1d2d2;stroke-width:2.24323082"
       d="M 139.54868,548.45032 C 102.9098,543.20222 74.679666,527.22685 47.746555,496.49978 27.989913,473.96008 20.776358,459.6245 16.666878,434.73481 12.902263,411.93383 14.225146,362.9428 19.20934,340.57846 29.077451,296.29972 58.642908,255.14975 95.565154,234.30447 l 16.616456,-9.38119 1.55095,-19.28738 c 2.92385,-36.36063 15.47089,-75.20818 33.44965,-103.56527 27.54501,-43.44547 73.04694,-75.544018 122.50525,-86.419179 24.43155,-5.372145 67.51621,-3.68135 90.56729,3.554181 48.04959,15.082345 90.09363,50.559517 115.25998,97.257518 4.43722,8.23359 9.27641,14.97016 10.75372,14.97016 1.47733,0 8.37504,-2.89181 15.32828,-6.42624 11.58977,-5.89127 14.79344,-6.42625 38.48293,-6.42625 24.62959,0 26.52574,0.35212 40.45707,7.513 28.64641,14.72461 49.79625,43.75723 55.81109,76.61242 1.41174,7.7115 2.76215,14.35417 3.00092,14.7615 0.23875,0.40733 6.98683,2.22839 14.99573,4.0468 38.16757,8.66591 78.20738,40.42156 99.68465,79.06006 14.19294,25.5337 17.77584,38.92761 20.00945,74.80131 3.85696,61.94657 -3.03921,87.92948 -32.09778,120.9355 -28.24178,32.07826 -55.19705,46.91021 -95.18636,52.37565 -34.42618,4.70509 -474.13792,4.49987 -507.20575,-0.23674 z m 175.50147,-119.07281 1.0767,-46.73634 30.14749,-1.16841 c 16.58112,-0.64263 30.08455,-2.06939 30.00761,-3.17059 -0.31286,-4.47823 -103.19698,-195.45612 -105.27845,-195.42233 -2.37342,0.0385 -101.96776,185.84509 -103.88948,193.81971 -1.06975,4.43918 0.16161,4.66595 28.72634,5.28981 l 29.84401,0.65181 1.19203,46.73634 c 0.65561,25.70499 1.38238,47.02146 1.61504,47.36995 0.23266,0.34849 19.56129,0.34849 42.95252,0 l 42.5295,-0.6336 z m 223.96819,-51.83962 c 27.82413,-52.28891 50.899,-96.98054 51.27746,-99.31474 0.63803,-3.93506 -1.51728,-4.24398 -29.60915,-4.24398 h -30.29726 l -0.033,-44.98374 c -0.0172,-24.74105 -0.8154,-46.32155 -1.7717,-47.95666 -1.33118,-2.2761 -11.54438,-2.82383 -43.57323,-2.33681 l -41.83449,0.63611 -1.0767,46.73634 -1.07669,46.73635 -30.1475,1.16841 c -22.99678,0.89126 -30.01361,1.88141 -29.58302,4.17444 1.19076,6.3414 102.56113,194.45502 104.7876,194.45502 1.29157,0 25.11351,-42.78184 52.93765,-95.07074 z"
       id="path20"
       inkscape:connector-curvature="0" />
    <path
       style="fill:#aeaeae;stroke-width:2.24323082"
       d="M 132.79847,546.23433 C 101.79209,538.91666 75.531533,523.27971 52.188069,498.23452 39.460551,484.57919 33.713093,476.10488 26.57079,460.46337 18.130037,441.97826 17.286422,438.47895 16.449353,418.47977 l -0.913183,-21.8177 4.175934,12.06307 c 7.287378,21.05115 18.264744,41.07791 30.16284,55.02815 23.286807,27.30323 60.103236,47.66871 95.958096,53.08045 22.97575,3.46784 474.8095,3.46784 497.78525,0 35.85487,-5.41174 72.67131,-25.77722 95.95812,-53.08045 11.89809,-13.95024 22.87544,-33.977 30.16282,-55.02815 l 4.17595,-12.06307 -0.91319,21.8177 c -0.83707,19.99918 -1.68068,23.49849 -10.12144,41.9836 -19.22936,42.11197 -60.42432,75.1112 -107.19409,85.86783 -20.63201,4.74516 -502.74974,4.65585 -522.88799,-0.0967 z"
       id="path18"
       inkscape:connector-curvature="0" />
    <path
       style="fill:#8b8a8a;stroke-width:2.24323082"
       d="M 132.1497,543.75011 C 74.03263,527.72032 33.515917,488.64726 19.236229,434.8599 c -1.929188,-7.26669 -3.362423,-17.78237 -3.184967,-23.36818 0.244851,-7.70724 0.532346,-8.46568 1.192349,-3.14556 1.338025,10.78548 12.639048,34.04523 23.932274,49.25739 21.365186,28.77924 53.536748,50.21692 89.099015,59.37159 18.43913,4.74671 22.49832,4.80838 270.25074,4.1053 281.65063,-0.79926 258.93107,0.59575 294.59827,-18.08884 20.54032,-10.76025 39.3094,-26.74246 52.89214,-45.03862 11.49302,-15.48128 21.90381,-36.68205 23.78605,-48.43841 1.30215,-8.13311 1.31118,-8.12206 1.61504,1.97715 0.16818,5.58581 -1.27285,16.10149 -3.20203,23.36818 -14.40512,54.25984 -54.98896,93.09487 -113.91975,109.01081 l -21.46644,5.79762 -241.17994,-0.1568 -241.17995,-0.1568 -20.31933,-5.60448 z"
       id="path16"
       inkscape:connector-curvature="0" />
    <path
       style="fill:#7c7b7b;stroke-width:2.24323082"
       d="m 273.59735,547.97138 c 66.62058,-0.34292 175.63607,-0.34292 242.25664,0 66.62058,0.34293 12.11284,0.62351 -121.12832,0.62351 -133.24115,0 -187.7489,-0.28058 -121.12832,-0.62351 z M 133.0885,541.64845 C 88.759127,531.05977 47.427409,497.51408 29.85116,457.85887 20.418394,436.57685 19.638605,426.81222 28.74844,444.05046 c 18.458654,34.92871 61.68114,67.10423 102.86854,76.57698 21.37347,4.91573 504.84391,4.91573 526.21739,0 41.07718,-9.44742 83.77594,-41.17018 103.0724,-76.57698 5.44074,-9.9831 6.46729,-10.99893 5.38193,-5.32568 -3.3171,17.33869 -14.89689,37.49982 -32.21229,56.08362 -20.11807,21.59177 -34.58045,31.48959 -61.00063,41.74784 l -18.86633,7.32532 -254.1003,0.42654 C 196.38538,544.65009 143.44733,544.12279 133.0885,541.64845 Z M 16.315121,416.52502 c 0,-5.78363 0.419946,-8.14965 0.933213,-5.25784 0.513268,2.89181 0.513268,7.62386 0,10.51568 -0.513267,2.89181 -0.933213,0.52578 -0.933213,-5.25784 z m 755.840719,0 c 0,-5.78363 0.41995,-8.14965 0.93321,-5.25784 0.51328,2.89181 0.51328,7.62386 0,10.51568 -0.51326,2.89181 -0.93321,0.52578 -0.93321,-5.25784 z"
       id="path14"
       inkscape:connector-curvature="0" />
  </g>
  <g
     id="g34">
    <path
       inkscape:connector-curvature="0"
       id="path31"
       d="m 234.83676,469.33139 c -0.32654,-3.30889 -0.85055,-18.23388 -1.16448,-33.16662 -0.31392,-14.93274 -0.85235,-33.32622 -1.19649,-40.87439 l -0.62573,-13.72395 -23.6367,-0.65246 c -27.98472,-0.77246 -33.91848,-1.45705 -34.39766,-3.96846 -0.39649,-2.07809 16.12656,-34.6369 44.93347,-88.5418 38.90526,-72.80142 57.23123,-105.60822 58.7233,-105.12532 1.93542,0.62639 57.72564,102.70625 90.31079,165.24244 11.28214,21.65226 14.29678,28.25233 13.18799,28.87284 -1.47707,0.8266 -22.30545,2.43637 -45.64429,3.52774 l -13.19659,0.61709 -0.66717,32.01225 c -0.36694,17.60674 -1.00723,38.59101 -1.42288,46.63172 l -0.75571,14.61947 -41.92708,0.27282 -41.92707,0.27282 z"
       style="opacity:1;fill:#ffffff;fill-opacity:0;stroke-width:1.04424775" />
  </g>
  <g
     id="g39">
    <path
       inkscape:connector-curvature="0"
       id="path36"
       d="M 486.61822,461.63287 C 461.69777,418.98126 386.57338,277.67836 388.0388,276.21294 c 1.14066,-1.14066 16.33859,-2.51225 36.43089,-3.28782 11.90489,-0.45954 22.00799,-1.19807 22.45133,-1.64118 0.44334,-0.44312 1.21659,-21.32532 1.71834,-46.40489 0.50175,-25.07958 1.06252,-45.76841 1.24614,-45.97517 0.66019,-0.74337 79.35507,-0.65083 82.01188,0.0964 2.49003,0.70036 2.77515,1.35975 3.38638,7.83185 0.36708,3.88691 0.67076,24.80627 0.67484,46.48747 l 0.007,39.42035 h 13.40919 c 19.16853,0 44.70532,1.21854 46.3091,2.20974 1.04841,0.64795 -0.0531,3.71405 -4.72592,13.15386 -20.41487,41.24191 -83.67615,159.3376 -95.71369,178.67764 l -2.89799,4.65603 z"
       style="opacity:1;fill:#ffffff;fill-opacity:0;stroke-width:1.04424775" />
  </g>
</svg>
